<svg id="Слой_1" data-name="Слой 1" xmlns="http://www.w3.org/2000/svg" viewBox="0 0 660 70.45"><defs><style>.cls-1{fill:#ffe990;}</style></defs><path class="cls-1" d="M612.7,42.45l-.17-.17v-.51h1v.17A3.81,3.81,0,0,1,612.7,42.45ZM63.94,53l-.17-.17a.17.17,0,0,1,.17-.17h.17C64.28,52.66,64.28,52.83,63.94,53Zm-2-.17c-.17,0-.17.17-.34.17a1.58,1.58,0,0,1-2-1v-.34c0-.17.17-.17.34-.17a10.09,10.09,0,0,1,1.36.68c0,.17.17.34.17.51.17,0,.34-.17.51-.17h.17C61.89,52.66,61.89,52.66,61.89,52.83ZM53.72,53l-.17-.17.17-.17a.17.17,0,0,1,.17.17ZM48.1,68c-.17,0-.17-.17-.34-.17l.17-.17.17.17ZM46.9,49.77a.62.62,0,0,1-.51-.17c.34,0,.51.17.85.17ZM43.67,67.13c-.17.17-.34.17-.51-.17l.17-.17a.17.17,0,0,1,.17.17C43.84,67,43.84,67.13,43.67,67.13Zm-1.54-2.89L42,64.07a.17.17,0,0,1,.17-.17h.17C42.47,63.9,42.3,64.07,42.13,64.24ZM23.06,53l-.17-.17h.34C23.4,52.83,23.23,52.83,23.06,53Zm-1.71.85c-.17-.17-.34-.17-.51-.34a.88.88,0,0,1,.68-.34c.17,0,.34.17.51.34C21.69,53.68,21.52,53.68,21.35,53.85ZM17.26,42.62a.17.17,0,0,1-.17-.17c.17,0,.17-.17.34-.17s.17.17.35.17C17.6,42.45,17.43,42.62,17.26,42.62ZM9.77,31.21c.17-.17.34-.51.51-.51a1.45,1.45,0,0,1,.85-.51c.34-.17.51,0,.68.17-.17.34-.34.51-.51.85,0,.17-.17.34-.34.51h-.34C10.28,31.38,9.94,31.38,9.77,31.21Zm2-6.13c0-.17.17-.17.17-.34h.68l.18.17H13l-1,.51A.59.59,0,0,0,11.81,25.08Zm.85-7a.17.17,0,0,1-.17-.17c.17,0,.17,0,.35-.17l.17.17A.54.54,0,0,1,12.66,18.1ZM80.46.4c.68,0,1.53.17,1.88-.17.68-.34,1.19.34,1.7,0,.51-.17,1.36-.17,1.87-.34a8.36,8.36,0,0,1,2-.17c.34,0,.68.17.68.34.17.34,0,.51-.34.51H86.59a.17.17,0,0,0-.17.17l.17.17h1c.17,0,.17,0,.34.17.17,0,0,.17-.34.17a7.51,7.51,0,0,0-2.73.34,4.14,4.14,0,0,1-2,0C82,1.25,80.63,1.25,80.46.4Zm8.86,1.87h0c.17-.34.51-.34,1-.34.17,0,.17,0,.17.17.17,0,0,.17-.17.17-.34,0-.51-.17-1,0,.17,0,.17-.17,0,0l-.17.17H89C88.81,2.27,89.15,2.27,89.32,2.27Zm5.45-.68.17.17-.17.17C94.43,1.76,94.43,1.59,94.77,1.59ZM97.67.23a.17.17,0,0,1,.17.17.17.17,0,0,0-.17.17H97.5C97.5.23,97.67.23,97.67.23Zm4.43,3.91h.34v.17A.53.53,0,0,0,102.1,4.14Zm3.06-2.21a1.27,1.27,0,0,1,.85-.17c.34.17.51.17.85.34-.17,0-.34.17-.51.17a1.29,1.29,0,0,0-.68.17h-.34a.62.62,0,0,1-.51-.17A.37.37,0,0,1,105.16,1.93ZM515.1,3a.17.17,0,0,1,.17.17.17.17,0,0,0-.17.17h-.17C515.1,3.12,515.1,3.12,515.1,3Zm3.75-1,.17.17a.17.17,0,0,0-.17.17h-.18C518.67,2.1,518.67,1.93,518.85,1.93Zm.51.68.17.17-.17.17C519,2.78,519,2.78,519.36,2.61Zm2.21-1,.17.17-.17.17C521.23,1.76,521.23,1.59,521.57,1.59Zm1.87,1.19h.17c.18,0,.18.17-.17.17V2.78C523.44,3,523.27,3,523.44,2.78Zm3.58-1c.34-.17.68-.51,1.19-.17.34.17.52-.17.86,0,.17,0,.51.17.34.17,0,.17-.17.34-.34.51h-1.88C526.85,1.93,526.85,1.93,527,1.76ZM539,5a2.46,2.46,0,0,1,1.19.34,2.88,2.88,0,0,0,1.7,0,1.71,1.71,0,0,0,.51-.17c1.54.68,3.41.17,5.11.34a25.69,25.69,0,0,1,3.41.34A13.79,13.79,0,0,0,553.6,6a17.46,17.46,0,0,1,5.28.51c.51.17,1.36-.17,1.7.34-.68.34-1.36,0-2,.17h-4.43a8.32,8.32,0,0,0-2.05.17,2.34,2.34,0,0,1-1.53,0c-.51-.34-1,0-1.36,0l-1.54-.51a5.24,5.24,0,0,0-1.7-.17c-.68-.17-1.36.34-1.87.17a5.52,5.52,0,0,0-2.39-.17h-2a3.44,3.44,0,0,1-1.54-.34c-.17-.17-.34-.34-.34-.51C537.75,5,538.43,5,539,5Zm22.48,2a1,1,0,0,1,.85-.34h1.37a25.79,25.79,0,0,0,3.57.51.59.59,0,0,1,.34.17c0,.17,0,.34-.51.51-.51,0-.85.17-.85.34.68.17,1.36.68,2.39.17a8.16,8.16,0,0,1,2,0,.37.37,0,0,1,.34.34c.17.17-.17.34-.51.34-2.56,0-5.11-.17-7.67-.17-.51,0-.85-.17-.85-.51,0-.17-.34-.34-.51-.51-.17,0-.51-.17-.51-.34S561.26,7.21,561.43,7Zm1.19-2.21h.17c.17.17.17.17-.17,0a.17.17,0,0,1-.17.17Zm5.45-.35.17-.17h.18a2.87,2.87,0,0,0,.85.69c.51.34.68,0,.68-.17l.34-.17c0,.17.17.17.17.34,0,.68-.17.68-1.7.68-.86,0-1-.17-1-.51A1.28,1.28,0,0,0,568.07,4.48Zm4.94.18c.86-.18,1.37.34,2.22.51a.17.17,0,0,1,.17.17,1.29,1.29,0,0,0-.68.17c-.34,0-.51.17-.51.34h.85c.17,0,.17,0,.17.17a.59.59,0,0,1-.34.17H574l.51.51a.53.53,0,0,1,.17.34,3.84,3.84,0,0,1-2.22,1c-.17,0-.34-.17-.51-.17.51-.34.85-.51.34-1a3.05,3.05,0,0,0-1.87-.51c-.17,0-.17,0-.34-.17H574V5.85A4,4,0,0,1,572.33,5l-.17-.17A7.36,7.36,0,0,0,573,4.66ZM581.87,15a1.53,1.53,0,0,1-.85-.17V14.7a.62.62,0,0,1,.51.17A.53.53,0,0,0,581.87,15ZM541.5,7.55h-.17c-.17,0-.34-.17-.51-.17s-.17-.17-.17-.34h.51c.34,0,.68.17.51.34A.17.17,0,0,1,541.5,7.55Zm3.58,3.74c0,.17-.34.34-.51.34a8.36,8.36,0,0,1-2.05-.17c-.17,0-.17-.17-.17-.34-.17,0-.34,0-.34-.17-.17-.17,0-.17.17-.17v.34a.62.62,0,0,0,.51-.17,1.55,1.55,0,0,1,1.71,0c.17.17.34.17.68.34h0l.34-.34c.17,0,.34,0,.17.17A.62.62,0,0,0,545.08,11.29ZM613.56,22.7c0,.17-.17.17-.34.34V22.7ZM625.82,20a.33.33,0,0,1,.51.17C625.82,20.15,626,20,625.82,20Zm5.79,1.7c-.34,0-.17-.17-.51,0C630.93,21.51,631.78,21.51,631.61,21.68Zm-.34.68c.17-.17.17-.17.34-.17C631.61,22.36,631.44,22.36,631.27,22.36Zm-1,2c.17.17.34.17.17,0,.34.17,1.19,0,1.36.17,0,.17-.17.17,0,.34a7.62,7.62,0,0,1-2,.17.17.17,0,0,0,.17.17c0-.17,0-.17.34-.17.17.17.17.17,0,.17h.17c0,.17.85.34,1,.17-.17,0-.17,0-.34-.17.17,0,.17,0,.34-.17.34,0,.17.17.34.17.17-.17.17.17.17.17a.59.59,0,0,1,.34-.17v.17l-.68.17s0-.17-.17,0a14.57,14.57,0,0,1-2.21-.51c.17,0,.34-.17.51-.17a3.15,3.15,0,0,1-1.19-.34v-.34h.17s-.17,0,0,.17c.85,0,.34.34,1.19.34.17,0,.17-.17.51-.34C629.91,24.57,630.08,24.4,630.25,24.4Zm4.09.68-.51.17c-.17,0-.17,0-.17-.17C633.83,25.08,634.17,24.91,634.34,25.08Zm.17-.17h0Zm-1.36,3.58h.34v.17h.17c-.17.17-.69,0-.51-.17a4.22,4.22,0,0,1-2-.17c.51,0,1.19-.17,1.88-.17,0,0-.35,0-.18.17C633,28.32,633.15,28.32,633.15,28.49Zm-2.9.17c0-.34.51-.17,1-.17C631.1,28.66,630.42,28.66,630.25,28.66Zm-7.5,5.62c.17.17,0,.17,0,0a7.36,7.36,0,0,1-.85.17c0-.17,0-.17-.34-.17.17.17-.51.17-.51,0v.17c-.17-.17.51-.17.17-.17h-.34l.17-.17c.17,0,0,.17.34.17,0-.17.51-.34.68-.17,0,.17-.34,0,0,.17.17-.17.68,0,.68-.34.52.17.52,0,1,0,.17-.18,0-.18,0-.18h.34l.51.52A3.51,3.51,0,0,1,622.75,34.28Zm.69.85c.51,0-.17.17-.34.17,0-.17.17-.17.34-.17h.68C624.12,35.3,623.78,35.13,623.44,35.13Zm-.69,0c.17-.17.35,0,.35-.17H624C623.78,35.13,623.27,35.13,622.75,35.13Zm0,.17c-.17,0-.34.17-.51,0,0-.17.34,0,.34-.17-.34,0-.34-.17-.68,0-.17.34-1.53.34-1.36,0-.34.17-.68.17-.17.17-.34,0-1,0-.85.17,0-.17-.34,0-.34-.17s.51,0,.51-.17-.68,0-.68,0c.34,0,0-.17.34-.17-.17.17.17.17.34,0-.17.17,0,.17.34.17-.34-.17-.17-.17.17-.34h-1.7c.17,0-.34.17-.34.17-.69.17-1-.17-1.71,0,.17,0,0-.17,0-.17h.85c-.17,0,0,0,0-.17h-.51a.59.59,0,0,0,.17-.34h.17a.17.17,0,0,0,.17.17c.17,0,.68,0,.51-.17-.68.17-.34-.17-.68-.34v-.18h.68c.35,0,.52,0,.69.18,0-.18,0-.18.34-.18a.17.17,0,0,0-.17-.17h.85a.37.37,0,0,1,.34.35l.17.17a6.76,6.76,0,0,1-1.87,0c.17.17.68,0,.85.17-.68,0-1-.17-1.37-.17,0,.17.52.34.86.34.17.34-.86.17-1,.34a3.25,3.25,0,0,0,1.37-.34,2.92,2.92,0,0,0,1.36.17c-.34-.17-.17,0-.17-.34-.17,0-.34.17-.34,0s.51-.17.51-.17c.17,0,.34.17.51,0h.17a.17.17,0,0,1,.17.17h-.85c.17.17,0,.34.34.34a.17.17,0,0,0-.17-.17c.34,0,.85,0,.85.17,0-.17,1.19,0,.68-.17h.34v.34q.51.26.51.51C622.92,35.3,622.75,35.13,622.75,35.3Zm-3.23,2.38c0,.17-.17.17,0,.34-.34,0-.85,0-.85-.17C619.35,38,619.18,37.85,619.52,37.68Zm-1.36.34c-.18,0-.18-.17-.35-.17C617.81,37.85,618.33,38,618.16,38Zm-6.82-3.57h.51v.17C611.68,34.62,611.34,34.62,611.34,34.45Zm-1.19-1.71h0Zm13.46.68a2,2,0,0,0-1.37.17c-.17-.17-.34-.17-.68-.34,0,0,.17.17,0,.17-.34,0-.34-.17-.68-.17,0,.17,0,.17-.17.17a5.77,5.77,0,0,0-1-1,3.63,3.63,0,0,1,1.36,0c.34,0-.17-.17,0-.17a6.54,6.54,0,0,1,2.73,1Zm.17.17c0,.17-.34,0-.34,0S623.78,33.42,623.78,33.59Zm-6.31,4.77c.17.17.17,0,0,0h0c-2.72.34-3.57,1.19-3.74,2a4.28,4.28,0,0,1-1.54-.17c-.34,0-.85.34-1,0-.34,0-.17.17-.51.17-.17,0,0-.34-.17-.34,0,.17-.34,0-.51.17-.17-.17-.68-.17-.85-.34.34,0,1-.17.68-.34-.34.34-.85.34-1.53.34-.18,0-.52-.17-.69-.17a.17.17,0,0,1-.17-.17h-.17c-.17,0-.34-.17-.51-.17v-.17h.34c0-.34-.51-.34-1-.34.17,0,.17-.17.34-.17h1.53c.17-.17,0-.17-.17-.17a.78.78,0,0,1,.86,0c0,.17,0,.17-.17.34h-.35a.17.17,0,0,0,.18.17h.17c0-.17,0-.17.17-.17,0,.17,0,.17-.17.34h-.17c-.35,0-.52.17-.86.17-.17.17.17.17-.17.17.34,0,.68,0,.34-.17h.86a2.45,2.45,0,0,1,.51.34c0-.17,0-.17.17-.34a1.27,1.27,0,0,0,.85-.17h-.34a.74.74,0,0,1-.51.17c0-.17,0-.17.17-.34h0l-.17-.17a2.52,2.52,0,0,0,1.19-.17,1.85,1.85,0,0,1-.85-.17h4.26l-.17.17c.34,0,.51-.17,1-.17a.17.17,0,0,0,.17.17h.34c0-.17-.34,0-.34-.17.51-.17,1.36,0,2-.17.17.17.68.17.85.17.17-.17-.17-.34.17-.34C617.64,38,618.16,38.19,617.47,38.36Zm-606,21.79a.59.59,0,0,1-.17-.34v-.34h.34C11.81,59.81,11.81,60,11.47,60.15Zm564.44-56a.84.84,0,0,0,.51-.17.17.17,0,0,1,.17-.17c.17,0,.34,0,.17.17a.62.62,0,0,0-.51.17v.17a.17.17,0,0,1-.17.17A.59.59,0,0,0,575.91,4.14ZM579,5.34a6.19,6.19,0,0,0-1,.17c-.85,0-1.19,0-1.53-.34V5a.53.53,0,0,1,.34-.17c.34,0,.51.17.85.34C578.12,5.34,578.81,5,579,5.34ZM586.64,5h.85v.17c-.17.17-.34.17-.68.17-.17,0-.17,0-.17-.17C586.47,5.17,586.64,5,586.64,5Zm47,16.51c-.17.17.34.17.34.34a8.61,8.61,0,0,0-2-.34C632.29,21.34,633.15,21.68,633.66,21.51Zm.85-.17c.17.17,0,.17-.17.34-.34,0-.51,0-.51-.34C634.17,21.51,634.34,21.34,634.51,21.34Zm2.38.17c.17-.17.17.17.34,0,0,.17-.51.17-.68.17C636.21,21.51,637.23,21.68,636.89,21.51Zm.51,0h1.37c0,.17.34.17.68.17.17,0-.51,0-.17.17-.34,0-.51-.17-.85,0v-.17a1.88,1.88,0,0,0-1-.17v.17C637.23,21.68,637.57,21.51,637.4,21.51Zm2.9,1.19c0,.17-.51,0-.68,0C639.62,22.53,640.13,22.53,640.3,22.7Zm.34,1.7c0,.17-.51,0-.34.17h-.51C639.79,24.23,640.47,24.23,640.64,24.4Zm.51.34c-.17.17-.17.17,0,.34-.51,0-.68-.17-.85,0-.34,0-.85-.51-.17-.51C640,24.91,641,24.57,641.15,24.74Zm.85-2c-.17,0-.68,0-.85-.17C641.49,22.7,641.83,22.53,642,22.7Zm-.17-2.55c-.17.17-.68,0-.85,0C641,20,641.66,20.15,641.83,20.15Zm1.71.34c.17.17-.69.17-.51.17C642.85,20.49,643.37,20.66,643.54,20.49Zm.85,1h-.51C643.71,21.34,644.39,21.17,644.39,21.51Zm5.28-1.19c-.34.17-.51,0-.85,0v-.17A1.27,1.27,0,0,1,649.67,20.32Zm3.75,0c0,.17-.34.17-.52.17C652.73,20.32,653.08,20.32,653.42,20.32Zm-7.84,1c.17.17,0,.17,0,.34-.51,0-.34-.17-.85,0-.17-.17.34,0,.34-.17s-.68,0-.51-.17Zm-6.64,1.36c0-.17.17-.17.34-.17a.17.17,0,0,1,.17.17Zm-2.22.17a1.27,1.27,0,0,1-.85-.17c0-.17.34,0,.51,0,.51-.34,1,0,1.71-.17.17.17.34,0,.68.17C638.26,22.87,637.06,22.7,636.72,22.87Zm-.34.17c0-.17.34,0,.85,0C637.23,23.21,636.55,23,636.38,23Zm-.34.68c-.17.17-.17,0,0,0-.34.17-.17,0-.34,0H636Zm-.85-.17c-.34.17,0-.17.51,0C635.7,23.55,635.19,23.38,635.19,23.55Zm-.51-.51c.34,0-.51-.17,0,0,.17-.17.51,0,.85,0h-.34c-.17,0,0,.17-.17.17S635,23,634.68,23ZM624.8,35.3c.34.17.68,0,.85.17-.51,0-.85.17-1,0C624.63,35.47,625,35.47,624.8,35.3Zm-1.7,1.87h.34c0,.17-.17.17-.34,0,0,.17.17.34-.18.17v-.17C622.92,37.34,623.1,37.34,623.1,37.17Zm1.53.17c-.17.17.34,0,.51,0s-.17.17.17.17c0,.17-.51,0-.51.17-.34,0-.17-.17-.34,0-.17,0,.17,0,0,.17h-.34s.17-.17,0-.17c-.34.17-.17.17-.68,0,0-.17.34-.17.51-.17h-.34C624,37.17,624.12,37.34,624.63,37.34Zm1,0h.51c-.17.17-.34.17-.51.34C625.31,37.51,625.65,37.34,625.65,37.34Zm2.39.17c0-.17.34,0,.34,0s-.34,0,0,.17a.88.88,0,0,0-.52.17C627.52,37.68,628.38,37.68,628,37.51Zm7.66,19.07c1.19-2,8.18-.69,7.5-2.73a4.07,4.07,0,0,0-1-1.87c.34-.85-1.87-1.7-4.6-2.21.34-.51.17-1-1.53-1.54a7,7,0,0,0-2.38.34,3,3,0,0,0-1,.52,19.65,19.65,0,0,0-2.89-.17c1.19-2.05,8-1,7.32-2.9a4.88,4.88,0,0,0-1.36-2.21L632.29,45c-8.68-.68,3.58-2.55-2.21-4.43a6.33,6.33,0,0,0-2.39.51c-2.89,1-2,1.54-.34,2.56-8,.34-5.45-4.94-9.19-5.28,0-.17.51-.17,1-.17-.17-.17.51-.17.68-.17,0-.17.17-.17.51-.17.34.17-.17.17-.17.34.34,0,.85,0,.85-.17-.51,0,.51-.17,0-.34-.17,0,0,.17-.34.17,0-.17.17-.17.34-.34.34,0,.34.34.51.34a2.53,2.53,0,0,0,1-.17c-.51.17-1.19,0-.85-.17.34,0,.17.17.34.17s.85-.17.68.17c.35-.17.35-.17.17-.34.52,0,.35.17.18.17h.34c.17-.17-.17-.34,0-.34s.17.17.34.17c.34,0,.51-.17,1-.17.17.34.68,0,1,.17,0-.17-.17-.17,0-.17s.17.17.34.17c0-.17,0-.17.17-.17h.17a.17.17,0,0,0-.17.17,3.17,3.17,0,0,1,2.22.17c.17-.17.68-.17,1-.17-.17-.17.17-.17.17-.17-.51,0-.17-.17-.17-.17h-.85c0,.17-.34.17-.51.17,0-.17-.35-.17-.52-.17,0,.17-.68.17-.68.17,0-.17.68,0,.51-.17-.51.17-.34,0-.17-.17a9,9,0,0,0-2.21.17c0-.17.17-.17,0-.34-.17.34-.85,0-1.36,0h.34c-.17-.17-.34,0-.34-.17.17,0,0,0-.17-.17-.17.17,0,.17-.17.34-.86,0-2.22,0-2.56-.51.51.17.85-.17,1.36,0,0-.17.17-.17,0-.17a5.78,5.78,0,0,1-1.7-.17c.17,0,0-.17-.17-.17a.17.17,0,0,1-.17.17c.17,0,.17-.17-.17-.17,0,.17-.34.17-.51,0,.51,0,0-.34.34-.34.51,0,.34.34.51.17-.17,0,0-.17-.17-.17.17,0,.51-.17.68,0-.17.17,0,.34.17.34-.17-.17-.17-.34,0-.34.51,0,1-.17,1,.17a.17.17,0,0,0-.17.17c.34,0,0-.17.34-.17h.34c-.17-.17-.34.17-.51,0,.34,0,.34-.17.68,0,0,.17.17.17.17.34-.34,0,0,.17,0,.17s.69,0,.35-.17h-.17c.17,0,0-.17.17-.17a.62.62,0,0,1,.51.17s-.34,0-.34.17c.34.17.85-.34,1,0H624c.34.17.68,0,1,.17,0-.17,0-.17.17-.17,0,.17.34.17.68,0,.17.17,0,.17.17.17,0-.17.51-.17.51-.17-.17,0-.17,0-.17-.17.17-.17.17,0,.51,0,0-.17-.51,0-.51-.17.51,0,0-.17,0-.17.17-.17.51,0,.68.17-.17-.17.17-.34-.17-.34-.17.17-.34,0-.68.17,0-.17,0-.17-.17-.17-.17.17.17.17-.17.17-.85,0-.34-.51.34-.51-.34-.17-.17,0-.51,0,.34-.17-.17-.17-.34-.17.17-.17,1,0,1-.17H624.8c.17,0,.17-.17.34-.17h3.24c.17,0,.51-.17.51,0-.51,0,.17,0,0,.17h.34c-.68,0,.51-.17,0-.17,0,.17-.34,0-.34,0,.51,0,.68.17,1.19.17,0-.17,0-.17.17-.17a5.78,5.78,0,0,1,1.7.17h.17c.86,0,1.88.17,2.73.17-.17,0-.34,0-.17.17a.62.62,0,0,0,.51-.17,1.27,1.27,0,0,1,.85.17c.51,0,1-.17,1.53-.17,0,.17,0,.17.17.17h.35c-.18,0-.18-.17-.35-.17.69-.17,1.37-.17,1.88-.34H640c1.19-.34,1.7-.68,1.87-1h.34l.17-.17H642c.17-.34-.17-.68-.85-1h2.39c0,.17.17.17,0,.17a2.89,2.89,0,0,1,1.19-.17c0-.17.17-.17.51-.17,0,0-.17,0,0,.17h.34v.17c.34,0,.51.17.51,0-.17.17.34,0,.17.17a1.84,1.84,0,0,1,1-.17c0-.17,0-.17.17-.17-.17.17.69.17.86,0v.17H650c-.17-.17.51-.17.85-.17a.17.17,0,0,1-.17.17c.17-.17-.51-.17-.34,0,.51,0,.34.17.51.17.17-.34.34-.17.17-.51-.34,0-1.19.17-1,0,0,.17.17,0,.34,0h.85a.17.17,0,0,1,.17-.17c-.17,0-.17-.17-.34-.17,0,.34-.85,0-1.36.17,0,.17-1.36.34-1.88.17h.86c-.17,0,0-.17-.17-.17s-.69,0-.51.17c-.18-.17-.52,0-.69,0,.17.17-.34.34-.34.17h.17c-1-.34-2.21.17-3.23-.17-.17,0,.17.17,0,.17-.51-.17-1.37.17-2-.17v.17h-.68c-.17-.17-.34-.17-.51-.34.34,0,.68.17.85,0,0-.17-.68-.17-.85,0a41.13,41.13,0,0,0-10.73-2.55l.17-.17h.51c0-.17-.34,0-.34-.17l.17-.17h.51c0,.17,0,.17.17.17-.17-.51,1.7-.17,2.22-.51l-.17.17h.34c.17,0-.17-.17,0-.17.34,0,.17,0,.17.17.34,0,.17-.17.51-.17,0,.34.51,0,.68.17.17-.17.51,0,.85,0,.17-.17-.51,0-.51-.17.17,0,0-.17.17-.17-.17-.17-.17-.34-.51-.34,0,.34-.34,0-.51.17v-.17c1.87,0,3.57,0,3.4-1.19v-.17h.35c0-.17-.18-.17,0-.17h-.35v-.18c.17,0,.35,0,.35-.17h-.35l-.51-1a.17.17,0,0,1,.17.17.62.62,0,0,0,.51-.17c-.34,0-.34-.17-.68-.17l-.51-.51a14.65,14.65,0,0,1,2.73,0c-.17,0,0-.17-.17-.17a1.45,1.45,0,0,1-1.19,0,11.36,11.36,0,0,1-2.39.17c0-.34-1-.34-.85-.51-.34,0-.68.17-.85,0,.34,0,.17-.17.51-.17-.17,0-.51-.17-.85,0,0-.17.17-.17-.17-.17a5.69,5.69,0,0,1-2.39-.17.59.59,0,0,0,.34-.17h.68c-.34,0,.51,0,.34-.17-.34,0-.34-.34,0-.34a.37.37,0,0,1,.34.34c.17,0,.52,0,.52-.17-.52.17-.17-.17-.34-.17a.64.64,0,0,1-.35.17.17.17,0,0,0-.17-.17c.17-.17.34-.17.34-.34a1,1,0,0,1,.69-.17.17.17,0,0,0-.17-.17,5.21,5.21,0,0,1,2.21-.17c.34,0,.85,0,1-.17-.34,0-.34-.17-.68-.17a.88.88,0,0,0,.68-.34c.17.17.68,0,.85.17s-.51,0-.34.17c1,.34,2.73,0,3.92.17-.17.17-.85-.17-1,.17.34.17.85,0,1.36.17.17.17-.17.17-.51.17,0-.34-1.36,0-1-.51a1.86,1.86,0,0,1-1.36,0c-.17,0,0,.17-.34.17a.17.17,0,0,1,.17-.17c-.52.17-2.39.17-2.9.34a.17.17,0,0,0-.17-.17c0,.17-.34.17-.34.17.34,0,.34.17.51.17,0,0,.51-.17.51,0s-.34,0-.34.17c.51,0,1-.34,1.19-.17-.34,0-.17.17-.34.17-.51-.17-1.19.17-1.36.17.68,0,.51.17.85.34-.34,0-.17-.17-.51,0,0,.34.34.34.51.51-.34,0-.17.17-.34.17.34,0,.85,0,.51.17.34,0,.68-.17.85,0-.17.17-.85,0-.68.17,1.53-.68,2.56.68,4.09.17-.17.17.17.17.51.34a2.35,2.35,0,0,1-.68.51h-.51c-.34,0,0-.17-.34-.17a.17.17,0,0,0,.17.17h-1.36c-.18.17-.35.17-.18.34.69-.17,1,0,1.54-.17-.17.17.34.51.51.17h-.34v-.17c.34,0,.68-.17.68,0H640c.34,0,0,.17.34.17a1.45,1.45,0,0,1,1.19,0v.17c-.51,0-.68.34-.51.17a.78.78,0,0,0,1-.51c.34,0,.17.17.34.17,0-.17.51-.17.69-.34-.18,0-.35-.17-.18-.17a9,9,0,0,1,2.22.17c0,.17-.34.17,0,.17,0-.34.85,0,1-.17,0-.17-.34,0-.34-.17.51,0,.34-.17.68-.34a8.24,8.24,0,0,0,2.05,0c-.17-.17-.51,0-.69-.17.18-.17,0-.34.18-.34s.68,0,.85-.17c-.34,0-.51-.17-.17-.17-.86,0-1.2.17-2.22.17,0,.17,0,.17-.17.17h-.51c0-.17.51,0,.51-.34-.34,0-1.19.17-1,0h-.51c.17.34-1.19.17-.85,0-.51,0-1.2,0-1.2-.17a4.25,4.25,0,0,0,1.54-.17c-.17,0-.17-.17-.51,0,.17.17-.17.17-.34.17,0-.17-.52,0-.52-.17a.17.17,0,0,0-.17-.17,3.68,3.68,0,0,1,1.37,0c0-.17-.51,0-.68-.17,0,0,.34,0,.34-.17-.17-.17-.68,0-.86,0,.18,0,.69,0,.69-.17a7.36,7.36,0,0,1,.85.17c-.17-.17.51-.17.51-.51-.51.17-1,.51-1.53.17-.52,0-1.2.17-1.54,0,.17,0,.51-.17.51-.34-.17-.17-.68.17-1,0,.17,0,.17,0,.17-.17-.34,0-.34.17-.51.17s-.51-.17-.17-.34c1.19.17,2.22,0,3.58.17-.68.17-1.71-.17-1.88.17.52-.17.69.17.86-.17.34,0,.51.34.85.17-.34,0-.17-.17,0-.17h.68c0-.17.85-.17.85-.34a4.86,4.86,0,0,1-2.72-.17c-.35,0,.17.17,0,.17s-.18,0-.35-.17c.17-.17-.17-.17-.34-.34.51-.17.34.17.69.17.17,0,.51-.17.68-.17a.17.17,0,0,0-.17.17h.34c0-.17,0-.17.17-.17a1,1,0,0,0,.85.34s-.17-.17,0-.17c.34.17.85,0,1.19.17.17-.17.51,0,.68-.17,0,.17.85,0,.85.17h.17c0-.51-1.36-.17-1.7-.34.51,0,.34-.17,0-.17.68-.34,1.7.34,1.7,0a7.18,7.18,0,0,1,.86.17c-.51,0-.17,0-.17-.17-.17-.17-.51.17-.86,0,0,0,.69,0,.35-.17a1,1,0,0,0-.69.17c-.17,0-.17-.17-.34-.17s0,.17-.34.17c-.17-.51-1.36-.17-2-.34a29,29,0,0,1,3.58-.17c-.17,0-.17,0,0-.17h.34c0,.17,0,.17.17.17.34-.17.51.17.85.17a10.29,10.29,0,0,1,3.23,0c.52,0,2.22-.17,2.73.17v-.17c.51,0,2,.17,2,.17s-.17-.17,0-.17.17.17.52.17c.51-.34,1.19.17,1.7,0-.17-.17-.51,0-.34,0h-.51c.34,0,0,0,0-.17h.34c0-.34-1,0-1.54,0s-.34-.34-.85-.34a.17.17,0,0,0,.17.17c-.34,0-1,.17-1.19,0,.34,0,0-.17-.17-.17-.17.17-.34,0-.68.17.17-.17-.51,0-.17-.34-.51,0-.17.17-.51.17-.34-.17,0,0-.34,0,0-.17-.34,0-.17-.17-.51,0-.85.17-1.2,0-.17,0-.17.17-.34.17a3.63,3.63,0,0,0-1.36,0c0-.34-1.53-.34-1.87-.51V20c-.34,0-.17-.34-.51-.17,0,.17.34,0,.34.17-.51,0-1.37.17-1.88.17.34,0,.51-.17.34-.17s-.34.17-.68.17c.17,0,0-.17.17-.17a4.62,4.62,0,0,1-1.53,0,.17.17,0,0,0,.17-.17c.68,0,1.87.17,2-.17-.68.17-1.53-.17-2.38,0,0-.34-1.36.17-1.53-.17a12.61,12.61,0,0,1-3.58,0s.17,0,0-.17c-.17,0-.51,0-.51.17.17,0,.17,0,.17.17h-1.19l.17-.17c-.51.17-.69-.17-1.2,0,0,.17.34.17,0,.17,0-.17-.34-.17-.34-.17-.17,0,.17.17-.17.17a2.52,2.52,0,0,0-1.19.17c0-.17-.68-.17-.34-.34-.68,0-.68-.17-1,.17.17-.17-.17-.17,0-.34H634c0,.17.34.17,0,.34a8.81,8.81,0,0,0-3.07.17v-.17h-.51c0,.17,0,.17-.34.17.17-.17-.17,0-.17-.34.34-.17.85,0,1.36,0,.17-.35,1.53-.17,1.71,0-.52-.35-1.88-.17-2.22-.17a6.6,6.6,0,0,0-1.87-.18c.17.18-.17.18-.34.18,0,.17.17.17.17.34.34,0,.17-.17.51-.17-.17.17.51.17.34.34-.51,0-1.19-.17-1.19,0h-.52c.18,0,0-.17.18-.17-.52,0,.17.17-.52.34-.17,0-.17-.17-.34,0-.34-.17.17-.34,0-.34,0,0-.68.17-.68,0s0-.17.17-.17c-.17.17.51,0,.85,0,.17,0,.17.17.34.17,0-.17.52,0,.69,0-.17-.34-.69-.17-.86-.17,0-.17.35,0,.52-.17-.35,0-.86.17-1,0,0,.17-.68,0-.51.17.34,0,.51-.17.51,0-.34.17-.68,0-1,0-.17.17.34,0,.17.17h-.17a1.84,1.84,0,0,1-1-.17c-.34,0,.17,0,.17.17H625c-.17,0-.34,0-.34-.17s.34,0,.34-.17h-.85c-.17,0-.17.17-.51.17-.17,0-.17-.17-.34-.17a2.73,2.73,0,0,1-1.2,0,.62.62,0,0,1-.51.17c.51,0,.68-.17.85,0-.17,0-.17,0-.34.17.17,0,.34-.17.51-.17,0,.34.69,0,.69.17,0,0-.17.17,0,.17a2.88,2.88,0,0,1,1.7,0c-.17-.34,1-.17.68.17.51,0,.17-.17.51-.17a.17.17,0,0,0,.17.17,2.54,2.54,0,0,1-2.21-.17c-.68.17-.85,0-1.2.17v-.17c0,.17-1,.17-.68.17.17-.17.86,0,.86,0h-1.54c.17-.17,0-.17-.17-.17,0,.17-.17.17-.34.17-.51-1.2-1-2.22-2.89-2.22-2.9.17-3.75,1-3.75,2h-1.19c-.18,0-1,.17-1.54.17-3.75-2.22-11.24-4.09-17.54-4.6a50.83,50.83,0,0,1-11.25-.51,1.33,1.33,0,0,0,.86-.34c.17-.34.68-.34,1-.34h.68c1,.17,1.36.17,1.53-.17.34-.51.85-.17,1.37-.34.68-.17,2-.17,1.7-.85,0-.17.34-.34.51-.51a.33.33,0,0,0,0-.52,17.92,17.92,0,0,0-1.87-1.19,1.3,1.3,0,0,0-.86-.17,8.28,8.28,0,0,1-2-.17c-.51-.51-1.53.17-2-.34a12.76,12.76,0,0,1-3.58-.34c-.68,0-1.19-.34-1.88-.34a8.19,8.19,0,0,0-2,0c-.68,0-1.19-.34-1.87-.34-.34,0-.51.17-.68,0s.34-.51.85-.51h2.38a1,1,0,0,0,.68-.17c.34-.17-.17-.34-.17-.51-.17-.34-.17-.68-.34-.85-.34-.34-.51-.51,0-.85.34-.17.34-.68,1-.68.35,0,1,0,1.2.17s-.34.17-.51.17-.17.17-.34.17a9,9,0,0,0,2,.51,14.62,14.62,0,0,0,2.72.17c.18,0,.18,0,.35.17a.64.64,0,0,0-.35.17h-2a1.3,1.3,0,0,0-.85.34c-.17.17-.34.68.17.68.68.17,1.19.68,2,.51,1,0,1.71.34,2.56.34a18.73,18.73,0,0,1,3.06.34h.18a.59.59,0,0,1,.17-.34,2.41,2.41,0,0,0-.69-.51,23.44,23.44,0,0,0-3.74-.34.59.59,0,0,1-.34-.17V7.55c.17-.34.51-.51.85-.85.17-.17.51-.17.51,0,.17.51.51.68,1.36.68,1.19,0,2.22.17,2.56.85a16.17,16.17,0,0,0,4.08,1.19h.69c.17,0,.17-.17.34-.34,0-.17,0-.34-.17-.34a17.91,17.91,0,0,0-1.71-.68c0-.51-.85-.51-1.36-.68-.34-.17-1-.34-1.36-.51-.17-.17-.17-.51-.85-.34-.69.34-1.54,0-2.39.34-.34.17-.34-.17-.51-.34a.17.17,0,0,0-.17-.17c-.51-.17-1-.17-1.53-.34s-.17-.68-1-.68a2.16,2.16,0,0,1-1-.17c-.17,0-.17,0-.34-.17.17,0,.17-.17.34-.17a13.89,13.89,0,0,1,3.75.17,5.24,5.24,0,0,0,1.7.17,16.59,16.59,0,0,1,4.09.34,11.2,11.2,0,0,0,2.39,0,.37.37,0,0,0,.34-.34.59.59,0,0,0-.17-.34,9.88,9.88,0,0,1-2.39-.52,1,1,0,0,1-.85.35c-.34,0-.51-.18-.51-.35V4H589V3.8A3,3,0,0,0,586.3,4a.62.62,0,0,1-.51.17,5.81,5.81,0,0,0-2.73-.68c-.17,0-.68-.17-.68-.34-.34-.51-1-.68-2-.68h-2.73a1.44,1.44,0,0,0-1,.34c-.68.68-.68.51-2.21.34-1-.17-1.71-.51-2.73-.68a1.44,1.44,0,0,0-1.19,0,.77.77,0,0,1-.85,0,2.54,2.54,0,0,0-1.19-.51c-.18.34,0,.68-.86.68-1.7.85-1.7,1-1.87,1-.34,0-.34-.17-.51-.34-.34,0-.68.17-.68.34-.17.17.17.34.51.51h1.7a.59.59,0,0,1,.34.17c-.17,0-.17.17-.34.17H563a14.18,14.18,0,0,0-3.91.35c-.34,0-.51.34-.86.17a2.38,2.38,0,0,0-1.87,0,4.33,4.33,0,0,0-2.21-.34,39.22,39.22,0,0,1-4.6-.18,5.85,5.85,0,0,1-1.71-.17A5.4,5.4,0,0,0,545.42,4c-4.09,0-8.35-.17-12.78-.34-.85,0-.85,0-1-.68,0-.17-.17-.17-.17-.34-.17,0-.34.17-.51.17a4.48,4.48,0,0,1-2.56.34V3a.6.6,0,0,1,.35-.17c1,0,1.87,0,1.7-.85,0-.34.51-.51.68-.85a.76.76,0,0,1,.85,0c.17.17.51.17.51,0a.62.62,0,0,1,.17-.51c-1.7,0-3.4-.34-4.94.17A3.06,3.06,0,0,1,526,.57a10.38,10.38,0,0,0-2.21-.51c-.18.34-.35.17-.35,0a3.66,3.66,0,0,0-1.36,0c-.51.34-1.36.51-1.53,1,0,.17-.17.17-.34.34-.17-.17-.17-.34-.34-.51a1.41,1.41,0,0,0-1.2-.17,1.71,1.71,0,0,0-.51.17c-.51-.17-1.36-.34-1.53-.68-.34-.51-.51-.34-1-.17s-.34.68-1.19.85a.17.17,0,0,1-.17.17c-.69.51-1.54-.51-2.39,0a.59.59,0,0,1-.34-.17.53.53,0,0,1-.17-.34C510,.4,112.83.23,111.46-.11h-.34c-.17,0-.17.17,0,.34.17,0,.17.34.17.34a9.24,9.24,0,0,1-3.06,0c-.51,0-.17,0,0-.17q.76-.51-.51-.51h-1.37c-.51,0-1,.51-1.53.17-.68-.51-1.19,0-1.87,0-.51,0-.85-.17-1.37-.17-.17,0-.51-.17-.51,0a2.38,2.38,0,0,1-1.87,0c-.17-.17-.68-.17-1-.17-1.37,0-2.73-.34-4.09.17h-.68c-.34-.17-.85-.17-1.19-.34a5.16,5.16,0,0,0-3.58-.17c-.17,0-.51.17-.68.17a25.78,25.78,0,0,0-5.11.34,3.81,3.81,0,0,0-2.56.68A5.24,5.24,0,0,1,78.59.4c-.68-.34-1.36,0-1.88-.17a4.19,4.19,0,0,0-2-.17,10.38,10.38,0,0,1-2.21-.51h-.69c-.68,0-1.19.34-1.87,0a10,10,0,0,1-2.21.34c-1,.34-2.56.17-3.41.85.17.17-.17-.34-.68-.17-.34.17-.68.68-1.37.34s-1,.17-1.53.17c-.17,0-.51,0-.51-.17V.57A.62.62,0,0,1,60.7.4c.17,0,.34-.17.68-.17-.17,0-.34-.17-.51-.17H57.12c-.51,0-1,.34-1.53.34h-2c-.17,0-.34.17-.51.17a.74.74,0,0,0-.51.17.53.53,0,0,1,.34.17c1.7.34,3.23-.17,4.77-.17.34,0,.68-.51,1-.17.17.17-.34.34-1,.51a8.7,8.7,0,0,1-2,.34,19.52,19.52,0,0,0-4.43.34.37.37,0,0,0-.34.34.59.59,0,0,0,.34.17h.34c.17,0,.34.17.51.17-.17,0-.34.17-.51.17H50.14a5.68,5.68,0,0,1-2.55-.51c-.35-.34-.86-.34-1.54-.34a17.27,17.27,0,0,0-4.26.51c-1.53.17-2.89.68-4.6.51a9,9,0,0,0-4.42.68,2.53,2.53,0,0,1-1.2.34c-.34,0-.85,0-.85-.17s.34-.17.68-.17c.17,0,.17-.17.34-.17,0,0-2.38-.34-2.55-.34a1.29,1.29,0,0,1-.68.34c.17,0,.34.17.51.17s.34.17.51.17c-.17.17-.34.17-.51.34-.51.34-1,.17-1.54.17-1.53,0-2.72.69-4.08.86-.34.68-1.54,1-2.39,1.36-.51.34-.85.68-.85,1.19.17.51,0,1-1.36,1a28.42,28.42,0,0,0-4.09,1.36c-.17,0-.17.17-.17.34a.59.59,0,0,0,.34.17h1.7c.51.17,1,.34,1.2.68.17.17-.52.51-1,.68a1.36,1.36,0,0,1-1.19-.17c-.34-.17-.85-.34-1.19,0a2.44,2.44,0,0,1-1,.35c-1.2.17-1,.51-.69.85.18.17-.68.51-.51.68.69.51.34,1,.34,1.7,0,.34,0,.68.35.85.51.51.51.85-.86,1a.37.37,0,0,0-.34.34,2.16,2.16,0,0,1-.17,1c0,.34.34.51,1,.68.35,0,.35.18.17.35s-.51.34-.34.51c.52.34,0,.68-.17,1.19a.77.77,0,0,0-.51.51c0,.34.34.68.68,1,.52.34.34.85.17,1.36l-.34.17c-.68-.34-.85-.17-1,.17-.17.68.17,1.19-.51,1.87-.17.17.51.86,1,1,1,.17.68.51.34.85l-.17.17a.93.93,0,0,1,.51.85,1.53,1.53,0,0,1-.85-.17c-.34-.17-.68-.51-1-.51-.68-.17-.68.68-.85,1-.34.51-.85,1-1.19,1.53-.51.51-.86.51-1.54.17-1-.34-1.87.68-3.06.34-.17,0-.34.17-.51.34v.34c0,.17.17.68.34.68,1.19.17,2.38.51,3.4-.34.51-.34.86-.17,1.37.17a3.52,3.52,0,0,0,1,.34c.34-.51.85-.51,1.36-.68,0,.17,0,.34.34.51,1,.51,1.19,1.2.85,1.71H9.26c-.51,0-.85.51-1.19.85-.17.17-.35.51,0,.68A3,3,0,0,0,9.26,37a3.63,3.63,0,0,0,1.36,0c.34,0,.85,0,1,.17.34.34.85.68,1,1,0,.34-.51,1-.85,1a16.49,16.49,0,0,1-2.89.17c-.68,0-1,.34-1.2,1.19-.34,1-1.36,1.37-1.53,2.56C6,44,6,44.49,6.7,44.83c.51.17,1,.34,1.71.51-.17,1.53.68,1.19,1.53,1.36.68,0,1-.51,1.7-.68.51-.34,1,.51,1.54.51a1,1,0,0,0,.68-.17,2.87,2.87,0,0,1,1.7-.51c2.56,0,5.11.34,7.5-.68h.34c0,.17-.17.17-.34.34a.17.17,0,0,0-.17.17c-1,.17-1.88.34-2.9.51a1.29,1.29,0,0,0-.68.17h.17a5.32,5.32,0,0,0-1.7.85,3.29,3.29,0,0,0,.68,1.54,12.43,12.43,0,0,0-4.26,1.36h-.34c-.51.17-.85.51-1.37.51-.51.17-.85-.85-1.53-.17-.34.34-.68-.51-1.19-.51h-1c-.17,0-.17.17-.34.17-.69.51-1.2,1.36-2,1.53-.17,0-.17.34.17.51s.85,0,.68.51c0,.34-.68.85-.68.85-.85-.51-1.7.51-2.21.17-1-.85-1.54-.17-1.88.68-.17.85-.68,1-1.36,1h-1c-.17,0-.34.34-.34.51l.17.35,1.53,1c1,.68,2.39.85,2.56,2.55,0,.17.51.34.85.51s.85.17,1,.34A2.27,2.27,0,0,1,6,62.19c0,.51-.34.85-.51,1.37.68.17,1,1,1.53,1.36.68.51,1.71.17,2.39.85a.61.61,0,0,0,1-.51c.17-.68.51-.85,1-.85,1,0,1.88-1.2,3.07-1a1.23,1.23,0,0,0,.34-.69,1.29,1.29,0,0,0-.34-.68,4.26,4.26,0,0,0-1.19-.68A3.57,3.57,0,0,1,12.66,60c0-.51.18-1.19.69-1.19h2.21c.68,0,1,.51.68,1.36-.51,1.19-.34,1.19.51,1.87.34.17.51.51.85.85s.52.69,1.2.17a2.87,2.87,0,0,1,3.06-.17c1.2.86,2.73.17,3.75.86,1.36.85,2.56.17,3.92.51h1a1.82,1.82,0,0,1,1,.34,3.45,3.45,0,0,0,3.24,1.19,3.6,3.6,0,0,0,4.43.34c.17,0,.51.34.85.51.34.34.17.68-.17.68-.68.17-1.36,1-2.21,0h-.35a1.11,1.11,0,0,1-1.87,0c-.17-.17-.51,0-.68.17v.34c.51,1.87.85,2,2.55,1.53a8,8,0,0,1,5.29,0c.51.17,1-.68,1.53,0,.34.34.68-.17.85-.34a.8.8,0,0,1,1,.17,1,1,0,0,0,1.54,0,1.62,1.62,0,0,1,1.7-.34c1.36.34,2.55,1.36,3.92,0,.17-.17.68.17,1,.34a1.82,1.82,0,0,0,2,.17c1.37-.85,2.73-.51,4.26-.68,2.39,0,4.77-.17,7.33,0a4.53,4.53,0,0,0,2-.51c.85.85,1.53.51,2.21-.17,1.54.51,2.73-1,4.26-.85a12.88,12.88,0,0,1,2.56,0c1,.17,1.7-.85,2.72-.85a3.08,3.08,0,0,0,1.71-.34,3.49,3.49,0,0,1,3.4-.17,2.42,2.42,0,0,0,2.39.17c1.19-.51,2.21-1.36,3.58-.51.17,0,.51-.17.68-.17a1.64,1.64,0,0,1,2.38,0,1.37,1.37,0,0,0,1.71.34,4.1,4.1,0,0,1,3.06-.68,4.93,4.93,0,0,0,2.73-.51,3.47,3.47,0,0,1,3.4.17,2.63,2.63,0,0,0,2.73,0,2,2,0,0,1,1.36-.34c.68-.17.85,1,1.54.34.68-.51,397.33-.68,398-.68h29.81c.68,0,1.53.17,2-.34.68-.52,1.54.68,2.22-.35h8.34c.68,0,1.37.18,1.71-.17a3.94,3.94,0,0,1,2.72-.51,4.94,4.94,0,0,0,2.22-.17,6.56,6.56,0,0,1,3.57-.51h3.75a11.25,11.25,0,0,1,3.58,1.71l-1.19-.69c-.17-.34.68-.51,1.36-.68-.17,0-.17-.17-.34-.17h8a7.56,7.56,0,0,0,3.24-.51c1-.51,2.39-.17,3.58-.17,2,1.36,4.26.51,6.47.51,1.36-1,2.73-.68,4.26-.68,1,0,2.38.17,3.24-.34.17-.17.34-.17.68-.34a43.05,43.05,0,0,0,6.81,1.19c6.13-.85,13.46-2,20.78-1.7,2.56.17,4.94,1.36,4.6,2,3.24-.17,7.67-.17,10.9,0C656.65,59.3,641,56.92,635.7,56.58Z" transform="translate(0.28 0.86)"/></svg>