<svg id="Логотип" xmlns="http://www.w3.org/2000/svg" xmlns:xlink="http://www.w3.org/1999/xlink" viewBox="0 0 1014.53 846.71"><defs><style>.cls-1{fill:url(#Безымянный_градиент_29);}.cls-2{fill:url(#Безымянный_градиент_92);}.cls-3{fill:url(#Безымянный_градиент_66);}.cls-4{fill:url(#Безымянный_градиент_56);}.cls-5{fill:url(#Безымянный_градиент_65);}.cls-6{fill:url(#Безымянный_градиент_64);}.cls-7{fill:url(#Безымянный_градиент_64-2);}.cls-8{fill:url(#Безымянный_градиент_64-3);}.cls-9{fill:url(#Безымянный_градиент_91);}.cls-10{fill:#333;}.cls-11{fill:url(#Безымянный_градиент_87);}.cls-12{fill:url(#Безымянный_градиент_54);}.cls-13{fill:url(#Безымянный_градиент_53);}.cls-14{fill:url(#Безымянный_градиент_52);}.cls-15{fill:url(#Безымянный_градиент_14);}.cls-16{fill:url(#Безымянный_градиент_39);}.cls-17{fill:url(#Безымянный_градиент_89);}.cls-18{fill:url(#Безымянный_градиент_31);}.cls-19{fill:url(#Безымянный_градиент_64-4);}.cls-20{fill:url(#Безымянный_градиент_13);}.cls-21{fill:url(#Безымянный_градиент_28);}.cls-22{fill:url(#Безымянный_градиент_66-2);}.cls-23{fill:url(#Безымянный_градиент_13-2);}.cls-24{fill:#001554;}.cls-25{fill:#fff;}.cls-26{fill:url(#Безымянный_градиент_33);}.cls-27{fill:url(#Безымянный_градиент_66-3);}.cls-28{fill:url(#Безымянный_градиент_13-3);}.cls-29{fill:url(#Безымянный_градиент_38);}.cls-30{fill:url(#Безымянный_градиент_88);}.cls-31{fill:url(#Безымянный_градиент_48);}.cls-32{fill:url(#Безымянный_градиент_25);}.cls-33{fill:url(#Безымянный_градиент_25-2);}.cls-34{fill:url(#Безымянный_градиент_25-3);}</style><linearGradient id="Безымянный_градиент_29" x1="1089.12" y1="1000.25" x2="1194.37" y2="611.47" gradientUnits="userSpaceOnUse"><stop offset="0" stop-color="#fff"/><stop offset="0.06" stop-color="#fafafa"/><stop offset="0.13" stop-color="#ebebeb"/><stop offset="0.21" stop-color="#d2d2d2"/><stop offset="0.3" stop-color="#b0b0b0"/><stop offset="0.39" stop-color="#848484"/><stop offset="0.48" stop-color="#4e4e4e"/><stop offset="0.52" stop-color="#333"/></linearGradient><linearGradient id="Безымянный_градиент_92" x1="899.06" y1="928.93" x2="881.24" y2="650.57" gradientUnits="userSpaceOnUse"><stop offset="0" stop-color="#fff"/><stop offset="0.08" stop-color="#e7e7e7"/><stop offset="0.42" stop-color="#878787"/><stop offset="0.66" stop-color="#4a4a4a"/><stop offset="0.78" stop-color="#333"/></linearGradient><linearGradient id="Безымянный_градиент_66" x1="810.92" y1="930.31" x2="957.09" y2="681.82" gradientUnits="userSpaceOnUse"><stop offset="0.09" stop-color="#fff" stop-opacity="0"/><stop offset="0.68" stop-color="#333"/></linearGradient><linearGradient id="Безымянный_градиент_56" x1="1121.84" y1="325.81" x2="1070.32" y2="1368.74" gradientUnits="userSpaceOnUse"><stop offset="0.27" stop-color="#fff"/><stop offset="0.33" stop-color="#f2f2f2"/><stop offset="0.42" stop-color="#cecece"/><stop offset="0.55" stop-color="#959595"/><stop offset="0.71" stop-color="#474747"/><stop offset="0.74" stop-color="#333"/></linearGradient><linearGradient id="Безымянный_градиент_65" x1="1249.78" y1="213.35" x2="1563.15" y2="614.69" gradientUnits="userSpaceOnUse"><stop offset="0.08" stop-color="#fff" stop-opacity="0"/><stop offset="0.75" stop-color="#333"/></linearGradient><linearGradient id="Безымянный_градиент_64" x1="934.27" y1="457.12" x2="937.57" y2="1079.92" gradientUnits="userSpaceOnUse"><stop offset="0.32" stop-color="#fff" stop-opacity="0"/><stop offset="0.68" stop-color="#333"/></linearGradient><linearGradient id="Безымянный_градиент_64-2" x1="940.03" y1="457.09" x2="943.33" y2="1079.89" xlink:href="#Безымянный_градиент_64"/><linearGradient id="Безымянный_градиент_64-3" x1="942.63" y1="457.08" x2="945.93" y2="1079.88" xlink:href="#Безымянный_градиент_64"/><linearGradient id="Безымянный_градиент_91" x1="1106.65" y1="456.21" x2="1109.95" y2="1079.01" gradientUnits="userSpaceOnUse"><stop offset="0.32" stop-color="#fff" stop-opacity="0"/><stop offset="0.84" stop-color="#333"/></linearGradient><linearGradient id="Безымянный_градиент_87" x1="1309.13" y1="161.94" x2="1494.68" y2="253.13" gradientUnits="userSpaceOnUse"><stop offset="0.05" stop-color="#fff" stop-opacity="0.5"/><stop offset="0.16" stop-color="#cbcbcb" stop-opacity="0.35"/><stop offset="0.38" stop-color="#707070" stop-opacity="0.1"/><stop offset="0.48" stop-color="#4d4d4d" stop-opacity="0"/></linearGradient><linearGradient id="Безымянный_градиент_54" x1="1042.08" y1="761.98" x2="1068.93" y2="495.95" gradientUnits="userSpaceOnUse"><stop offset="0.2" stop-color="#3e1754"/><stop offset="0.43" stop-color="#401856"/><stop offset="0.51" stop-color="#451c5d"/><stop offset="0.57" stop-color="#502468"/><stop offset="0.62" stop-color="#5e2e79"/><stop offset="0.66" stop-color="#713b8f"/><stop offset="0.7" stop-color="#894cab"/><stop offset="0.73" stop-color="#a45fca"/><stop offset="0.74" stop-color="#a963d0"/></linearGradient><linearGradient id="Безымянный_градиент_53" x1="1159.45" y1="251.67" x2="1157.08" y2="491.25" gradientUnits="userSpaceOnUse"><stop offset="0.43" stop-color="#3e1754"/><stop offset="0.51" stop-color="#a963d0"/><stop offset="0.56" stop-color="#8348a4"/><stop offset="0.6" stop-color="#653381"/><stop offset="0.64" stop-color="#502368"/><stop offset="0.68" stop-color="#431a59"/><stop offset="0.71" stop-color="#3e1754"/></linearGradient><linearGradient id="Безымянный_градиент_52" x1="1484.22" y1="579.94" x2="1224.9" y2="628.58" gradientUnits="userSpaceOnUse"><stop offset="0.12" stop-color="#3e1754"/><stop offset="0.29" stop-color="#a963d0"/><stop offset="0.32" stop-color="#9152b4"/><stop offset="0.36" stop-color="#733d92"/><stop offset="0.41" stop-color="#5c2c77"/><stop offset="0.46" stop-color="#4b2063"/><stop offset="0.51" stop-color="#411958"/><stop offset="0.56" stop-color="#3e1754"/></linearGradient><linearGradient id="Безымянный_градиент_14" x1="1177.33" y1="895.36" x2="1197.43" y2="781.61" gradientUnits="userSpaceOnUse"><stop offset="0" stop-color="#f19d9f"/><stop offset="0.38" stop-color="#f19b9d"/><stop offset="0.52" stop-color="#f39497"/><stop offset="0.61" stop-color="#f6888b"/><stop offset="0.69" stop-color="#fa787b"/><stop offset="0.73" stop-color="#fd6d71"/></linearGradient><linearGradient id="Безымянный_градиент_39" x1="635.91" y1="130.69" x2="584.39" y2="365.72" gradientUnits="userSpaceOnUse"><stop offset="0.12" stop-color="gray"/><stop offset="0.48" stop-color="#3e3e3e"/><stop offset="0.84"/></linearGradient><linearGradient id="Безымянный_градиент_89" x1="581.47" y1="218.07" x2="723.15" y2="263.55" gradientUnits="userSpaceOnUse"><stop offset="0" stop-color="#fff" stop-opacity="0.5"/><stop offset="0.06" stop-color="#e2e2e2" stop-opacity="0.42"/><stop offset="0.17" stop-color="#b4b4b4" stop-opacity="0.29"/><stop offset="0.29" stop-color="#8f8f8f" stop-opacity="0.18"/><stop offset="0.42" stop-color="#717171" stop-opacity="0.1"/><stop offset="0.56" stop-color="#5d5d5d" stop-opacity="0.04"/><stop offset="0.73" stop-color="#515151" stop-opacity="0.01"/><stop offset="1" stop-color="#4d4d4d" stop-opacity="0"/></linearGradient><linearGradient id="Безымянный_градиент_31" x1="573.04" y1="82.83" x2="401.55" y2="460.77" gradientUnits="userSpaceOnUse"><stop offset="0.36" stop-color="#fff"/><stop offset="0.43" stop-color="#f2f2f2"/><stop offset="0.56" stop-color="#cfcfcf"/><stop offset="0.73" stop-color="#969696"/><stop offset="0.95" stop-color="#484848"/><stop offset="1" stop-color="#333"/></linearGradient><linearGradient id="Безымянный_градиент_64-4" x1="527.22" y1="175.9" x2="396.73" y2="364.53" xlink:href="#Безымянный_градиент_64"/><linearGradient id="Безымянный_градиент_13" x1="521.02" y1="209.15" x2="494.71" y2="309.28" gradientUnits="userSpaceOnUse"><stop offset="0.29" stop-color="#f19d9f"/><stop offset="0.49" stop-color="#f19b9d"/><stop offset="0.56" stop-color="#f39497"/><stop offset="0.61" stop-color="#f6888b"/><stop offset="0.66" stop-color="#fa787b"/><stop offset="0.67" stop-color="#fd6d71"/></linearGradient><linearGradient id="Безымянный_градиент_28" x1="495.73" y1="361.08" x2="886.46" y2="516.78" gradientUnits="userSpaceOnUse"><stop offset="0.35" stop-color="#fff"/><stop offset="0.57" stop-color="#fdfdfd"/><stop offset="0.65" stop-color="#f6f6f6"/><stop offset="0.71" stop-color="#eaeaea"/><stop offset="0.76" stop-color="#dadada"/><stop offset="0.8" stop-color="#c4c4c4"/><stop offset="0.83" stop-color="#a8a8a8"/><stop offset="0.86" stop-color="#888"/><stop offset="0.89" stop-color="#626262"/><stop offset="0.92" stop-color="#393939"/><stop offset="0.92" stop-color="#333"/></linearGradient><linearGradient id="Безымянный_градиент_66-2" x1="649.05" y1="439.05" x2="999.25" y2="439.05" xlink:href="#Безымянный_градиент_66"/><linearGradient id="Безымянный_градиент_13-2" x1="636.17" y1="275.45" x2="527.66" y2="688.44" xlink:href="#Безымянный_градиент_13"/><linearGradient id="Безымянный_градиент_33" x1="854.69" y1="289.87" x2="943.46" y2="600.66" gradientUnits="userSpaceOnUse"><stop offset="0.12" stop-color="#fff"/><stop offset="0.19" stop-color="#e9e9e9"/><stop offset="0.42" stop-color="#9c9c9c"/><stop offset="0.62" stop-color="#636363"/><stop offset="0.77" stop-color="#404040"/><stop offset="0.84" stop-color="#333"/></linearGradient><linearGradient id="Безымянный_градиент_66-3" x1="878.84" y1="301.51" x2="842.99" y2="462.05" xlink:href="#Безымянный_градиент_66"/><linearGradient id="Безымянный_градиент_13-3" x1="1000.08" y1="311.38" x2="983.39" y2="374.89" gradientTransform="matrix(-1, 0, 0, 1, 1852.87, 0)" xlink:href="#Безымянный_градиент_13"/><linearGradient id="Безымянный_градиент_38" x1="797.41" y1="183.58" x2="777.31" y2="406.33" gradientUnits="userSpaceOnUse"><stop offset="0.12" stop-color="gray"/><stop offset="0.22" stop-color="#6a6a6a"/><stop offset="0.51" stop-color="#313131"/><stop offset="0.73" stop-color="#0e0e0e"/><stop offset="0.84"/></linearGradient><linearGradient id="Безымянный_градиент_88" x1="745.25" y1="245.27" x2="918.75" y2="347.63" gradientUnits="userSpaceOnUse"><stop offset="0" stop-color="#fff" stop-opacity="0.5"/><stop offset="0.27" stop-color="#cbcbcb" stop-opacity="0.35"/><stop offset="0.77" stop-color="#707070" stop-opacity="0.1"/><stop offset="1" stop-color="#4d4d4d" stop-opacity="0"/></linearGradient><linearGradient id="Безымянный_градиент_48" x1="842.51" y1="279.13" x2="779.83" y2="652.09" gradientUnits="userSpaceOnUse"><stop offset="0.43" stop-color="#3e1754"/><stop offset="0.51" stop-color="#a963d0"/><stop offset="0.61" stop-color="#743d92"/><stop offset="0.71" stop-color="#3e1754"/></linearGradient><linearGradient id="Безымянный_градиент_25" x1="615.27" y1="754.62" x2="719.29" y2="707.32" gradientTransform="translate(4.92 -16.68) rotate(0.36)" gradientUnits="userSpaceOnUse"><stop offset="0.27" stop-color="#fff2c3"/><stop offset="0.45" stop-color="#fff2c1"/><stop offset="0.51" stop-color="#fff0ba"/><stop offset="0.56" stop-color="#ffeeae"/><stop offset="0.59" stop-color="#ffea9e"/><stop offset="0.62" stop-color="#ffe588"/><stop offset="0.65" stop-color="#ffdf6d"/><stop offset="0.67" stop-color="#ffd94f"/></linearGradient><linearGradient id="Безымянный_градиент_25-2" x1="726.32" y1="619.08" x2="768.92" y2="619.08" gradientTransform="translate(74.92 -79.79) rotate(5.89)" xlink:href="#Безымянный_градиент_25"/><linearGradient id="Безымянный_градиент_25-3" x1="604.9" y1="627.45" x2="772.49" y2="699.15" xlink:href="#Безымянный_градиент_25"/></defs><path class="cls-1" d="M1100.27,779.27c1.54,20.61,2.4,42.74,2.23,66.23a813.42,813.42,0,0,1-6,93c8.39.93,17.41,1.65,27,2s18.59.31,27,0c4.25-10.34,8.3-21.34,12-33a432.14,432.14,0,0,0,20-125,68,68,0,0,0-24.75-12.69C1129.57,762.18,1105.69,776,1100.27,779.27Z" transform="translate(-417.29 -114.01)"/><path d="M1099.86,905.43l-3.36,33.07c8.39.93,17.41,1.65,27,2s18.59.31,27,0l12-33a125.5,125.5,0,0,1-62.64-2.07Z" transform="translate(-417.29 -114.01)"/><path class="cls-2" d="M836.5,732.5a437.69,437.69,0,0,1,15,71A441.93,441.93,0,0,1,847,941.32a100,100,0,0,0,64.5,5.18,559.45,559.45,0,0,0,32-149Z" transform="translate(-417.29 -114.01)"/><path class="cls-3" d="M836.5,732.5Q845.75,799.25,855,866c2.58-53.63,6.93-67.72,11-68,5.06-.35,6.24,20.85,22,37,15.46,15.84,38.13,19.85,58,20q-1.25-28.75-2.5-57.5Z" transform="translate(-417.29 -114.01)"/><path d="M853.5,898.5q-3.25,21.4-6.5,42.82a100,100,0,0,0,64.5,5.18l12-38a115.16,115.16,0,0,1-70-10Z" transform="translate(-417.29 -114.01)"/><path class="cls-4" d="M848.5,381.5c80-18.1,144.16-17.72,188-14,51.73,4.39,169.58,21.74,269,18,17.17-.65,49-2.48,68.18-25.05,16.71-19.7,16-46.12,15.82-53.95-.19-7.21-2.12-47.07-26-69-3.32-3.05-10.78-9.17-9.24-13.31,1.48-4,10.52-4.24,14.28-4,21.81,1.5,37.46,32.23,41,39.16,26.47,52,18.41,124.55-9,180.13-11.94,24.18-17.2,24.18-21,41-9.14,40.45,17.47,57.29,27.6,115.65,5,28.56,2.76,52.52-1.62,100.45a676.51,676.51,0,0,1-13,84.54c-8.86,39.45-27.14,101-68,172.36a305.46,305.46,0,0,1-34,0c-9.18-.51-17.78-1.41-25.73-2.53.26-4.18.6-11,.73-19.47.59-39.92-4.64-60.12-7-104-.43-8-.94-20.08-1-35A599.27,599.27,0,0,1,1036.09,788,481.88,481.88,0,0,1,1001.5,951.5a108.78,108.78,0,0,1-69-3,433,433,0,0,0,11-151c-18.84-3.94-71.21-17.55-107-65-28.49-37.78-32-77.81-33.25-93.44-4.35-55.92,18.31-79.54,34.25-157.56A547.26,547.26,0,0,0,848.5,381.5Z" transform="translate(-417.29 -114.01)"/><path class="cls-5" d="M1385.5,424.5c-13.34,44.14-22.74,55.86-30.4,71.09.81.5,1.62,1,2.42,1.47a74.35,74.35,0,0,0,15.52,6.83,68.89,68.89,0,0,1,1.46-23.39A58.53,58.53,0,0,1,1391,451c14.18-14.48,58.16-123.23,7-195a120.2,120.2,0,0,0-18-20,201.25,201.25,0,0,1,17.5,46.5C1410.6,337.28,1397.56,384.58,1385.5,424.5Z" transform="translate(-417.29 -114.01)"/><path class="cls-6" d="M935,937h.25q1.74-7.71,3.29-16.09C937.43,926.53,936.24,931.91,935,937Z" transform="translate(-417.29 -114.01)"/><path class="cls-7" d="M945.41,823.76a432,432,0,0,1-6.87,97.14A387.18,387.18,0,0,0,946,849C946.09,840.23,945.86,831.82,945.41,823.76Z" transform="translate(-417.29 -114.01)"/><path class="cls-8" d="M943.62,802.23c.76,6.84,1.37,14,1.79,21.53-.32-7.58-.83-14.78-1.45-21.57Z" transform="translate(-417.29 -114.01)"/><path class="cls-9" d="M1407.1,596.15c-7.29-42-23.09-62.46-28-85.71a82,82,0,0,1-20.81-8.91l-.78-.48A132.62,132.62,0,0,0,1350,524c-21.58,89.42,27.59,146.34,21.5,265.5-.71,13.92-3.37,51-29,74-5,4.53-17.34,15.27-32.5,13.5-17-2-27.28-18.59-30-23-24.24-39.28,9.42-80.61-7-97-19.24-19.21-68.75,35.39-145,29-48.73-4.08-43.64-27.62-105-34.9-42.87-5.08-64.57,4.13-113-9.1-17.51-4.78-32.81-9-49-20-41.45-28.25-52.32-76.61-55.5-95.5-.78,13.75-1.77,61.13,31,106,35.13,48.1,85.42,61,102.83,64.27L943,797a125.23,125.23,0,0,1,4,19,126.87,126.87,0,0,1-1,39c29.19,14.52,47,12.81,58,8,7.31-3.18,13.33-8.44,17-6,4.29,2.86,1.44,13.63-3.81,35.79-4.16,17.59-7.31,31.68-9.19,40.21l-72.75,4q-1.34,6-2.75,11.51a108.78,108.78,0,0,0,69,3A481.88,481.88,0,0,0,1036.09,788a599.27,599.27,0,0,0,221.41,4.54c.06,14.92.57,27,1,35,2.36,43.88,7.59,64.08,7,104-.13,8.44-.47,15.29-.73,19.47,8,1.12,16.55,2,25.73,2.53a305.46,305.46,0,0,0,34,0c40.81-71.41,59.09-132.91,68-172.36a676.51,676.51,0,0,0,13-84.54C1409.86,648.67,1412.05,624.71,1407.1,596.15Z" transform="translate(-417.29 -114.01)"/><path d="M1264.69,899.6c.56,9.09.87,18.74.81,28.9q-.07,11.71-.73,22.47c9.46,1.18,19.73,2.09,30.73,2.53,10.31.41,20,.36,29,0q5.48-10.49,11-21,9-17.1,18-34a156.25,156.25,0,0,1-88.81,1.1Z" transform="translate(-417.29 -114.01)"/><path d="M942.5,900.5q-5,24-10,48a108.78,108.78,0,0,0,69,3l15-42a114.36,114.36,0,0,1-74-9Z" transform="translate(-417.29 -114.01)"/><path class="cls-10" d="M1373.5,221.5l-17,11a61.57,61.57,0,0,1-26.49-8c-4.77-2.74-15.12-8.85-21.55-21.09-8.39-16-4.94-32.54-4-36.95,4.23-19,15.93-25.94,12-36-3-7.71-12.25-9.68-11.4-12.09,1-2.69,13.28-2.93,24.4,2.09,18.58,8.38,25.49,27.72,29,26,2.56-1.25.18-12.19,0-13-1.34-6-3.68-9.54-3-10,.9-.6,5.74,5.1,9,9,9.54,11.42,14.3,17.13,16,20,6.58,11.12,11.56,29,6,47A56.19,56.19,0,0,1,1373.5,221.5Z" transform="translate(-417.29 -114.01)"/><path class="cls-11" d="M1363.91,227.7l-7.41,4.8a61.57,61.57,0,0,1-26.49-8c-4.77-2.74-15.12-8.85-21.55-21.09-8.39-16-4.94-32.54-4-36.95,4.23-19,15.93-25.94,12-36-2.76-7.08-12.29-9.39-11.4-12.09.63-1.92,5.65-2,9.46-1.78,4.72-.4,11.94-.38,14.94,3.87,7.15,10.13-19.07,30.77-18.5,53.5C1311.33,187.05,1320.61,205.69,1363.91,227.7Z" transform="translate(-417.29 -114.01)"/><path class="cls-12" d="M1054.67,584.4c-13.22,1.25-15.71-6.06-29.17-4.9-1.69.15-18.32,1.84-28,15-10.59,14.41-7.35,35.08.9,47.73,6.29,9.64,11.2,8,38.1,24.27,26.56,16,32,23.79,41.37,21.28,5.1-1.37,6.91-4.59,19.63-25.28,21.63-35.17,25.13-40.06,25.92-50.74.47-6.31,1.52-20.43-7.92-30.26-10.93-11.39-28.54-9.32-31-9C1069.74,574.45,1068.75,583.08,1054.67,584.4Z" transform="translate(-417.29 -114.01)"/><path class="cls-13" d="M1059.5,372.5c-14.33,22.44-18.58,42.38-20,54.19-1.8,14.48-3.58,25.7,3.48,33.68,9.29,10.49,26.54,9.2,37.51,17.91,10,7.9,6.46,13.92,15.88,26.78,13.91,19,34.4,26.17,41.18,28.44s35.54,11.91,60.56-1.14c25.47-13.28,16.91-34.2,51.44-63.86,13.3-11.43,21.11-13.94,25.41-25.54,5.13-13.83,2.73-33.74-10.34-46.36a41.91,41.91,0,0,0-18.07-10.1Z" transform="translate(-417.29 -114.01)"/><path class="cls-14" d="M1379.5,480.5c-7.16.25-52.67,2.58-83.31,40.34-20.11,24.77-24,50-24,80.78,0,10.33,1,21,5.68,30.16s14,16.63,24.32,16.62c11.22,0,24.79-7.66,32.12.84,4.08,4.72-.92,10.71,0,23.85,1,15.63,10.36,33.43,26.23,41.41,4.23,2.13,15,7.55,25,4,29.08-10.33,24.34-87.06,24-92-1.84-26.44-4.45-63.82-22-91-3.08-4.77-12-17.62-12-35A54.25,54.25,0,0,1,1379.5,480.5Z" transform="translate(-417.29 -114.01)"/><path d="M1096.48,798.49q1.43,28.28.89,56.6-.51,27.48-2.89,54.88-1.24,14.29-3,28.53A5,5,0,0,0,1093,942a5.76,5.76,0,0,0,3.54,1.46,368.92,368.92,0,0,0,54,2,5.24,5.24,0,0,0,4.82-3.67,427.63,427.63,0,0,0,18.94-57.34A439.76,439.76,0,0,0,1184.6,828q1.65-14,2.4-28a5,5,0,0,0-5-5,476.94,476.94,0,0,1-63.71-.07q-8.41-.57-16.81-1.44c-2.61-.27-5.12,2.49-5,5,.13,2.94,2.2,4.71,5,5a478.13,478.13,0,0,0,63.09,2.34q8.73-.26,17.43-.83l-5-5q-.66,12.3-2,24.56-.36,3.27-.77,6.54c-.13,1-.27,2.08-.4,3.11-.1.76.11-.84,0-.08l-.12.84c-.08.63-.17,1.26-.26,1.89q-1,6.74-2.12,13.45A427.57,427.57,0,0,1,1157.08,908q-5.08,15.78-11.4,31.13l4.82-3.67a368.92,368.92,0,0,1-54-2l5,5q3.15-25.89,4.67-52,1.63-28.37,1.29-56.81-.2-15.63-1-31.24c-.14-2.61-2.21-5.13-5-5C1098.88,793.61,1096.34,795.69,1096.48,798.49Z" transform="translate(-417.29 -114.01)"/><path d="M831.68,733.83q5.9,19.71,10,39.91a406.08,406.08,0,0,1,6.5,44.9,439.8,439.8,0,0,1-.52,84.31c-.35,3.37-.73,6.75-1.15,10.11l-.33,2.55c0,.36-.09.73-.14,1.09.21-1.48,0,.18-.07.46q-.31,2.3-.66,4.59-1.35,9.15-3.08,18.24c-.37,2,.2,4.74,2.3,5.64a104.21,104.21,0,0,0,61.7,7.14c1.41-.25,2.81-.54,4.21-.86.66-.15,1.34-.29,2-.48a5.72,5.72,0,0,0,4.07-4c1.19-3.21,2.3-6.45,3.4-9.69q7.25-21.19,12.77-42.94,6-23.67,10-47.81,3.61-22.17,5.52-44.59c.14-1.64.27-3.28.39-4.93.15-2-1.64-4.51-3.67-4.82a164,164,0,0,1-21.92-4.86q-6.75-2-13.3-4.56c-1.1-.43-2.19-.88-3.28-1.33-.73-.3.67.29-.05,0l-.84-.36-1.89-.84q-3.66-1.65-7.25-3.48-7-3.6-13.68-7.87c-2-1.27-4-2.6-5.88-4-1-.69-1.93-1.38-2.88-2.08l-1.32-1-.65-.49c-.75-.57.36.28-.11-.08a169.67,169.67,0,0,1-18.26-16.58q-3.94-4.17-7.59-8.6c-.51-.62-1-1.25-1.52-1.88l-.81-1-.38-.49-.35-.46-.72-.94c-.45-.6-.89-1.21-1.33-1.81-1.54-2.11-4.42-3.36-6.84-1.8-2.09,1.35-3.45,4.58-1.8,6.84a167.11,167.11,0,0,0,84.29,61.27,162.86,162.86,0,0,0,25.7,6l-3.67-4.82q-1,13.82-2.76,27.56c-.14,1.15-.29,2.31-.44,3.46,0,.32-.26,1.93-.11.86-.09.66-.18,1.32-.28,2-.34,2.45-.69,4.9-1.07,7.34q-1.17,7.69-2.56,15.36a560.2,560.2,0,0,1-14.75,61.4q-4.5,15-9.85,29.71l3.49-3.49q-2.61.66-5.25,1.19c-.89.17-1.77.33-2.66.48l-1.49.25-.76.11-.49.07-.32,0-.81.1-1.63.18c-1.2.12-2.4.22-3.61.29-2.42.16-4.85.22-7.28.2-2.62,0-5.23-.15-7.84-.39-1.13-.1-2.26-.22-3.39-.35s-.19,0,0,0l-.87-.12-1.92-.3a100.46,100.46,0,0,1-12.46-2.89q-2.89-.87-5.73-1.91c-.9-.33-1.79-.67-2.68-1l-1.18-.48-.5-.21c.47.19,1,.42.22.09l2.29,5.65a456.18,456.18,0,0,0,8-74.26,443.85,443.85,0,0,0-7.48-92,439.34,439.34,0,0,0-11-45.26,5,5,0,0,0-9.64,2.66Z" transform="translate(-417.29 -114.01)"/><path class="cls-15" d="M1125.54,800.45C1121,822.19,1125,832.08,1130,837c3.26,3.19,8.61,5.87,8,9-.75,3.84-9.26,2.75-12,8-2.57,4.92.44,14.39,8,18,7.4,3.54,16.13,0,19-5s-1.15-10.12,2-13,9.71-.92,13.65,2c1,.77,4.86,3.58,5.35,8s-2.87,5.83-3,10c-.17,5.4,5.21,11.07,11,13,8.87,3,19.32-2.65,21-9,1.58-6-5.29-9.92-3-15,1.94-4.3,8.76-5.68,13.31-5.11,1.11.14,6.32.8,7.69,4.11,1,2.44-1.07,3.89-1,7,.13,5.29,6.39,10.79,13,12,1,.18,8.84,1.49,14-4s4.34-14.12,1-19c-3.23-4.71-7.11-3.34-9-7-3.41-6.62,7.45-14.69,10.54-28,1.4-6,1.64-14.85-4-26.95Z" transform="translate(-417.29 -114.01)"/><path d="M847.67,389.82A104.33,104.33,0,0,0,916,379.75q3.16-1.67,6.18-3.56,1.24-.78,2.46-1.59a9.43,9.43,0,0,1,1.27-.86c-1.32.59,1.23,0,1.71,0q10.85-.85,21.72-1.42,19.49-1,39-1.09c45.74-.17,91.15,4.54,136.57,9.46,53.83,5.83,107.75,11.06,162,10.32,20.26-.28,41.51-.27,60.8-7.33,21.91-8,37.79-24.81,43.76-47.51,8.07-30.63,1.52-67.77-17.09-93.23a95.68,95.68,0,0,0-11.82-13.45l-1,7.86q9.78-5.58,19-12l-6.06-.78c22,19.14,37.36,43.63,43.73,72.23,6,26.81,4.14,54.94-1.78,81.59a274.69,274.69,0,0,1-17.67,53.22,186.93,186.93,0,0,1-13,23.92c-5.16,8-9.36,15.6-11.33,25.05a75.74,75.74,0,0,0,.09,32.11c2.27,10.14,6.52,19.72,10.54,29.25,10.18,24.17,18,49.12,19.55,75.46,1.65,27.76-1.79,55.91-4.49,83.5a653.51,653.51,0,0,1-11.84,76.21c-11.43,52.22-30.4,102.67-55,150.07q-6.26,12-13,23.83l4.32-2.48a304.92,304.92,0,0,1-58.4-2.35l3.67,4.82a418.15,418.15,0,0,0-.81-60.79c-1.8-20.9-4.33-41.72-5.46-62.68-.63-11.66-.94-23.33-1-35,0-3.52-3.17-5.35-6.33-4.82a597,597,0,0,1-175.33,2.89c-14.56-1.92-29-4.43-43.42-7.43a5.08,5.08,0,0,0-6.33,4.82,479.62,479.62,0,0,1-23.42,132q-5,15.28-11,30.21l3.49-3.49a105.73,105.73,0,0,1-66.34-3l3.49,6.15A440.76,440.76,0,0,0,948.5,797.5c-.21-2.1-1.39-4.34-3.67-4.82-24.71-5.19-48.45-14.9-69.19-29.37-31.69-22.1-52.92-54.93-62.2-92.23a192.91,192.91,0,0,1-5.73-44.42l-1.46,3.54a267,267,0,0,0,42.9-73.56,259.17,259.17,0,0,0,15.28-124.2,266.5,266.5,0,0,0-10.61-48.77c-2-6.1-11.61-3.49-9.64,2.66a254.74,254.74,0,0,1,10.88,103.16,251.57,251.57,0,0,1-37,107.33q-5.12,8.2-10.84,16c-1.48,2-3,4-4.43,5.84s-4.17,4.28-4.86,6.65c-.58,2-.13,4.68,0,6.71q.15,3.74.45,7.46.27,3.39.64,6.76c.74,6.59,1.75,13.16,3.09,19.66,7.87,38.19,27.34,73.17,57.79,97.88,22.29,18.1,48.88,30.61,76.77,37.27q2.79.66,5.59,1.25l-3.67-4.82a432.54,432.54,0,0,1-10.82,149.67,5.14,5.14,0,0,0,3.49,6.15,113.75,113.75,0,0,0,45.54,7.28,116.85,116.85,0,0,0,22-3.19c3.31-.81,6-1.25,7.6-4.58s2.75-7,4-10.44a483.84,483.84,0,0,0,25.12-95.63,497.34,497.34,0,0,0,5.6-58.8l-6.33,4.83a606.53,606.53,0,0,0,179.07,10.35q22.61-2.07,45-5.82l-6.33-4.82q.16,32.57,3.25,65c1.83,19.31,4.18,38.56,4.67,58,.3,11.84,0,23.68-.65,35.5-.11,1.94,1.62,4.54,3.68,4.82a316.47,316.47,0,0,0,56.22,2.94c1.85-.07,4.38.16,6.16-.41,2.41-.77,3.27-2.79,4.44-4.84q3.88-6.88,7.62-13.85,6.79-12.68,13-25.64a636.16,636.16,0,0,0,35-88.91C1402,772.76,1409,718.86,1413.3,664.41c2.11-26.88,2.5-53.36-3.41-79.83A251.39,251.39,0,0,0,1396,542.52c-4.34-10.4-9.16-20.76-11.73-31.78a65,65,0,0,1,1-32.66c2.74-9.67,9.38-17.48,14.29-26.1,9-15.77,15.71-32.94,21-50.26,8.17-26.68,12.79-55,10.8-83-2.15-30.19-12.41-59-31.59-82.61a151.93,151.93,0,0,0-18.24-18.69c-1.58-1.36-4.18-2.09-6.06-.78q-9.24,6.44-19,12a5.06,5.06,0,0,0-1,7.86c23.14,21.7,32.45,56,28.33,87a68.73,68.73,0,0,1-9.86,28.19c-5.82,9.08-14.35,15.78-24.07,20.29-17.15,7.94-36.6,8.36-55.14,8.8-52.9,1.25-105.59-3.28-158.13-8.91-44.32-4.75-88.63-9.95-133.24-10.63q-37.89-.59-75.72,2.42c-3,.23-5.2.35-7.71,2-1.79,1.21-3.63,2.36-5.5,3.45a90.28,90.28,0,0,1-14.72,6.94,94.17,94.17,0,0,1-37,5.53,92.79,92.79,0,0,1-12.34-1.49C844,379,841.35,388.62,847.67,389.82Z" transform="translate(-417.29 -114.01)"/><path d="M1372.24,219.34l-17,11,1.26-.34a62.09,62.09,0,0,1-32.83-12.56,46.73,46.73,0,0,1-12.75-14.69,47.29,47.29,0,0,1-5.46-22.11,63.14,63.14,0,0,1,.52-8.42c.2-1.42.56-3.41.93-5.06a67.71,67.71,0,0,1,7.35-18.13c2.33-4.18,5-8.47,5.48-13.34.52-5.49-2.7-10.46-6.88-13.73-1.06-.83-2.15-1.6-3.27-2.34-.41-.26-.81-.53-1.21-.8l-.56-.4c-.23-.16.14.11.15.12l-.32-.26c-.11-.1-.21-.22-.32-.31-.42-.34.22.34,0,.06-.06-.11.13.35.14.44a1.22,1.22,0,0,1-.16,1c-.28.49-.32.39-.17.23s.06,0,0,0c-.69,0,.15.13,0,0l.27-.16c.38-.21-.41.12.05,0,.26-.07.52-.16.78-.22a7.37,7.37,0,0,1,.79-.16,2.2,2.2,0,0,1,.37-.06c-.06,0-.33,0,0,0,.72-.08,1.45-.12,2.17-.13a36,36,0,0,1,4.87.3,44.46,44.46,0,0,1,11,3,46.28,46.28,0,0,1,15.43,10.91,126.49,126.49,0,0,1,9.12,11.14c1.7,2.2,4.5,6.14,7.78,4.36,2.09-1.14,2.44-3.75,2.48-5.9a40.36,40.36,0,0,0-.76-7.34,43.5,43.5,0,0,0-1.55-6.37c-.46-1.41-1-2.79-1.55-4.17-.15-.4-.28-.8-.43-1.2s0-.64,0,.12-.38.68-1.39,1.28c-.07,0-1.48,1-1.63.66,0,.08.59.39.16.07a7.84,7.84,0,0,1,.63.54c.51.46,1,1,1.47,1.46,1.17,1.22,2.29,2.5,3.39,3.79,2.49,2.92,4.93,5.88,7.39,8.83,2,2.4,4,4.8,5.94,7.23.59.73,1.55,1.94,1.91,2.4-.15-.2.25.32.31.41s.27.35.41.53c.24.33.48.65.71,1a49.77,49.77,0,0,1,6.89,15.18,56.85,56.85,0,0,1,1.85,23.52,52.55,52.55,0,0,1-8.58,22.07,55.91,55.91,0,0,1-5.61,6.95c-2.2,2.35,1.33,5.89,3.54,3.54a58.4,58.4,0,0,0,15.81-46,65.56,65.56,0,0,0-6.92-23.29,65.86,65.86,0,0,0-7.76-11c-4.8-5.89-9.58-11.87-14.69-17.5-1.6-1.76-4.61-5.7-7.41-4.13s-.81,4.85,0,6.9a45.2,45.2,0,0,1,2.17,7.66,32.13,32.13,0,0,1,.74,6.8c0,.32,0,.63,0,.94,0,.11,0,.23,0,.34,0,.39.08-.41,0,0s-.11.44-.15.65c-.06.37-.11-.11.08-.12a2,2,0,0,0-.14.26c.2-.24.21-.29.38-.38-.28.15.72-.24.28-.13.57-.14.33-.13.9,0-.42-.09.06,0,.22.13a3.08,3.08,0,0,0-.58-.35c.62.3.28.23.07,0l-.38-.36a20.79,20.79,0,0,1-1.56-1.82l-.41-.51c-.17-.22.07.09.09.11l-.25-.32-1.05-1.39c-.79-1-1.58-2.08-2.39-3.12a85,85,0,0,0-5.57-6.56,51.5,51.5,0,0,0-17.33-12.28,49.27,49.27,0,0,0-12.57-3.35,28.67,28.67,0,0,0-9.56.09c-2.3.49-4.92,1.94-4.6,4.67.25,2.23,2.48,3.5,4.17,4.62a21.84,21.84,0,0,1,5.84,4.9,10.76,10.76,0,0,1,1.85,3.63,7,7,0,0,1,.19.76c0,.18.13.82.07.31a9.78,9.78,0,0,1,.06,1.71c0,.25,0,.49,0,.74s0-.11,0-.14c0,.14,0,.28-.07.42q-.17.81-.39,1.59c-.17.54-.36,1.08-.57,1.6a2.61,2.61,0,0,1-.16.39c-.14.29-.27.59-.41.88-1.19,2.49-2.61,4.86-3.93,7.28a69,69,0,0,0-7.34,19,62.89,62.89,0,0,0-1.27,17.36,50.92,50.92,0,0,0,8,24.48,54.46,54.46,0,0,0,14.83,14.78,68,68,0,0,0,18.44,8.94,65.42,65.42,0,0,0,10.45,2.22,32.5,32.5,0,0,0,3.93.4c1.25,0,2.15-.75,3.15-1.39l3.32-2.15,12-7.78C1377.45,221.92,1375,217.59,1372.24,219.34Z" transform="translate(-417.29 -114.01)"/><path class="cls-16" d="M584.5,260.5c-3-3.27-3.3-7-3.94-13.75-1.19-12.65,4.84-24.69,16.94-48.25,1.7-3.3,4-7.64,8.23-8.61,3.11-.71,6.64.53,12.77,5.61,0,0,20.65,17.1,24.34,42.74a13.69,13.69,0,0,1-.65,7.19,14.58,14.58,0,0,1-5.72,6.48C630.71,255.72,596.63,274,584.5,260.5Z" transform="translate(-417.29 -114.01)"/><path class="cls-17" d="M581,254c-1.18-1-1-3.05-.44-7.25,1.31-9.31,2-14,3.44-18.75,3.81-12.28,6.47-20.7,13.5-29.5,3.15-3.94,8.27-9.32,9.5-8.5,1.53,1-4.51,10.44-8,22-2.7,8.95-4.39,20.83-2,36C593.58,250.38,584.07,256.69,581,254Z" transform="translate(-417.29 -114.01)"/><path d="M586,254a65.27,65.27,0,0,1-.19-13.33c.05-.54.12-1.07.18-1.61.1-.89,0,.29,0,.37a3.43,3.43,0,0,0,.12-.79c.16-1,.36-2.08.59-3.11a58.21,58.21,0,0,1,1.6-5.82c.32-1,.67-2,1-2.91l.48-1.24.31-.78c.06-.15.5-1.26.21-.5s.11-.27.15-.36.18-.42.28-.63q.35-.81.72-1.62c.48-1,1-2.1,1.48-3.15,2.34-4.88,4.87-9.67,7.35-14.47,1.11-2.15,2.14-4.37,3.44-6.41.17-.27.48-1,.76-1.12l-.37.47.33-.39c.18-.21.36-.42.56-.63l.48-.46c.23-.21.87-.44.27-.25s.14-.06.32-.17l.29-.16c.49-.24.39-.21-.28.08.24-.57,3.11-.24.42-.25.48,0,1,0,1.44,0,1.08,0-1.31-.28-.34,0l.92.21c.34.1.67.25,1,.34.61.18-1.23-.57-.35-.14.27.12.53.24.79.38a21.7,21.7,0,0,1,2.61,1.6l.64.46c1.11.78-.76-.68.33.26.57.49,1.15,1,1.7,1.47a53.36,53.36,0,0,1,4.83,5l1.07,1.29.58.74c-.65-.89-.24-.32-.1-.12.74,1,1.48,2,2.18,3.05,1.33,2,2.58,4,3.75,6,1.3,2.28,2.51,4.61,3.64,7,.54,1.11,1.05,2.23,1.55,3.36.26.57.51,1.14.76,1.72.13.32.55,1,0-.11a7.27,7.27,0,0,1,.38.91q2.31,5.63,4.19,11.4l4.83-6.33a201.43,201.43,0,0,0-50.65,10.95c-4.63,1.66-9.2,3.52-13.71,5.49-2.41,1.06-3.14,4.76-1.8,6.84,1.61,2.5,4.27,2.92,6.84,1.8l1.28-.56c.25-.1,1.54-.64.48-.21l2.69-1.1q2.79-1.12,5.63-2.16,6.09-2.23,12.33-4.06a196.4,196.4,0,0,1,25.26-5.62c1.1-.16,2.19-.36,3.29-.47l-.31,0,1-.13,1.58-.19c2-.24,4-.44,6.09-.62,3-.26,5.91-3,4.82-6.33a151.34,151.34,0,0,0-10.23-24.37c-5-9.29-11.51-18.63-20.44-24.51-3-2-6.85-3.63-10.57-3.26-5.63.56-9.55,4.51-12.2,9.25-2.76,4.93-5.25,10-7.8,15.09-2.32,4.62-4.54,9.29-6.42,14.1A64.54,64.54,0,0,0,576,254c.29,2.59,2.09,5.13,5,5C583.46,258.89,586.31,256.78,586,254Z" transform="translate(-417.29 -114.01)"/><path class="cls-18" d="M507.5,306.5c-25.29-7.42-25.3-3.4-36-8-16.63-7.16-27.67-31.51-49.76-80.22-1.07-2.36-3.08-7.37-1.11-10.73,2.89-4.9,10.18-3.36,15.67-1.9,21.65,5.78,44.7.06,67,2.55a92.62,92.62,0,0,1,68,43.64c7,11.7,11.06,27.52,2.89,38.46-2.66,3.56-7.79,6.41-18.15,12-9.74,5.3-14.61,7.94-20.46,9C526.24,313,520.19,310.22,507.5,306.5Z" transform="translate(-417.29 -114.01)"/><path class="cls-19" d="M519,310a58.05,58.05,0,0,0-14-8c-15.06-6-23-1.52-33.5-3.5-14.59-2.75-26.34-28.56-49.76-80.22-1.07-2.36-3.08-7.37-1.11-10.73,2.67-4.53,12.45-2.47,15.67-1.9,12.11,2.16,32,3.59,67,2.55A96.38,96.38,0,0,1,465,218c-15.66.6-22.89-3.12-26,1-5.8,7.68,8.74,34.71,31,48,8.29,4.95,22.41,10.84,30,14,14,5.83,22.35,8.38,24,15C525.29,301.19,521.87,306.52,519,310Z" transform="translate(-417.29 -114.01)"/><path class="cls-20" d="M532,282c-1.26,2.79-2.59,4.17-4,5-4.78,2.82-11.22-.18-15-2-15.08-7.26-22.26-21.49-23-23-6.72-13.76-7.69-30.63-4-32,2.18-.81,4,4.53,11,10,14,10.88,25,3.86,33,13C537.5,261.54,534.88,275.6,532,282Z" transform="translate(-417.29 -114.01)"/><path d="M480.05,222.9c2.18,5.74,5.33,11.19,10,15.25a29,29,0,0,0,10.78,5.75c6.23,2,12.41,4.11,18.48,6.54a38.87,38.87,0,0,1,6.45,3.15c.38.25.76.51,1.12.78-.33-.25.05,0,.17.15l.54.49c.29.28.55.58.82.88s0,0,0,0l.33.46a19.34,19.34,0,0,1,1.26,2.21l.13.3c-.1-.24-.07-.18,0,0s.23.6.33.91c.2.59.37,1.19.51,1.79a26.66,26.66,0,0,1,.06,10.23,2.57,2.57,0,0,0,1.75,3.07,2.52,2.52,0,0,0,3.07-1.75c1-5.89,1-12.11-1.77-17.55A17.67,17.67,0,0,0,526,248c-6-3.06-12.67-5.21-19.07-7.36-2.21-.74-4.44-1.4-6.65-2.15-.35-.11-.69-.23-1-.36l-.56-.21c-.39-.16.43.21-.08,0-.67-.33-1.33-.65-2-1-5.65-3.44-9.49-9.26-11.75-15.23a2.56,2.56,0,0,0-3.07-1.74,2.52,2.52,0,0,0-1.75,3.07Z" transform="translate(-417.29 -114.01)"/><path d="M508.16,304.09c-6.06-1.7-12.19-3.15-18.38-4.27-3.78-.68-7.6-1.18-11.37-1.92a35,35,0,0,1-4.29-1.08l-1-.34-.49-.19c-.56-.22.51.23,0,0s-1.24-.57-1.84-.88a30.28,30.28,0,0,1-3.56-2.22l-.73-.54c.54.41-.36-.29-.5-.4q-.92-.75-1.77-1.56a45.47,45.47,0,0,1-3.29-3.37c-.57-.64-1.12-1.3-1.66-2-.72-.9-.75-.93-1.4-1.81a110.06,110.06,0,0,1-6.61-10.09c-5.44-9.25-10.09-19-14.64-28.68-2.88-6.14-5.7-12.32-8.51-18.5-1.51-3.31-3.11-6.59-4.51-9.95-.76-1.83-1.92-4.94-1-7.14.76-1.79,2.62-2.35,4.41-2.44a26,26,0,0,1,7.68,1.08,97.75,97.75,0,0,0,21.93,3c14.93.37,29.86-1.66,44.77-.29.67.06,1.34.12,2,.2.2,0,1.17.17.3,0l1.84.29q2.18.39,4.32.9a101.67,101.67,0,0,1,10.68,3.21c18.68,6.69,36.63,18.81,47.45,36.05a74.28,74.28,0,0,1,4.28,7.84l1.5-3.67a89.59,89.59,0,0,0-50.34,39.55,92.11,92.11,0,0,0-6.86,14.39l3.07-1.75q-5.7-1.83-11.48-3.46c-3.1-.88-4.42,4-1.32,4.82q5.76,1.63,11.47,3.46a2.56,2.56,0,0,0,3.08-1.74A84.76,84.76,0,0,1,564,264.5a83,83,0,0,1,11.12-4.32,2.54,2.54,0,0,0,1.49-3.67c-9.68-20.55-28.3-35.27-48.91-43.93a96.16,96.16,0,0,0-21.29-6.45c-13.46-2.24-27.31-.67-40.85-.35a114.94,114.94,0,0,1-22.63-1.23c-6-1.06-12.26-3.82-18.43-2.5a9,9,0,0,0-6.57,5.47c-1.12,2.86-.55,6.17.44,9,1.16,3.32,2.81,6.5,4.26,9.7l4.56,10c5.08,11.08,10.18,22.18,15.95,32.92,4,7.49,8.38,14.94,14,21.37,4.13,4.74,9.18,8.86,15.18,11a54.88,54.88,0,0,0,9.5,2c4.95.8,9.89,1.66,14.79,2.76,3.44.78,6.86,1.67,10.26,2.62C509.94,309.78,511.26,305,508.16,304.09Z" transform="translate(-417.29 -114.01)"/><path class="cls-21" d="M753.52,266.34c-60-43.58-140.7-31.63-185.74-5.95-17,9.68-37,19.81-46.61,42.19-7.66,17.84-6.41,39.8-19.14,54.44-10.38,11.94-27.26,15.6-40.17,24.73-10,7.09-17.45,17.35-23.38,28.12-17.73,32.14-23.06,73.61-4.1,105,10.73,17.78,28,30.67,46.28,40.61,54.74,29.82,119,36.15,181.35,37.58,44,1,93-2.14,123.6-33.71,15.85-16.34,24.48-38.22,32-59.7,12-34.14,13.26-55.27,13.26-60.67a145,145,0,0,0-5.24-37.7C812,349.15,798.88,299.3,753.52,266.34Z" transform="translate(-417.29 -114.01)"/><path class="cls-22" d="M755,285a65.76,65.76,0,0,0-3,12c-5.54,36.75,22.89,65.77,35,85,30.55,48.52,12.6,122.7-6,153-38,62-164.61,80-300.34,20.52,76.76,32.65,141.67,37.8,181.35,37.58,46.59-.26,92.87-2.05,123.6-33.71,15.85-16.34,24.48-38.22,32-59.7,12-34.14,13.26-55.27,13.26-60.67a143.07,143.07,0,0,0-5.24-37.7C811.72,347.92,767.83,298.83,755,285Z" transform="translate(-417.29 -114.01)"/><path d="M697,566.82A62,62,0,0,0,719.22,549a80.36,80.36,0,0,0,12.19-22.62c4.83-13.56,6.61-28.24,6.67-42.59q0-7.14-.58-14.26c-.22-2.6-2.14-5.13-5-5-2.52.11-5.23,2.21-5,5a155.86,155.86,0,0,1-.33,30.39c-.09.83-.19,1.65-.3,2.48,0,.32-.16.95.07-.5,0,.19-.05.37-.08.56-.07.51-.15,1-.23,1.54q-.4,2.64-.92,5.27a106.52,106.52,0,0,1-2.79,11c-.57,1.84-1.21,3.67-1.9,5.47q-.21.57-.45,1.14c-.13.35-.94,1.86-.2.51-.46.84-.78,1.8-1.19,2.67a70.75,70.75,0,0,1-5.78,10.11c-.32.47-.66.94-1,1.4l-.47.63-.19.26.21-.27c-.35.16-.74.92-1,1.23l-1,1.21a56.28,56.28,0,0,1-4.7,4.82c-.88.81-1.79,1.59-2.72,2.34a2.42,2.42,0,0,1-.52.41c.58-.44.66-.5.23-.18l-.26.2q-.9.68-1.83,1.32a60.1,60.1,0,0,1-8.17,4.68c-2.37,1.13-3.17,4.71-1.8,6.84a5.14,5.14,0,0,0,6.84,1.8Z" transform="translate(-417.29 -114.01)"/><path class="cls-23" d="M725.5,459c13.2,31.43,1.34,72.3-21,96.4-39.08,42.17-105.6,30.48-140.5,24.35-33.67-5.92-91.8-16.13-117-64.6-2.49-4.78-22.15-44.22-4-85.47,1.16-2.64,19.82-43.36,60.5-53.17,14.66-3.53,20.53-1.28,67,9.94,68.72,16.59,76.77,10.19,105,25.84C693.46,422.22,715.1,434.22,725.5,459Z" transform="translate(-417.29 -114.01)"/><path d="M713,476.82c.37-.2.74-.4,1.11-.58l.68-.33.38-.17c.59-.27.56.05-.35.14a12.37,12.37,0,0,0,2.12-.79c.89-.3,1.79-.55,2.7-.77a17.22,17.22,0,0,1,2.93-.56l.75,0c.59,0,1.19-.07,1.78-.08a34.42,34.42,0,0,1,3.8.2c-1.06-.11.53.11.89.18.7.14,1.4.3,2.09.49,1,.28,2,.64,3,1,.71.26-1.11-.52-.06,0l.63.29c.51.24,1,.5,1.5.77.77.42,1.51.88,2.23,1.37.4.26.77.56,1.16.82.55.36-.76-.64-.28-.21.23.2.48.38.71.57a34.11,34.11,0,0,1,3.53,3.48l.75.9.31.39c.39.47-.67-.91-.33-.43s.86,1.16,1.26,1.77a29.92,29.92,0,0,1,2.63,4.77c1,2.42,4.77,3.14,6.84,1.8,2.51-1.62,2.9-4.26,1.8-6.84a36.05,36.05,0,0,0-9.38-12.62,34.84,34.84,0,0,0-29.29-8A35.77,35.77,0,0,0,708,468.18a5.05,5.05,0,0,0-1.8,6.84,5.11,5.11,0,0,0,6.84,1.8Z" transform="translate(-417.29 -114.01)"/><path d="M628.5,439.5c-10.41-7.18-32.64,3.42-41,20-6.39,12.67-6,31.49,3,37,11.12,6.79,35.06-6.86,42-26C636.08,460.62,636.65,445.12,628.5,439.5ZM608,470c-10.8,11.48-13.22,14.79-15,14-2.89-1.29-2.56-12.77,3-21,8.41-12.46,27.24-15.16,29-12C625.8,452.44,622.66,454.42,608,470Z" transform="translate(-417.29 -114.01)"/><path d="M629.76,437.34c-4.53-3.06-10.4-3.06-15.55-1.89a43.42,43.42,0,0,0-17,8.57,42.68,42.68,0,0,0-12.58,15.75,45.26,45.26,0,0,0-3.9,20.58c.3,5.9,1.83,12.6,6.41,16.71,4.06,3.65,9.52,4.19,14.7,3.28A39.45,39.45,0,0,0,617.91,493a50.36,50.36,0,0,0,13.75-14.92,43.48,43.48,0,0,0,5.72-19c.46-6.19-.24-13.28-4.11-18.38a15.64,15.64,0,0,0-3.51-3.38,2.5,2.5,0,1,0-2.52,4.32,11.79,11.79,0,0,1,3.85,5.44,25.12,25.12,0,0,1,1.39,8.13A38.58,38.58,0,0,1,629.2,472c-4.66,10.15-14.16,19-24.63,22.47a29.45,29.45,0,0,1-3.69,1,15,15,0,0,1-3,.31c-.52,0-1,0-1.55,0-.27,0-.54,0-.81-.07h.1l-.44-.07c-.48-.1-.94-.2-1.4-.34-.25-.07-.48-.16-.72-.24l-.11,0-.28-.13a9.54,9.54,0,0,1-4.26-4.07,20.49,20.49,0,0,1-2.41-7.2c-2-11.88,2.54-24.55,11.16-32.92a41.29,41.29,0,0,1,14.26-9.17,28.74,28.74,0,0,1,7.1-1.7,21.52,21.52,0,0,1,3.59,0c.48,0-.15,0,.31,0l.83.16a14.33,14.33,0,0,1,1.59.43l.46.17.54.25a12.63,12.63,0,0,1,1.37.81C629.91,443.46,632.42,439.13,629.76,437.34Z" transform="translate(-417.29 -114.01)"/><path d="M606.23,468.23c-3.29,3.51-6.51,7.09-9.84,10.55-.86.88-1.73,1.72-2.65,2.54-.46.41.4-.21,0,0-.13.07-.26.17-.39.25s-.73.28.14,0c-.3.1-.74.09.18,0-.28,0-.61-.1.3.08-.13,0-.44-.17,0,0s-.14-.31.4.25a1.7,1.7,0,0,0-.19-.2c.68.13,0,.42.05,0l-.08-.15c.13.33.15.37,0,.1a7.89,7.89,0,0,1-.28-1c0-.15-.06-.29-.08-.44-.13-.75,0,.51,0-.3a20,20,0,0,1,0-2.79,26.34,26.34,0,0,1,4.41-12.93c4.38-6.48,12.06-10.38,19.54-11.68.17,0,1.25-.19.72-.12.33,0,.66-.08,1-.1a17.78,17.78,0,0,1,2.06-.06c.29,0,.57,0,.85.06s.44.11-.2,0c.14,0,.29,0,.43.08s.38.12.57.16c.39.07-.43-.33.06,0,.24.18-.5-.51-.08,0-.38-.43-.24-.12-.44-.77,0,.14.08.39,0-.15s-.16.23,0-.73c-.13.64.37-.47.07-.09a3.7,3.7,0,0,0-.38.59s.4-.47,0,0l-.43.5c-.34.38-.68.74-1,1.11-1,1.09-2.09,2.16-3.14,3.23-3.89,4-7.74,7.94-11.55,12-2.2,2.34,1.33,5.89,3.54,3.54q5.65-6,11.46-11.9a65.33,65.33,0,0,0,5-5.29c1.13-1.42,2-3.17.92-4.91-1.52-2.5-5.27-2.52-7.82-2.3-8.83.75-18,5.13-23.69,12A30.73,30.73,0,0,0,589,474.64c-.48,3.42-1,9.4,2.61,11.46,2.56,1.46,5-.56,6.79-2.27,4-3.82,7.58-8.05,11.35-12.06C612,469.42,608.44,465.88,606.23,468.23Z" transform="translate(-417.29 -114.01)"/><path d="M526.5,417.5c-10.41-7.18-32.64,3.42-41,20-6.39,12.67-6,31.49,3,37,11.12,6.79,35.06-6.86,42-26C534.08,438.62,534.65,423.12,526.5,417.5ZM506,448c-10.8,11.48-13.22,14.79-15,14-2.89-1.29-2.56-12.77,3-21,8.41-12.46,27.24-15.16,29-12C523.8,430.44,520.66,432.42,506,448Z" transform="translate(-417.29 -114.01)"/><path d="M527.76,415.34c-4.53-3.06-10.4-3.06-15.55-1.89a43.42,43.42,0,0,0-17,8.57,42.68,42.68,0,0,0-12.58,15.75,45.26,45.26,0,0,0-3.9,20.58c.3,5.9,1.83,12.6,6.41,16.71,4.06,3.65,9.52,4.19,14.7,3.28A39.45,39.45,0,0,0,515.91,471a50.36,50.36,0,0,0,13.75-14.92,43.48,43.48,0,0,0,5.72-19c.46-6.19-.24-13.28-4.11-18.38a15.64,15.64,0,0,0-3.51-3.38,2.5,2.5,0,1,0-2.52,4.32,11.79,11.79,0,0,1,3.85,5.44,25.12,25.12,0,0,1,1.39,8.13A38.58,38.58,0,0,1,527.2,450c-4.66,10.15-14.16,19-24.63,22.47a29.45,29.45,0,0,1-3.69,1,15,15,0,0,1-3,.31c-.52,0-1,0-1.55,0-.27,0-.54,0-.81-.07h.1l-.44-.07c-.48-.1-.94-.2-1.4-.34-.25-.07-.48-.16-.72-.24l-.11,0-.28-.13a9.54,9.54,0,0,1-4.26-4.07,20.49,20.49,0,0,1-2.41-7.2c-2-11.88,2.54-24.55,11.16-32.92a41.29,41.29,0,0,1,14.26-9.17,28.74,28.74,0,0,1,7.1-1.7,21.52,21.52,0,0,1,3.59,0c.48,0-.15,0,.31,0l.83.16a14.33,14.33,0,0,1,1.59.43l.46.17.54.25a12.63,12.63,0,0,1,1.37.81C527.91,421.46,530.42,417.13,527.76,415.34Z" transform="translate(-417.29 -114.01)"/><path d="M504.23,446.23c-3.29,3.51-6.51,7.09-9.84,10.55-.86.88-1.73,1.72-2.65,2.54-.46.41.4-.21,0,0-.13.07-.26.17-.39.25s-.73.28.14,0c-.3.1-.74.09.18,0-.28,0-.61-.1.3.08-.13,0-.44-.17,0,0s-.14-.31.4.25a1.7,1.7,0,0,0-.19-.2c.68.13,0,.42.05,0l-.08-.15c.13.33.15.37.05.1a7.89,7.89,0,0,1-.28-1c0-.15-.06-.29-.08-.44-.13-.75,0,.51,0-.3a20,20,0,0,1,0-2.79,26.34,26.34,0,0,1,4.41-12.93c4.38-6.48,12.06-10.38,19.54-11.68.17,0,1.25-.19.72-.12.33,0,.66-.08,1-.1a17.78,17.78,0,0,1,2.06-.06c.29,0,.57,0,.85.06s.44.11-.2,0c.14,0,.29,0,.43.08s.38.12.57.16c.39.07-.43-.33.06,0,.24.18-.5-.51-.08,0-.38-.43-.24-.12-.44-.77,0,.14.08.39,0-.15s-.16.23,0-.73c-.13.64.37-.47.07-.09a3.7,3.7,0,0,0-.38.59s.4-.47,0,0l-.43.5c-.34.38-.68.74-1,1.11-1,1.09-2.09,2.16-3.14,3.23-3.89,4-7.74,7.94-11.55,12-2.2,2.34,1.33,5.89,3.54,3.54q5.66-6,11.46-11.9a65.33,65.33,0,0,0,5-5.29c1.13-1.42,2-3.17.92-4.91-1.52-2.5-5.27-2.52-7.82-2.3-8.83.75-18,5.13-23.69,12A30.73,30.73,0,0,0,487,452.64c-.48,3.42-1,9.4,2.61,11.46,2.56,1.46,5-.56,6.79-2.27,4-3.82,7.58-8.05,11.35-12.06C510,447.42,506.44,443.88,504.23,446.23Z" transform="translate(-417.29 -114.01)"/><path d="M756,262a202.89,202.89,0,0,0-60.64-23.71,213.13,213.13,0,0,0-38.91-4.54,181.19,181.19,0,0,0-59.9,8.41,176.8,176.8,0,0,0-33.37,15.05c-8.17,4.69-16.39,9.33-23.86,15.1-8.1,6.24-15.22,13.72-20.12,22.77-5.06,9.35-7.27,19.66-9.52,29.95-2.11,9.66-4.3,19.48-10.16,27.14a39,39,0,0,1-10.47,9.14,140,140,0,0,1-13.5,7.11c-9.79,4.73-19,9.89-26.54,17.89-7.72,8.2-13.74,18-18.55,28.15-9.39,19.77-14.62,42.1-12.66,64a93.84,93.84,0,0,0,8.34,31.63,90.4,90.4,0,0,0,19.44,26.54c11.11,10.69,24.27,18.91,37.89,26a274.38,274.38,0,0,0,25.92,11.76,315.79,315.79,0,0,0,41,13,383.48,383.48,0,0,0,57.45,9.36c23.32,2.06,46.59,1.68,69.95.7,20-.84,40.17-1.81,59.74-6.1,16.24-3.55,31.88-10,44.43-21.09,15.7-13.91,24.41-33.66,30.43-53.34,5.32-17.37,10-35.16,11.58-53.3a159.77,159.77,0,0,0-1.05-36.24c-1.43-10.23-2.81-20.6-5.79-30.52a70.31,70.31,0,0,0-14-25.95c-3.52-4.1-7.59-7.64-11.47-11.38-3.34-3.22-6.08-6.12-7.69-10.1-3.63-9-.31-19,4.39-27,1.47-2.5.27-6.86-3-7.34a44,44,0,0,1-13.11-4,34.11,34.11,0,0,1-10.3-7.64,31.89,31.89,0,0,1-6.12-9.72,28.33,28.33,0,0,1-1.64-6.72,31.76,31.76,0,0,1-.12-4.25,30,30,0,0,1,.26-3.2,37.68,37.68,0,0,1,1.84-7c.19-.53.4-1.06.61-1.58-.36.89,0,0,.16-.34q.44-1,.93-1.89A5.11,5.11,0,0,0,756,262a5.05,5.05,0,0,0-6.84,1.79c-4.88,9.39-6.71,20.47-3.68,30.75s10.33,18.78,19.49,24.11a49.64,49.64,0,0,0,17.66,6.14l-3-7.34c-5.68,9.66-9.19,21.15-6.15,32.3,2.74,10.05,10.72,16.32,17.83,23.3a60.77,60.77,0,0,1,15,22.92c3.3,9.37,4.78,19.3,6.22,29.09a165.78,165.78,0,0,1,1.74,34.26c-.3,5.1-.83,9.88-1.56,14.48-.68,4.31-1.54,8.59-2.51,12.84-1.86,8.07-4.07,16.07-6.39,24a160,160,0,0,1-10.64,28.19,82.24,82.24,0,0,1-16.79,23c-1.44,1.34-2.93,2.6-4.45,3.84-.72.59.34-.24-.41.32-.36.27-.71.54-1.08.8-.78.57-1.58,1.13-2.38,1.67a81.26,81.26,0,0,1-10.15,5.76c-.82.39-1.65.76-2.49,1.13l-.62.28c.08,0,.67-.28.13-.06l-1.49.61q-2.82,1.11-5.7,2.06c-3.91,1.29-7.89,2.36-11.91,3.27-4.34,1-8.72,1.77-13.12,2.42-4,.6-8.42,1.11-13.07,1.55-10.28,1-20.6,1.51-30.91,2-11.63.49-23.26,1-34.89,1a402.3,402.3,0,0,1-63.17-5A347.12,347.12,0,0,1,532.26,572q-9.37-3-18.57-6.52l-3.92-1.55-1.95-.8-.88-.37c-1.05-.44.66.29-.1,0-2.26-1-4.52-2-6.76-3q-10.15-4.65-19.9-10.18c-18.08-10.25-35-23.64-44.44-42.5-9-18-10.1-39.43-6.1-59a125.86,125.86,0,0,1,10-29.64c4.64-9.53,10.26-18.83,17.77-26.37,14.62-14.7,37.54-17.35,50.37-34.29,12.37-16.35,10.51-38.88,19.37-56.27,4.37-8.59,10.56-15.41,18.31-21.36,2.85-2.19,7.23-5.09,10.84-7.29,3.86-2.36,7.79-4.59,11.71-6.83a164.22,164.22,0,0,1,31.84-14.38q7.86-2.52,15.94-4.23c4.93-1,10.15-1.91,14.67-2.44a193.3,193.3,0,0,1,46,.31l1.71.21c.87.12.58,0-.15,0,.29,0,.59.08.87.12,1.18.16,2.36.33,3.54.52q5.49.84,10.92,2A193.25,193.25,0,0,1,720.28,256,195.52,195.52,0,0,1,751,270.66C756.56,273.92,761.6,265.28,756,262Z" transform="translate(-417.29 -114.01)"/><circle cx="287.71" cy="259.99" r="44.5"/><circle class="cls-24" cx="287.21" cy="273.49" r="26.5"/><circle class="cls-25" cx="300.71" cy="249.99" r="16"/><circle class="cls-25" cx="263.21" cy="282.49" r="4.5"/><circle cx="150.71" cy="221.99" r="44.5"/><circle class="cls-24" cx="150.21" cy="235.49" r="26.5"/><circle class="cls-25" cx="163.71" cy="211.99" r="16"/><circle class="cls-25" cx="126.21" cy="244.49" r="4.5"/><path class="cls-26" d="M780.5,329.5c2.9-5.23,8.12-6.87,14.77-9.42,39.05-15,35.63-28.82,56.92-30.06,22.23-1.31,44.22,5.11,64.83,13.55,9.4,3.84,19.35,8.22,29.34,6.37,1.45-.27,3-.65,4.33,0,2.41,1.17,2.25,4.62,1.58,7.21-4.31,16.56-14.49,31.22-27.19,42.68-14.36,13-32.6,22.29-51.92,23.25-1.9.09-9.4-.48-24.33-1.72-41.17-3.42-43.86-3.81-48.19-6.34C783.9,365.22,773.8,341.61,780.5,329.5Z" transform="translate(-417.29 -114.01)"/><path class="cls-27" d="M872,365c39.18-9.09,44.86-6.41,55-15,13.91-11.77,18-29.27,19.36-40.06,1.12-.41,3-.89,4.33,0,2.2,1.42,2,5.56,1.58,7.21-4.31,16.56-14.49,31.22-27.19,42.68-14.36,13-32.6,22.29-51.92,23.25-1.9.09-9.4-.48-24.33-1.72-26.43-2.2-36.69.41-48.19-6.34A43.72,43.72,0,0,1,788,363.68,75.61,75.61,0,0,0,814,374C831,377.22,839.75,372.48,872,365Z" transform="translate(-417.29 -114.01)"/><path class="cls-28" d="M814.87,356c-.54,1.95,7.45,7.69,17.13,9,9.26,1.25,12.77-2.54,31-8,17.66-5.29,19.81-3.37,27-8,9.94-6.4,19-18.55,16-24-3.36-6.13-22.85-5.47-37,3-15.18,9.08-14.38,21.91-29,27C827.41,359.39,815.48,353.83,814.87,356Z" transform="translate(-417.29 -114.01)"/><path d="M907.16,322.09C893.78,319.15,879.23,319,867,326c-6.16,3.54-11,8.66-15.57,14-3.89,4.54-7.77,9.2-13.27,11.7-7.89,3.61-17,1.49-24.43-2.36-2.85-1.48-5.38,2.84-2.52,4.32,7.55,3.91,16.14,6.14,24.59,4.1,6.34-1.54,11.41-5.56,15.73-10.29s8.42-10.23,13.69-14.29a40.09,40.09,0,0,1,8-4.73l.33-.15c.38-.16-.3.13.09,0l.82-.33c.65-.25,1.31-.48,2-.7,1.31-.42,2.63-.78,4-1.07,8.31-1.84,17.1-1.08,25.4.74,3.13.69,4.47-4.13,1.32-4.82Z" transform="translate(-417.29 -114.01)"/><path d="M782.66,330.76c1.73-3,4.59-4.75,7.73-6.11,4.17-1.81,8.5-3.27,12.67-5.08a115,115,0,0,0,19.63-10.67c4.1-2.82,7.9-6,11.78-9.13.36-.3.73-.59,1.11-.88s-.28.2.22-.18c.22-.16.44-.32.65-.49.77-.56,1.54-1.1,2.34-1.61s1.55-.95,2.36-1.36c.39-.21.79-.39,1.19-.58.63-.3-.16.05.24-.11l.76-.3a29.36,29.36,0,0,1,6.18-1.51c-.51.07.32,0,.48-.05s.63-.07,1-.09c.88-.08,1.76-.13,2.64-.17q3.72-.15,7.44-.05A126.51,126.51,0,0,1,890.22,297a230.62,230.62,0,0,1,27.85,9.71c9.21,3.78,18.84,7.48,28.95,5.67a5.67,5.67,0,0,1,2.45-.21c.45.13.51.33.65.93a9.65,9.65,0,0,1-.53,4.39,71.72,71.72,0,0,1-4.45,11.94,88.52,88.52,0,0,1-14.32,21.16c-11.58,12.8-26.52,23.11-43.29,27.67a55.71,55.71,0,0,1-17.82,2.23c-7.22-.41-14.42-1.08-21.62-1.67-8.15-.68-16.29-1.35-24.42-2.1-2.63-.24-5.26-.49-7.89-.77l-3.06-.35-1.25-.15-.55-.07c-.43-.06.17,0,.21,0l-.36-.05a36.39,36.39,0,0,1-6.39-1.3c-.34-.11-.66-.26-1-.37.16.05.62.29.09,0l-.43-.2a31.75,31.75,0,0,1-4-2.45,45.46,45.46,0,0,1-13.49-15.76c-2.94-5.52-4.93-11.7-4.66-17.81a15.7,15.7,0,0,1,1.73-6.7c1.53-2.83-2.78-5.35-4.32-2.52-3.05,5.62-2.87,12.34-1.4,18.4a50.61,50.61,0,0,0,10,19.68,43.56,43.56,0,0,0,13.35,11.37,19.86,19.86,0,0,0,5,1.75,96.47,96.47,0,0,0,9.89,1.41c6.25.68,12.52,1.21,18.79,1.75q14,1.2,28.06,2.32c4.75.37,9.48.88,14.24.42,18.52-1.78,35.65-10.62,49.5-22.78,13.38-11.75,24.69-27.4,29-44.9.93-3.85.65-9.06-3.92-10.34-2.36-.67-4.8.29-7.16.48a29,29,0,0,1-7-.32A70.91,70.91,0,0,1,922,302.92c-4.77-1.93-9.51-3.9-14.35-5.66a172.57,172.57,0,0,0-29.77-8.14c-9.24-1.56-19-2.49-28.33-1.37A31.24,31.24,0,0,0,836.71,292c-3.72,2.29-7,5.26-10.41,8-2,1.6-3.88,3-6.25,4.65a102.77,102.77,0,0,1-8.81,5.4c-3.81,2.08-7.75,3.95-11.76,5.65-4.27,1.8-8.72,3.2-12.9,5.21a18.35,18.35,0,0,0-8.24,7.32C776.75,331,781.06,333.56,782.66,330.76Z" transform="translate(-417.29 -114.01)"/><path class="cls-29" d="M755.12,287.87c-.38-3.31-3.87-22.54,9.92-35.88,9.48-9.17,22.15-14.14,34.46-18.88,3.56-1.37,7.42-2.76,11.09-1.74,6.32,1.74,8.67,9.34,9.68,15.82a205.25,205.25,0,0,1,2.47,33.68c-.08,9-.82,18.2-4.72,26.29S806.43,322,797.47,322.57c-4.13.26-7.18-.51-13.31-2.45-7.45-2.37-15.37-4.88-21.34-11.78C756.61,301.16,755.68,292.89,755.12,287.87Z" transform="translate(-417.29 -114.01)"/><path class="cls-30" d="M755.12,287.87c-2.46-19.44,8.43-34,9.92-35.88,11.72-15.14,28.16-17.84,34.46-18.88,7.67-1.26,15-.29,15,.39s-8.2.56-16.5,4.5c-7.28,3.46-11.23,8.48-17,16-6.43,8.38-15.69,20.75-18,39a67.34,67.34,0,0,0-.18,15.34l-4-7.28A46.63,46.63,0,0,1,755.12,287.87Z" transform="translate(-417.29 -114.01)"/><path d="M764.54,302.46c-.58-.73-.07-.08,0,.06l-.48-.65q-.47-.64-.9-1.32c-.65-1-1.25-2-1.8-3.1-.21-.41-.42-.82-.62-1.24-.11-.23-.21-.48-.33-.72-.32-.65.31.79,0,.11-.4-1-.79-2.08-1.12-3.15s-.57-2-.79-3c-.11-.51-.21-1-.3-1.54,0-.26-.09-.52-.13-.78-.21-1.31.1,1.09,0-.23a42.74,42.74,0,0,1-.15-6.3c0-.52.08-1.05.13-1.57,0-.26,0-.54.09-.79-.22,1.1-.05.39,0,.15.2-1.19.43-2.36.73-3.52a59.49,59.49,0,0,1,2.13-6.37c.21-.56.43-1.11.66-1.67-.38.93.22-.49.35-.77.5-1.09,1-2.16,1.61-3.21a49.41,49.41,0,0,1,2.91-4.69c.22-.32.46-.65.69-1,.12-.15.23-.3.34-.46.49-.65-.24.32-.28.36.49-.55.92-1.15,1.41-1.71a32,32,0,0,1,2.75-2.84c.49-.45,1-.88,1.5-1.3l.4-.32c.6-.49-.38.3-.41.32.35-.24.69-.52,1-.77,1.18-.83,2.4-1.61,3.65-2.34a92.86,92.86,0,0,1,9.6-4.73l1.18-.51c.84-.36,0,0-.15.06.22-.11.48-.2.71-.3l3.36-1.37q3.43-1.37,6.88-2.7a54,54,0,0,1,7.31-2.42c.2-.05,1-.11,0,0l.89-.07c.3,0,.6,0,.9,0s.93.16,0,0c.51.1,1,.25,1.5.39.71.2-.29.11-.31-.14,0,.07.62.32.69.36s1.37.73.63.39c-.51-.23-.21-.18,0,0s.31.28.45.43a8.78,8.78,0,0,0,.84.92c-.19,0-.61-.87-.21-.25.17.27.36.53.53.8.46.75.75,1.59,1.2,2.34-.07-.11-.41-1.08-.12-.26.07.21.16.42.23.63.17.49.33,1,.48,1.47a42,42,0,0,1,1.19,5.45c.21,1.29.39,2.58.57,3.88,0-.22-.11-.89,0,.12l.12,1c.09.72.18,1.45.26,2.18q.92,8,1.2,16.12c.18,5.17.17,10.36,0,15.53-.08,2-.2,4.08-.39,6.12-.05.44-.09.87-.14,1.31a3.4,3.4,0,0,0-.08.63c0-.09.18-1.26,0-.41s-.26,1.62-.42,2.42a28.43,28.43,0,0,1-1.14,4.06c-.17.44-.71,1.27.06-.11-.14.26-.25.55-.38.82-.28.56-.58,1.11-.92,1.65q-.22.36-.48.72c-.13.2-.28.38-.41.57-.42.59.54-.61,0-.08-.72.79-1.41,1.61-2.2,2.35-.36.34-.72.67-1.1,1a6.62,6.62,0,0,0-.56.46c0-.05,1-.7.15-.13s-1.62,1.13-2.47,1.64-1.56.87-2.36,1.25c-.38.19-.78.36-1.16.54-.6.29.94-.37.33-.14l-.72.29a41.27,41.27,0,0,1-4.34,1.38c-1.52.39-3.05.7-4.59,1-1.08.18.18,0,.18,0s-.66.07-.76.08c-.51.06-1,.1-1.53.13-1.08.06-2.16.08-3.24,0s-2-.1-3-.2c-.18,0-1-.12-.28,0s-.09,0-.26,0c-.56-.09-1.12-.19-1.67-.31a37,37,0,0,1-5.93-1.74l-.7-.27c-.66-.26.8.37.16.06-.45-.22-.91-.42-1.35-.64-1-.47-1.89-1-2.8-1.53s-1.69-1.07-2.51-1.66a6.13,6.13,0,0,1-.6-.44c.76.72.31.25.12.08-.44-.36-.88-.72-1.31-1.1a36.69,36.69,0,0,1-4.34-4.56c-1.66-2-5.38-1.84-7.08,0-2,2.17-1.76,4.9,0,7.08,11.62,14.34,32.12,19,49.08,12.14,8.16-3.28,15.19-8.88,18.45-17.23a40.42,40.42,0,0,0,2.18-10.67,143.8,143.8,0,0,0,.58-14.38,192.88,192.88,0,0,0-2.88-34.85c-.74-4.08-2-8.37-4.48-11.77-3.29-4.54-8.31-7.3-14-6.66s-11,3.23-16.25,5.33c-4.27,1.71-8.54,3.46-12.68,5.47-6,2.91-11.74,6.58-16.06,11.71a54.79,54.79,0,0,0-6.77,10A61.2,61.2,0,0,0,749,273.34,42.88,42.88,0,0,0,753,303a46.3,46.3,0,0,0,4.42,6.51c1.64,2.06,5.39,1.83,7.08,0C766.54,307.35,766.28,304.66,764.54,302.46Z" transform="translate(-417.29 -114.01)"/><path class="cls-31" d="M800.5,375.5c26.72,69.93,21,141.25-19.28,184-9,9.52-23.06,21.27-44.72,30,1.27,4.16,6.94,21,24.5,31.5,20.41,12.24,41.09,6.51,44.5,5.5a221,221,0,0,0,27-39c21.38-39.36,25-75,27-96a292.56,292.56,0,0,0-11-110Z" transform="translate(-417.29 -114.01)"/><path d="M770.84,628.91a76,76,0,0,0,31.49.82c1-.18,1.93-.38,2.89-.6a4,4,0,0,0,2-.86c.36-.35.67-.78,1-1.16q1.92-2.25,3.76-4.53,4.46-5.51,8.56-11.27a220.22,220.22,0,0,0,30-59.78,253.94,253.94,0,0,0,10.5-51.27,309.49,309.49,0,0,0,1-60.71,299.83,299.83,0,0,0-9.69-53.5q-.72-2.61-1.49-5.21A2.6,2.6,0,0,0,848.5,379l-48-6a2.51,2.51,0,0,0-2.41,3.16,252.65,252.65,0,0,1,14,52.67,199.59,199.59,0,0,1,1.28,50A149.67,149.67,0,0,1,802,523.15a117.3,117.3,0,0,1-60,61.24q-3.06,1.43-6.2,2.7a2.55,2.55,0,0,0-1.5,3.67l4,9a2.51,2.51,0,0,0,3.42.9,2.56,2.56,0,0,0,.9-3.42l-4-9-1.5,3.67a131,131,0,0,0,41-25.82,122.65,122.65,0,0,0,25.59-34.92,150,150,0,0,0,13.66-45,197.66,197.66,0,0,0,.48-51,248.57,248.57,0,0,0-12.54-53.61q-1.18-3.36-2.46-6.69L800.5,378l48,6-2.41-1.84a299.58,299.58,0,0,1,9.44,43.53,285.77,285.77,0,0,1,2.18,56.46,311.51,311.51,0,0,1-5.06,41.49,219.57,219.57,0,0,1-16.33,50.74A217.22,217.22,0,0,1,807,620.87q-1.61,1.95-3.26,3.86l1.11-.64a70.36,70.36,0,0,1-32.68,0c-3.12-.75-4.46,4.07-1.32,4.82Z" transform="translate(-417.29 -114.01)"/><path class="cls-32" d="M676.36,692.39c-9.25,5.36-12.63,23.7-2.52,32.77,6.7,6,17.76,6.54,25.4,1,4.67-3.42,8.59-9.51,8.1-16C706.33,697,687.06,686.19,676.36,692.39Z" transform="translate(-417.29 -114.01)"/><path class="cls-33" d="M739.28,621.39c0-.5.14-12.36,9.21-16.35,2.9-1.27,8.24-2.4,11.16,0,4.35,3.64-1.56,14.2-2.17,15.3A26,26,0,0,1,751,628l-2,2.93c10.11,3.19,21.19-1.18,25.51-10,4.39-9,.32-19.69-8.63-24.58-9.84-5.38-21.4-1.51-27.31,4.92-6.79,7.38-4.9,16.81-4.6,18.17Z" transform="translate(-417.29 -114.01)"/><path class="cls-34" d="M663.59,669.89c3.28-6.35,24.41-46,58.53-49,4.55-.41,14.67-1.31,23.09,4.82,12.11,8.82,12.44,26.16,12.65,36.78.43,22.6-8.62,40.56-15.34,51a80.35,80.35,0,0,1-78.93-43.6Z" transform="translate(-417.29 -114.01)"/><path d="M674.59,690.62c-9,8.1-12.62,23-5.13,33.3,8.15,11.25,26.35,11.4,35,.62a24.92,24.92,0,0,0,5.38-14.37A2.49,2.49,0,0,0,708.6,708l-31-17.78c-2.79-1.6-5.31,2.72-2.52,4.32l31,17.78-1.24-2.16c0,.43-.07.85-.11,1.28,0,.15-.1.7,0,0l-.09.56c-.09.51-.19,1-.3,1.51a19.59,19.59,0,0,1-2.45,6,17.68,17.68,0,0,1-27.51,2.58,17.82,17.82,0,0,1-3.94-12.46,22.36,22.36,0,0,1,7.68-15.52C680.53,692,677,688.48,674.59,690.62Z" transform="translate(-417.29 -114.01)"/><path d="M741.78,621.39c0-.6.06-1.2.12-1.8,0-.16,0-.32.05-.49,0,.07-.1.6,0,.14s.1-.64.16-1c.14-.73.3-1.45.51-2.16a13.36,13.36,0,0,1,5.44-8,13,13,0,0,1,5.33-1.87,9.27,9.27,0,0,1,2.88,0,5.37,5.37,0,0,1,1.07.31l.55.3c.09,0,.55.55.24.18a2.49,2.49,0,0,1,.25.38c.32.64-.1-.44.11.27l.12.47c.17.74,0-.26,0,.2a8.1,8.1,0,0,1-.18,2.51,23.82,23.82,0,0,1-.76,2.75c-.14.42-.29.84-.45,1.25s-.39,1-.5,1.23a46.51,46.51,0,0,1-2.72,5.42,47.5,47.5,0,0,1-5.57,7,2.54,2.54,0,0,0,1.1,4.18,22.34,22.34,0,0,0,23-4.83c6.44-6.29,7.61-15.84,3.79-23.83a22.72,22.72,0,0,0-21.12-12.77c-8.57.24-17.51,4.89-21.59,12.62a23.5,23.5,0,0,0-2.6,12.26,20.36,20.36,0,0,0,.46,3.65c.36,1.44,1.41,1.86,2.69,2.34l4.42,1.67a2.52,2.52,0,0,0,3.07-1.75A2.56,2.56,0,0,0,740,619l-5.3-2,1.74,1.75c0-.22-.09-.43-.13-.64s0-.33-.08-.49c-.1-.56,0,.47,0-.19a30,30,0,0,1-.14-3.28,17.73,17.73,0,0,1,2.31-8.39c3.34-5.74,10.19-9.24,16.72-9.47a17.73,17.73,0,0,1,16.42,9.18c3.11,5.63,2.92,12.8-1.4,17.78a17.34,17.34,0,0,1-19.19,4.63l1.11,4.18a57.43,57.43,0,0,0,5.9-7.3,43.37,43.37,0,0,0,3.06-5.9c1.78-4,4-9.49,1.84-13.75-2.63-5.1-10-4.43-14.46-2.68a17.34,17.34,0,0,0-9.73,10,24.18,24.18,0,0,0-1.82,9C736.78,624.61,741.78,624.62,741.78,621.39Z" transform="translate(-417.29 -114.01)"/><path d="M665.75,671.15c1.28-2.47,2.65-4.9,4.09-7.27q1.75-2.89,3.65-5.69c1.36-2,3.12-4.43,4.37-6.05,7.51-9.68,16.53-18.43,27.56-23.9a49.35,49.35,0,0,1,18-5c7.18-.57,14.58.19,20.55,4.59,10.9,8,11.4,23.75,11.43,36,0,15.82-4.81,31.24-12.82,44.8-.71,1.2-1.44,2.38-2.19,3.55l2.16-1.24a80.4,80.4,0,0,1-33-4,77.64,77.64,0,0,1-35.86-25.8,79.32,79.32,0,0,1-7.94-12.52c-1.47-2.87-5.79-.34-4.32,2.52A83.34,83.34,0,0,0,712.23,713a84.43,84.43,0,0,0,28.85,3.07c1.09-.07,2.38,0,3.21-.84a15.52,15.52,0,0,0,1.93-3c1.24-2,2.4-4.11,3.5-6.22a100.23,100.23,0,0,0,6.46-15.52C759.87,679,760.84,667,760.1,655c-.64-10.4-2.9-21.71-10.85-29.13-8.46-7.9-20.44-8.7-31.34-6.89-9.88,1.64-18.93,6.4-26.77,12.51-12,9.34-21.51,22-28.7,35.27-.34.64-.68,1.27-1,1.91C660,671.48,664.27,674,665.75,671.15Z" transform="translate(-417.29 -114.01)"/><path d="M744.09,610.16a19.47,19.47,0,0,0,5.17,7.6,19.76,19.76,0,0,0,7.58,4.15,2.5,2.5,0,1,0,1.32-4.82c-.4-.12-.79-.24-1.18-.39-.23-.08-1-.45-.26-.08l-.79-.37a16.8,16.8,0,0,1-1.66-.93c-.31-.2-.61-.42-.91-.63l.13.1-.23-.18-.46-.39a16.06,16.06,0,0,1-1.64-1.66c-.13-.14-.25-.29-.37-.44-.39-.49.31.43,0-.07-.2-.29-.4-.57-.58-.86a15.11,15.11,0,0,1-.89-1.57L749,609c-.22-.48.17.41.07.18l-.13-.33a2.7,2.7,0,0,0-1.15-1.5,2.5,2.5,0,0,0-3.67,2.82Z" transform="translate(-417.29 -114.01)"/></svg>