<?xml version="1.0" encoding="utf-8"?>
<!-- Generator: Adobe Illustrator 26.0.3, SVG Export Plug-In . SVG Version: 6.00 Build 0)  -->
<svg version="1.1" id="Слой_2" xmlns="http://www.w3.org/2000/svg" xmlns:xlink="http://www.w3.org/1999/xlink" x="0px" y="0px"
	 viewBox="0 0 528.52 71.93" style="enable-background:new 0 0 528.52 71.93;" xml:space="preserve">
<style type="text/css">
	.st0{fill:#EB8428;}
</style>
<path class="st0" d="M2.47,34.53c0.25-0.12,0.37,0.12,0.37,0.49c0,0.24-0.12,0.37-0.25,0.37c-0.25,0-0.25-0.12-0.37-0.37
	C2.23,34.77,2.23,34.65,2.47,34.53z M3.34,38.56c0.12-0.12,0.12,0,0.12,0.12s-0.12,0.12-0.25,0.12C3.22,38.68,3.22,38.56,3.34,38.56
	z M4.21,37.22c0.12-0.24,0.62-0.37,0.87,0c0.12,0.12,0.12,0.49,0,0.61c-0.12,0.24-0.25,0.37-0.49,0.49
	c-0.12,0.12-0.37-0.61-0.37-0.86C4.21,37.34,4.21,37.22,4.21,37.22z M4.33,35.63l0.12,0.12l-0.12,0.12c0,0,0-0.12-0.12-0.12
	C4.33,35.63,4.33,35.63,4.33,35.63z M5.32,34.65l0.12,0.24c0,0.12,0,0.24-0.12,0.49c0,0.24-0.12,0.37-0.25,0.61c0,0,0,0,0,0.12
	c0.12,0,0.12,0,0.25,0.12c0,0.12,0,0.24-0.12,0.12c0,0-0.12-0.12-0.12-0.24c-0.12,0-0.25-0.12-0.37-0.37
	C4.82,35.02,5.07,34.77,5.32,34.65z M5.69,54.7c0.12-0.12,0.12,0,0.12,0.12s-0.12,0.12-0.25,0.12c0,0,0,0,0,0.12
	C5.57,54.94,5.57,54.82,5.69,54.7z M5.07,45.16c-0.12,0.12-0.25,0.12-0.37-0.12c0-0.12,0.12-0.24,0.12-0.24
	c0.12,0,0.25,0.12,0.37,0.24C5.07,45.04,5.07,45.16,5.07,45.16z M12.74,9.1c0.12,0.12,0.12,0.24,0,0.37l-0.12-0.12
	C12.62,9.1,12.74,9.1,12.74,9.1z M14.1,7.02c0.49-0.12,0.99,0.12,1.36-0.24l0.12-0.12c0.12,0.12,0.12,0.12,0.12,0.24
	c0,0.12,0,0.37-0.12,0.37c-0.37,0.24-0.74,0.24-1.11,0.61C14.22,8,14.1,7.64,13.98,7.39c0,0-0.12-0.12-0.12-0.24
	C13.98,7.27,14.1,7.02,14.1,7.02z M16.08,65.09c0,0.37-0.49,0.73-0.74,0.73l-0.12-0.12v-0.12c0.12-0.24,0.12-0.37,0.25-0.49
	s0.25-0.12,0.37-0.24C15.96,64.97,16.08,64.97,16.08,65.09z M19.54,64.84c0.12,0.12,0.12,0.12,0.25,0.24
	c-0.12,0.12-0.25,0.12-0.37,0.24l-0.12-0.24C19.42,64.97,19.54,64.97,19.54,64.84z M22.39,12.04c0.12,0.12,0,0.24,0,0.24l-0.12-0.12
	C22.26,12.16,22.26,12.04,22.39,12.04z M22.88,64.6c0.12,0.12,0.25,0.12,0.49,0.24c0.12,0,0.12,0.24,0.12,0.24
	c-0.12,0-0.25,0.12-0.25,0.12h-0.12c-0.12,0-0.25-0.12-0.37-0.12c-0.12-0.12-0.12-0.24-0.12-0.37C22.51,64.6,22.63,64.48,22.88,64.6
	z M23.5,66.56l-0.12,0.12c0,0-0.12,0-0.12-0.12v-0.12C23.38,66.43,23.38,66.43,23.5,66.56z M25.11,13.26
	c0.25-0.61,0.74-0.12,0.99-0.61c0.25-0.37,0.25-0.86,0.62-1.1c0.25-0.12,0.49-0.12,0.62-0.12c0.62,0,0.49,0.37,0.25,0.73
	c0.12,0.12,0.25,0.24,0.37,0.24c0.12,0.12,0.12,0.24,0.12,0.37c-0.12,0.12-0.25,0.49-0.37,0.49c-0.37,0.12-0.74,0.12-1.11,0.12
	s-0.62,0.73-0.99,0.49c-0.12,0-0.25,0-0.37,0s-0.25-0.12-0.25-0.12C24.98,13.5,24.98,13.38,25.11,13.26z M27.33,67.29l-0.12-0.12
	c-0.12-0.12-0.25-0.24-0.37-0.37c0.12-0.12,0.12-0.37,0.25-0.37c0.25,0,0.37,0,0.37,0.49C27.46,67.04,27.46,67.17,27.33,67.29z
	 M28.82,10.45c0.12-0.12,0.25,0,0.25,0.12c0,0.12-0.12,0.24-0.12,0.24c-0.12,0-0.25-0.12-0.25-0.12S28.69,10.57,28.82,10.45z
	 M29.07,8.98c0.25,0,0.49,0.24,0.49,0.49c0,0.24-0.12,0.37-0.25,0.37c-0.25,0-0.25-0.12-0.37-0.37C28.82,9.35,28.94,9.1,29.07,8.98z
	 M30.55,9.96c0,0,0.12,0,0.25,0c0,0,0.12,0,0.25,0l0.12,0.12c0,0.12-0.12,0.24-0.12,0.37c-0.12,0-0.37,0-0.49,0
	s-0.12-0.12-0.25-0.24C30.3,10.08,30.43,10.08,30.55,9.96z M30.67,7.15l0.12,0.12v0.12h-0.12C30.55,7.27,30.55,7.15,30.67,7.15z
	 M31.42,6.54l0.12,0.12v0.12h-0.12C31.17,6.78,31.29,6.66,31.42,6.54z M32.41,6.66l0.12-0.12c0.12,0,0.25,0.12,0.25,0.12v0.12
	c-0.12,0.12-0.25,0.37-0.37,0.49c0,0-0.12,0-0.12-0.12c0-0.12,0-0.24,0-0.37C32.28,6.78,32.28,6.66,32.41,6.66z M34.14,64.36
	c0.12,0,0.25,0,0.25,0c0.12,0.24,0.12,0.61,0.25,0.86c0.25,0.37-0.12,0.49-0.12,0.86s-0.12,0.73-0.37,0.98
	c-0.12,0.12-0.25,0.24-0.49,0.12c-0.25,0-0.49-0.73-0.49-0.86C33.39,65.7,33.52,64.84,34.14,64.36z M34.38,8.98l0.12,0.12v0.12
	h-0.12C34.38,9.22,34.38,9.1,34.38,8.98z M35,11.55c0.12-0.12,0.25-0.12,0.37,0s0.12,0.37,0.12,0.61c0,0.12-0.12,0.12-0.12,0.24
	c-0.12-0.24-0.25-0.49-0.37-0.73C34.88,11.67,34.88,11.55,35,11.55z M36.12,68.27c0.12,0,0.12,0.12,0.25,0.12
	c0,0.12-0.12,0.24-0.12,0.24c-0.12,0-0.25-0.12-0.37-0.24C35.99,68.51,36.12,68.39,36.12,68.27z M37.72,12.53l0.12,0.12l-0.12,0.12
	l-0.12-0.12L37.72,12.53z M39.58,68.27c0-0.12,0-0.24,0.12-0.37s0.12,0,0.12,0.12C39.7,68.14,39.58,68.27,39.58,68.27z M39.7,69.12
	c0-0.12-0.12-0.24-0.12-0.37c0.12,0,0.12,0.12,0.25,0.12C39.83,69.12,39.7,69.25,39.7,69.12z M41.68,7.15l0.12,0.12l-0.12,0.12
	c0,0,0-0.12-0.12-0.12L41.68,7.15z M42.67,69.37l0.12,0.12l-0.12,0.12l-0.12-0.12C42.67,69.49,42.67,69.49,42.67,69.37z M45.27,6.66
	c0.12-0.12,0.12-0.12,0.25,0.12c0,0,0,0.12-0.12,0.12h-0.12C45.27,6.78,45.27,6.78,45.27,6.66z M46.75,6.29l-0.12,0.12l-0.12-0.12
	C46.63,6.05,46.75,6.05,46.75,6.29z M51.33,6.66c0.12,0.12,0.12,0.24,0,0.37L51.21,6.9C51.33,6.66,51.33,6.66,51.33,6.66z
	 M52.32,6.17l0.12,0.12l-0.12,0.12l-0.12-0.12C52.32,6.29,52.32,6.17,52.32,6.17z M53.18,6.41c0-0.37,0-0.61,0-0.98
	c0-0.12,0.12-0.12,0.25-0.24l0.12,0.12c0,0.73,0,1.59,0,2.32c0,0.12-0.12,0.12-0.12,0.24c-0.12-0.12-0.12-0.24-0.12-0.37
	C53.18,7.15,53.18,6.78,53.18,6.41z M55.66,7.76c0.12-0.12,0.25,0.12,0.37,0.24c0.12,0.12,0.12,0.37,0.25,0.49
	c0.25,0,0.62-0.12,0.62,0.37c0,0.37,0.25,0.49,0.49,0.49c0.12,0,0.25,0,0.37,0c0.25,0.12,0.49,0.73,0.37,0.86
	c-0.25,0.12-0.49,0.24-0.62,0.12c-0.49-0.49-1.11-0.49-1.61-0.98c-0.12-0.12-0.12-0.24-0.12-0.24c0.12,0,0.25-0.12,0.25-0.12
	c0.12-0.12,0.25-0.24,0.25-0.49c-0.12,0-0.12,0-0.25,0c-0.25,0-0.37-0.24-0.37-0.61C55.53,7.88,55.66,7.76,55.66,7.76z M55.66,12.28
	l-0.12-0.12c0.12-0.24,0.12-0.24,0.25,0C55.78,12.16,55.78,12.28,55.66,12.28z M60.36,4.7c0.12,0.12,0.12,0.24,0,0.37l-0.12-0.12
	C60.23,4.7,60.36,4.58,60.36,4.7z M65.06,6.66l0.12,0.12L65.06,6.9c0,0,0-0.12-0.12-0.12C64.93,6.78,64.93,6.66,65.06,6.66z
	 M459.51,66.56c0-0.37,0.12-0.49,0.37-0.49c0-0.37,0.25-0.49,0.37-0.49c0.12,0,0.25,0.12,0.49,0.12v0.12c0,0.12-0.12,0.12-0.12,0.12
	c-0.25,0-0.49,0-0.74,0C459.88,66.43,459.76,66.56,459.51,66.56c0,0.12,0,0.24-0.12,0.37h-0.12
	C459.26,66.68,459.38,66.68,459.51,66.56z M462.97,4.95c0.25-0.12,0.37,0,0.49,0.37c0,0.12,0,0.24-0.12,0.37c0,0-0.12,0-0.25-0.12
	c-0.12-0.12-0.12-0.24-0.25-0.37C462.85,5.07,462.85,4.95,462.97,4.95z M470.02,4.95c0,0.12,0,0.24,0,0.24l-0.12-0.12
	C469.9,4.95,470.02,4.95,470.02,4.95z M471.88,66.8c0.12-0.12,0.12-0.12,0.25,0c0.12,0.12,0.12,0.24,0.25,0.37c0,0,0,0.12,0,0.24
	c0,0-0.12,0-0.12,0.12h-0.12c-0.12,0-0.25-0.24-0.25-0.49C471.88,66.92,471.88,66.92,471.88,66.8z M473.36,66.68l0.12,0.12v0.12
	h-0.12C473.24,66.8,473.24,66.8,473.36,66.68z M475.71,68.76c0,0,0.12,0.12,0.12,0.24c0,0.24-0.12,0.37-0.12,0.61l-0.12-0.12
	C475.46,69.12,475.46,68.88,475.71,68.76z M475.71,67.53c0.49,0,0.99,0,1.36-0.49l0.25,0.12c0,0.12-0.12,0.24-0.12,0.37
	c-0.12,0.12-0.25,0.37-0.37,0.37c-0.25,0.12-0.49,0-0.62,0s-0.37,0-0.49,0l-0.12-0.12C475.71,67.78,475.71,67.53,475.71,67.53z
	 M477.69,68.63c0.12,0.24,0,0.37-0.12,0.37C477.57,68.88,477.57,68.76,477.69,68.63z M478.31,69.12c0.12,0.12,0,0.24,0,0.24
	l-0.12-0.12C478.31,69.25,478.31,69.25,478.31,69.12z M478.55,65.82c0.12-0.12,0.12-0.12,0.25,0.12c0,0,0,0.12-0.12,0.12
	c0,0-0.12,0-0.12-0.12S478.55,65.82,478.55,65.82z M479.05,67.41c-0.12,0-0.25,0.12-0.25,0.12c-0.12,0-0.12-0.12-0.12-0.24
	c0.12,0,0.25-0.12,0.25-0.12S479.05,67.29,479.05,67.41z M482.02,68.63c0.12-0.12,0.12-0.12,0.25-0.12l0.12,0.12v0.12
	c-0.12,0.12-0.25,0.37-0.25,0.49l-0.12,0.12c0-0.12-0.12-0.24-0.12-0.37S481.89,68.76,482.02,68.63z M482.88,68.76l0.12-0.12
	l0.12,0.12l-0.12,0.12C483.01,68.88,482.88,68.88,482.88,68.76z M483.38,2.38c0.25-0.12,0.49,0,0.74,0c0-0.12,0-0.24,0.12-0.37
	c0.12-0.12,0.25,0.12,0.25,0.37c0,0,0,0,0,0.12c0.12,0,0.12,0.12,0.25,0.12c0,0.12,0,0.24-0.12,0.12c0,0-0.12-0.24-0.12-0.37
	c-0.12,0-0.25,0-0.25,0c0,0.49-0.25,0.73-0.62,0.86c-0.12,0.12-0.37-0.12-0.37-0.37C483.26,2.75,483.38,2.5,483.38,2.38z
	 M486.97,68.76c0.12-0.12,0.37-0.12,0.37-0.12c0.12,0.12,0.25,0.49,0.37,0.73c-0.12,0.12-0.25,0.24-0.37,0.24s-0.25,0-0.37-0.12
	C486.84,69.37,486.84,68.88,486.97,68.76z M491.67,68.63l0.12,0.12l-0.12,0.12c0,0,0-0.12-0.12-0.12
	C491.67,68.76,491.67,68.76,491.67,68.63z M494.26,2.99c0-0.12,0.12-0.12,0.12,0.12c0,0,0,0.12-0.12,0.12
	C494.26,3.11,494.26,3.11,494.26,2.99z M494.63,68.27c0.37-0.37,0.87,0,1.11-0.61c0,0.12,0.12,0.24,0.12,0.24c0,0.12,0,0.24,0,0.24
	c-0.37,0.37-0.62,0.73-1.11,0.86c0,0-0.12-0.12-0.25-0.24C494.51,68.51,494.51,68.27,494.63,68.27z M494.63,69.98l-0.12-0.12
	l0.12-0.12c0,0,0.12,0,0.12,0.12C494.76,69.73,494.76,69.86,494.63,69.98z M497.23,69c0-0.12,0.12-0.24,0.12-0.37
	c0,0.12,0.12,0.24,0.12,0.37c0,0.24,0,0.49,0,0.73c0,0.12-0.12,0.12-0.25,0.12l-0.12-0.12c0-0.12,0-0.24,0-0.49
	C497.23,69.12,497.23,69,497.23,69z M499.71,67.66l0.12,0.12c0.12,0.37-0.12,0.73-0.37,0.73l-0.12-0.12
	C499.21,68.14,499.58,67.66,499.71,67.66z M499.71,66.68l0.12,0.12c0,0.12-0.12,0.12-0.12,0.12c0-0.12-0.12-0.12-0.12-0.12
	L499.71,66.68z M500.69,68.14h0.12c0.12,0,0.25,0.24,0.25,0.49s0.12,0.37,0.37,0.37s0.25-0.12,0.37-0.37c0-0.12,0-0.37,0-0.49
	c0-0.49,0.12-0.49,0.37-0.24c0.12,0.12,0.12,0.12,0.25,0.12c0-0.12,0-0.24,0.12-0.24c0.12-0.12,0.12,0,0.12,0.12
	s-0.12,0.12-0.25,0.12c0.25,0.61,0.49,1.1,0.99,1.47c0-0.37,0.12-0.49,0.37-0.49c0.12,0,0.25,0.24,0.25,0.49c0,0.12,0,0.12,0,0.24
	c0,0.24-0.12,0.24-0.25,0c-0.12-0.12-0.25-0.24-0.37-0.24c-0.12,0.37-0.25,0.61-0.37,0.98c-0.37-0.37-0.87-0.49-1.36-0.49
	c-0.49,0.12-0.74-0.24-0.99-0.98c-0.12-0.24-0.12-0.49-0.25-0.86C500.57,68.27,500.69,68.14,500.69,68.14z M502.3,64.72l0.12,0.12
	l-0.12,0.12c0,0,0-0.12-0.12-0.12C502.3,64.84,502.3,64.84,502.3,64.72z M502.92,57.75c0.12,0,0.25,0,0.37,0c0-0.12,0-0.37,0-0.49
	c-0.12,0-0.25,0-0.25,0c-0.12,0-0.25-0.12-0.25-0.12c-0.12-0.12,0.12-0.37,0.37-0.24c0.12,0,0.25,0.24,0.25,0.49
	c0.12-0.12,0.12-0.12,0.25-0.24c0.12-0.24,0-0.86,0.49-0.49c0.25,0.24,0.49,0.24,0.74,0.24c0.12,0,0.12,0.12,0,0.37
	c-0.12,0.37-0.37,0.61-0.62,0.12c-0.25,0.24-0.49,0.49-0.87,0.37c0.12,0.24,0.12,0.37,0.25,0.61s0.12,0.49,0,0.61
	c-0.12,0.24-0.37,0.24-0.62,0c-0.12-0.12-0.12-0.24-0.25-0.37C502.43,58.24,502.55,57.88,502.92,57.75z M502.67,4.95l0.12,0.12
	l-0.12,0.12l-0.12-0.12L502.67,4.95z M504.78,65.94C504.65,65.94,504.65,65.94,504.78,65.94c-0.12-0.12,0-0.24,0-0.24l0.12,0.12
	C504.78,65.82,504.78,65.94,504.78,65.94z M505.02,54.94l0.12,0.12v0.12h-0.12C504.9,55.07,504.9,54.94,505.02,54.94z M505.64,65.82
	c0.12-0.12,0.12-0.12,0.25,0.12l-0.12,0.12c0,0-0.12,0-0.12-0.12S505.64,65.82,505.64,65.82z M505.64,1.52
	c0-0.12,0.12-0.12,0.25,0.12c0,0,0,0.12-0.12,0.12c0,0,0,0-0.12-0.12V1.52z M506.01,67.66l0.12,0.12v0.12h-0.12
	C505.89,67.78,505.89,67.78,506.01,67.66z M508.61,4.95c0-0.12,0.12-0.12,0.25-0.12c0,0,0,0,0-0.12c0-0.12,0-0.24,0.12-0.37h0.12
	c0,0.24-0.12,0.24-0.25,0.24c0,0.12,0,0.24-0.12,0.24C508.61,5.19,508.61,5.07,508.61,4.95z M508.98,7.15l-0.12-0.12l0.12-0.12
	C509.23,7.02,509.23,7.15,508.98,7.15z M509.72,64.23c0.12,0,0.12,0,0.25,0.12l0.12,0.12c0,0,0,0,0,0.12
	c-0.12,0.12-0.25,0.12-0.37-0.12C509.72,64.36,509.72,64.23,509.72,64.23z M509.97,62.28c0.25,0,0.25,0.12,0,0.24
	C509.97,62.52,509.97,62.4,509.97,62.28C509.97,62.4,509.97,62.4,509.97,62.28z M511.08,64.72c0.12,0.12,0.12,0.24,0.25,0.37
	s0.12,0.24,0.12,0.37l-0.12,0.12c-0.37,0-0.74,0-1.11,0c0,0.12,0,0.24-0.12,0.37s-0.12,0-0.12-0.12s0.12-0.12,0.25-0.12
	c0,0,0,0,0-0.12C510.34,64.97,510.84,65.09,511.08,64.72z M510.47,59.95v0.12h-0.12c0-0.12,0-0.24,0-0.24S510.47,59.83,510.47,59.95
	z M510.34,55.43l0.12,0.12l-0.12,0.12l-0.12-0.12C510.34,55.55,510.34,55.43,510.34,55.43z M510.71,4.82
	c0.12-0.12,0.25-0.37,0.37-0.24c0.12,0,0.25,0.12,0.37,0.24c0-0.12,0-0.24,0.12-0.37c0.12-0.12,0.12,0,0.12,0.12l-0.12,0.12h-0.12
	c0,0,0,0,0,0.12c0,0.24-0.12,0.37-0.25,0.49c-0.12,0-0.25,0-0.37,0s-0.25-0.12-0.25-0.12C510.59,5.07,510.71,4.82,510.71,4.82z
	 M511.7,3.48l0.12,0.12v0.12h-0.12C511.58,3.6,511.58,3.48,511.7,3.48z M512.07,13.87c0.12,0.12,0.25,0.37,0.37,0
	c0.25-0.49,0.37-0.98,0.62-1.34c0.25-0.37,0.49-0.37,0.62-0.24c0.25,0.12,0.37,0.24,0.62,0.37c0.37,0.24,0.62,0.86,0.49,1.1
	c-0.12,0.49-0.49,0.37-0.74,0.24c-0.49-0.12-0.49,0.37-0.62,0.86c-0.12,0.49-0.37,0.49-0.74,0.24c-0.12-0.12-0.37,0-0.49-0.12
	c-0.25-0.12-0.37-0.24-0.37-0.98C511.95,13.99,511.83,13.63,512.07,13.87z M512.32,4.58c0.37-0.49,0.12-1.34,0.49-1.83
	c0.12-0.24,0.37-0.37,0.37-0.12c0,0.12,0.12,0.37,0,0.49c-0.37,0.37-0.25,1.22-0.49,1.71h-0.25C512.2,4.58,512.32,4.95,512.32,4.58z
	 M513.93,2.99c0.12,0.12,0.25,0.12,0.25,0.12c0,0.24-0.12,0.37-0.12,0.61c0-0.12-0.12-0.24-0.12-0.37
	C513.93,3.23,513.93,3.11,513.93,2.99z M514.42,7.39c0,0,0.12,0.24,0.12,0.37c0.25-0.12,0.49-0.37,0.74-0.37
	c0,0,0.25,0.12,0.25,0.24s0,0.37,0,0.49c-0.25,0.37-0.62,0.24-0.87-0.24c0,0,0,0,0-0.12c-0.12,0-0.12,0-0.25-0.12
	C514.18,7.39,514.3,7.27,514.42,7.39z M514.67,2.5c0-0.12,0.12-0.12,0.12,0.12c0,0,0,0.12-0.12,0.12c0,0-0.12,0-0.12-0.12
	C514.67,2.62,514.55,2.5,514.67,2.5z M515.54,4.82c0,0.37,0.25,0.49,0.49,0.37c0.12,0,0.37-0.24,0.49-0.37h0.12l0.12,0.12
	c-0.37,0.61-0.62,1.22-1.11,1.59c-0.25-0.49-0.49,0-0.62,0c0,0-0.12-0.24-0.12-0.37C514.79,5.44,515.04,4.95,515.54,4.82z
	 M515.41,10.69l-0.12-0.24c0.12-0.24,0.25-0.12,0.37-0.12l0.12,0.12C515.66,10.57,515.54,10.57,515.41,10.69z M515.41,11.55
	c0,0.12-0.12,0.12-0.25,0.12c0,0.24-0.12,0.37-0.25,0.49h-0.12c-0.12,0-0.12-0.12-0.12-0.24l0.12-0.12c0.12,0,0.25,0,0.49,0
	c0-0.12,0-0.24,0.12-0.37C515.41,11.18,515.54,11.3,515.41,11.55z M513.31,27.32c-0.12,0-0.25,0-0.25,0c-0.12,0-0.25,0-0.25-0.12
	c0,0,0,0-0.12,0c0,0,0,0,0-0.12l0.12-0.12l0.12-0.12c0.12,0,0.37,0,0.49,0c0.12,0,0.12,0.12,0.12,0.24
	C513.43,27.19,513.31,27.32,513.31,27.32z M513.06,61.42c0,0.12,0,0.24-0.12,0.12c0,0-0.12-0.24-0.12-0.37c-0.12,0-0.25,0-0.25-0.37
	h0.12c0,0.12,0.12,0.24,0.12,0.37C512.94,61.3,513.06,61.3,513.06,61.42z M513.06,63.01c-0.12,0.12-0.25,0.12-0.37-0.12
	c0-0.12,0.12-0.24,0.12-0.24c0.12,0,0.25,0.12,0.37,0.24C513.06,63.01,513.06,63.01,513.06,63.01z M512.32,66.92l-0.12-0.12
	l0.12-0.12c0,0,0.12,0,0.12,0.12L512.32,66.92z M518.01,7.88c0.25-0.24,0.49-0.24,0.74,0c0,0,0.12,0.24,0.12,0.37
	c-0.25,0-0.49,0-0.74,0.24c-0.25,0.24-0.62,0.24-0.49,0C517.64,8.37,517.76,8,518.01,7.88z M518.01,16.44v-0.12
	c0.12,0,0.12,0,0.25,0.12C518.13,16.44,518.13,16.44,518.01,16.44z M518.38,18.88c-0.25,0.12-0.49,0.12-0.74-0.12
	c0-0.12,0.12-0.24,0.12-0.24c0.25,0,0.37,0,0.62,0.12l0.12,0.12C518.38,18.88,518.38,18.88,518.38,18.88z M519.62,14.73
	c0.12-0.24,0.25-0.49,0.25-0.61c0.12-0.49,0.37-0.37,0.62-0.37c0-0.49,0-0.98,0.49-1.1c0.12,0,0.37-0.24,0.49-0.37
	c0-0.49,0.25-0.73,0.49-0.86c0.12,0,0.12-0.12,0.25-0.12c0,0,0.12,0,0.12,0.12v0.12c-0.25,0.49-0.49,0.73-0.87,0.73
	c0,0.49,0,0.86-0.37,0.98c-0.12,0-0.25,0.24-0.25,0.49c0.12,0,0.12,0,0.25,0.12c0,0.24-0.12,0.24-0.25,0.37
	c0,0.12,0.12,0.24,0.12,0.37c0,0,0.12,0.24,0.12,0.37c-0.12,0-0.25,0.24-0.25,0.12c-0.37-0.24-0.62-0.24-0.99,0h-0.12
	C519.49,14.97,519.49,14.85,519.62,14.73z M519.87,12.4l-0.12,0.12l-0.12-0.12C519.62,12.16,519.74,12.16,519.87,12.4z M521.6,16.56
	c-0.12,0-0.25-0.12-0.37-0.24c0.12-0.12,0.12-0.12,0.25-0.24c0.12,0,0.25,0.12,0.25,0.12C521.72,16.31,521.72,16.56,521.6,16.56z
	 M521.23,21.45c-0.12-0.12-0.25-0.12-0.25-0.24s0-0.24,0.12-0.12C521.1,21.2,521.1,21.33,521.23,21.45z M520.11,21.82
	C519.99,21.82,519.99,21.82,520.11,21.82c-0.12-0.12-0.12-0.24,0-0.24l0.12,0.12C520.11,21.69,520.11,21.82,520.11,21.82z
	 M513.8,55.31c0.12,0,0.12,0.12,0.25,0.12v0.12c-0.12,0-0.12,0.12-0.25,0.12c-0.12-0.12-0.12-0.12-0.25-0.24
	C513.68,55.43,513.68,55.31,513.8,55.31z M514.42,29.64c0.12-0.12,0.25-0.24,0.37-0.24c0,0,0,0,0-0.12c0,0.37,0,0.73,0.25,0.98
	c0.25,0.12,0.62,0.37,0.87,0.61c0.25,0.12,0.25,0.49,0.25,0.86c0,0.24-0.12,0.49-0.25,0.49c-0.37,0-0.62,0-0.99,0
	c-0.49,0-0.37-0.37-0.12-0.73c0.12-0.24,0.12-0.49,0-0.61c-0.12-0.12-0.25-0.37-0.37-0.49C514.18,30.13,514.3,29.88,514.42,29.64z
	 M516.4,36.48l-0.12,0.12c-0.12,0-0.25,0.12-0.25,0.12c-0.37,0-0.49,0.24-0.49,0.73c0,0-0.12,0.12-0.25,0.12l-0.12-0.12
	c-0.12-0.86,0.12-1.1,0.87-1.1C516.03,36.36,516.28,36.36,516.4,36.48C516.4,36.36,516.4,36.36,516.4,36.48z M516.9,56.53
	c-0.12,0.12-0.25,0.12-0.49,0.12l-0.12-0.24c0.12,0,0.12-0.12,0.25-0.12C516.65,56.29,516.77,56.41,516.9,56.53z M516.77,31.84
	c0.12,0,0.37,0,0.49,0c0,0,0.12,0.12,0.12,0.24l-0.12,0.12c-0.12,0-0.25,0-0.25,0h-0.12c-0.12,0-0.12-0.12-0.25-0.24L516.77,31.84z
	 M517.64,59.34l0.12,0.12l-0.12,0.12l-0.12-0.12C517.64,59.47,517.64,59.47,517.64,59.34z M515.54,55.07l0.12-0.12l0.12,0.12
	l-0.12,0.12C515.66,55.19,515.66,55.07,515.54,55.07z M515.29,56.41c0.12-0.12,0.12-0.12,0.25,0.12l-0.12,0.12h-0.12
	C515.29,56.53,515.29,56.53,515.29,56.41z M517.02,59.59c-0.49,0.24-0.87,0.73-1.36,0.61c-0.12,0-0.37,0-0.49,0
	c-0.12,0-0.37,0-0.49,0c-0.62,0-0.74-0.12-0.74-0.49c0-0.61,0.37-0.37,0.62-0.61c0.12-0.24,0.37-0.24,0.62-0.24s0.49,0,0.87,0
	c0.49-0.12,0.99,0,1.11,0.12C517.27,58.98,517.27,59.59,517.02,59.59z M515.78,64.84c0,0.12-0.12,0.12-0.12,0.12
	c-0.49-0.49-0.99,0.37-1.48,0.12h-0.12l-0.12-0.12c0-0.12,0-0.24,0.12-0.37c0.12-0.12,0.25-0.37,0.37-0.37c0.25-0.12,0.49,0,1.11,0
	c-0.12,0,0.12-0.12,0.25,0.24C515.91,64.48,515.78,64.72,515.78,64.84z M518.01,57.88l0.12,0.12v0.12h-0.12
	C517.89,58,517.89,57.88,518.01,57.88z M518.38,30.86c0.12-0.12,0.12-0.12,0.25-0.12c0,0,0,0,0,0.12s0.12,0.12,0.12,0.24
	c-0.12,0.12-0.25,0.37-0.25,0.49l-0.12,0.12c0-0.12-0.12-0.24-0.12-0.37C518.26,31.11,518.26,30.98,518.38,30.86z M518.75,57.14
	c-0.25-0.12-0.12-0.24,0-0.24l0.12,0.12C518.75,57.02,518.75,57.14,518.75,57.14z M519.12,60.69
	C519.25,60.69,519.25,60.69,519.12,60.69c0-0.24,0.12-0.49,0.25-0.49c0.25,0,0.49,0,0.74-0.24c0.25-0.24,0.25,0,0.25,0.24
	c0.12,0.24,0.12,0.49,0.25,0.61c0.12,0.12,0.12,0.24-0.12,0.37c-0.37,0.12-0.62,0.12-0.87,0.37s-0.25-0.24-0.25-0.37
	C519.49,60.81,519.37,60.69,519.12,60.69C519.25,60.69,519.25,60.69,519.12,60.69c-0.12,0.73-0.49,1.1-0.99,0.98
	c-0.12,0-0.25-0.12-0.25-0.24c0,0,0-0.12,0.12-0.12C518.38,61.18,518.75,60.57,519.12,60.69z M519.99,36.36l0.12,0.12l-0.12,0.12
	c0,0,0-0.12-0.12-0.12C519.99,36.36,519.99,36.36,519.99,36.36z M520.36,53.96l0.12,0.12v0.12h-0.12
	C520.24,54.09,520.24,53.96,520.36,53.96z M520.36,52.5l0.12,0.12l-0.12,0.12c0,0,0-0.12-0.12-0.12
	C520.24,52.62,520.24,52.5,520.36,52.5z M520.61,51.28c0-0.12,0.12-0.24,0.12-0.37c0.12-0.12,0.25,0,0.37-0.12
	c0.49-0.24,0.74,0.37,1.24,0.49c0.25,0,0.25,0.24,0.12,0.49c-0.12,0.12-0.37,0.37-0.37,0.37c-0.37-0.49-0.87-0.24-1.24-0.37
	C520.61,51.76,520.48,51.64,520.61,51.28z M521.35,44.19c0.12-0.24,0.25-0.12,0.37-0.12l0.12,0.12l-0.12,0.12
	C521.6,44.43,521.47,44.43,521.35,44.19C521.35,44.31,521.23,44.19,521.35,44.19z M522.09,39.17c0.12,0,0.25,0,0.49,0
	c0,0.37-0.12,0.49-0.37,0.37c-0.12,0-0.12-0.12-0.12-0.24C521.97,39.3,521.97,39.17,522.09,39.17z M521.23,52.99
	c0.12-0.12,0.12-0.12,0.25,0.12c0,0,0,0.12-0.12,0.12c0,0-0.12,0-0.12-0.12C521.23,53.11,521.23,53.11,521.23,52.99z M522.22,55.31
	c-0.49,0.12-0.74-0.49-1.11-0.61l-0.12-0.12c0-0.12,0-0.12,0-0.12s0.12,0.12,0.12-0.12c0.12-0.12,0.25-0.49,0.37-0.49
	c0.37,0.24,0.62,0.49,0.99,0.86c-0.12,0.12,0,0.24,0,0.37C522.34,55.19,522.34,55.19,522.22,55.31z M524.19,47.98
	c0.12,0,0.37,0,0.49,0c0,0,0.12,0.12,0.12,0.24l-0.12,0.12c-0.12,0-0.25,0-0.25,0c-0.12,0-0.12,0-0.25,0
	c-0.12,0-0.12-0.12-0.25-0.24C523.95,48.1,524.07,47.98,524.19,47.98z M525.31,47.98c0,0.24,0.12,0.37,0.12,0.61l-0.12,0.12
	c0,0,0,0-0.12,0l-0.12-0.12c0-0.12,0-0.12,0-0.24C525.31,48.22,525.31,48.1,525.31,47.98z M524.69,52.5l0.12,0.12v0.12h-0.12
	C524.57,52.62,524.57,52.5,524.69,52.5z M4.45,48.59c0,0-0.12,0-0.12-0.12c-0.12-0.12-0.25-0.24-0.37-0.37
	c0-0.24,0.12-0.37,0.25-0.49c0.25,0,0.37,0.12,0.37,0.37C4.45,48.22,4.45,48.46,4.45,48.59z M0.12,34.41c0.49,0,0.87-0.12,1.24,0.49
	c0.12,0.12,0.25,0.24,0.37,0.37c-0.12,0.12-0.25,0.24-0.37,0.24c-0.12,0.12-0.12,0.24,0,0.37c0.37,0.12,0.49,0.49,0.49,0.98
	c0,1.22,0.37,1.71,1.36,1.96c0,0.24,0.12,0.37,0.25,0.49c0.25,0.12,0.37,0.37,0.49,0.49s0.12,0.24,0,0.37l-0.12,0.12
	c-0.25,0.12-0.37,0.12-0.62,0.24c0.12,0.49,0.37,0.24,0.62,0.24c0.12,0,0.25,0.12,0.49,0.12c0.12,0,0.12,0.61,0,0.61
	c-0.12,0.12-0.25,0.24-0.49,0.24c-0.37,0-0.49,0.24-0.49,0.73c0,0.37-0.12,0.49-0.25,0.73c-0.37,0.37-0.87,0.61-1.36,0.49
	c0,0.24-0.12,0.37-0.25,0.49c-0.25,0.24-0.37,0.37-0.12,0.61s0.49,0.49,0.74,0.49s0.37,0.24,0.37,0.37
	c-0.12,0.86,0.25,1.1,0.74,1.34c0.37,0.24,0.25,1.1,0.62,1.22c0,0.12,0,0.37-0.12,0.37c-0.25,0.12-0.49,0.12-0.87,0.12
	c-0.25,0-0.37,0.24-0.37,0.61c0,0.49,0,0.98,0.12,1.34c0.12,0.24,0.25,0.73,0.37,0.98c0.12,0.37,0.12,0.61,0,0.86
	c0,0.12,0,0.24,0,0.37s0.37,0.12,0.37,0c0.12-0.73,0.49-0.73,0.74-1.1c0.12-0.24,0.25-0.12,0.37,0.12c0.25,0.24,0.37,0.61,0.12,1.1
	s-0.25,1.1-0.12,1.59c0,0.24,0.12,0.49,0.37,0.49s0.37,0,0.62,0c0,0.37,0,0.61,0,0.98c0.25,0,0.49,0,0.74,0.12
	c0.12,0,0.12,0.12,0.12,0.37c-0.12,0.12-0.25,0.49,0,0.49C6.8,57.14,6.8,57.51,6.8,58c0.12,0,0.37,0,0.49,0s0.25,0.12,0.49,0.24
	c-0.12,0.12-0.25,0.24-0.37,0.37L7.3,58.73v0.12c0.12,0,0.25,0.12,0.25,0.12c0.25,0,0.49,0,0.87,0c0.25,0,0.25,0.12,0.37,0.37
	c0.12,0.37,0,0.98-0.25,0.98c-0.37,0.12-0.49,0.37-0.37,0.86c0.12,0.37,0.25,0.73,0.25,1.1c0,0.12,0.12,0.24,0.12,0.49
	c0.12-0.12,0.37-0.24,0.37-0.49c0.12-0.37,0.12-0.73,0.25-1.1c0-0.12,0.12-0.12,0.12-0.12l0.12,0.12c0.12,0.61,0.49,1.1,0.37,1.71
	c0,0.37,0.12,0.49,0.25,0.24c0.37-0.49,0.87-0.86,0.74-1.83c0-0.12,0.12-0.37,0.25-0.61c0.25-0.37,0.49-0.37,0.74,0
	c0,0.12,0,0.12,0,0.24c0.25,0.61,0.49,1.22,0.12,1.96c-0.12,0.37,0.12,0.24,0.25,0.37c0.49,0.37,0.49,0.37,0.37,1.34
	c-0.12,0.61,0.12,1.22,0.49,1.47c0.37-0.37,0.49-0.12,0.74,0.24c0.12,0.12,0.25,0.37,0.37,0.12s0.25,0,0.37,0.12
	s0.25-0.12,0.37-0.24s0.37-0.12,0.49,0.12c0.12,0.12,0.25,0.24,0.37,0s0.37-0.49,0.49-0.61c0.12-0.24,0.25-0.49,0.49-0.49
	c0.49,0,0.99,0.12,1.48,0.12c0.12,0,0.12,0.24,0.12,0.37s-0.12,0.37-0.12,0.37c-0.12,0.12-0.37,0.12-0.49,0
	c-0.37-0.49-0.74-0.12-1.11,0.12l-0.12,0.12l0.12,0.12c0.99,0.37,2.1-0.24,3.09,0.37c0.37-0.61,0.62-0.24,0.99,0.12
	c0.12,0.12,0.25,0,0.37,0c0.74,0,1.48,0,2.1,0c0.25,0,0.49,0.12,0.74,0.37s0.49,0.12,0.49-0.24c0.12-0.49,0.25-0.73,0.49-0.98
	c0.12-0.12,0.25-0.12,0.37-0.12c0.25,0.12,0.12,0.37,0,0.49c-0.12,0.61-0.12,0.86,0.25,0.86s0.74,0,1.11,0s0.87-0.12,1.11,0
	c0.87,0.49,1.86,0.98,2.84,0.98c0.49,0.61,0.99,0.37,1.61,0.49c0.37,0,0.74,0,1.11,0c0.25,0,0.49,0.37,0.74,0.37
	c0.37,0.12,0.49-0.49,0.87-0.49c0.49,0.12,0.99,0,1.48,0c0.25,0,0.37,0,0.62-0.24c0.74-0.73,1.48-0.86,2.35-0.73
	c0,0.12,0,0.24,0,0.49c-0.25,0-0.49,0-0.74,0.37c-0.25,0.49-0.62,0.73-0.99,0.61l-0.12,0.24l0.12,0.12
	c0.62-0.24,1.36,0.86,1.98,0.12c0.37,0.61,0.62,0.24,0.99,0c0.37,0.61,0.99,0.24,1.48,0.37c0.37,0.12,0.62-0.12,0.87-0.49
	c0.37-0.61,0.74-0.61,1.11-0.24c0.25,0.37,0.62,0.37,0.87,0c0.37-0.49,0.62-0.12,0.87,0.12s0.49,0.12,0.49-0.24
	c0.12-0.49,0.25-0.73,0.62-0.37s0.74,0.37,1.24,0c0.12-0.12,0.37,0.37,0.74,0c0.12-0.12,0.12,0.24,0.25,0.49s0.25,0.37,0.37,0.37
	c0.25,0,0.37,0,0.62-0.24c0.12-0.24,0.37-0.24,0.62,0c0.49,0.61,0.87,0.37,1.24-0.24c0.12-0.37,0.37-0.24,0.49,0
	s0.37,0.24,0.62,0.37c0.37,0.49,0.99-0.12,1.36,0.49c0.25-0.12,0.62-0.24,0.87-0.49s0.49-0.37,0.74,0c0.37,0.37,0.74,0.12,1.11,0.24
	c0.74-0.86,1.48-0.24,2.23-0.37c0.74,0.73,1.61,0.37,2.47,0.49c0.37,0.12,0.62-0.61,0.87-0.37c0.37,0.24,0.74,0.61,1.24,0
	c0.25,0.37,0.62,0.37,0.87,0.24c0.25-0.73,0.62,0.24,0.99-0.24c0.12-0.24,0.25-0.12,0.49,0c0.12,0,1.11,0,1.24,0
	c0.12-0.12,388.02-0.37,388.14-0.24c0.25,0.49,0.49-0.12,0.74-0.12c0.37,0,0.62,0.24,0.87,0.37c0.25,0.12,0.37-0.12,0.62-0.37
	c0.12-0.12,0.25-0.49,0.37-0.49c0.12,0,0.25,0.24,0.37,0.37c0.25,0.37,0.49,0.61,0.87,0.12c0.12-0.12,0.12-0.12,0.25,0
	c0.25,0.37,0.37-0.12,0.49-0.12c0.25,0,0.37,0.37,0.62,0.37c0.74,0,1.48,0.37,2.1-0.37c0.12-0.12,0.49,0,0.62,0
	c0.62-0.24,1.11,0.61,1.73,0.12c1.24,0.49,1.24,0.49,2.72-0.12c0.25-0.12,0.74-0.12,0.99,0.12c0.49,0.49,1.11,0.24,1.61,0.24
	c0.37-0.61,0.99-0.37,1.36-0.37c0.12,0,0.37-0.12,0.49-0.24c0.37-0.37,0.62-0.24,0.74,0.37c0.12,0.73,0.74,0.24,0.99,0.61
	c0.37,0.49,0.87,0.37,1.24,0.12c0.49-0.37,0.99-0.73,1.48-1.1c0.25-0.12,0.37-0.12,0.62-0.12c0,0.24,0,0.49,0,0.73s0,0.49,0.12,0.61
	c0.25,0.24,0.62,0.49,0.87,0.61c0.25,0.12,0.49,0,0.62-0.24c0-0.12-0.12-0.49-0.12-0.61s-0.12-0.24-0.12-0.37s0-0.37,0.12-0.37
	C479.17,69,479.3,69,479.3,69c0.25,0.12,0.37,0.37,0.62,0.37c0.49,0.12,0.87-0.12,1.36,0.12c0.49,0.24,0.87,0.49,1.36,0.49
	l0.12,0.12c0,0,0.12,0.12,0,0.12c0,0.12-0.12,0.12-0.12,0.12c-0.12,0-0.25,0-0.25,0.12c-0.12,0.37,0.12,0.24,0.25,0.37
	s0.25,0.12,0.25,0.24c0.25,0.37,0.49,0.37,0.74,0c0.25-0.24,0.25,0.12,0.37,0.12c0.37,0.24,0.62,0.24,0.87-0.12
	c0.12-0.12,0.25-0.37,0.37-0.49c0.25-0.37,0.37-0.24,0.62,0.24c0.25,0.61,0.37,0.61,0.62,0.37c0.37-0.73,0.87-0.86,1.48-0.86
	c0.25,0,0.49,0,0.62,0s0.25,0.24,0.25,0.49c0,0.12,0.12,0.24,0.12,0.37c0-0.12,0.12-0.24,0.12-0.37c0-0.37,0-0.86,0.12-1.22
	c0.25-0.49,0.62-0.24,0.87-0.24c0.37,0,0.74-0.12,1.11,0.12c0.25,0.12,0.37,0.24,0.74,0c0.25-0.24,0.49-0.24,0.49-0.73l0.12-0.12
	c0.12,0.12,0.12,0.12,0.25,0.24c0,0.12,0,0.37,0,0.49s0.12,0.24,0.12,0.49c0.12,0,0.25-0.12,0.25-0.12
	c0.25-0.37,0.49-0.61,0.74-0.98c0.12-0.12,0.12,0,0.25,0.12c0,0.12,0,0.24,0,0.24c-0.12,0.37-0.37,0.61-0.49,0.98s0,0.37,0.12,0.49
	c0.25,0,0.25,0.37,0.37,0.61c0.12,0.37,0.25,0.12,0.25-0.12c0-0.37,0.12-0.61,0.37-0.61c0.37,0,0.74,0,1.11-0.12
	c0.12,0,0.12-0.24,0-0.37c0-0.12,0-0.24,0-0.37c0.12,0,0.25-0.12,0.25-0.12c0.37,0.24,0.37,0.49,0.25,1.22c0,0.24,0,0.49,0,0.73
	c0,0.12,0.12,0.24,0.12,0.37l0.12-0.12c0-0.12,0-0.12,0-0.24c0.12-0.24,0.25-0.73,0.37-0.73c0.49-0.12,0.62-0.86,0.87-1.34
	c0.12-0.24,0.12-0.24,0.49,0c0.12,0,0.25,0.12,0.25,0.12c0.25,0,0.37-0.49,0.49-0.24c0.25,0.24,0.49,0.24,0.74,0.37
	c0.12,0,0.25,0.24,0.25,0.49s0,0.49,0,0.73c0,0.37,0,0.61,0.37,0.73c0.25,0,0.62,0.12,0.62-0.49c0-0.12,0-0.61,0.25-0.24
	c0.37,0.37,0.74,0.24,1.11,0.24c0.12,0,0.25-0.24,0.25-0.49c0.37,0,0.37,0.49,0.37,0.86c0,0.24,0.12,0.49,0.25,0.49
	s0.25-0.12,0.37-0.24s0.25-0.24,0.25-0.37c0.12-0.73,0.37-0.86,0.87-0.86c0.12,0,0.25-0.24,0.25-0.49s-0.12-0.37-0.37-0.37
	c-0.12,0-0.25,0-0.37,0s-0.12-0.12-0.25-0.24c0.12-0.12,0.12-0.24,0.25-0.24c0.49,0,0.99-0.12,1.48-0.12
	c0.37-0.61,0.99-0.37,1.36-0.49c0.12,0,0.25,0,0.37-0.12c0.25-0.24,0.49-0.37,0.74-0.37c0.25,0,0.49,0,0.74,0.37s0.37-0.49,0.62,0
	c0.25,0.37,0.49-0.12,0.74-0.12c0.25,0,0.49,0.37,0.87,0.24c0.25-0.12,0.25-0.37,0.37-0.73c0-0.24,0.12-0.24,0.25,0
	c0.12,0.61,0.25,0.86,0.74,0.73c0.25,0,0.49,0,0.62,0c0.49,0.12,0.62-0.24,0.87-0.86c0.25-0.73,0.62-0.73,1.11-0.49
	c0.12,0.12,0.25,0.24,0.49,0.24c0.12,0,0.37,0,0.12-0.37c-0.12-0.24-0.12-0.49,0.12-0.49c0.37-0.12,0.62-0.49,0.74-0.86
	c0.25-0.61,0.37-1.1,0.62-1.71c0.12-0.37,0.37-0.49,0.74-0.24c0.12,0.12,0.25,0.24,0.37,0c0.37-0.73,0.49-0.73,0.99-0.37
	c0.74,0.12,0.87,0.37,1.11,0.12s0.49-0.37,0.74-0.49c0.49-0.24,0.74-0.61,0.87-1.34c0.12-0.73,0.62-1.1,0.49-1.96
	c-0.62,0-1.11,0-0.99-1.22c0-0.12-0.25-0.24-0.37-0.37c-0.12-0.12-0.25-0.37-0.12-0.61c0-0.24,0.25-0.37,0.37-0.37
	c0.25,0.24,0.49,0.37,0.87,0c0.25-0.24,0.62-0.61,0.99-0.24c0.25-0.37,0.87,0,1.48-0.12c0.49,0,0.49,0,0.49-1.1
	c0-0.12,0-0.24,0-0.37c0.12-0.12,0.25-0.37,0.37-0.49c0.25-0.37,0.25-0.61-0.12-0.98c-0.49-0.49-0.49-0.73-0.12-1.22
	c0.12-0.12,0.12-0.24,0.25-0.24c0.25,0,0.25,0.12,0.37,0.12c0,0.12,0,0.24-0.12,0.37c0,0.12-0.12,0.12-0.12,0.24
	c0.25,0.24,0.37,0.37,0.62,0.61c0-0.24,0.12-0.49,0.25-0.61c0.12-0.37,0.37-0.37,0.62,0.12c0,0.24,0,0.49,0.12,0.61
	c0.12,0.12,0.37,0.12,0.49,0c0.37-0.24,0.62-0.73,0.62-1.34c0-0.49-0.25-0.61-0.49-0.73c-0.62-0.24-1.36-0.86-1.98,0
	c-0.37-0.49-0.62-0.37-0.99,0l-0.12-0.12c-0.12-0.98-0.37-0.73-0.87-0.37c-0.12,0-0.49-0.24-0.74-0.49l-0.12-0.12l0.12-0.12
	c0.37-0.12,0.74-0.24,0.99-0.49c0.37,0.61,0.87,0.37,1.24,0.37c0.49-0.12,0.87,0.37,1.24,0.49c0,0,0.12-0.12,0.25-0.24
	c-0.25-0.37-0.12-0.61,0-0.98c0.12-0.12,0-0.49-0.12-0.61h-0.12c-0.12,0-0.25,0-0.37,0s-0.12-0.12-0.25-0.24
	c0.12-0.12,0.12-0.24,0.25-0.24c0.25,0,0.37-0.24,0.37-0.61c0-0.24-0.25-0.37-0.37-0.37s-0.37,0-0.49,0c-0.12,0-0.37,0-0.25-0.37
	c0-0.12,0.12-0.12,0.25-0.24c0.12-0.12,0.25-0.24,0.12-0.49c-0.25-0.37-0.49-0.73-0.87-0.24c-0.12,0.12-0.12,0.12-0.25,0
	c-0.25-0.49-0.62-0.24-0.99-0.37c-0.25,0-0.49-0.12-0.49-0.49s-0.12-0.73,0.12-0.86c0.49-0.24,0.62-0.98,0.87-1.59
	c-0.12-0.12-0.25-0.24-0.37-0.37c-0.12-0.12-0.25-0.12-0.25,0.12c0,0.49-0.12,0.73-0.49,0.24c-0.25,0.24-0.37,0.49-0.62,0.73
	c0,0-0.12,0-0.12,0.12c0-0.12-0.12-0.37-0.12-0.49c0.12-0.49,0.25-0.86,0.37-1.22c0.12-0.49,0.37-0.61,0.74-0.24
	c0.12,0.24,0.62,0.24,0.74-0.12c0.12-0.49-0.12-0.49-0.37-0.86c-0.37-0.49-0.62-1.22-0.87-1.83c-0.25,0-0.37,0-0.62,0
	c0.12-0.24,0.12-0.37,0.25-0.61c0.12-0.61-0.25-0.37-0.37-0.49c-0.25-0.24-0.49-0.37-0.74-0.61c-0.12-0.12-0.12-0.24-0.12-0.37
	s0.12-0.24,0.12-0.37h0.12c0.25,0,0.49,0,0.62-0.24c0.25-0.37,0-0.73-0.25-0.98c-0.25-0.24-0.37-0.61-0.62-0.73
	c-0.49-0.24-0.62-0.73-0.99-1.22c0.12-0.86-0.25-1.34-0.62-1.83c-0.37-0.37-0.49-0.98-0.37-1.47c0.12-0.98-0.37-1.59-0.49-2.44
	c0-0.49-0.49-0.86-0.87-0.73c-0.25,0.73-0.49,1.34-0.99,1.34c-0.74,0.24-1.48,0.98-2.23,0.98c0-0.24,0-0.49-0.12-0.61
	c-0.12-0.12-0.25-0.24-0.37-0.24c-0.37,0-0.62,0-0.99,0c-0.12,0-0.25,0-0.37,0l-0.12-0.12c0-0.12,0.12-0.24,0.12-0.24
	c0.62,0.12,1.24-0.49,1.86-0.61c0.25,0,0.25-1.22,0.74-0.49c0.49-0.49,0.99-0.73,1.61-0.98c0.25-0.12,0.49-0.49,0.49-0.86
	c0-0.12,0-0.37,0-0.49c0.12-0.73,0.49-1.1,0.99-0.73c0.49,0.37,1.11-0.12,1.61,0.61c0-0.12,0.12-0.24,0.12-0.37
	c0-0.24,0.12-0.49,0.37-0.49s0.49,0,0.62,0c0.62,0.12,1.11,0,1.11-1.22c0-0.12,0.25-0.24,0.37-0.37c0.12-0.12,0.12-0.24,0.12-0.37
	l-0.12-0.12c-0.25,0-0.49-0.12-0.62,0.12c-0.25,0.24-0.37,0.49-0.62,0.73c-0.12,0.12-0.37-0.12-0.49-0.49c0-0.12,0-0.37,0-0.49
	c0.25-0.12,0.49-0.37,0.74-0.49c0.25-0.24,0.25-0.24,0-0.98c-0.12-0.24-0.25-0.73,0-0.86c0.37-0.24,0.49-0.98,0.74-1.1
	c0.62-0.37,0.99-0.98,1.24-1.83c0-0.12,0.12-0.12,0.25,0.12c0.25,0.49,0.37,0.49,0.49,0.12c0.12-0.24,0.12-0.73,0-0.86
	c-0.62-0.12-0.49-0.73-0.49-1.22c0-0.24,0.37-0.37,0.12-0.86c-0.25-0.49-0.12-0.86,0.25-0.98c0.12,0,0.12-0.24,0.12-0.37
	c-0.25,0-0.62-0.24-0.49-0.86c0.12-0.98-0.37-0.98-0.62-1.34c-0.25-0.24-0.37,0-0.49,0.12c-0.12,0-0.25,0.12-0.25,0.12
	c-0.37-0.49-0.87-0.37-1.24-0.73c-0.12-0.12,0-0.61-0.12-0.86c0-0.12,0-0.12-0.12-0.24c0,0.12-0.12,0.12-0.12,0.24
	c0,0.12,0,0.37,0,0.49c-0.12,0.49-0.25,0.73-0.49,0.61c-0.49-0.49-1.24-0.49-1.73-0.98c-0.12-0.12-0.12-0.37-0.12-0.49
	c0.12,0,0.25-0.12,0.25-0.12c0.37-0.61,0.74-0.98,1.24-0.86c0.25,0,0.37-0.12,0.62-0.37c0.12-0.12,0.12-0.37,0.12-0.49l-0.12-0.12
	c-0.25,0-0.49,0-0.87,0c-0.49,0-1.11,0-1.61,0c-0.12,0-0.25-0.12-0.25-0.24c0-0.24,0-0.49,0.12-0.61c0.12-0.24,0.25-0.49,0.49-0.61
	c0.25-0.12,0.37-0.49,0.62-0.73c0.12-0.12,0-0.61-0.12-0.61c-0.12,0-0.25-0.12-0.37-0.12c-0.12,0-0.37,0-0.49-0.12
	c-0.49-0.86-0.74,0.24-1.24,0.24c0,0.12,0,0.24,0.12,0.37c0.12,0.24,0.25,0.37,0.37,0.49c0.12,0.12,0.12,0.24,0,0.37
	c-0.12,0.12-0.37,0.12-0.37,0c-0.25-0.24-0.49-0.73-0.74-0.86c-0.49-0.12-0.62,0.73-0.99,0.98h-0.12c-0.12-0.73,0.12-1.22,0.62-1.47
	c0.37-0.12,0.25-0.24,0.12-0.61c-0.12-0.61-0.37-0.86-0.87-0.86c-0.25,0-0.25-0.37-0.25-0.73c0-0.12,0-0.37-0.12-0.49
	c0-0.12-0.12-0.24-0.25-0.24c-0.12,0-0.25,0.12-0.25,0.12c-0.25,0.61-0.37,0.61-0.62,0.24c-0.37-0.61-0.74-0.61-1.11-0.12
	c-0.25,0.37-0.49,0.24-0.74-0.12c-0.25-0.24-0.49-0.24-0.74,0c-0.25,0.12-0.37,0.24-0.62,0.12c-0.62-0.49-1.24,0-1.86-0.61
	c-0.25-0.24-0.49,0.37-0.62,0.61c-0.25,0.37-0.49,0.37-0.74,0.12c-0.12-0.12-0.12-0.12-0.25,0c-0.62,0.37-1.24,0.61-1.86-0.12
	c-0.12-0.12-0.37-0.12-0.49,0.12c-0.25,0.37-0.74,0.24-0.74,1.1c-0.37,0.37-0.74,0.37-1.11,0.12c-0.37-0.37-0.87-0.49-1.24-1.1
	c-0.12-0.37-0.49-0.24-0.74-0.12c-0.12,0-0.12,0.24-0.25,0.24c-0.74,0.61-1.61,0.98-2.47,0.24c-0.25-0.24-0.74-0.24-1.11,0.12
	c-0.37,0.49-0.62,0.12-0.87-0.24c-0.25-0.37-0.37-0.49-0.62-0.12c-0.25,0.24-0.49,0.12-0.74,0.12c-0.12,0-0.25,0.12-0.25,0.12
	c-0.12,0.12,0,0.73-0.25,0.61c-0.25-0.12-0.37-0.37-0.49-0.61c-0.12-0.12-0.25-0.24-0.25-0.12c-0.37,0.24-0.62,0.24-0.99,0
	c-0.12,0-0.25,0.12-0.25,0.24c-0.12,0.24-0.12,0.98-0.49,0.37c-0.25-0.49-0.62-0.61-0.99-0.61c-1.11,0-2.35,0.12-3.46,0
	c-0.37,0-0.74,0.12-0.99,0.61c-0.25,0.37-0.62,0.49-0.87,0.24c-0.25-0.24-0.62-0.37-0.99-0.37c-1.24,0-2.47,0-3.71,0
	c-0.12,0-0.37,0-0.49,0.12c-0.37,0.37-0.62,0.37-0.87,0c-0.12-0.12-0.49-0.24-0.62-0.12c-0.37,0.24-0.62,0.61-0.99,0.12
	c-1.48,0.37-2.72,0-3.83,0.12c-0.49,0-0.99-0.12-1.36,0.12c-0.62,0.37-1.24,0.73-1.86,0l-0.12,0.12c-0.25,0.24-0.49,0.24-0.74,0
	c-0.25-0.24-0.37-0.24-0.62,0c-0.12,0.12-0.37,0.12-0.62,0.24c-0.37,0-0.62,0-0.99,0c-0.37,0-0.74,0-1.11,0
	c-0.37,0-0.74-0.24-0.99,0c-0.37,0.49-0.74,0-0.99,0c-0.37,0-0.62,0.12-0.87,0.37c-0.25,0.24-0.49-0.37-0.74-0.24
	c-0.49,0.49-0.99,0.24-1.48,0.37c-0.37,0-0.87-0.12-1.11,0.12c-0.37,0.24-0.62,0.37-0.99,0c-0.37-0.37-0.87-0.61-1.24,0.12
	c-0.12,0.24-0.49,0.24-0.62,0.24c-0.37-0.24-0.74,0-0.99,0c-0.37,0-0.62-0.12-0.99,0C455.43,3.48,67.41,3.48,67.04,3.97
	c-0.25-0.12-0.49-0.49-0.87-0.37c-0.37,0.12-0.25,0.98-0.62,0.98c-0.25,0-0.49,0.12-0.74,0.37c-0.12,0.12-0.25,0-0.25-0.12
	c0-0.12,0-0.37,0.12-0.49s0.25-0.12,0.25-0.24c0.12-0.12,0.12-0.24,0.12-0.24c-0.12-0.12-0.25-0.12-0.25-0.24
	c-0.37-0.12-0.62,0.37-0.87,0.37S63.45,3.72,63.2,3.6c-0.37,0-0.25,0.73-0.49,0.73c-0.12,0-0.25-0.37-0.37-0.12
	c-0.25,0.24-0.49,0.49-0.74,0.12c-0.12-0.24-0.37-0.24-0.62-0.24c-0.62,0-1.36,0.37-1.98-0.37c0-0.12-0.25,0-0.37,0
	c-0.37,0.24-0.62,0.49-0.99,0.86c-0.25-0.49-0.74-0.49-1.11-0.37c-0.12,0-0.37-0.12-0.49,0c-0.37,0.49-0.74,0.49-1.11,0
	c-0.12-0.12-0.25,0.12-0.49,0.24c-0.25,0.12-0.37,0.37-0.62,0c-0.37-0.37-0.62-0.24-0.87,0.12c-0.12,0.24-0.37,0.73-0.74,0.49
	c-0.25-0.24-0.37-0.37-0.62,0s-0.49,0.73-0.74,0.98c-0.12,0.12-0.37,0-0.49,0s-0.25-0.24-0.25-0.49c-0.12,0-0.37,0-0.49-0.12
	c-0.37-0.49-0.49-0.24-0.74,0.12c-0.12,0.12-0.12,0.24-0.25,0.24c0-0.24-0.12-0.37-0.12-0.61c0-0.24-0.12-0.49-0.12-0.73
	c-0.12,0.12-0.25,0.12-0.25,0.24C47.74,5.31,47.49,5.56,47,4.95c-0.12,0-0.37,0.12-0.62,0.12c-0.37,0-0.49,0.12-0.62,0.61
	c0,0.24-0.12,0.24-0.25,0.12c0-0.12,0-0.37-0.12-0.49c-0.87-1.22-1.86-0.86-2.84-0.73c-0.12,0-0.12,0.12-0.25,0.24
	c-0.25,0.24-0.37,0.61-0.62,0.86c-0.12,0.24-0.25,0.12-0.25-0.24c-0.12-0.98-0.25-1.22-0.87-0.86c-0.25,0.12-0.49,0.24-0.74,0
	c-0.25-0.12-0.37,0-0.49,0.37c0,0.37-0.25,0.61-0.49,0.37s-0.49-0.37-0.74,0c-0.12,0.12-0.37,0-0.49-0.12
	c-0.49-0.49-0.74-0.37-1.24,0.12C35.99,5.8,35.99,5.8,35.5,5.07c0.12,0,0,0-0.25,0c-0.37,0-0.25,0.24-0.12,0.61
	c0.12,0.12,0,0.24-0.12,0.37h-0.12c-0.12-0.12-0.25-0.12-0.25-0.24c-0.37-0.73-0.37-0.73-0.74-0.49c-0.25,0.12-0.37,0.24-0.62,0.12
	c-1.11-0.61-1.98-0.61-2.84,0.12c-0.62,0.49-0.87,0.37-1.24-0.24c0-0.12-0.25-0.12-0.25-0.12c-0.37,0.37-0.62,0.24-0.87-0.12
	c-0.49,0.49-0.99,0.37-1.36,0.37c-1.73,0-3.59,0.12-5.32,0c-0.62,0-1.11,0.12-1.61,0.61c-0.37,0.24-0.49,0.49-0.62-0.24
	c0-0.24-0.12-0.12-0.25,0c-0.37,0.73-0.37,0.73-0.62,0.49c-0.37-0.37-0.62-0.24-0.99-0.24c-0.37-0.12-0.87,0.12-1.24-0.37
	c-0.12-0.12-0.25,0-0.49,0.12l-0.12,0.12c-0.25,0.37-0.49,0.73-0.74,0.24c-0.62,0.24-1.24,0.37-1.48,1.59
	c0,0.24-0.25,0.49-0.37,0.24c-0.37-0.61-0.62,0-0.99,0c-0.74,0-1.36,0.49-1.98,1.22c-0.25,0.37-0.62,0.49-0.87,0.86
	c-0.25,0.61-0.49,0.12-0.87,0.12c-0.49,0-0.99,0.98-0.99,1.59c0,0.37,0.12,0.73,0.37,0.73s0.49,0,0.87,0.12
	c0.12,0,0.12,0.12,0.12,0.37c-0.49,0.73,0.12,1.96-0.49,2.69c0.12,0.24,0.25,0.49,0.37,0.73c0.25,0.37,0.25,0.37-0.12,0.61
	c-0.37,0.12-0.12,0.37-0.12,0.61c0,0.37-0.37,0.73-0.49,0.61c-0.37-0.37-0.74-0.24-1.11-0.24c-0.12,0-0.12,0.12-0.25,0.24
	c0,0,0,0.12,0.12,0.24C6.68,18.88,6.8,19,7.17,19c0.37,0.12,0.62,0.86,0.37,1.22c-0.37,0.61-0.74,1.47-1.36,1.83
	c-0.37,0.12-0.37,0.73,0,0.86c0.25,0.12,0.49,0.37,0.74,0.49c0.37,0.12,0.37,0.24,0.12,0.61c0,0.12-0.12,0.12-0.12,0.24
	c0,1.22-0.12,2.2-0.62,3.06c-0.25,0.49-0.49,1.1-0.37,1.83c0.12,0.37,0.25,0.86,0.12,0.98c-0.12,0.24-0.49,0.49-0.74,0.61
	c-0.62,0.37-1.24,1.1-1.98,1.1c-0.12,0-0.12,0.37-0.12,0.61c0,0.12,0,0.12,0.12,0.24c0.12,0.24,0.12,0.37,0,0.49
	c-0.37,0.12-0.87-0.12-1.24,0.24c-0.12,0.12,0,0.73-0.37,0.61c-0.25,0-0.37-0.24-0.62-0.37c-0.37,0-0.62-0.12-0.87,0.37
	C0.12,34.16,0.12,34.28,0,34.41C0,34.28,0.12,34.41,0.12,34.41z"/>
</svg>
