<?xml version="1.0" encoding="utf-8"?>
<!-- Generator: Adobe Illustrator 26.0.3, SVG Export Plug-In . SVG Version: 6.00 Build 0)  -->
<svg version="1.1" id="Слой_1" xmlns="http://www.w3.org/2000/svg" xmlns:xlink="http://www.w3.org/1999/xlink" x="0px" y="0px"
	 viewBox="0 0 660 70" style="enable-background:new 0 0 660 70;" xml:space="preserve">
<style type="text/css">
	.st0{fill:#E34192;}
</style>
<path class="st0" d="M612.7,42.45l-0.17-0.17c0-0.17,0-0.34,0-0.51c0.34,0,0.68,0,1.02,0v0.17
	C613.39,42.11,613.04,42.28,612.7,42.45z M63.94,53l-0.17-0.17c0,0,0-0.17,0.17-0.17h0.17C64.28,52.66,64.28,52.83,63.94,53z
	 M61.89,52.83c-0.17,0-0.17,0.17-0.34,0.17c-0.85,0.17-1.7,0-2.04-1.02c0,0,0-0.17,0-0.34s0.17-0.17,0.34-0.17
	c0.51,0.17,1.02,0.51,1.36,0.68c0,0.17,0.17,0.34,0.17,0.51c0.17,0,0.34-0.17,0.51-0.17c0,0,0,0,0.17,0
	C61.89,52.66,61.89,52.66,61.89,52.83z M53.72,53l-0.17-0.17l0.17-0.17c0.17,0,0.17,0.17,0.17,0.17S53.89,52.83,53.72,53z
	 M48.1,67.98c-0.17,0-0.17-0.17-0.34-0.17l0.17-0.17l0.17,0.17V67.98z M46.9,49.77c-0.17,0-0.34,0-0.51-0.17
	c0.34,0,0.51,0.17,0.85,0.17C47.07,49.77,47.07,49.77,46.9,49.77z M43.67,67.13c-0.17,0.17-0.34,0.17-0.51-0.17l0.17-0.17
	c0,0,0.17,0,0.17,0.17C43.84,66.96,43.84,67.13,43.67,67.13z M42.13,64.24l-0.17-0.17c0,0,0-0.17,0.17-0.17h0.17
	C42.47,63.9,42.3,64.07,42.13,64.24z M23.06,53l-0.17-0.17c0.17,0,0.34,0,0.34,0C23.4,52.83,23.23,52.83,23.06,53z M21.35,53.85
	c-0.17-0.17-0.34-0.17-0.51-0.34c0.17-0.17,0.34-0.34,0.68-0.34c0.17,0,0.34,0.17,0.51,0.34C21.69,53.68,21.52,53.68,21.35,53.85z
	 M17.26,42.62c-0.17,0-0.17-0.17-0.17-0.17c0.17,0,0.17-0.17,0.34-0.17c0.17,0,0.17,0.17,0.34,0.17
	C17.6,42.45,17.43,42.62,17.26,42.62z M9.77,31.21c0.17-0.17,0.34-0.51,0.51-0.51c0.17-0.17,0.51-0.51,0.85-0.51
	c0.34-0.17,0.51,0,0.68,0.17c-0.17,0.34-0.34,0.51-0.51,0.85c0,0.17-0.17,0.34-0.34,0.51c-0.17,0-0.34,0-0.34,0
	C10.28,31.38,9.94,31.38,9.77,31.21z M11.81,25.08c0-0.17,0.17-0.17,0.17-0.34c0.17,0,0.34,0,0.68,0l0.17,0.17h0.17
	c-0.34,0.17-0.68,0.34-1.02,0.51C11.98,25.25,11.81,25.08,11.81,25.08z M12.66,18.1c0,0-0.17,0-0.17-0.17c0.17,0,0.17,0,0.34-0.17
	l0.17,0.17C12.84,18.1,12.66,18.1,12.66,18.1z M80.46,0.4c0.68,0,1.53,0.17,1.87-0.17c0.68-0.34,1.19,0.34,1.7,0
	c0.51-0.17,1.36-0.17,1.87-0.34c0.68-0.17,1.36-0.17,2.04-0.17c0.34,0,0.68,0.17,0.68,0.34c0.17,0.34,0,0.51-0.34,0.51
	c-0.51,0-1.19,0-1.7,0c-0.17,0-0.17,0.17-0.17,0.17l0.17,0.17c0.34,0,0.68,0,1.02,0c0.17,0,0.17,0,0.34,0.17
	c0.17,0,0,0.17-0.34,0.17c-0.85,0-1.87,0-2.73,0.34c-0.51,0.17-1.53,0.17-2.04,0C81.99,1.25,80.63,1.25,80.46,0.4z M89.32,2.27
	C89.49,2.1,89.49,2.1,89.32,2.27c0.17-0.34,0.51-0.34,1.02-0.34c0.17,0,0.17,0,0.17,0.17c0.17,0,0,0.17-0.17,0.17
	C90,2.27,89.83,2.1,89.32,2.27C89.49,2.27,89.49,2.1,89.32,2.27l-0.17,0.17h-0.17C88.81,2.27,89.15,2.27,89.32,2.27z M94.77,1.59
	l0.17,0.17l-0.17,0.17C94.43,1.76,94.43,1.59,94.77,1.59z M97.67,0.23c0,0,0.17,0,0.17,0.17c0,0-0.17,0-0.17,0.17H97.5
	C97.5,0.23,97.67,0.23,97.67,0.23z M102.1,4.14c0.17,0,0.17,0,0.34,0c0,0,0,0,0,0.17C102.27,4.14,102.1,4.14,102.1,4.14z
	 M105.16,1.93c0.17-0.17,0.51-0.17,0.85-0.17c0.34,0.17,0.51,0.17,0.85,0.34c-0.17,0-0.34,0.17-0.51,0.17s-0.34,0-0.68,0.17
	c-0.17,0-0.17,0-0.34,0s-0.34,0-0.51-0.17C104.82,2.1,104.99,1.93,105.16,1.93z M515.1,2.95c0,0,0.17,0,0.17,0.17
	c0,0-0.17,0-0.17,0.17h-0.17C515.1,3.12,515.1,3.12,515.1,2.95z M518.85,1.93l0.17,0.17c0,0-0.17,0-0.17,0.17h-0.17
	C518.67,2.1,518.67,1.93,518.85,1.93z M519.36,2.61l0.17,0.17l-0.17,0.17C519.02,2.78,519.02,2.78,519.36,2.61z M521.57,1.59
	l0.17,0.17l-0.17,0.17C521.23,1.76,521.23,1.59,521.57,1.59z M523.44,2.78h0.17c0.17,0,0.17,0.17-0.17,0.17
	C523.44,3.12,523.44,2.95,523.44,2.78C523.44,2.95,523.27,2.95,523.44,2.78z M527.02,1.76c0.34-0.17,0.68-0.51,1.19-0.17
	c0.34,0.17,0.51-0.17,0.85,0c0.17,0,0.51,0.17,0.34,0.17c0,0.17-0.17,0.34-0.34,0.51c-0.17,0-0.68,0-0.85,0c-0.34,0-0.68,0-1.02,0
	C526.85,1.93,526.85,1.93,527.02,1.76z M538.95,5c0.51,0,0.85,0.17,1.19,0.34c0.51,0.17,1.02,0.17,1.7,0c0.17,0,0.51-0.17,0.51-0.17
	c1.53,0.68,3.41,0.17,5.11,0.34c1.02,0.17,2.21,0,3.41,0.34c0.68,0.17,1.87,0.17,2.73,0.17c1.87,0,3.75,0,5.28,0.51
	c0.51,0.17,1.36-0.17,1.7,0.34c-0.68,0.34-1.36,0-2.04,0.17c-0.51,0-1.19,0-1.7,0c-0.85,0-1.87,0-2.73,0c-0.68,0-1.36,0-2.04,0.17
	c-0.51,0.17-1.19,0.17-1.53,0c-0.51-0.34-1.02,0-1.36,0c-0.51-0.17-1.02-0.34-1.53-0.51c-0.51-0.17-1.02-0.17-1.7-0.17
	c-0.68-0.17-1.36,0.34-1.87,0.17c-0.68-0.34-1.53-0.17-2.38-0.17c-0.68,0-1.36,0-2.04,0s-1.19-0.17-1.53-0.34
	c-0.17-0.17-0.34-0.34-0.34-0.51C537.75,5,538.43,5,538.95,5z M561.43,7.04c0.17-0.17,0.34-0.34,0.85-0.34s1.02,0,1.36,0
	c1.19,0.34,2.38,0.34,3.58,0.51c0.17,0,0.34,0.17,0.34,0.17c0,0.17,0,0.34-0.51,0.51c-0.51,0-0.85,0.17-0.85,0.34
	c0.68,0.17,1.36,0.68,2.38,0.17c0.51-0.17,1.36,0,2.04,0c0.17,0,0.34,0.17,0.34,0.34c0.17,0.17-0.17,0.34-0.51,0.34
	c-2.56,0-5.11-0.17-7.67-0.17c-0.51,0-0.85-0.17-0.85-0.51c0-0.17-0.34-0.34-0.51-0.51c-0.17,0-0.51-0.17-0.51-0.34
	C560.92,7.38,561.26,7.21,561.43,7.04z M562.62,4.83h0.17C562.96,5,562.96,5,562.62,4.83c0,0.17-0.17,0.17-0.17,0.17L562.62,4.83z
	 M568.07,4.48l0.17-0.17h0.17c0.34,0.34,0.51,0.51,0.85,0.68c0.51,0.34,0.68,0,0.68-0.17l0.34-0.17c0,0.17,0.17,0.17,0.17,0.34
	c0,0.68-0.17,0.68-1.7,0.68c-0.85,0-1.02-0.17-1.02-0.51C567.9,5,568.07,4.66,568.07,4.48z M573.01,4.66
	c0.85-0.17,1.36,0.34,2.21,0.51c0.17,0,0.17,0.17,0.17,0.17c-0.17,0-0.34,0-0.68,0.17c-0.34,0-0.51,0.17-0.51,0.34
	c0.34,0,0.51,0,0.85,0c0.17,0,0.17,0,0.17,0.17c0,0-0.17,0.17-0.34,0.17c-0.34,0-0.68,0-0.85,0c0.17,0.17,0.34,0.34,0.51,0.51
	c0.17,0.17,0.17,0.34,0.17,0.34c-0.51,0.51-1.19,0.85-2.21,1.02c-0.17,0-0.34-0.17-0.51-0.17c0.51-0.34,0.85-0.51,0.34-1.02
	c-0.51-0.34-1.02-0.51-1.87-0.51c-0.17,0-0.17,0-0.34-0.17c0,0,0,0-0.17,0h0.17h0.17c1.19,0,2.56,0,3.75,0c0-0.17,0-0.17,0-0.34
	c-0.85-0.17-1.19-0.51-1.7-0.85l-0.17-0.17C572.5,4.83,572.84,4.66,573.01,4.66z M581.87,15.04c-0.34,0-0.51,0-0.85-0.17V14.7
	c0.17,0,0.34,0,0.51,0.17C581.7,15.04,581.87,15.04,581.87,15.04z M541.5,7.55h-0.17c-0.17,0-0.34-0.17-0.51-0.17
	c-0.17,0-0.17-0.17-0.17-0.34c0.17,0,0.34,0,0.51,0c0.34,0,0.68,0.17,0.51,0.34C541.67,7.38,541.67,7.55,541.5,7.55z M545.08,11.29
	c0,0.17-0.34,0.34-0.51,0.34c-0.68,0-1.36,0-2.04-0.17c-0.17,0-0.17-0.17-0.17-0.34c-0.17,0-0.34,0-0.34-0.17
	c-0.17-0.17,0-0.17,0.17-0.17c0,0.17,0,0.17,0,0.34c0.17,0,0.34,0,0.51-0.17c0.68-0.34,1.19-0.34,1.7,0
	C544.57,11.12,544.74,11.12,545.08,11.29C545.08,11.12,545.08,11.12,545.08,11.29c0.17-0.17,0.17-0.17,0.34-0.34
	c0.17,0,0.34,0,0.17,0.17C545.42,11.12,545.25,11.12,545.08,11.29z M613.56,22.7c0,0.17-0.17,0.17-0.34,0.34c0-0.17,0-0.17,0-0.34
	C613.39,22.7,613.39,22.7,613.56,22.7z M625.82,19.98c0.17-0.17,0.51,0,0.51,0.17C625.82,20.15,625.99,19.98,625.82,19.98z
	 M631.61,21.68c-0.34,0-0.17-0.17-0.51,0C630.93,21.51,631.78,21.51,631.61,21.68z M631.27,22.36c0.17-0.17,0.17-0.17,0.34-0.17
	C631.61,22.36,631.44,22.36,631.27,22.36z M630.25,24.4c0.17,0.17,0.34,0.17,0.17,0c0.34,0.17,1.19,0,1.36,0.17
	c0,0.17-0.17,0.17,0,0.34c-0.51,0.17-1.36,0.17-2.04,0.17c0,0.17,0.17,0.17,0.17,0.17c0-0.17,0-0.17,0.34-0.17
	c0.17,0.17,0.17,0.17,0,0.17c0.17,0,0.51,0,0.51,0c-0.17,0-0.34,0-0.34,0c0,0.17,0.85,0.34,1.02,0.17c-0.17,0-0.17,0-0.34-0.17
	c0.17,0,0.17,0,0.34-0.17c0.34,0,0.17,0.17,0.34,0.17c0.17-0.17,0.17,0.17,0.17,0.17s0.17-0.17,0.34-0.17c0,0,0,0,0,0.17l-0.68,0.17
	c0,0,0-0.17-0.17,0c-1.02-0.17-1.7-0.34-2.21-0.51c0.17,0,0.34-0.17,0.51-0.17c-0.34,0-0.85-0.17-1.19-0.34c0-0.17,0-0.17,0-0.34
	c0,0,0,0,0.17,0c0,0-0.17,0,0,0.17c0.85,0,0.34,0.34,1.19,0.34c0.17,0,0.17-0.17,0.51-0.34C629.91,24.57,630.08,24.4,630.25,24.4z
	 M634.34,25.08l-0.51,0.17c-0.17,0-0.17,0-0.17-0.17C633.83,25.08,634.17,24.91,634.34,25.08z M634.51,24.91c0.17,0,0.34,0,0.51,0
	H634.51C634.34,24.91,634.34,24.91,634.51,24.91z M633.15,28.49c0,0,0.17,0,0.34,0v0.17h0.17
	C633.49,28.83,632.97,28.66,633.15,28.49c-0.68,0.17-1.36,0-2.04-0.17c0.51,0,1.19-0.17,1.87-0.17c0,0-0.34,0-0.17,0.17
	C632.97,28.32,633.15,28.32,633.15,28.49z M630.25,28.66c0-0.34,0.51-0.17,1.02-0.17C631.1,28.66,630.42,28.66,630.25,28.66z
	 M622.75,34.28C622.92,34.45,622.75,34.45,622.75,34.28c-0.17,0-0.51,0.17-0.85,0.17c0-0.17,0-0.17-0.34-0.17
	c0.17,0.17-0.51,0.17-0.51,0v0.17c-0.17-0.17,0.51-0.17,0.17-0.17c0,0-0.17,0-0.34,0c0.17-0.17,0.17-0.17,0.17-0.17
	c0.17,0,0,0.17,0.34,0.17c0-0.17,0.51-0.34,0.68-0.17c0,0.17-0.34,0,0,0.17c0.17-0.17,0.68,0,0.68-0.34c0.51,0.17,0.51,0,1.02,0
	c0.17-0.17,0-0.17,0-0.17c0.17,0,0.34,0,0.34,0c0.17,0.17,0.34,0.34,0.51,0.51C624.29,34.45,623.27,34.45,622.75,34.28z
	 M623.44,35.13c0.51,0-0.17,0.17-0.34,0.17C623.1,35.13,623.27,35.13,623.44,35.13s0.51,0,0.68,0
	C624.12,35.3,623.78,35.13,623.44,35.13z M622.75,35.13c0.17-0.17,0.34,0,0.34-0.17c0.51,0,0.51,0,0.85,0
	C623.78,35.13,623.27,35.13,622.75,35.13z M622.75,35.3c-0.17,0-0.34,0.17-0.51,0c0-0.17,0.34,0,0.34-0.17c-0.34,0-0.34-0.17-0.68,0
	c-0.17,0.34-1.53,0.34-1.36,0c-0.34,0.17-0.68,0.17-0.17,0.17c-0.34,0-1.02,0-0.85,0.17c0-0.17-0.34,0-0.34-0.17s0.51,0,0.51-0.17
	c0-0.17-0.68,0-0.68,0c0.34,0,0-0.17,0.34-0.17c-0.17,0.17,0.17,0.17,0.34,0c-0.17,0.17,0,0.17,0.34,0.17
	c-0.34-0.17-0.17-0.17,0.17-0.34c-0.51,0-1.19,0-1.7,0c0.17,0-0.34,0.17-0.34,0.17c-0.68,0.17-1.02-0.17-1.7,0c0.17,0,0-0.17,0-0.17
	h0.17c0.17,0,0.68,0,0.68,0c-0.17,0,0,0,0-0.17c-0.17,0-0.34,0-0.51,0c0,0,0.17-0.17,0.17-0.34c0,0,0,0,0.17,0c0,0,0,0.17,0.17,0.17
	s0.68,0,0.51-0.17c-0.68,0.17-0.34-0.17-0.68-0.34v-0.17c0.17,0,0.51,0,0.68,0c-0.17,0-0.17,0,0,0c0.34,0,0.51,0,0.68,0.17
	c0-0.17,0-0.17,0.34-0.17c0-0.17-0.17-0.17-0.17-0.17c0.34,0,0.68,0,0.85,0c0.17,0,0.34,0.17,0.34,0.34c0,0,0,0,0.17,0.17
	c-0.68,0.17-1.53,0-1.87,0c0.17,0.17,0.68,0,0.85,0.17c-0.68,0-1.02-0.17-1.36-0.17c0,0.17,0.51,0.34,0.85,0.34
	c0.17,0.34-0.85,0.17-1.02,0.34c0.51,0,1.02-0.17,1.36-0.34c0.34,0.17,0.68,0.17,1.36,0.17c-0.34-0.17-0.17,0-0.17-0.34
	c-0.17,0-0.34,0.17-0.34,0s0.51-0.17,0.51-0.17c0.17,0,0.34,0.17,0.51,0h0.17c0.17,0,0.17,0.17,0.17,0.17c-0.34,0-0.51,0-0.85,0
	c0.17,0.17,0,0.34,0.34,0.34c0-0.17-0.17-0.17-0.17-0.17c0.34,0,0.85,0,0.85,0.17c0-0.17,1.19,0,0.68-0.17c0.17,0,0.34,0,0.34,0
	c0,0.17,0,0.17,0,0.34C622.58,34.96,622.75,35.13,622.75,35.3C622.92,35.3,622.75,35.13,622.75,35.3z M619.52,37.68
	c0,0.17-0.17,0.17,0,0.34c-0.34,0-0.85,0-0.85-0.17C619.35,38.02,619.18,37.85,619.52,37.68z M618.16,38.02
	c-0.17,0-0.17-0.17-0.34-0.17C617.81,37.85,618.33,38.02,618.16,38.02z M611.34,34.45c0.34,0,0.34,0,0.51,0c0,0,0,0,0,0.17
	C611.68,34.62,611.34,34.62,611.34,34.45z M610.15,32.74h0.17C610.32,32.74,610.32,32.74,610.15,32.74z M623.61,33.42
	c-0.34-0.17-1.02,0-1.36,0.17c-0.17-0.17-0.34-0.17-0.68-0.34c0,0,0.17,0.17,0,0.17c-0.34,0-0.34-0.17-0.68-0.17
	c0,0.17,0,0.17-0.17,0.17c-0.34-0.51-0.68-0.68-1.02-1.02c0.51-0.17,1.02,0,1.36,0s-0.17-0.17,0-0.17c1.02,0.17,2.04,0.51,2.73,1.02
	L623.61,33.42z M623.78,33.59c0,0.17-0.34,0-0.34,0S623.78,33.42,623.78,33.59z M617.47,38.36
	C617.64,38.53,617.64,38.36,617.47,38.36C617.47,38.53,617.47,38.53,617.47,38.36c-2.73,0.34-3.58,1.19-3.75,2.04
	c-0.51,0-1.19,0-1.53-0.17c-0.34,0-0.85,0.34-1.02,0c-0.34,0-0.17,0.17-0.51,0.17c-0.17,0,0-0.34-0.17-0.34c0,0.17-0.34,0-0.51,0.17
	c-0.17-0.17-0.68-0.17-0.85-0.34c0.34,0,1.02-0.17,0.68-0.34c-0.34,0.34-0.85,0.34-1.53,0.34c-0.17,0-0.51-0.17-0.68-0.17
	c0,0-0.17,0-0.17-0.17c-0.17,0-0.17,0-0.17,0c-0.17,0-0.34-0.17-0.51-0.17c0,0,0,0,0-0.17c0.17,0,0.34,0,0.34,0
	c0-0.34-0.51-0.34-1.02-0.34c0.17,0,0.17-0.17,0.34-0.17c0.34,0,0.85,0,1.53,0c0.17-0.17,0-0.17-0.17-0.17
	c0.17-0.17,0.51-0.17,0.85,0c0,0.17,0,0.17-0.17,0.34c-0.17,0-0.34,0-0.34,0s0,0.17,0.17,0.17h0.17c0-0.17,0-0.17,0.17-0.17
	c0,0.17,0,0.17-0.17,0.34h-0.17c-0.34,0-0.51,0.17-0.85,0.17c-0.17,0.17,0.17,0.17-0.17,0.17c0.34,0,0.68,0,0.34-0.17
	c0.17,0,0.51,0,0.85,0c0,0,0.34,0.17,0.51,0.34c0-0.17,0-0.17,0.17-0.34c0.34,0,0.68,0,0.85-0.17c-0.17,0-0.17,0-0.34,0
	c0,0-0.17,0.17-0.51,0.17c0-0.17,0-0.17,0.17-0.34c0.17,0,0.34,0,0.34,0c-0.17,0-0.34,0-0.34,0l-0.17-0.17c0.51,0,0.85,0,1.19-0.17
	c-0.17,0-0.51,0-0.85-0.17c1.7,0,2.56,0,4.26,0l-0.17,0.17c0.34,0,0.51-0.17,1.02-0.17c0,0,0,0.17,0.17,0.17c0,0,0.17,0,0.34,0
	c0-0.17-0.34,0-0.34-0.17c0.51-0.17,1.36,0,2.04-0.17c0.17,0.17,0.68,0.17,0.85,0.17c0.17-0.17-0.17-0.34,0.17-0.34
	C617.64,38.02,618.16,38.19,617.47,38.36z M11.47,60.15c0,0-0.17-0.17-0.17-0.34c0,0,0,0,0-0.17v-0.17c0,0,0,0,0.17,0
	c0,0,0,0,0.17,0C11.81,59.81,11.81,59.98,11.47,60.15z M575.91,4.14c0,0,0.34,0,0.51-0.17c0-0.17,0.17-0.17,0.17-0.17
	c0.17,0,0.34,0,0.17,0.17c-0.17,0-0.34,0-0.51,0.17c0,0,0,0,0,0.17c0,0,0,0.17-0.17,0.17C576.08,4.31,575.91,4.14,575.91,4.14z
	 M578.98,5.34c-0.51,0-0.85,0.17-1.02,0.17c-0.85,0-1.19,0-1.53-0.34V5c0.17-0.17,0.34-0.17,0.34-0.17c0.34,0,0.51,0.17,0.85,0.34
	C578.12,5.34,578.81,5,578.98,5.34z M586.64,5c0.34,0,0.68,0,0.85,0v0.17c-0.17,0.17-0.34,0.17-0.68,0.17c-0.17,0-0.17,0-0.17-0.17
	C586.47,5.17,586.64,5,586.64,5z M633.66,21.51c-0.17,0.17,0.34,0.17,0.34,0.34c-0.68-0.17-1.36-0.34-2.04-0.34
	C632.29,21.34,633.15,21.68,633.66,21.51z M634.51,21.34c0.17,0.17,0,0.17-0.17,0.34c-0.34,0-0.51,0-0.51-0.34
	C634.17,21.51,634.34,21.34,634.51,21.34z M636.89,21.51c0.17-0.17,0.17,0.17,0.34,0c0,0.17-0.51,0.17-0.68,0.17
	C636.21,21.51,637.23,21.68,636.89,21.51z M637.4,21.51c0.51,0,0.85,0,1.36,0c0,0.17,0.34,0.17,0.68,0.17c0.17,0-0.51,0-0.17,0.17
	c-0.34,0-0.51-0.17-0.85,0v-0.17C638.09,21.51,637.91,21.51,637.4,21.51c0,0.17,0,0.17,0,0.17
	C637.23,21.68,637.57,21.51,637.4,21.51z M640.3,22.7c0,0.17-0.51,0-0.68,0C639.62,22.53,640.13,22.53,640.3,22.7z M640.64,24.4
	c0,0.17-0.51,0-0.34,0.17c-0.17,0-0.34,0-0.51,0C639.79,24.23,640.47,24.23,640.64,24.4z M641.15,24.74c-0.17,0.17-0.17,0.17,0,0.34
	c-0.51,0-0.68-0.17-0.85,0c-0.34,0-0.85-0.51-0.17-0.51C639.96,24.91,640.98,24.57,641.15,24.74z M642,22.7
	c-0.17,0-0.68,0-0.85-0.17C641.49,22.7,641.83,22.53,642,22.7z M641.83,20.15c-0.17,0.17-0.68,0-0.85,0
	C640.98,19.98,641.66,20.15,641.83,20.15z M643.54,20.49c0.17,0.17-0.68,0.17-0.51,0.17C642.85,20.49,643.37,20.66,643.54,20.49z
	 M644.39,21.51c-0.17,0-0.34,0-0.51,0C643.71,21.34,644.39,21.17,644.39,21.51z M649.67,20.32c-0.34,0.17-0.51,0-0.85,0v-0.17
	C649.16,20.15,649.5,20.15,649.67,20.32z M653.42,20.32c0,0.17-0.34,0.17-0.51,0.17C652.73,20.32,653.08,20.32,653.42,20.32z
	 M645.58,21.34c0.17,0.17,0,0.17,0,0.34c-0.51,0-0.34-0.17-0.85,0c-0.17-0.17,0.34,0,0.34-0.17c0-0.17-0.68,0-0.51-0.17
	C645.07,21.34,645.24,21.34,645.58,21.34z M638.94,22.7c0-0.17,0.17-0.17,0.34-0.17s0.17,0.17,0.17,0.17
	C639.11,22.7,638.94,22.7,638.94,22.7z M636.72,22.87c-0.51,0-0.51,0-0.85-0.17c0-0.17,0.34,0,0.51,0c0.51-0.34,1.02,0,1.7-0.17
	c0.17,0.17,0.34,0,0.68,0.17C638.26,22.87,637.06,22.7,636.72,22.87z M636.38,23.04c0-0.17,0.34,0,0.85,0
	C637.23,23.21,636.55,23.04,636.38,23.04z M636.04,23.72C635.87,23.89,635.87,23.72,636.04,23.72c-0.34,0.17-0.17,0-0.34,0
	c0.17,0,0.51,0,0.68,0C636.21,23.72,636.04,23.72,636.04,23.72z M635.19,23.55c-0.34,0.17,0-0.17,0.51,0
	C635.7,23.55,635.19,23.38,635.19,23.55z M634.68,23.04C635.02,23.04,634.17,22.87,634.68,23.04c0.17-0.17,0.51,0,0.85,0
	c0,0-0.17,0-0.34,0c-0.17,0,0,0.17-0.17,0.17S635.02,23.04,634.68,23.04z M624.8,35.3c0.34,0.17,0.68,0,0.85,0.17
	c-0.51,0-0.85,0.17-1.02,0C624.63,35.47,624.97,35.47,624.8,35.3z M623.1,37.17c0.17,0,0.34,0,0.34,0
	C623.44,37.34,623.27,37.34,623.1,37.17c0,0.17,0.17,0.34-0.17,0.17v-0.17C622.92,37.34,623.1,37.34,623.1,37.17z M624.63,37.34
	c-0.17,0.17,0.34,0,0.51,0c0.17,0-0.17,0.17,0.17,0.17c0,0.17-0.51,0-0.51,0.17c-0.34,0-0.17-0.17-0.34,0c-0.17,0,0.17,0,0,0.17
	c0,0-0.17,0-0.34,0c0,0,0.17-0.17,0-0.17c-0.34,0.17-0.17,0.17-0.68,0c0-0.17,0.34-0.17,0.51-0.17c0,0-0.17,0-0.34,0
	C623.95,37.17,624.12,37.34,624.63,37.34z M625.65,37.34c0.17,0,0.34,0,0.51,0c-0.17,0.17-0.34,0.17-0.51,0.34
	C625.31,37.51,625.65,37.34,625.65,37.34z M628.04,37.51c0-0.17,0.34,0,0.34,0s-0.34,0,0,0.17c0,0-0.34,0-0.51,0.17
	C627.52,37.68,628.38,37.68,628.04,37.51z M635.7,56.58c1.19-2.04,8.18-0.68,7.5-2.72c-0.17-0.68-0.51-1.36-1.02-1.87
	c0.34-0.85-1.87-1.7-4.6-2.21c0.34-0.51,0.17-1.02-1.53-1.53c-1.19,0-1.87,0.17-2.38,0.34s-0.85,0.34-1.02,0.51
	c-1.19-0.17-2.21-0.17-2.9-0.17c1.19-2.04,8.01-1.02,7.32-2.89c-0.34-0.85-0.68-1.7-1.36-2.21L632.29,45
	c-8.69-0.68,3.58-2.55-2.21-4.43c-1.19,0.17-1.87,0.17-2.38,0.51c-2.9,1.02-2.04,1.53-0.34,2.55c-8.01,0.34-5.45-4.94-9.2-5.28
	c0-0.17,0.51-0.17,1.02-0.17c-0.17-0.17,0.51-0.17,0.68-0.17c0-0.17,0.17-0.17,0.51-0.17c0.34,0.17-0.17,0.17-0.17,0.34
	c0.34,0,0.85,0,0.85-0.17c-0.51,0,0.51-0.17,0-0.34c-0.17,0,0,0.17-0.34,0.17c0-0.17,0.17-0.17,0.34-0.34
	c0.34,0,0.34,0.34,0.51,0.34s0.68,0,1.02-0.17c-0.51,0.17-1.19,0-0.85-0.17c0.34,0,0.17,0.17,0.34,0.17c0.17,0,0.85-0.17,0.68,0.17
	c0.34-0.17,0.34-0.17,0.17-0.34c0.51,0,0.34,0.17,0.17,0.17c0.34,0,0.17,0,0.34,0c0.17-0.17-0.17-0.34,0-0.34s0.17,0.17,0.34,0.17
	c0.34,0,0.51-0.17,1.02-0.17c0.17,0.34,0.68,0,1.02,0.17c0-0.17-0.17-0.17,0-0.17c0.17,0,0.17,0.17,0.34,0.17
	c0-0.17,0-0.17,0.17-0.17c0,0,0,0,0.17,0c0,0-0.17,0-0.17,0.17c1.19-0.17,1.36-0.17,2.21,0.17c0.17-0.17,0.68-0.17,1.02-0.17
	c-0.17-0.17,0.17-0.17,0.17-0.17c-0.51,0-0.17-0.17-0.17-0.17c-0.34,0-0.51,0-0.85,0c0,0.17-0.34,0.17-0.51,0.17
	c0-0.17-0.34-0.17-0.51-0.17c0,0.17-0.68,0.17-0.68,0.17c0-0.17,0.68,0,0.51-0.17c-0.51,0.17-0.34,0-0.17-0.17
	c-1.19,0-1.19,0-2.21,0.17c0-0.17,0.17-0.17,0-0.34c-0.17,0.34-0.85,0-1.36,0c0.17,0,0.34,0,0.34,0c-0.17-0.17-0.34,0-0.34-0.17
	c0.17,0,0,0-0.17-0.17c-0.17,0.17,0,0.17-0.17,0.34c-0.85,0-2.21,0-2.56-0.51c0.51,0.17,0.85-0.17,1.36,0c0-0.17,0.17-0.17,0-0.17
	c-0.68,0-1.02,0-1.7-0.17c0.17,0,0-0.17-0.17-0.17c0,0,0,0.17-0.17,0.17c0.17,0,0.17-0.17-0.17-0.17c0,0.17-0.34,0.17-0.51,0
	c0.51,0,0-0.34,0.34-0.34c0.51,0,0.34,0.34,0.51,0.17c-0.17,0,0-0.17-0.17-0.17c0.17,0,0.51-0.17,0.68,0
	c-0.17,0.17,0,0.34,0.17,0.34c-0.17-0.17-0.17-0.34,0-0.34c0.51,0,1.02-0.17,1.02,0.17c-0.17,0-0.17,0.17-0.17,0.17
	c0.34,0,0-0.17,0.34-0.17c0.17,0,0.34,0,0.34,0c-0.17-0.17-0.34,0.17-0.51,0c0.34,0,0.34-0.17,0.68,0c0,0.17,0.17,0.17,0.17,0.34
	c-0.34,0,0,0.17,0,0.17s0.68,0,0.34-0.17h-0.17c0.17,0,0-0.17,0.17-0.17c0.17,0,0.34,0,0.51,0.17c0,0-0.34,0-0.34,0.17
	c0.34,0.17,0.85-0.34,1.02,0c-0.17,0-0.51,0-0.51,0c0.34,0.17,0.68,0,1.02,0.17c0-0.17,0-0.17,0.17-0.17c0,0.17,0.34,0.17,0.68,0
	c0.17,0.17,0,0.17,0.17,0.17c0-0.17,0.51-0.17,0.51-0.17c-0.17,0-0.17,0-0.17-0.17c0.17-0.17,0.17,0,0.51,0c0-0.17-0.51,0-0.51-0.17
	c0.51,0,0-0.17,0-0.17c0.17-0.17,0.51,0,0.68,0.17c-0.17-0.17,0.17-0.34-0.17-0.34c-0.17,0.17-0.34,0-0.68,0.17
	c0-0.17,0-0.17-0.17-0.17c-0.17,0.17,0.17,0.17-0.17,0.17c-0.85,0-0.34-0.51,0.34-0.51c-0.34-0.17-0.17,0-0.51,0
	c0.34-0.17-0.17-0.17-0.34-0.17c0.17-0.17,1.02,0,1.02-0.17c-0.68,0-1.19,0-1.53,0c0.17,0,0.17-0.17,0.34-0.17c0.85,0,1.87,0,3.07,0
	c0.17,0,0.17,0,0.17,0c0.17,0,0.51-0.17,0.51,0c-0.51,0,0.17,0,0,0.17c0.17,0,0.34,0,0.34,0c-0.68,0,0.51-0.17,0-0.17
	c0,0.17-0.34,0-0.34,0c0.51,0,0.68,0.17,1.19,0.17c0-0.17,0-0.17,0.17-0.17c0.51,0,1.19,0,1.7,0.17c0,0,0,0,0.17,0
	c0.85,0,1.87,0.17,2.73,0.17c-0.17,0-0.34,0-0.17,0.17c0.17,0,0.34,0,0.51-0.17c0.34,0,0.68,0,0.85,0.17c0.51,0,1.02-0.17,1.53-0.17
	c0,0.17,0,0.17,0.17,0.17c0.17,0,0.34,0,0.34,0c-0.17,0-0.17-0.17-0.34-0.17c0.68-0.17,1.36-0.17,1.87-0.34c0.17,0,0.17,0,0.34,0
	c1.19-0.34,1.7-0.68,1.87-1.02c0.17,0,0.17,0,0.34,0l0.17-0.17c-0.17,0-0.34,0-0.34,0c0.17-0.34-0.17-0.68-0.85-1.02
	c0.85,0,1.7,0,2.38,0c0,0.17,0.17,0.17,0,0.17c0.34-0.17,0.85-0.17,1.19-0.17c0-0.17,0.17-0.17,0.51-0.17c0,0-0.17,0,0,0.17
	c0.17,0,0.17,0,0.34,0c0,0,0,0,0,0.17c0.34,0,0.51,0.17,0.51,0c-0.17,0.17,0.34,0,0.17,0.17c0.34-0.17,0.51-0.17,1.02-0.17
	c0-0.17,0-0.17,0.17-0.17c-0.17,0.17,0.68,0.17,0.85,0v0.17c0.68,0,1.19,0,1.7,0c-0.17-0.17,0.51-0.17,0.85-0.17
	c0,0,0,0.17-0.17,0.17c0.17-0.17-0.51-0.17-0.34,0c0.51,0,0.34,0.17,0.51,0.17c0.17-0.34,0.34-0.17,0.17-0.51
	c-0.34,0-1.19,0.17-1.02,0c0,0.17,0.17,0,0.34,0c0.34,0,0.34,0,0.85,0c0-0.17,0.17-0.17,0.17-0.17c-0.17,0-0.17-0.17-0.34-0.17
	c0,0.34-0.85,0-1.36,0.17c0,0.17-1.36,0.34-1.87,0.17c0.34,0,0.68,0,0.85,0c-0.17,0,0-0.17-0.17-0.17s-0.68,0-0.51,0.17
	c-0.17-0.17-0.51,0-0.68,0c0.17,0.17-0.34,0.34-0.34,0.17h0.17c-1.02-0.34-2.21,0.17-3.24-0.17c-0.17,0,0.17,0.17,0,0.17
	c-0.51-0.17-1.36,0.17-2.04-0.17v0.17c0,0-0.34,0-0.68,0c-0.17-0.17-0.34-0.17-0.51-0.34c0.34,0,0.68,0.17,0.85,0
	c0-0.17-0.68-0.17-0.85,0c-2.73-1.19-8.01-2.38-10.73-2.55l0.17-0.17c0.17,0,0.34,0,0.51,0c0-0.17-0.34,0-0.34-0.17
	c0,0,0,0,0.17-0.17c0.17,0,0.34,0,0.51,0c0,0.17,0,0.17,0.17,0.17c-0.17-0.51,1.7-0.17,2.21-0.51l-0.17,0.17c0.17,0,0.17,0,0.34,0
	c0.17,0-0.17-0.17,0-0.17c0.34,0,0.17,0,0.17,0.17c0.34,0,0.17-0.17,0.51-0.17c0,0.34,0.51,0,0.68,0.17c0.17-0.17,0.51,0,0.85,0
	c0.17-0.17-0.51,0-0.51-0.17c0.17,0,0-0.17,0.17-0.17c-0.17-0.17-0.17-0.34-0.51-0.34c0,0.34-0.34,0-0.51,0.17c0,0,0,0,0-0.17
	c1.87,0,3.58,0,3.41-1.19c0,0,0,0,0-0.17c0.17,0,0.17,0,0.34,0c0-0.17-0.17-0.17,0-0.17c-0.17,0-0.17,0-0.34,0v-0.17
	c0.17,0,0.34,0,0.34-0.17c-0.17,0-0.17,0-0.34,0c-0.17-0.34-0.34-0.68-0.51-1.02c0,0,0.17,0,0.17,0.17c0.17,0,0.34,0,0.51-0.17
	c-0.34,0-0.34-0.17-0.68-0.17c-0.17-0.17-0.34-0.34-0.51-0.51c0.85,0,1.87-0.17,2.73,0c-0.17,0,0-0.17-0.17-0.17
	c-0.34,0.17-0.85,0.17-1.19,0c-0.68,0.17-1.7,0.17-2.38,0.17c0-0.34-1.02-0.34-0.85-0.51c-0.34,0-0.68,0.17-0.85,0
	c0.34,0,0.17-0.17,0.51-0.17c-0.17,0-0.51-0.17-0.85,0c0-0.17,0.17-0.17-0.17-0.17c-0.68,0-1.7,0.17-2.38-0.17
	c0.17,0,0.34-0.17,0.34-0.17c0.17,0,0.51,0,0.68,0c-0.34,0,0.51,0,0.34-0.17c-0.34,0-0.34-0.34,0-0.34c0.17,0,0.34,0.17,0.34,0.34
	c0.17,0,0.51,0,0.51-0.17c-0.51,0.17-0.17-0.17-0.34-0.17c0,0-0.17,0.17-0.34,0.17c0-0.17-0.17-0.17-0.17-0.17
	c0.17-0.17,0.34-0.17,0.34-0.34c0.17-0.17,0.51-0.17,0.68-0.17c0,0,0-0.17-0.17-0.17c0.85-0.17,1.7-0.34,2.21-0.17
	c0.34,0,0.85,0,1.02-0.17c-0.34,0-0.34-0.17-0.68-0.17c0.34,0,0.51-0.17,0.68-0.34c0.17,0.17,0.68,0,0.85,0.17
	c0.17,0.17-0.51,0-0.34,0.17c1.02,0.34,2.73,0,3.92,0.17c-0.17,0.17-0.85-0.17-1.02,0.17c0.34,0.17,0.85,0,1.36,0.17
	c0.17,0.17-0.17,0.17-0.51,0.17c0-0.34-1.36,0-1.02-0.51c-0.51,0.17-1.02,0.17-1.36,0c-0.17,0,0,0.17-0.34,0.17
	c0-0.17,0.17-0.17,0.17-0.17c-0.51,0.17-2.38,0.17-2.9,0.34c0-0.17-0.17-0.17-0.17-0.17c0,0.17-0.34,0.17-0.34,0.17
	c0.34,0,0.34,0.17,0.51,0.17c0,0,0.51-0.17,0.51,0c0,0.17-0.34,0-0.34,0.17c0.51,0,1.02-0.34,1.19-0.17c-0.34,0-0.17,0.17-0.34,0.17
	c-0.51-0.17-1.19,0.17-1.36,0.17c0.68,0,0.51,0.17,0.85,0.34c-0.34,0-0.17-0.17-0.51,0c0,0.34,0.34,0.34,0.51,0.51
	c-0.34,0-0.17,0.17-0.34,0.17c0.34,0,0.85,0,0.51,0.17c0.34,0,0.68-0.17,0.85,0c-0.17,0.17-0.85,0-0.68,0.17
	c1.53-0.68,2.56,0.68,4.09,0.17c-0.17,0.17,0.17,0.17,0.51,0.34c-0.17,0.17-0.34,0.34-0.68,0.51c-0.17,0-0.17,0-0.51,0
	s0-0.17-0.34-0.17c0,0,0,0.17,0.17,0.17c-0.51,0-0.51,0-1.36,0c-0.17,0.17-0.34,0.17-0.17,0.34c0.68-0.17,1.02,0,1.53-0.17
	c-0.17,0.17,0.34,0.51,0.51,0.17c-0.17,0-0.34,0-0.34,0v-0.17c0.34,0,0.68-0.17,0.68,0c-0.17,0-0.34,0-0.34,0
	c0.34,0,0,0.17,0.34,0.17c0.17-0.17,1.02-0.17,1.19,0v0.17c-0.51,0-0.68,0.34-0.51,0.17c0.68,0.17,1.02-0.34,1.02-0.51
	c0.34,0,0.17,0.17,0.34,0.17c0-0.17,0.51-0.17,0.68-0.34c-0.17,0-0.34-0.17-0.17-0.17c0.68,0,1.7,0,2.21,0.17
	c0,0.17-0.34,0.17,0,0.17c0-0.34,0.85,0,1.02-0.17c0-0.17-0.34,0-0.34-0.17c0.51,0,0.34-0.17,0.68-0.34c0.51,0.17,1.7,0,2.04,0
	c-0.17-0.17-0.51,0-0.68-0.17c0.17-0.17,0-0.34,0.17-0.34c0.17,0,0.68,0,0.85-0.17c-0.34,0-0.51-0.17-0.17-0.17
	c-0.85,0-1.19,0.17-2.21,0.17c0,0.17,0,0.17-0.17,0.17h-0.51c0-0.17,0.51,0,0.51-0.34c-0.34,0-1.19,0.17-1.02,0
	c-0.17,0-0.34,0-0.51,0c0.17,0.34-1.19,0.17-0.85,0c-0.51,0-1.19,0-1.19-0.17c0.68,0,1.02,0,1.53-0.17c-0.17,0-0.17-0.17-0.51,0
	c0.17,0.17-0.17,0.17-0.34,0.17c0-0.17-0.51,0-0.51-0.17c0-0.17-0.17-0.17-0.17-0.17c0.51-0.17,1.02,0,1.36,0
	c0-0.17-0.51,0-0.68-0.17c0,0,0.34,0,0.34-0.17c-0.17-0.17-0.68,0-0.85,0c0.17,0,0.68,0,0.68-0.17c0.34,0,0.68,0.17,0.85,0.17
	c-0.17-0.17,0.51-0.17,0.51-0.51c-0.51,0.17-1.02,0.51-1.53,0.17c-0.51,0-1.19,0.17-1.53,0c0.17,0,0.51-0.17,0.51-0.34
	c-0.17-0.17-0.68,0.17-1.02,0c0.17,0,0.17,0,0.17-0.17c-0.34,0-0.34,0.17-0.51,0.17c-0.17,0-0.51-0.17-0.17-0.34
	c1.19,0.17,2.21,0,3.58,0.17c-0.68,0.17-1.7-0.17-1.87,0.17c0.51-0.17,0.68,0.17,0.85-0.17c0.34,0,0.51,0.34,0.85,0.17
	c-0.34,0-0.17-0.17,0-0.17c0.34,0,0.34,0,0.68,0c0-0.17,0.85-0.17,0.85-0.34c-0.85,0.34-2.04,0-2.73-0.17c-0.34,0,0.17,0.17,0,0.17
	c-0.17,0-0.17,0-0.34-0.17c0.17-0.17-0.17-0.17-0.34-0.34c0.51-0.17,0.34,0.17,0.68,0.17c0.17,0,0.51-0.17,0.68-0.17
	c0,0-0.17,0-0.17,0.17c0.17,0,0.34,0,0.34,0c0-0.17,0-0.17,0.17-0.17c0.17,0.17,0.34,0.34,0.85,0.34c0,0-0.17-0.17,0-0.17
	c0.34,0.17,0.85,0,1.19,0.17c0.17-0.17,0.51,0,0.68-0.17c0,0.17,0.85,0,0.85,0.17c0,0,0,0,0.17,0c0-0.51-1.36-0.17-1.7-0.34
	c0.51,0,0.34-0.17,0-0.17c0.68-0.34,1.7,0.34,1.7,0c0.17,0,0.85,0.17,0.85,0.17c-0.51,0-0.17,0-0.17-0.17
	c-0.17-0.17-0.51,0.17-0.85,0c0,0,0.68,0,0.34-0.17c-0.34,0-0.34,0-0.68,0.17c-0.17,0-0.17-0.17-0.34-0.17c-0.17,0,0,0.17-0.34,0.17
	c-0.17-0.51-1.36-0.17-2.04-0.34c1.36-0.17,2.73-0.17,3.58-0.17c-0.17,0-0.17,0,0-0.17c0.17,0,0.17,0,0.34,0
	c0,0.17,0,0.17,0.17,0.17c0.34-0.17,0.51,0.17,0.85,0.17c0.68-0.17,2.56-0.17,3.24,0c0.51,0,2.21-0.17,2.73,0.17v-0.17
	c0.51,0,2.04,0.17,2.04,0.17s-0.17-0.17,0-0.17c0.17,0,0.17,0.17,0.51,0.17c0.51-0.34,1.19,0.17,1.7,0c-0.17-0.17-0.51,0-0.34,0
	c-0.17,0-0.34,0-0.51,0c0.34,0,0,0,0-0.17c0.17,0,0.17,0,0.34,0c0-0.34-1.02,0-1.53,0s-0.34-0.34-0.85-0.34
	c0,0.17,0.17,0.17,0.17,0.17c-0.34,0-1.02,0.17-1.19,0c0.34,0,0-0.17-0.17-0.17c-0.17,0.17-0.34,0-0.68,0.17
	c0.17-0.17-0.51,0-0.17-0.34c-0.51,0-0.17,0.17-0.51,0.17c-0.34-0.17,0,0-0.34,0c0-0.17-0.34,0-0.17-0.17c-0.51,0-0.85,0.17-1.19,0
	c-0.17,0-0.17,0.17-0.34,0.17c-0.34,0-0.85-0.17-1.36,0c0-0.34-1.53-0.34-1.87-0.51v0.17c-0.34,0-0.17-0.34-0.51-0.17
	c0,0.17,0.34,0,0.34,0.17c-0.51,0-1.36,0.17-1.87,0.17c0.34,0,0.51-0.17,0.34-0.17c-0.17,0-0.34,0.17-0.68,0.17
	c0.17,0,0-0.17,0.17-0.17c-0.51,0-1.02,0.17-1.53,0c0,0,0.17,0,0.17-0.17c0.68,0,1.87,0.17,2.04-0.17c-0.68,0.17-1.53-0.17-2.38,0
	c0-0.34-1.36,0.17-1.53-0.17c-1.02,0.17-2.73,0.17-3.58,0c0,0,0.17,0,0-0.17c-0.17,0-0.51,0-0.51,0.17c0.17,0,0.17,0,0.17,0.17
	c-0.68,0-0.85,0-1.19,0l0.17-0.17c-0.51,0.17-0.68-0.17-1.19,0c0,0.17,0.34,0.17,0,0.17c0-0.17-0.34-0.17-0.34-0.17
	c-0.17,0,0.17,0.17-0.17,0.17c-0.68,0-0.68,0-1.19,0.17c0-0.17-0.68-0.17-0.34-0.34c-0.68,0-0.68-0.17-1.02,0.17
	c0.17-0.17-0.17-0.17,0-0.34c-0.17,0-0.17,0-0.34,0c0,0.17,0.34,0.17,0,0.34c-1.02,0-2.38-0.17-3.07,0.17v-0.17
	c-0.17,0-0.34,0-0.51,0c0,0.17,0,0.17-0.34,0.17c0.17-0.17-0.17,0-0.17-0.34c0.34-0.17,0.85,0,1.36,0c0.17-0.34,1.53-0.17,1.7,0
	c-0.51-0.34-1.87-0.17-2.21-0.17c-0.68-0.17-1.19-0.17-1.87-0.17c0.17,0.17-0.17,0.17-0.34,0.17c0,0.17,0.17,0.17,0.17,0.34
	c0.34,0,0.17-0.17,0.51-0.17c-0.17,0.17,0.51,0.17,0.34,0.34c-0.51,0-1.19-0.17-1.19,0c-0.17,0-0.34,0-0.51,0
	c0.17,0,0-0.17,0.17-0.17c-0.51,0,0.17,0.17-0.51,0.34c-0.17,0-0.17-0.17-0.34,0c-0.34-0.17,0.17-0.34,0-0.34c0,0-0.68,0.17-0.68,0
	c0-0.17,0-0.17,0.17-0.17c-0.17,0.17,0.51,0,0.85,0c0.17,0,0.17,0.17,0.34,0.17c0-0.17,0.51,0,0.68,0
	c-0.17-0.34-0.68-0.17-0.85-0.17c0-0.17,0.34,0,0.51-0.17c-0.34,0-0.85,0.17-1.02,0c0,0.17-0.68,0-0.51,0.17
	c0.34,0,0.51-0.17,0.51,0c-0.34,0.17-0.68,0-1.02,0c-0.17,0.17,0.34,0,0.17,0.17c-0.17,0-0.17,0-0.17,0c-0.51,0-0.68,0-1.02-0.17
	c-0.34,0,0.17,0,0.17,0.17c-0.17,0-0.17,0-0.34,0c-0.17,0-0.34,0-0.34-0.17c0-0.17,0.34,0,0.34-0.17c-0.34,0-0.51,0-0.85,0
	c-0.17,0-0.17,0.17-0.51,0.17c-0.17,0-0.17-0.17-0.34-0.17c-0.17,0-0.68,0.17-1.19,0c-0.17,0.17-0.34,0.17-0.51,0.17
	c0.51,0,0.68-0.17,0.85,0c-0.17,0-0.17,0-0.34,0.17c0.17,0,0.34-0.17,0.51-0.17c0,0.34,0.68,0,0.68,0.17c0,0-0.17,0.17,0,0.17
	c0.51-0.17,1.36-0.17,1.7,0c-0.17-0.34,1.02-0.17,0.68,0.17c0.51,0,0.17-0.17,0.51-0.17c0,0.17,0.17,0.17,0.17,0.17
	c-0.85,0.34-1.36,0.17-2.21-0.17c-0.68,0.17-0.85,0-1.19,0.17v-0.17c0,0.17-1.02,0.17-0.68,0.17c0.17-0.17,0.85,0,0.85,0
	c-0.68,0-1.02,0-1.53,0c0.17-0.17,0-0.17-0.17-0.17c0,0.17-0.17,0.17-0.34,0.17c-0.51-1.19-1.02-2.21-2.9-2.21
	c-2.9,0.17-3.75,1.02-3.75,2.04c-0.51,0-1.02,0-1.19,0s-1.02,0.17-1.53,0.17c-3.75-2.21-11.24-4.09-17.55-4.6
	c-3.58,0.34-7.32,0-11.24-0.51c0.34,0,0.68-0.17,0.85-0.34c0.17-0.34,0.68-0.34,1.02-0.34c0.17,0,0.51,0,0.68,0
	c1.02,0.17,1.36,0.17,1.53-0.17c0.34-0.51,0.85-0.17,1.36-0.34c0.68-0.17,2.04-0.17,1.7-0.85c0-0.17,0.34-0.34,0.51-0.51
	c0.17-0.17,0.17-0.34,0-0.51c-0.51-0.34-1.19-0.85-1.87-1.19c-0.17-0.17-0.51-0.17-0.85-0.17c-0.68,0-1.36,0-2.04-0.17
	c-0.51-0.51-1.53,0.17-2.04-0.34c-1.19,0.17-2.38-0.17-3.58-0.34c-0.68,0-1.19-0.34-1.87-0.34c-0.68,0-1.36-0.17-2.04,0
	c-0.68,0-1.19-0.34-1.87-0.34c-0.34,0-0.51,0.17-0.68,0c-0.17-0.17,0.34-0.51,0.85-0.51c0.85,0,1.7,0,2.38,0
	c0.17,0,0.51,0,0.68-0.17c0.34-0.17-0.17-0.34-0.17-0.51c-0.17-0.34-0.17-0.68-0.34-0.85c-0.34-0.34-0.51-0.51,0-0.85
	c0.34-0.17,0.34-0.68,1.02-0.68c0.34,0,1.02,0,1.19,0.17c0.17,0.17-0.34,0.17-0.51,0.17c-0.17,0-0.17,0.17-0.34,0.17
	c0.68,0.17,1.36,0.51,2.04,0.51c0.85,0.17,1.87,0.17,2.73,0.17c0.17,0,0.17,0,0.34,0.17c-0.17,0-0.34,0.17-0.34,0.17
	c-0.68,0-1.36,0-2.04,0c-0.34,0-0.68,0.17-0.85,0.34c-0.17,0.17-0.34,0.68,0.17,0.68c0.68,0.17,1.19,0.68,2.04,0.51
	c1.02,0,1.7,0.34,2.56,0.34c1.02,0.17,2.04,0,3.07,0.34h0.17c0-0.17,0.17-0.34,0.17-0.34c-0.17-0.17-0.34-0.34-0.68-0.51
	c-0.51-0.17-2.9-0.34-3.75-0.34c-0.17,0-0.34-0.17-0.34-0.17V7.55c0.17-0.34,0.51-0.51,0.85-0.85c0.17-0.17,0.51-0.17,0.51,0
	c0.17,0.51,0.51,0.68,1.36,0.68c1.19,0,2.21,0.17,2.56,0.85c1.36,0.51,2.56,1.02,4.09,1.19c0.17,0,0.51,0,0.68,0
	c0.17,0,0.17-0.17,0.34-0.34c0-0.17,0-0.34-0.17-0.34c-0.51-0.17-1.02-0.51-1.7-0.68c0-0.51-0.85-0.51-1.36-0.68
	c-0.34-0.17-1.02-0.34-1.36-0.51c-0.17-0.17-0.17-0.51-0.85-0.34c-0.68,0.34-1.53,0-2.38,0.34c-0.34,0.17-0.34-0.17-0.51-0.34
	c0,0,0-0.17-0.17-0.17c-0.51-0.17-1.02-0.17-1.53-0.34c-0.51-0.17-0.17-0.68-1.02-0.68c-0.34,0-0.68,0-1.02-0.17
	c-0.17,0-0.17,0-0.34-0.17c0.17,0,0.17-0.17,0.34-0.17c1.19,0,2.56-0.17,3.75,0.17c0.51,0.17,1.02,0.17,1.7,0.17
	c1.36,0,2.73,0,4.09,0.34c0.68,0.17,1.53,0,2.38,0c0.17,0,0.34-0.17,0.34-0.34s-0.17-0.34-0.17-0.34c-0.85,0-1.7-0.34-2.38-0.51
	c-0.17,0.17-0.34,0.34-0.85,0.34c-0.34,0-0.51-0.17-0.51-0.34c0-0.17,0-0.17,0-0.34c-0.51,0-0.85,0-1.36,0V3.8
	c-1.19-0.34-1.87-0.34-2.73,0.17c-0.17,0.17-0.34,0.17-0.51,0.17c-0.68-0.34-1.53-0.68-2.73-0.68c-0.17,0-0.68-0.17-0.68-0.34
	c-0.34-0.51-1.02-0.68-2.04-0.68c-0.85,0-1.87,0-2.73,0c-0.51,0-0.85,0.17-1.02,0.34c-0.68,0.68-0.68,0.51-2.21,0.34
	c-1.02-0.17-1.7-0.51-2.73-0.68c-0.51-0.17-0.85-0.17-1.19,0c-0.34,0.17-0.51,0.17-0.85,0c-0.34-0.17-0.68-0.51-1.19-0.51
	c-0.17,0.34,0,0.68-0.85,0.68c-1.7,0.85-1.7,1.02-1.87,1.02c-0.34,0-0.34-0.17-0.51-0.34c-0.34,0-0.68,0.17-0.68,0.34
	c-0.17,0.17,0.17,0.34,0.51,0.51c0.51,0,1.19,0,1.7,0c0.17,0,0.34,0.17,0.34,0.17c-0.17,0-0.17,0.17-0.34,0.17
	c-1.19,0-2.56,0-3.75,0c-1.36,0-2.73,0-3.92,0.34c-0.34,0-0.51,0.34-0.85,0.17c-0.68-0.34-1.19-0.17-1.87,0
	c-0.51-0.34-1.36-0.34-2.21-0.34c-1.53,0-3.07,0-4.6-0.17c-0.51,0-1.19,0-1.7-0.17c-0.68-0.34-1.53-0.34-2.38-0.34
	c-4.09,0-8.35-0.17-12.78-0.34c-0.85,0-0.85,0-1.02-0.68c0-0.17-0.17-0.17-0.17-0.34c-0.17,0-0.34,0.17-0.51,0.17
	c-0.68,0.34-1.87,0.51-2.56,0.34V2.95c0,0,0.17-0.17,0.34-0.17c1.02,0,1.87,0,1.7-0.85c0-0.34,0.51-0.51,0.68-0.85
	c0.17-0.17,0.51-0.17,0.85,0c0.17,0.17,0.51,0.17,0.51,0c0-0.17,0-0.34,0.17-0.51c-1.7,0-3.41-0.34-4.94,0.17
	c-0.34,0.17-1.19,0-1.7-0.17c-0.68-0.34-1.53-0.34-2.21-0.51c-0.17,0.34-0.34,0.17-0.34,0c-0.51,0-0.85-0.17-1.36,0
	c-0.51,0.34-1.36,0.51-1.53,1.02c0,0.17-0.17,0.17-0.34,0.34c-0.17-0.17-0.17-0.34-0.34-0.51c-0.34-0.17-0.68-0.34-1.19-0.17
	c-0.17,0-0.51,0.17-0.51,0.17c-0.51-0.17-1.36-0.34-1.53-0.68c-0.34-0.51-0.51-0.34-1.02-0.17c-0.51,0.17-0.34,0.68-1.19,0.85
	c0,0,0,0.17-0.17,0.17c-0.68,0.51-1.53-0.51-2.38,0c-0.17,0-0.34-0.17-0.34-0.17c-0.17-0.17-0.17-0.34-0.17-0.34
	c-1.36-0.17-398.52-0.34-399.89-0.68c0,0-0.17,0-0.34,0s-0.17,0.17,0,0.34c0.17,0,0.17,0.34,0.17,0.34c-1.02,0.17-2.04,0.17-3.07,0
	c-0.51,0-0.17,0,0-0.17c0.51-0.34,0.34-0.51-0.51-0.51c-0.51,0-1.02,0-1.36,0c-0.51,0-1.02,0.51-1.53,0.17c-0.68-0.51-1.19,0-1.87,0
	c-0.51,0-0.85-0.17-1.36-0.17c-0.17,0-0.51-0.17-0.51,0c-0.68,0.34-1.19,0.17-1.87,0c-0.17-0.17-0.68-0.17-1.02-0.17
	c-1.36,0-2.73-0.34-4.09,0.17c-0.17,0-0.51,0-0.68,0c-0.34-0.17-0.85-0.17-1.19-0.34C91.02-0.96,90-0.96,88.64-0.62
	c-0.17,0-0.51,0.17-0.68,0.17c-1.7-0.17-3.41,0.17-5.11,0.34c-1.02,0-2.04,0.17-2.56,0.68c-0.51,0-1.36,0-1.7-0.17
	c-0.68-0.34-1.36,0-1.87-0.17c-0.68-0.34-1.36-0.17-2.04-0.17c-0.85,0-1.36-0.34-2.21-0.51c-0.17,0-0.51,0-0.68,0
	c-0.68,0-1.19,0.34-1.87,0c-0.68,0.34-1.53,0.17-2.21,0.34c-1.02,0.34-2.56,0.17-3.41,0.85c0.17,0.17-0.17-0.34-0.68-0.17
	c-0.34,0.17-0.68,0.68-1.36,0.34c-0.68-0.34-1.02,0.17-1.53,0.17c-0.17,0-0.51,0-0.51-0.17s0-0.34,0-0.34
	C60.36,0.4,60.53,0.4,60.7,0.4s0.34-0.17,0.68-0.17c-0.17,0-0.34-0.17-0.51-0.17c-0.51,0-1.19,0-1.7,0c-0.68,0-1.36,0-2.04,0
	c-0.51,0-1.02,0.34-1.53,0.34c-0.68,0-1.36,0-2.04,0c-0.17,0-0.34,0.17-0.51,0.17c-0.34,0-0.51,0.17-0.51,0.17s0.17,0,0.34,0.17
	c1.7,0.34,3.24-0.17,4.77-0.17c0.34,0,0.68-0.51,1.02-0.17c0.17,0.17-0.34,0.34-1.02,0.51s-1.36,0.34-2.04,0.34
	c-1.53-0.17-2.9,0.17-4.43,0.34c-0.17,0-0.34,0.17-0.34,0.34c0,0,0.17,0.17,0.34,0.17c0,0,0.17,0,0.34,0s0.34,0.17,0.51,0.17
	c-0.17,0-0.34,0.17-0.51,0.17c-0.51,0-1.02,0-1.36,0c-0.85,0-2.04-0.17-2.56-0.51c-0.34-0.34-0.85-0.34-1.53-0.34
	c-1.53-0.17-2.9,0.34-4.26,0.51c-1.53,0.17-2.9,0.68-4.6,0.51c-1.7-0.17-3.24,0.17-4.43,0.68c-0.34,0.17-0.68,0.34-1.19,0.34
	c-0.34,0-0.85,0-0.85-0.17c0-0.17,0.34-0.17,0.68-0.17c0.17,0,0.17-0.17,0.34-0.17c0,0-2.38-0.34-2.56-0.34
	c-0.17,0.17-0.51,0.34-0.68,0.34c0.17,0,0.34,0.17,0.51,0.17s0.34,0.17,0.51,0.17c-0.17,0.17-0.34,0.17-0.51,0.34
	C28.51,4.31,28,4.14,27.48,4.14c-1.53,0-2.73,0.68-4.09,0.85c-0.34,0.68-1.53,1.02-2.38,1.36c-0.51,0.34-0.85,0.68-0.85,1.19
	c0.17,0.51,0,1.02-1.36,1.02c-1.36,0.51-2.9,0.68-4.09,1.36c-0.17,0-0.17,0.17-0.17,0.34c0,0,0.17,0.17,0.34,0.17
	c0.51,0,1.19,0,1.7,0c0.51,0.17,1.02,0.34,1.19,0.68c0.17,0.17-0.51,0.51-1.02,0.68c-0.51,0.17-0.85,0-1.19-0.17
	c-0.34-0.17-0.85-0.34-1.19,0c-0.34,0.17-0.68,0.34-1.02,0.34c-1.19,0.17-1.02,0.51-0.68,0.85c0.17,0.17-0.68,0.51-0.51,0.68
	c0.68,0.51,0.34,1.02,0.34,1.7c0,0.34,0,0.68,0.34,0.85c0.51,0.51,0.51,0.85-0.85,1.02c-0.17,0-0.34,0.17-0.34,0.34
	c0,0.34,0,0.68-0.17,1.02c0,0.34,0.34,0.51,1.02,0.68c0.34,0,0.34,0.17,0.17,0.34c-0.17,0.17-0.51,0.34-0.34,0.51
	c0.51,0.34,0,0.68-0.17,1.19c-0.17,0-0.51,0.34-0.51,0.51c0,0.34,0.34,0.68,0.68,1.02c0.51,0.34,0.34,0.85,0.17,1.36l-0.34,0.17
	c-0.68-0.34-0.85-0.17-1.02,0.17c-0.17,0.68,0.17,1.19-0.51,1.87c-0.17,0.17,0.51,0.85,1.02,1.02c1.02,0.17,0.68,0.51,0.34,0.85
	l-0.17,0.17c0.51,0.34,0.51,0.68,0.51,0.85c-0.34,0-0.51,0-0.85-0.17s-0.68-0.51-1.02-0.51c-0.68-0.17-0.68,0.68-0.85,1.02
	c-0.34,0.51-0.85,1.02-1.19,1.53c-0.51,0.51-0.85,0.51-1.53,0.17C5.85,30.87,5,31.89,3.81,31.55c-0.17,0-0.34,0.17-0.51,0.34v0.34
	c0,0.17,0.17,0.68,0.34,0.68c1.19,0.17,2.38,0.51,3.41-0.34c0.51-0.34,0.85-0.17,1.36,0.17c0.34,0.17,0.85,0.34,1.02,0.34
	c0.34-0.51,0.85-0.51,1.36-0.68c0,0.17,0,0.34,0.34,0.51c1.02,0.51,1.19,1.19,0.85,1.7c-0.85,0-1.7,0-2.73,0
	c-0.51,0-0.85,0.51-1.19,0.85c-0.17,0.17-0.34,0.51,0,0.68c0.34,0.34,0.68,0.68,1.19,0.85c0.51,0.17,1.02,0,1.36,0
	c0.34,0,0.85,0,1.02,0.17c0.34,0.34,0.85,0.68,1.02,1.02c0,0.34-0.51,1.02-0.85,1.02c-1.02,0.17-1.87,0.17-2.9,0.17
	c-0.68,0-1.02,0.34-1.19,1.19c-0.34,1.02-1.36,1.36-1.53,2.55c-0.17,0.85-0.17,1.36,0.51,1.7c0.51,0.17,1.02,0.34,1.7,0.51
	c-0.17,1.53,0.68,1.19,1.53,1.36c0.68,0,1.02-0.51,1.7-0.68c0.51-0.34,1.02,0.51,1.53,0.51c0.17,0,0.51,0,0.68-0.17
	c0.51-0.34,1.02-0.51,1.7-0.51c2.56,0,5.11,0.34,7.5-0.68c0.17,0,0.17,0,0.34,0c0,0.17-0.17,0.17-0.34,0.34c0,0-0.17,0-0.17,0.17
	c-1.02,0.17-1.87,0.34-2.9,0.51c-0.17,0-0.34,0-0.68,0.17h0.17c-0.68,0.17-1.19,0.51-1.7,0.85c0.17,0.68,0.34,1.19,0.68,1.53
	c-1.53,0.17-2.9,0.68-4.26,1.36c-0.17,0-0.17,0-0.34,0c-0.51,0.17-0.85,0.51-1.36,0.51c-0.51,0.17-0.85-0.85-1.53-0.17
	c-0.34,0.34-0.68-0.51-1.19-0.51c-0.34,0-0.68,0-1.02,0c-0.17,0-0.17,0.17-0.34,0.17c-0.68,0.51-1.19,1.36-2.04,1.53
	c-0.17,0-0.17,0.34,0.17,0.51c0.34,0.17,0.85,0,0.68,0.51c0,0.34-0.68,0.85-0.68,0.85c-0.85-0.51-1.7,0.51-2.21,0.17
	c-1.02-0.85-1.53-0.17-1.87,0.68c-0.17,0.85-0.68,1.02-1.36,1.02c-0.34,0-0.68,0-1.02,0c-0.17,0-0.34,0.34-0.34,0.51l0.17,0.34
	c0.51,0.34,1.02,0.68,1.53,1.02c1.02,0.68,2.38,0.85,2.56,2.55c0,0.17,0.51,0.34,0.85,0.51s0.85,0.17,1.02,0.34
	c0.17,0.34,0.34,1.02,0.17,1.53c0,0.51-0.34,0.85-0.51,1.36c0.68,0.17,1.02,1.02,1.53,1.36c0.68,0.51,1.7,0.17,2.38,0.85
	c0.34,0.34,1.02,0.17,1.02-0.51c0.17-0.68,0.51-0.85,1.02-0.85c1.02,0,1.87-1.19,3.07-1.02c0,0,0.34-0.34,0.34-0.68
	c0-0.17-0.17-0.51-0.34-0.68c-0.34-0.34-0.85-0.51-1.19-0.68c-0.34-0.34-0.51-0.85-0.68-1.36c0-0.51,0.17-1.19,0.68-1.19
	c0.68,0,1.53,0,2.21,0c0.68,0,1.02,0.51,0.68,1.36c-0.51,1.19-0.34,1.19,0.51,1.87c0.34,0.17,0.51,0.51,0.85,0.85
	c0.34,0.34,0.51,0.68,1.19,0.17c1.02-0.68,2.21-0.68,3.07-0.17c1.19,0.85,2.73,0.17,3.75,0.85c1.36,0.85,2.56,0.17,3.92,0.51
	c0.34,0,0.68,0,1.02,0c0.34,0,0.85,0.17,1.02,0.34c0.85,1.02,2.04,1.36,3.24,1.19c1.36,1.19,2.9,1.19,4.43,0.34
	c0.17,0,0.51,0.34,0.85,0.51c0.34,0.34,0.17,0.68-0.17,0.68c-0.68,0.17-1.36,1.02-2.21,0h-0.34c-0.68,0.68-1.19,0.68-1.87,0
	c-0.17-0.17-0.51,0-0.68,0.17c0,0,0,0.17,0,0.34c0.51,1.87,0.85,2.04,2.56,1.53c1.53-0.51,3.07-0.68,5.28,0
	c0.51,0.17,1.02-0.68,1.53,0c0.34,0.34,0.68-0.17,0.85-0.34c0.34-0.17,0.68-0.17,1.02,0.17c0.51,0.51,1.02,0.51,1.53,0
	c0.51-0.51,1.19-0.51,1.7-0.34c1.36,0.34,2.56,1.36,3.92,0c0.17-0.17,0.68,0.17,1.02,0.34c0.68,0.51,1.53,0.51,2.04,0.17
	c1.36-0.85,2.73-0.51,4.26-0.68c2.38,0,4.77-0.17,7.32,0c0.68,0,1.36-0.17,2.04-0.51c0.85,0.85,1.53,0.51,2.21-0.17
	c1.53,0.51,2.73-1.02,4.26-0.85c0.85,0,1.7-0.17,2.56,0c1.02,0.17,1.7-0.85,2.73-0.85c0.51,0,1.19,0,1.7-0.34
	c1.19-0.68,2.38-0.68,3.41-0.17c0.85,0.51,1.53,0.51,2.38,0.17c1.19-0.51,2.21-1.36,3.58-0.51c0.17,0,0.51-0.17,0.68-0.17
	c0.85-0.68,1.53-0.68,2.38,0c0.51,0.51,1.19,0.68,1.7,0.34c1.02-0.85,2.04-0.68,3.07-0.68c1.02,0,1.87,0,2.73-0.51
	c1.02-0.51,2.38-0.51,3.41,0.17c0.85,0.51,1.87,0.51,2.73,0c0.51-0.34,0.85-0.34,1.36-0.34c0.68-0.17,0.85,1.02,1.53,0.34
	c0.68-0.51,397.33-0.68,398.01-0.68c2.21,0,4.43,0,6.47,0c7.84,0,15.5,0,23.34,0c0.68,0,1.53,0.17,2.04-0.34
	c0.68-0.51,1.53,0.68,2.21-0.34c0.85,0,1.7,0,2.56,0c1.87,0,3.92,0,5.79,0c0.68,0,1.36,0.17,1.7-0.17c0.85-0.68,1.87-0.51,2.73-0.51
	c0.68,0,1.53,0.17,2.21-0.17c1.19-0.68,2.38-0.51,3.58-0.51c1.19,0,2.56,0,3.75,0c1.19,0.34,2.38,0.85,3.58,1.7l-1.19-0.68
	c-0.17-0.34,0.68-0.51,1.36-0.68c-0.17,0-0.17-0.17-0.34-0.17c2.73,0,5.28,0,8.01,0c1.02,0,2.04,0,3.24-0.51
	c1.02-0.51,2.38-0.17,3.58-0.17c2.04,1.36,4.26,0.51,6.47,0.51c1.36-1.02,2.73-0.68,4.26-0.68c1.02,0,2.38,0.17,3.24-0.34
	c0.17-0.17,0.34-0.17,0.68-0.34c1.36,0.34,3.41,0.85,6.81,1.19c6.13-0.85,13.46-2.04,20.78-1.7c2.56,0.17,4.94,1.36,4.6,2.04
	c3.24-0.17,7.67-0.17,10.9,0C656.65,59.3,640.98,56.92,635.7,56.58z"/>
</svg>
