<svg width="1002" height="71" viewBox="0 0 1002 71" fill="none" xmlns="http://www.w3.org/2000/svg">
<path d="M977.266 57.8722C978.46 55.8253 985.459 57.1899 984.776 55.143C984.605 54.4607 984.264 53.7784 983.752 53.2667C984.093 52.4138 981.874 51.5609 979.143 51.0492C979.485 50.5374 979.314 50.0257 977.607 49.514C976.412 49.514 975.73 49.6846 975.217 49.8551C974.705 50.0257 974.364 50.1963 974.193 50.3669C972.999 50.1963 971.974 50.1963 971.292 50.1963C972.487 48.1494 979.314 49.1728 978.631 47.2965C978.29 46.4436 977.948 45.5907 977.266 45.079L973.852 46.273C965.147 45.5907 977.436 43.7144 971.633 41.8381C970.438 42.0087 969.756 42.0087 969.243 42.3498C966.342 43.3733 967.195 43.885 968.902 44.9084C960.88 45.2496 963.44 39.9618 959.685 39.6206C959.685 39.45 960.197 39.45 960.709 39.45C960.538 39.2794 961.221 39.2794 961.392 39.2794C961.392 39.1089 961.563 39.1089 961.904 39.1089C962.245 39.2794 961.733 39.2794 961.733 39.45C962.075 39.45 962.587 39.45 962.587 39.2794C962.075 39.2794 963.099 39.1089 962.587 38.9383C962.416 38.9383 962.587 39.1089 962.245 39.1089C962.245 38.9383 962.416 38.9383 962.587 38.7677C962.928 38.7677 962.928 39.1089 963.099 39.1089C963.269 39.1089 963.781 39.1089 964.123 38.9383C963.611 39.1089 962.928 38.9383 963.269 38.7677C963.611 38.7677 963.44 38.9383 963.611 38.9383C963.781 38.9383 964.464 38.7677 964.294 39.1089C964.635 38.9383 964.635 38.9383 964.464 38.7677C964.976 38.7677 964.806 38.9383 964.635 38.9383C964.976 38.9383 964.806 38.9383 964.976 38.9383C965.147 38.7677 964.806 38.5971 964.976 38.5971C965.147 38.5971 965.147 38.7677 965.318 38.7677C965.659 38.7677 965.83 38.5971 966.342 38.5971C966.513 38.9383 967.025 38.5971 967.366 38.7677C967.366 38.5971 967.195 38.5971 967.366 38.5971C967.537 38.5971 967.537 38.7677 967.707 38.7677C967.707 38.5971 967.707 38.5971 967.878 38.5971C967.878 38.5971 967.878 38.5971 968.049 38.5971C968.049 38.5971 967.878 38.5971 967.878 38.7677C969.073 38.5971 969.243 38.5971 970.097 38.9383C970.268 38.7677 970.78 38.7677 971.121 38.7677C970.95 38.5971 971.292 38.5971 971.292 38.5971C970.78 38.5971 971.121 38.4266 971.121 38.4266C970.78 38.4266 970.609 38.4266 970.268 38.4266C970.268 38.5971 969.926 38.5971 969.755 38.5971C969.755 38.4266 969.414 38.4266 969.243 38.4266C969.243 38.5971 968.561 38.5971 968.561 38.5971C968.561 38.4266 969.243 38.5971 969.073 38.4266C968.561 38.5971 968.731 38.4266 968.902 38.256C967.707 38.256 967.707 38.256 966.683 38.4266C966.683 38.256 966.854 38.256 966.683 38.0854C966.512 38.4266 965.83 38.0854 965.318 38.0854C965.488 38.0854 965.659 38.0854 965.659 38.0854C965.488 37.9148 965.318 38.0854 965.318 37.9148C965.488 37.9148 965.318 37.9148 965.147 37.7443C964.976 37.9148 965.147 37.9148 964.976 38.0854C964.123 38.0854 962.757 38.0854 962.416 37.5737C962.928 37.7443 963.269 37.4031 963.781 37.5737C963.781 37.4031 963.952 37.4031 963.781 37.4031C963.099 37.4031 962.757 37.4031 962.075 37.2325C962.245 37.2325 962.075 37.062 961.904 37.062C961.904 37.062 961.904 37.2325 961.733 37.2325C961.904 37.2325 961.904 37.062 961.563 37.062C961.563 37.2325 961.221 37.2325 961.051 37.062C961.563 37.062 961.051 36.7208 961.392 36.7208C961.904 36.7208 961.733 37.062 961.904 36.8914C961.733 36.8914 961.904 36.7208 961.733 36.7208C961.904 36.7208 962.245 36.5502 962.416 36.7208C962.245 36.8914 962.416 37.062 962.587 37.062C962.416 36.8914 962.416 36.7208 962.587 36.7208C963.099 36.7208 963.611 36.5502 963.611 36.8914C963.44 36.8914 963.44 37.062 963.44 37.062C963.782 37.062 963.44 36.8914 963.781 36.8914C963.952 36.8914 964.123 36.8914 964.123 36.8914C963.952 36.7208 963.781 37.062 963.611 36.8914C963.952 36.8914 963.952 36.7208 964.294 36.8914C964.294 37.062 964.464 37.062 964.464 37.2325C964.123 37.2325 964.464 37.4031 964.464 37.4031C964.464 37.4031 965.147 37.4031 964.806 37.2325H964.635C964.806 37.2325 964.635 37.062 964.806 37.062C964.976 37.062 965.147 37.062 965.318 37.2325C965.318 37.2325 964.976 37.2325 964.976 37.4031C965.318 37.5737 965.83 37.062 966 37.4031C965.83 37.4031 965.488 37.4031 965.488 37.4031C965.83 37.5737 966.171 37.4031 966.513 37.5737C966.513 37.4031 966.512 37.4031 966.683 37.4031C966.683 37.5737 967.025 37.5737 967.366 37.4031C967.537 37.5737 967.366 37.5737 967.537 37.5737C967.537 37.4031 968.049 37.4031 968.049 37.4031C967.878 37.4031 967.878 37.4031 967.878 37.2325C968.049 37.062 968.049 37.2325 968.39 37.2325C968.39 37.062 967.878 37.2325 967.878 37.062C968.39 37.062 967.878 36.8914 967.878 36.8914C968.049 36.7208 968.39 36.8914 968.561 37.062C968.39 36.8914 968.731 36.7208 968.39 36.7208C968.219 36.8914 968.049 36.7208 967.707 36.8914C967.707 36.7208 967.707 36.7208 967.537 36.7208C967.366 36.8914 967.707 36.8914 967.366 36.8914C966.513 36.8914 967.025 36.3797 967.707 36.3797C967.366 36.2091 967.537 36.3797 967.195 36.3797C967.537 36.2091 967.025 36.2091 966.854 36.2091C967.025 36.0385 967.878 36.2091 967.878 36.0385C967.195 36.0385 966.683 36.0385 966.342 36.0385C966.513 36.0385 966.512 35.8681 966.683 35.8681C967.537 35.8681 968.561 35.8681 969.755 35.8681C969.926 35.8681 969.926 35.8681 969.926 35.8681C970.097 35.8681 970.438 35.6975 970.438 35.8681C969.926 35.8681 970.609 35.8679 970.438 36.0385C970.609 36.0385 970.78 36.0385 970.78 36.0385C970.097 36.0385 971.292 35.8681 970.78 35.8681C970.78 36.0386 970.438 35.8681 970.438 35.8681C970.95 35.8681 971.121 36.0385 971.633 36.0385C971.633 35.8679 971.633 35.8681 971.804 35.8681C972.316 35.8681 972.998 35.8679 973.511 36.0385C973.511 36.0385 973.511 36.0385 973.681 36.0385C974.535 36.0385 975.559 36.2091 976.412 36.2091C976.242 36.2091 976.071 36.2091 976.242 36.3797C976.412 36.3797 976.583 36.3797 976.754 36.2091C977.095 36.2091 977.436 36.2091 977.607 36.3797C978.119 36.3797 978.631 36.2091 979.143 36.2091C979.143 36.3797 979.143 36.3797 979.314 36.3797C979.485 36.3797 979.655 36.3797 979.655 36.3797C979.485 36.3797 979.485 36.2091 979.314 36.2091C979.997 36.0385 980.679 36.0386 981.192 35.8681C981.362 35.8681 981.362 35.8681 981.533 35.8681C982.728 35.5269 983.24 35.1858 983.41 34.8446C983.581 34.8446 983.581 34.8446 983.752 34.8446L983.922 34.674C983.752 34.674 983.581 34.674 983.581 34.674C983.752 34.3329 983.41 33.9917 982.728 33.6506C983.581 33.6506 984.435 33.6506 985.117 33.6506C985.117 33.8212 985.288 33.8212 985.117 33.8212C985.459 33.6506 985.971 33.6506 986.312 33.6506C986.312 33.48 986.483 33.48 986.824 33.48C986.824 33.48 986.653 33.48 986.824 33.6506C986.995 33.6506 986.995 33.6506 987.166 33.6506C987.166 33.6506 987.166 33.6506 987.166 33.8212C987.507 33.8212 987.678 33.9917 987.678 33.8212C987.507 33.9917 988.019 33.8212 987.848 33.9917C988.19 33.8212 988.36 33.8212 988.872 33.8212C988.872 33.6506 988.872 33.6506 989.043 33.6506C988.872 33.8212 989.726 33.8212 989.896 33.6506V33.8212C990.579 33.8212 991.091 33.8212 991.603 33.8212C991.433 33.6506 992.115 33.6506 992.457 33.6506C992.457 33.6506 992.457 33.8212 992.286 33.8212C992.457 33.6506 991.774 33.6506 991.945 33.8212C992.457 33.8212 992.286 33.9917 992.457 33.9917C992.628 33.6506 992.798 33.8212 992.627 33.48C992.286 33.48 991.433 33.6506 991.603 33.48C991.603 33.6506 991.774 33.48 991.945 33.48C992.286 33.48 992.286 33.48 992.798 33.48C992.798 33.3094 992.969 33.3094 992.969 33.3094C992.798 33.3094 992.798 33.1389 992.627 33.1389C992.627 33.48 991.774 33.1389 991.262 33.3094C991.262 33.48 989.897 33.6506 989.384 33.48C989.726 33.48 990.067 33.48 990.238 33.48C990.067 33.48 990.238 33.3094 990.067 33.3094C989.896 33.3094 989.384 33.3094 989.555 33.48C989.384 33.3094 989.043 33.48 988.872 33.48C989.043 33.6506 988.531 33.8212 988.531 33.6506H988.702C987.678 33.3094 986.483 33.8212 985.459 33.48C985.288 33.48 985.629 33.6506 985.459 33.6506C984.947 33.48 984.093 33.8212 983.41 33.48V33.6506C983.41 33.6506 983.069 33.6506 982.728 33.6506C982.557 33.48 982.386 33.48 982.216 33.3094C982.557 33.3094 982.898 33.48 983.069 33.3094C983.069 33.1389 982.386 33.1389 982.216 33.3094C979.485 32.1154 974.193 30.9214 971.462 30.7508L971.633 30.5802C971.804 30.5802 971.974 30.5802 972.145 30.5802C972.145 30.4096 971.804 30.5802 971.804 30.4096C971.804 30.4096 971.804 30.4096 971.974 30.2391C972.145 30.2391 972.316 30.2391 972.486 30.2391C972.486 30.4096 972.486 30.4096 972.657 30.4096C972.486 29.8979 974.364 30.2391 974.876 29.8979L974.705 30.0685C974.876 30.0685 974.876 30.0685 975.047 30.0685C975.217 30.0685 974.876 29.8979 975.047 29.8979C975.388 29.8979 975.217 29.8979 975.217 30.0685C975.559 30.0685 975.388 29.8979 975.73 29.8979C975.73 30.2391 976.242 29.8979 976.412 30.0685C976.583 29.8979 976.924 30.0685 977.266 30.0685C977.436 29.8979 976.754 30.0685 976.754 29.8979C976.924 29.8979 976.754 29.7273 976.924 29.7273C976.754 29.5568 976.754 29.3862 976.412 29.3862C976.412 29.7273 976.071 29.3862 975.9 29.5568C975.9 29.5568 975.9 29.5568 975.9 29.3862C977.778 29.3862 979.485 29.3862 979.314 28.1922C979.314 28.1922 979.314 28.1922 979.314 28.0216C979.485 28.0216 979.485 28.0216 979.655 28.0216C979.655 27.851 979.485 27.851 979.655 27.851C979.485 27.851 979.485 27.851 979.314 27.851V27.6804C979.485 27.6804 979.655 27.6804 979.655 27.5099C979.485 27.5099 979.485 27.5099 979.314 27.5099C979.143 27.1687 978.973 26.8276 978.802 26.4864C978.802 26.4864 978.973 26.4864 978.973 26.657C979.143 26.657 979.314 26.657 979.485 26.4864C979.143 26.4864 979.143 26.3158 978.802 26.3158C978.631 26.1453 978.461 25.9747 978.29 25.8041C979.143 25.8041 980.167 25.6335 981.021 25.8041C980.85 25.8041 981.021 25.6335 980.85 25.6335C980.509 25.8041 979.997 25.8041 979.655 25.6335C978.973 25.8041 977.948 25.8041 977.266 25.8041C977.266 25.463 976.242 25.463 976.412 25.2924C976.071 25.2924 975.73 25.463 975.559 25.2924C975.9 25.2924 975.729 25.1218 976.071 25.1218C975.9 25.1218 975.559 24.9512 975.217 25.1218C975.217 24.9512 975.388 24.9512 975.047 24.9512C974.364 24.9512 973.34 25.1218 972.657 24.7807C972.828 24.7807 972.998 24.6101 972.998 24.6101C973.169 24.6101 973.511 24.6101 973.681 24.6101C973.34 24.6101 974.193 24.6101 974.023 24.4395C973.681 24.4395 973.681 24.0983 974.023 24.0983C974.193 24.0983 974.364 24.2689 974.364 24.4395C974.535 24.4395 974.876 24.4395 974.876 24.2689C974.364 24.4395 974.705 24.0983 974.535 24.0983C974.535 24.0983 974.364 24.2689 974.193 24.2689C974.193 24.0983 974.023 24.0983 974.023 24.0983C974.193 23.9278 974.364 23.9278 974.364 23.7572C974.535 23.5866 974.876 23.5866 975.047 23.5866C975.047 23.5866 975.047 23.416 974.876 23.416C975.729 23.2455 976.583 23.0749 977.095 23.2455C977.436 23.2455 977.948 23.2455 978.119 23.0749C977.778 23.0749 977.778 22.9043 977.436 22.9043C977.778 22.9043 977.948 22.7337 978.119 22.5632C978.29 22.7337 978.802 22.5632 978.973 22.7337C979.143 22.9043 978.46 22.7337 978.631 22.9043C979.655 23.2455 981.362 22.9043 982.557 23.0749C982.386 23.2455 981.704 22.9043 981.533 23.2455C981.874 23.416 982.386 23.2455 982.898 23.416C983.069 23.5866 982.728 23.5866 982.386 23.5866C982.386 23.2455 981.021 23.5866 981.362 23.0749C980.85 23.2455 980.338 23.2455 979.997 23.0749C979.826 23.0749 979.997 23.2455 979.655 23.2455C979.655 23.0749 979.826 23.0749 979.826 23.0749C979.314 23.2455 977.436 23.2455 976.924 23.416C976.924 23.2455 976.754 23.2455 976.754 23.2455C976.754 23.416 976.412 23.416 976.412 23.416C976.754 23.416 976.754 23.5866 976.924 23.5866C976.924 23.5866 977.436 23.416 977.436 23.5866C977.436 23.7572 977.095 23.5866 977.095 23.7572C977.607 23.7572 978.119 23.416 978.29 23.5866C977.948 23.5866 978.119 23.7572 977.948 23.7572C977.436 23.5866 976.754 23.9278 976.583 23.9278C977.266 23.9278 977.095 24.0983 977.436 24.2689C977.095 24.2689 977.266 24.0983 976.924 24.2689C976.924 24.6101 977.266 24.6101 977.436 24.7807C977.095 24.7807 977.266 24.9512 977.095 24.9512C977.436 24.9512 977.948 24.9512 977.607 25.1218C977.948 25.1218 978.29 24.9512 978.461 25.1218C978.29 25.2924 977.607 25.1218 977.778 25.2924C979.314 24.6101 980.338 25.9747 981.874 25.463C981.703 25.6335 982.045 25.6335 982.386 25.8041C982.216 25.9747 982.045 26.1453 981.703 26.3158C981.533 26.3158 981.533 26.3158 981.192 26.3158C980.85 26.3158 981.191 26.1453 980.85 26.1453C980.85 26.1453 980.85 26.3158 981.021 26.3158C980.509 26.3158 980.509 26.3158 979.655 26.3158C979.485 26.4864 979.314 26.4864 979.485 26.657C980.167 26.4864 980.509 26.657 981.021 26.4864C980.85 26.657 981.362 26.9981 981.533 26.657C981.362 26.657 981.192 26.657 981.192 26.657V26.4864C981.533 26.4864 981.874 26.3158 981.874 26.4864C981.703 26.4864 981.533 26.4864 981.533 26.4864C981.874 26.4864 981.533 26.657 981.874 26.657C982.045 26.4864 982.898 26.4864 983.069 26.657V26.8276C982.557 26.8276 982.386 27.1687 982.557 26.9981C983.24 27.1687 983.581 26.657 983.581 26.4864C983.922 26.4864 983.752 26.657 983.922 26.657C983.922 26.4864 984.435 26.4864 984.605 26.3158C984.435 26.3158 984.264 26.1453 984.435 26.1453C985.117 26.1453 986.141 26.1453 986.653 26.3158C986.653 26.4864 986.312 26.4864 986.653 26.4864C986.653 26.1453 987.507 26.4864 987.678 26.3158C987.678 26.1453 987.336 26.3158 987.336 26.1453C987.848 26.1453 987.678 25.9747 988.019 25.8041C988.531 25.9747 989.726 25.8041 990.067 25.8041C989.896 25.6335 989.555 25.8041 989.384 25.6335C989.555 25.463 989.384 25.2924 989.555 25.2924C989.726 25.2924 990.238 25.2924 990.409 25.1218C990.067 25.1218 989.896 24.9512 990.238 24.9512C989.384 24.9512 989.043 25.1218 988.019 25.1218C988.019 25.2924 988.019 25.2924 987.848 25.2924H987.336C987.336 25.1218 987.848 25.2924 987.848 24.9512C987.507 24.9512 986.653 25.1218 986.824 24.9512C986.653 24.9512 986.483 24.9512 986.312 24.9512C986.483 25.2924 985.117 25.1218 985.459 24.9512C984.947 24.9512 984.264 24.9512 984.264 24.7807C984.947 24.7807 985.288 24.7807 985.8 24.6101C985.629 24.6101 985.629 24.4395 985.288 24.6101C985.459 24.7807 985.117 24.7807 984.947 24.7807C984.947 24.6101 984.435 24.7807 984.435 24.6101C984.435 24.4395 984.264 24.4395 984.264 24.4395C984.776 24.2689 985.288 24.4395 985.629 24.4395C985.629 24.2689 985.117 24.4395 984.947 24.2689C984.947 24.2689 985.288 24.2689 985.288 24.0983C985.117 23.9278 984.605 24.0983 984.435 24.0983C984.605 24.0983 985.117 24.0983 985.117 23.9278C985.459 23.9278 985.8 24.0983 985.971 24.0983C985.8 23.9278 986.483 23.9278 986.483 23.5866C985.971 23.7572 985.459 24.0984 984.947 23.7572C984.435 23.7572 983.752 23.9278 983.41 23.7572C983.581 23.7572 983.922 23.5866 983.922 23.416C983.752 23.2455 983.24 23.5866 982.898 23.416C983.069 23.416 983.069 23.416 983.069 23.2455C982.728 23.2455 982.728 23.416 982.557 23.416C982.386 23.416 982.045 23.2455 982.386 23.0749C983.581 23.2455 984.605 23.0749 985.971 23.2455C985.288 23.416 984.264 23.0749 984.093 23.416C984.605 23.2455 984.776 23.5866 984.947 23.2455C985.288 23.2455 985.459 23.5866 985.8 23.416C985.459 23.416 985.629 23.2455 985.8 23.2455C986.141 23.2455 986.141 23.2455 986.483 23.2455C986.483 23.0749 987.336 23.0749 987.336 22.9043C986.483 23.2455 985.288 22.9043 984.605 22.7337C984.264 22.7337 984.776 22.9043 984.605 22.9043C984.435 22.9043 984.435 22.9043 984.264 22.7337C984.435 22.5632 984.093 22.5632 983.922 22.3926C984.435 22.222 984.264 22.5632 984.605 22.5632C984.776 22.5632 985.117 22.3926 985.288 22.3926C985.288 22.3926 985.117 22.3926 985.117 22.5632C985.288 22.5632 985.459 22.5632 985.459 22.5632C985.459 22.3926 985.459 22.3926 985.629 22.3926C985.8 22.5632 985.971 22.7337 986.483 22.7337C986.483 22.7337 986.312 22.5632 986.483 22.5632C986.824 22.7337 987.336 22.5632 987.678 22.7337C987.848 22.5632 988.19 22.7337 988.36 22.5632C988.36 22.7337 989.214 22.5632 989.214 22.7337C989.214 22.7337 989.214 22.7337 989.384 22.7337C989.384 22.222 988.019 22.5632 987.678 22.3926C988.19 22.3926 988.019 22.222 987.678 22.222C988.36 21.8809 989.384 22.5632 989.384 22.222C989.555 22.222 990.238 22.3926 990.238 22.3926C989.726 22.3926 990.067 22.3926 990.067 22.222C989.896 22.0514 989.555 22.3926 989.214 22.222C989.214 22.222 989.897 22.222 989.555 22.0514C989.214 22.0514 989.214 22.0514 988.872 22.222C988.702 22.222 988.702 22.0514 988.531 22.0514C988.36 22.0514 988.531 22.222 988.19 22.222C988.019 21.7103 986.824 22.0514 986.141 21.8809C987.507 21.7103 988.872 21.7103 989.726 21.7103C989.555 21.7103 989.555 21.7103 989.726 21.5397C989.896 21.5397 989.896 21.5397 990.067 21.5397C990.067 21.7103 990.067 21.7103 990.238 21.7103C990.579 21.5397 990.75 21.8809 991.091 21.8809C991.774 21.7103 993.652 21.7103 994.334 21.8809C994.846 21.8809 996.553 21.7103 997.065 22.0514V21.8809C997.577 21.8809 999.113 22.0514 999.113 22.0514C999.113 22.0514 998.943 21.8809 999.113 21.8809C999.284 21.8809 999.284 22.0514 999.625 22.0514C1000.14 21.7103 1000.82 22.222 1001.33 22.0514C1001.16 21.8809 1000.82 22.0514 1000.99 22.0514C1000.82 22.0514 1000.65 22.0514 1000.48 22.0514C1000.82 22.0514 1000.48 22.0514 1000.48 21.8809C1000.65 21.8809 1000.65 21.8809 1000.82 21.8809C1000.82 21.5397 999.796 21.8809 999.284 21.8809C998.772 21.8809 998.943 21.5397 998.431 21.5397C998.431 21.7103 998.601 21.7103 998.601 21.7103C998.26 21.7103 997.577 21.8809 997.407 21.7103C997.748 21.7103 997.407 21.5397 997.236 21.5397C997.065 21.7103 996.895 21.5397 996.553 21.7103C996.724 21.5397 996.041 21.7103 996.383 21.3691C995.87 21.3691 996.212 21.5397 995.871 21.5397C995.529 21.3691 995.87 21.5397 995.529 21.5397C995.529 21.3691 995.188 21.5397 995.358 21.3691C994.846 21.3691 994.505 21.5397 994.164 21.3691C993.993 21.3691 993.993 21.5397 993.822 21.5397C993.481 21.5397 992.969 21.3691 992.457 21.5397C992.457 21.1986 990.921 21.1986 990.579 21.028V21.1986C990.238 21.1986 990.409 20.8574 990.067 21.028C990.067 21.1986 990.409 21.028 990.409 21.1986C989.896 21.1986 989.043 21.3691 988.531 21.3691C988.872 21.3691 989.043 21.1986 988.872 21.1986C988.702 21.1986 988.531 21.3691 988.19 21.3691C988.36 21.3691 988.19 21.1986 988.36 21.1986C987.848 21.1986 987.336 21.3691 986.824 21.1986C986.824 21.1986 986.995 21.1986 986.995 21.028C987.678 21.028 988.872 21.1986 989.043 20.8574C988.36 21.028 987.507 20.6868 986.653 20.8574C986.653 20.5163 985.288 21.028 985.117 20.6868C984.093 20.8574 982.386 20.8574 981.533 20.6868C981.533 20.6868 981.704 20.6868 981.533 20.5163C981.362 20.5163 981.021 20.5163 981.021 20.6868C981.192 20.6868 981.192 20.6868 981.192 20.8574C980.509 20.8574 980.338 20.8574 979.997 20.8574L980.167 20.6868C979.655 20.8574 979.485 20.5163 978.973 20.6868C978.973 20.8574 979.314 20.8574 978.973 20.8574C978.973 20.6868 978.631 20.6868 978.631 20.6868C978.46 20.6868 978.802 20.8574 978.461 20.8574C977.778 20.8574 977.778 20.8574 977.266 21.028C977.266 20.8574 976.583 20.8574 976.924 20.6868C976.242 20.6868 976.242 20.5163 975.9 20.8574C976.071 20.6868 975.729 20.6868 975.9 20.5163C975.729 20.5163 975.73 20.5163 975.559 20.5163C975.559 20.6868 975.9 20.6868 975.559 20.8574C974.535 20.8574 973.169 20.6868 972.486 21.028V20.8574C972.316 20.8574 972.145 20.8574 971.974 20.8574C971.974 21.028 971.974 21.028 971.633 21.028C971.804 20.8574 971.462 21.028 971.462 20.6868C971.804 20.5163 972.316 20.6868 972.828 20.6868C972.999 20.3457 974.364 20.5163 974.535 20.6868C974.023 20.3457 972.657 20.5163 972.316 20.5163C971.633 20.3457 971.121 20.3457 970.438 20.3457C970.609 20.5163 970.268 20.5163 970.097 20.5163C970.097 20.6868 970.268 20.6868 970.268 20.8574C970.609 20.8574 970.438 20.6868 970.78 20.6868C970.609 20.8574 971.292 20.8574 971.121 21.028C970.609 21.028 969.926 20.8574 969.926 21.028C969.756 21.028 969.585 21.028 969.414 21.028C969.585 21.028 969.414 20.8574 969.585 20.8574C969.073 20.8574 969.755 21.028 969.073 21.1986C968.902 21.1986 968.902 21.028 968.731 21.1986C968.39 21.028 968.902 20.8574 968.731 20.8574C968.731 20.8574 968.049 21.028 968.049 20.8574C968.049 20.6868 968.049 20.6868 968.219 20.6868C968.049 20.8574 968.731 20.6868 969.073 20.6868C969.243 20.6868 969.243 20.8574 969.414 20.8574C969.414 20.6868 969.926 20.8574 970.097 20.8574C969.926 20.5163 969.414 20.6868 969.243 20.6868C969.243 20.5163 969.585 20.6868 969.755 20.5163C969.414 20.5163 968.902 20.6868 968.731 20.5163C968.731 20.6868 968.049 20.5163 968.219 20.6868C968.561 20.6868 968.731 20.5163 968.731 20.6868C968.39 20.8574 968.049 20.6868 967.707 20.6868C967.537 20.8574 968.049 20.6868 967.878 20.8574C967.707 20.8574 967.707 20.8574 967.707 20.8574C967.195 20.8574 967.025 20.8574 966.683 20.6868C966.342 20.6868 966.854 20.6868 966.854 20.8574C966.683 20.8574 966.683 20.8574 966.513 20.8574C966.342 20.8574 966.171 20.8574 966.171 20.6868C966.171 20.5163 966.513 20.6868 966.513 20.5163C966.171 20.5163 966 20.5163 965.659 20.5163C965.488 20.5163 965.488 20.6868 965.147 20.6868C964.976 20.6868 964.976 20.5163 964.806 20.5163C964.635 20.5163 964.123 20.6868 963.611 20.5163C963.44 20.6868 963.269 20.6868 963.099 20.6868C963.611 20.6868 963.781 20.5163 963.952 20.6868C963.781 20.6868 963.781 20.6868 963.611 20.8574C963.781 20.8574 963.952 20.6868 964.123 20.6868C964.123 21.028 964.806 20.6868 964.806 20.8574C964.806 20.8574 964.635 21.028 964.806 21.028C965.318 20.8574 966.171 20.8574 966.513 21.028C966.342 20.6868 967.537 20.8574 967.195 21.1986C967.707 21.1986 967.366 21.028 967.707 21.028C967.707 21.1986 967.878 21.1986 967.878 21.1986C967.024 21.5397 966.513 21.3691 965.659 21.028C964.976 21.1986 964.806 21.028 964.464 21.1986V21.028C964.464 21.1986 963.44 21.1986 963.781 21.1986C963.952 21.028 964.635 21.1986 964.635 21.1986C963.952 21.1986 963.611 21.1986 963.099 21.1986C963.269 21.028 963.099 21.028 962.928 21.028C962.928 21.1986 962.757 21.1986 962.587 21.1986C962.075 20.0045 961.563 18.9811 959.685 18.9811C956.783 19.1517 955.93 20.0045 955.93 21.028C955.418 21.028 954.906 21.028 954.735 21.028C954.564 21.028 953.711 21.1986 953.199 21.1986C949.444 18.9811 941.934 17.1047 935.618 16.5929C932.034 16.9341 928.279 16.5929 924.353 16.0812C924.694 16.0812 925.036 15.9106 925.206 15.7401C925.377 15.3989 925.889 15.3989 926.23 15.3989C926.401 15.3989 926.743 15.3989 926.913 15.3989C927.937 15.5695 928.279 15.5695 928.449 15.2283C928.791 14.7166 929.303 15.0578 929.815 14.8872C930.498 14.7166 931.863 14.7166 931.522 14.0343C931.522 13.8637 931.863 13.6932 932.034 13.5226C932.205 13.352 932.205 13.1814 932.034 13.0109C931.522 12.6697 930.839 12.158 930.156 11.8168C929.986 11.6463 929.644 11.6463 929.303 11.6463C928.62 11.6463 927.937 11.6463 927.255 11.4757C926.742 10.9639 925.718 11.6463 925.206 11.1345C924.012 11.3051 922.817 10.964 921.622 10.7934C920.939 10.7934 920.427 10.4522 919.744 10.4522C919.062 10.4522 918.379 10.2816 917.696 10.4522C917.013 10.4522 916.501 10.1111 915.819 10.1111C915.477 10.1111 915.306 10.2816 915.136 10.1111C914.965 9.94049 915.477 9.59934 915.989 9.59934C916.843 9.59934 917.696 9.59934 918.379 9.59934C918.55 9.59934 918.891 9.59934 919.062 9.42877C919.403 9.25819 918.891 9.08762 918.891 8.91704C918.72 8.57589 918.72 8.23474 918.549 8.06416C918.208 7.72301 918.037 7.55244 918.549 7.21128C918.891 7.04071 918.891 6.52898 919.574 6.52898C919.915 6.52898 920.598 6.52898 920.768 6.69956C920.939 6.87013 920.427 6.87013 920.256 6.87013C920.086 6.87013 920.086 7.04071 919.915 7.04071C920.598 7.21128 921.281 7.55244 921.963 7.55244C922.817 7.72301 923.841 7.72301 924.694 7.72301C924.865 7.72301 924.865 7.72301 925.036 7.89359C924.865 7.89359 924.694 8.06416 924.694 8.06416C924.012 8.06416 923.329 8.06416 922.646 8.06416C922.305 8.06416 921.963 8.23474 921.793 8.40531C921.622 8.57589 921.451 9.08762 921.963 9.08762C922.646 9.25819 923.158 9.76992 924.011 9.59934C925.036 9.59934 925.718 9.9405 926.572 9.9405C927.596 10.1111 928.62 9.94049 929.644 10.2816H929.815C929.815 10.1111 929.986 9.9405 929.986 9.9405C929.815 9.76992 929.644 9.59934 929.303 9.42877C928.791 9.25819 926.401 9.08762 925.548 9.08762C925.377 9.08762 925.206 8.91704 925.206 8.91704V8.74647C925.377 8.40531 925.718 8.23474 926.06 7.89359C926.23 7.72301 926.572 7.72301 926.572 7.89359C926.743 8.40531 927.084 8.57589 927.937 8.57589C929.132 8.57589 930.156 8.74646 930.498 9.42877C931.863 9.94049 933.058 10.4522 934.594 10.6228C934.765 10.6228 935.106 10.6228 935.277 10.6228C935.448 10.6228 935.448 10.4522 935.618 10.2816C935.618 10.1111 935.618 9.9405 935.448 9.9405C934.935 9.76992 934.423 9.42877 933.741 9.25819C933.741 8.74646 932.887 8.74647 932.375 8.57589C932.034 8.40531 931.351 8.23474 931.01 8.06416C930.839 7.89359 930.839 7.55243 930.156 7.72301C929.474 8.06416 928.62 7.72301 927.767 8.06416C927.425 8.23474 927.425 7.89359 927.255 7.72301C927.255 7.72301 927.255 7.55244 927.084 7.55244C926.572 7.38186 926.06 7.38186 925.548 7.21128C925.036 7.04071 925.377 6.52898 924.524 6.52898C924.182 6.52898 923.841 6.52898 923.499 6.35841C923.329 6.35841 923.329 6.35841 923.158 6.18783C923.329 6.18783 923.329 6.01725 923.499 6.01725C924.694 6.01725 926.06 5.84668 927.255 6.18783C927.767 6.35841 928.279 6.35841 928.961 6.35841C930.327 6.35841 931.693 6.35841 933.058 6.69956C933.741 6.87013 934.594 6.69956 935.448 6.69956C935.618 6.69956 935.789 6.52898 935.789 6.35841C935.789 6.18783 935.618 6.01725 935.618 6.01725C934.765 6.01725 933.911 5.6761 933.229 5.50553C933.058 5.6761 932.887 5.84668 932.375 5.84668C932.034 5.84668 931.863 5.6761 931.863 5.50553C931.863 5.33495 931.863 5.33495 931.863 5.16437C931.351 5.16437 931.01 5.16437 930.498 5.16437V4.9938C929.303 4.65265 928.62 4.65265 927.767 5.16437C927.596 5.33495 927.425 5.33495 927.255 5.33495C926.572 4.9938 925.718 4.65267 924.524 4.65267C924.353 4.65267 923.841 4.48209 923.841 4.31151C923.499 3.79979 922.817 3.62921 921.793 3.62921C920.939 3.62921 919.915 3.62921 919.062 3.62921C918.549 3.62921 918.208 3.79979 918.037 3.97036C917.355 4.65267 917.355 4.48209 915.819 4.31151C914.794 4.14094 914.112 3.79979 913.088 3.62921C912.576 3.45864 912.234 3.45864 911.893 3.62921C911.551 3.79979 911.381 3.79979 911.039 3.62921C910.698 3.45864 910.357 3.11748 909.844 3.11748C909.674 3.45864 909.844 3.79979 908.991 3.79979C907.284 4.65267 907.284 4.82322 907.114 4.82322C906.772 4.82322 906.772 4.65267 906.601 4.48209C906.26 4.48209 905.919 4.65265 905.919 4.82322C905.748 4.9938 906.089 5.16438 906.431 5.33495C906.943 5.33495 907.626 5.33495 908.138 5.33495C908.308 5.33495 908.479 5.50553 908.479 5.50553C908.308 5.50553 908.308 5.6761 908.138 5.6761C906.943 5.6761 905.577 5.6761 904.382 5.6761C903.017 5.6761 901.651 5.6761 900.457 6.01725C900.115 6.01725 899.945 6.35841 899.603 6.18783C898.921 5.84668 898.408 6.01725 897.726 6.18783C897.214 5.84668 896.36 5.84668 895.507 5.84668C893.971 5.84668 892.434 5.84668 890.898 5.6761C890.386 5.6761 889.703 5.6761 889.191 5.50553C888.509 5.16438 887.655 5.16437 886.802 5.16437C882.705 5.16437 878.438 4.9938 874 4.82322C873.147 4.82322 873.147 4.82324 872.976 4.14094C872.976 3.97036 872.805 3.97036 872.805 3.79979C872.635 3.79979 872.464 3.97036 872.293 3.97036C871.61 4.31151 870.416 4.48209 869.733 4.31151V4.14094C869.733 4.14094 869.904 3.97036 870.074 3.97036C871.098 3.97036 871.952 3.97036 871.781 3.11748C871.781 2.77633 872.293 2.60575 872.464 2.2646C872.635 2.09402 872.976 2.09402 873.317 2.2646C873.488 2.43517 873.829 2.43517 873.829 2.2646C873.829 2.09402 873.829 1.92345 874 1.75287C872.293 1.75287 870.586 1.41172 869.05 1.92345C868.709 2.09402 867.855 1.92345 867.343 1.75287C866.661 1.41172 865.807 1.41172 865.124 1.24115C864.954 1.5823 864.783 1.41172 864.783 1.24115C864.271 1.24115 863.93 1.07057 863.417 1.24115C862.905 1.5823 862.052 1.75287 861.881 2.2646C861.881 2.43517 861.711 2.43518 861.54 2.60576C861.369 2.43518 861.369 2.2646 861.199 2.09402C860.857 1.92345 860.516 1.75287 860.004 1.92345C859.833 1.92345 859.492 2.09402 859.492 2.09402C858.98 1.92345 858.126 1.75287 857.956 1.41172C857.614 0.899996 857.443 1.07057 856.931 1.24115C856.419 1.41172 856.59 1.92345 855.737 2.09402C855.737 2.09402 855.737 2.2646 855.566 2.2646C854.883 2.77632 854.03 1.75287 853.176 2.2646C853.006 2.2646 852.835 2.09402 852.835 2.09402C852.664 1.92345 852.664 1.75287 852.664 1.75287C851.299 1.58229 113.337 1.41168 111.971 1.07053C111.971 1.07053 111.8 1.07053 111.63 1.07053C111.459 1.07053 111.459 1.24111 111.63 1.41168C111.8 1.41168 111.8 1.75284 111.8 1.75284C110.776 1.92341 109.752 1.92341 108.728 1.75284C108.216 1.75284 108.557 1.75284 108.728 1.58226C109.24 1.24111 109.069 1.07053 108.216 1.07053C107.704 1.07053 107.192 1.07053 106.85 1.07053C106.338 1.07053 105.826 1.58226 105.314 1.24111C104.632 0.729382 104.119 1.24111 103.437 1.24111C102.925 1.24111 102.583 1.07053 102.071 1.07053C101.901 1.07053 101.559 0.899958 101.559 1.07053C100.876 1.41168 100.364 1.24111 99.6816 1.07053C99.5109 0.899958 98.9988 0.899958 98.6575 0.899958C97.292 0.899958 95.9265 0.558807 94.561 1.07053C94.3903 1.07053 94.0489 1.07053 93.8782 1.07053C93.5368 0.899958 93.0248 0.899958 92.6834 0.729382C91.4886 0.217655 90.4645 0.217655 89.099 0.558806C88.9283 0.558806 88.5869 0.729382 88.4162 0.729382C86.7093 0.558806 85.0025 0.899958 83.2956 1.07053C82.2715 1.07053 81.2473 1.24111 80.7353 1.75284C80.2232 1.75284 79.3698 1.75284 79.0284 1.58226C78.3456 1.24111 77.6629 1.58226 77.1508 1.41168C76.4681 1.07053 75.7853 1.24111 75.1026 1.24111C74.2491 1.24111 73.7371 0.899958 72.8836 0.729382C72.713 0.729382 72.3716 0.729382 72.2009 0.729382C71.5181 0.729382 71.0061 1.07053 70.3233 0.729382C69.6406 1.07053 68.7871 0.899958 68.1044 1.07053C67.0803 1.41168 65.5441 1.24111 64.6906 1.92341C64.8613 2.09399 64.5199 1.58226 64.0079 1.75284C63.6665 1.92341 63.3251 2.43514 62.6424 2.09399C61.9596 1.75284 61.6182 2.26456 61.1062 2.26456C60.9355 2.26456 60.5941 2.26456 60.5941 2.09399C60.5941 1.92341 60.5941 1.75284 60.5941 1.75284C60.7648 1.58226 60.9355 1.58226 61.1062 1.58226C61.2769 1.58226 61.4476 1.41168 61.7889 1.41168C61.6183 1.41168 61.4476 1.24111 61.2769 1.24111C60.7648 1.24111 60.0821 1.24111 59.57 1.24111C58.8873 1.24111 58.2045 1.24111 57.5217 1.24111C57.0097 1.24111 56.4976 1.58226 55.9855 1.58226C55.3028 1.58226 54.6201 1.58226 53.9373 1.58226C53.7666 1.58226 53.5959 1.75284 53.4252 1.75284C53.0839 1.75284 52.9132 1.92341 52.9132 1.92341C52.9132 1.92341 53.0839 1.92341 53.2546 2.09399C54.9614 2.43514 56.4976 1.92341 58.0338 1.92341C58.3752 1.92341 58.7166 1.41168 59.0579 1.75284C59.2286 1.92341 58.7166 2.09399 58.0338 2.26456C57.3511 2.43514 56.6683 2.60571 55.9855 2.60571C54.4494 2.43514 53.0839 2.77629 51.5477 2.94687C51.377 2.94687 51.2063 3.11744 51.2063 3.28802C51.2063 3.28802 51.377 3.45859 51.5477 3.45859C51.5477 3.45859 51.7184 3.45859 51.889 3.45859C52.0597 3.45859 52.2304 3.62917 52.4011 3.62917C52.2304 3.62917 52.0597 3.79974 51.889 3.79974C51.377 3.79974 50.8649 3.79974 50.5236 3.79974C49.6701 3.79974 48.4753 3.62917 47.9632 3.28802C47.6219 2.94687 47.1098 2.94687 46.427 2.94687C44.8909 2.77629 43.5254 3.28802 42.1599 3.45859C40.6237 3.62917 39.2582 4.1409 37.5513 3.97032C35.8444 3.79974 34.3082 4.1409 33.1134 4.65262C32.772 4.8232 32.4307 4.99377 31.9186 4.99377C31.5772 4.99377 31.0652 4.99377 31.0652 4.8232C31.0652 4.65262 31.4065 4.65262 31.7479 4.65262C31.9186 4.65262 31.9186 4.48205 32.0893 4.48205C32.0893 4.48205 29.6997 4.1409 29.529 4.1409C29.3583 4.31147 29.0169 4.48205 28.8462 4.48205C29.0169 4.48205 29.1876 4.65262 29.3583 4.65262C29.529 4.65262 29.6997 4.8232 29.8703 4.8232C29.6997 4.99377 29.529 4.99377 29.3583 5.16435C28.8462 5.5055 28.3342 5.33493 27.8221 5.33493C26.2859 5.33493 25.0911 6.01723 23.7256 6.1878C23.3842 6.87011 22.1894 7.21126 21.336 7.55241C20.8239 7.89356 20.4825 8.23471 20.4825 8.74644C20.6532 9.25817 20.4825 9.76989 19.117 9.76989C17.7515 10.2816 16.2153 10.4522 15.0205 11.1345C14.8498 11.1345 14.8498 11.3051 14.8498 11.4757C14.8498 11.4757 15.0205 11.6462 15.1912 11.6462C15.7033 11.6462 16.386 11.6462 16.8981 11.6462C17.4101 11.8168 17.9222 11.9874 18.0929 12.3285C18.2636 12.4991 17.5808 12.8403 17.0688 13.0108C16.5567 13.1814 16.2153 13.0108 15.874 12.8403C15.5326 12.6697 15.0205 12.4991 14.6791 12.8403C14.3378 13.0108 13.9964 13.1814 13.655 13.1814C12.4602 13.352 12.6309 13.6931 12.9723 14.0343C13.143 14.2049 12.2895 14.546 12.4602 14.7166C13.143 15.2283 12.8016 15.74 12.8016 16.4223C12.8016 16.7635 12.8016 17.1046 13.143 17.2752C13.655 17.787 13.655 18.1281 12.2895 18.2987C12.1188 18.2987 11.9481 18.4693 11.9481 18.6398C11.9481 18.981 11.9481 19.3221 11.7775 19.6633C11.7775 20.0044 12.1188 20.175 12.8016 20.3456C13.143 20.3456 13.143 20.5162 12.9723 20.6867C12.8016 20.8573 12.4602 21.0279 12.6309 21.1985C13.143 21.5396 12.6309 21.8808 12.4602 22.3925C12.2895 22.3925 11.9481 22.7336 11.9481 22.9042C11.9481 23.2454 12.2895 23.5865 12.6309 23.9277C13.143 24.2688 12.9723 24.7806 12.8016 25.2923L12.4602 25.4629C11.7775 25.1217 11.6068 25.2923 11.4361 25.6334C11.2654 26.3157 11.6068 26.8275 10.924 27.5098C10.7533 27.6803 11.4361 28.3626 11.9481 28.5332C12.9723 28.7038 12.6309 29.0449 12.2895 29.3861L12.1188 29.5567C12.6309 29.8978 12.6309 30.239 12.6309 30.4096C12.2895 30.4096 12.1188 30.4096 11.7775 30.239C11.4361 30.0684 11.0947 29.7273 10.7533 29.7273C10.0706 29.5567 10.0706 30.4096 9.89989 30.7507C9.55851 31.2624 9.04645 31.7742 8.70507 32.2859C8.19301 32.7976 7.85163 32.7976 7.16888 32.4565C6.14476 32.1153 5.29132 33.1388 4.0965 32.7976C3.92582 32.7976 3.75513 32.9682 3.58444 33.1388V33.4799C3.58444 33.6505 3.75513 34.1622 3.92582 34.1622C5.12063 34.3328 6.31544 34.6739 7.33957 33.8211C7.85163 33.4799 8.19301 33.6505 8.70507 33.9916C9.04645 34.1622 9.55851 34.3328 9.7292 34.3328C10.0706 33.8211 10.5826 33.8211 11.0947 33.6505C11.0947 33.8211 11.0947 33.9916 11.4361 34.1622C12.4602 34.6739 12.6309 35.3562 12.2895 35.868C11.4361 35.868 10.5826 35.868 9.55851 35.868C9.04645 35.868 8.70507 36.3797 8.3637 36.7209C8.19301 36.8914 8.02232 37.2326 8.3637 37.4032C8.70507 37.7443 9.04645 38.0855 9.55851 38.256C10.0706 38.4266 10.5826 38.256 10.924 38.256C11.2654 38.256 11.7774 38.256 11.9481 38.4266C12.2895 38.7678 12.8016 39.1089 12.9723 39.4501C12.9723 39.7912 12.4602 40.4735 12.1188 40.4735C11.0947 40.6441 10.2413 40.6441 9.21713 40.6441C8.53438 40.6441 8.19301 40.9852 8.02232 41.8381C7.68094 42.8616 6.65682 43.2027 6.48613 44.3968C6.31544 45.2496 6.31544 45.7614 6.99819 46.1025C7.51026 46.2731 8.02232 46.4437 8.70507 46.6142C8.53438 48.1494 9.38782 47.8083 10.2413 47.9788C10.924 47.9788 11.2654 47.4671 11.9481 47.2965C12.4602 46.9554 12.9723 47.8083 13.4843 47.8083C13.655 47.8083 13.9964 47.8083 14.1671 47.6377C14.6791 47.2965 15.1912 47.126 15.874 47.126C18.4343 47.126 20.9946 47.4671 23.3842 46.4437C23.5549 46.4437 23.5549 46.4437 23.7256 46.4437C23.7256 46.6142 23.5549 46.6142 23.3842 46.7848C23.3842 46.7848 23.2135 46.7848 23.2135 46.9554C22.1894 47.126 21.336 47.2965 20.3118 47.4671C20.1411 47.4671 19.9705 47.4671 19.6291 47.6377H19.7998C19.117 47.8083 18.605 48.1494 18.0929 48.4906C18.2636 49.1729 18.4343 49.6846 18.7756 50.0258C17.2395 50.1963 15.874 50.7081 14.5085 51.3904C14.3378 51.3904 14.3378 51.3904 14.1671 51.3904C13.655 51.5609 13.3136 51.9021 12.8016 51.9021C12.2895 52.0727 11.9481 51.0492 11.2654 51.7315C10.924 52.0727 10.5826 51.2198 10.0706 51.2198C9.7292 51.2198 9.38782 51.2198 9.04645 51.2198C8.87576 51.2198 8.87576 51.3904 8.70507 51.3904C8.02232 51.9021 7.51026 52.755 6.65682 52.9255C6.48613 52.9255 6.48613 53.2667 6.82751 53.4373C7.16888 53.6078 7.68095 53.4373 7.51026 53.949C7.51026 54.2901 6.82751 54.8019 6.82751 54.8019C5.97407 54.2901 5.12063 55.3136 4.60857 54.9725C3.58444 54.1196 3.07238 54.8019 2.731 55.6547C2.56032 56.5076 2.04825 56.6782 1.3655 56.6782C1.02413 56.6782 0.682751 56.6782 0.341375 56.6782C0.170688 56.6782 0 57.0194 0 57.1899L0.170688 57.5311C0.682751 57.8722 1.19481 58.2134 1.70688 58.5545C2.731 59.2368 4.0965 59.4074 4.26719 61.1132C4.26719 61.2837 4.77925 61.4543 5.12063 61.6249C5.46201 61.7955 5.97407 61.7955 6.14476 61.9661C6.31544 62.3072 6.48613 62.9895 6.31544 63.5012C6.31544 64.013 5.97407 64.3541 5.80338 64.8658C6.48613 65.0364 6.82751 65.8893 7.33957 66.2304C8.02232 66.7422 9.04645 66.401 9.7292 67.0833C10.0706 67.4245 10.7533 67.2539 10.7533 66.5716C10.924 65.8893 11.2654 65.7187 11.7775 65.7187C12.8016 65.7187 13.655 64.5247 14.8498 64.6953C14.8498 64.6953 15.1912 64.3541 15.1912 64.013C15.1912 63.8424 15.0205 63.5012 14.8498 63.3307C14.5085 62.9895 13.9964 62.8189 13.655 62.6484C13.3136 62.3072 13.143 61.7955 12.9723 61.2838C12.9723 60.772 13.143 60.0897 13.655 60.0897C14.3378 60.0897 15.1912 60.0897 15.874 60.0897C16.5567 60.0897 16.8981 60.6014 16.5567 61.4543C16.0446 62.6484 16.2153 62.6484 17.0688 63.3307C17.4101 63.5012 17.5808 63.8424 17.9222 64.1835C18.2636 64.5247 18.4343 64.8658 19.117 64.3541C20.1411 63.6718 21.336 63.6718 22.1894 64.1835C23.3842 65.0364 24.9204 64.3541 25.9445 65.0364C27.31 65.8893 28.5048 65.207 29.8703 65.5481C30.2117 65.5481 30.5531 65.5481 30.8945 65.5481C31.2358 65.5481 31.7479 65.7187 31.9186 65.8893C32.772 66.9127 33.9669 67.2539 35.1617 67.0833C36.5272 68.2774 38.0634 68.2774 39.5995 67.4245C39.7702 67.4245 40.1116 67.7656 40.453 67.9362C40.7943 68.2774 40.6237 68.6185 40.2823 68.6185C39.5995 68.7891 38.9168 69.642 38.0633 68.6185H37.722C37.0392 69.3008 36.5272 69.3008 35.8444 68.6185C35.6737 68.4479 35.3324 68.6185 35.1617 68.7891C35.1617 68.7891 35.1617 68.9597 35.1617 69.1302C35.6737 71.0066 36.0151 71.1771 37.722 70.6654C39.2582 70.1537 40.7944 69.9831 43.0133 70.6654C43.5254 70.836 44.0374 69.9831 44.5495 70.6654C44.8909 71.0066 45.2322 70.4948 45.4029 70.3243C45.7443 70.1537 46.0857 70.1537 46.427 70.4948C46.9391 71.0066 47.4512 71.0066 47.9632 70.4948C48.4753 69.9831 49.1581 69.9831 49.6701 70.1537C51.0356 70.4948 52.2304 71.5183 53.5959 70.1537C53.7666 69.9831 54.2787 70.3243 54.6201 70.4948C55.3028 71.0066 56.1562 71.0066 56.6683 70.6654C58.0338 69.8125 59.3993 70.1537 60.9355 69.9831C63.3251 69.9831 65.7148 69.8125 68.2751 69.9831C68.9578 69.9831 69.6406 69.8125 70.3233 69.4714C71.1768 70.3243 71.8595 69.9831 72.5423 69.3008C74.0784 69.8125 75.2733 68.2774 76.8094 68.4479C77.6629 68.4479 78.5163 68.2774 79.3698 68.4479C80.3939 68.6185 81.0766 67.595 82.1008 67.595C82.6128 67.595 83.2956 67.595 83.8076 67.2539C85.0025 66.5716 86.1973 66.5716 87.2214 67.0833C88.0748 67.595 88.7576 67.595 89.611 67.2539C90.8058 66.7422 91.83 65.8893 93.1955 66.7422C93.3661 66.7422 93.7075 66.5716 93.8782 66.5716C94.7317 65.8893 95.4144 65.8893 96.2678 66.5716C96.7799 67.0833 97.4627 67.2539 97.9747 66.9128C98.9988 66.0599 100.023 66.2304 101.047 66.2304C102.071 66.2304 102.925 66.2304 103.778 65.7187C104.802 65.207 106.168 65.207 107.192 65.8893C108.045 66.401 109.069 66.401 109.923 65.8893C110.435 65.5481 110.776 65.5481 111.288 65.5481C111.971 65.3776 112.142 66.5716 112.825 65.8893C113.507 65.3776 850.957 65.2069 851.64 65.2069C853.859 65.2069 856.078 65.2069 858.126 65.2069C865.978 65.2069 873.659 65.2069 881.51 65.2069C882.193 65.2069 883.047 65.3775 883.559 64.8658C884.241 64.3541 885.095 65.5481 885.778 64.5246C886.631 64.5246 887.484 64.5246 888.338 64.5246C890.215 64.5246 892.264 64.5246 894.141 64.5246C894.824 64.5246 895.507 64.6952 895.848 64.3541C896.702 63.6718 897.726 63.8423 898.579 63.8423C899.262 63.8423 900.115 64.0129 900.798 63.6718C901.993 62.9895 903.188 63.16 904.382 63.16C905.577 63.16 906.943 63.16 908.138 63.16C909.332 63.5012 910.527 64.0129 911.722 64.8658L910.527 64.1835C910.357 63.8423 911.21 63.6718 911.893 63.5012C911.722 63.5012 911.722 63.3306 911.551 63.3306C914.282 63.3306 916.843 63.3306 919.574 63.3306C920.598 63.3306 921.622 63.3306 922.817 62.8189C923.841 62.3072 925.206 62.6483 926.401 62.6483C928.449 64.0129 930.668 63.16 932.887 63.16C934.253 62.1366 935.618 62.4777 937.154 62.4777C938.179 62.4777 939.544 62.6483 940.398 62.1366C940.568 61.966 940.739 61.966 941.08 61.7954C942.446 62.1366 944.494 62.6483 947.908 62.9895C954.052 62.1366 961.392 60.9426 968.731 61.2837C971.292 61.4543 973.681 62.6483 973.34 63.3306C976.583 63.16 981.021 63.16 984.264 63.3306C998.26 60.6014 982.557 58.2133 977.266 57.8722ZM969.585 38.7677C969.585 38.5971 969.926 38.7677 969.926 38.7677C969.926 38.7677 969.585 38.7677 969.926 38.9383C969.926 38.9383 969.585 38.9383 969.414 39.1089C969.073 38.9383 969.926 38.9383 969.585 38.7677ZM967.195 38.5971C967.366 38.5971 967.537 38.5971 967.707 38.5971C967.537 38.7677 967.366 38.7677 967.195 38.9383C966.854 38.7677 967.195 38.5971 967.195 38.5971ZM966.171 38.5971C966 38.7677 966.512 38.5971 966.683 38.5971C966.854 38.5971 966.513 38.7677 966.854 38.7677C966.854 38.9383 966.342 38.7677 966.342 38.9383C966 38.9383 966.171 38.7677 966 38.9383C965.83 38.9383 966.171 38.9383 966 39.1089C966 39.1089 965.83 39.1089 965.659 39.1089C965.659 39.1089 965.83 38.9383 965.659 38.9383C965.318 39.1089 965.488 39.1089 964.976 38.9383C964.976 38.7677 965.318 38.7677 965.488 38.7677C965.488 38.7677 965.318 38.7677 965.147 38.7677C965.488 38.4266 965.659 38.5971 966.171 38.5971ZM964.635 38.4266C964.806 38.4266 964.976 38.4266 964.976 38.4266C964.976 38.5971 964.806 38.5971 964.635 38.4266C964.635 38.5971 964.806 38.7677 964.464 38.5971V38.4266C964.464 38.5971 964.635 38.5971 964.635 38.4266ZM966.342 36.5502C966.683 36.7208 967.025 36.5502 967.195 36.7208C966.683 36.7208 966.342 36.8914 966.171 36.7208C966.171 36.7208 966.513 36.7208 966.342 36.5502ZM976.242 24.2689C975.729 24.0983 976.583 24.2689 976.242 24.2689C976.412 24.0983 976.754 24.2689 977.095 24.2689C977.095 24.2689 976.924 24.2689 976.754 24.2689C976.583 24.2689 976.754 24.4395 976.583 24.4395C976.412 24.4395 976.583 24.2689 976.242 24.2689ZM976.754 24.7807C976.412 24.9512 976.754 24.6101 977.266 24.7807C977.266 24.7807 976.754 24.6101 976.754 24.7807ZM977.607 24.9512C977.436 24.9512 977.436 25.1218 977.607 24.9512C977.266 25.1218 977.436 24.9512 977.266 24.9512C977.436 24.9512 977.778 24.9512 977.948 24.9512C977.778 24.9512 977.607 24.9512 977.607 24.9512ZM977.948 24.2689C977.948 24.0983 978.29 24.2689 978.802 24.2689C978.802 24.4395 978.119 24.2689 977.948 24.2689ZM978.29 24.0983C977.778 24.0983 977.778 24.0983 977.436 23.9278C977.436 23.7572 977.778 23.9278 977.948 23.9278C978.461 23.5866 978.973 23.9278 979.655 23.7572C979.826 23.9278 979.997 23.7572 980.338 23.9278C979.826 24.0983 978.631 23.9278 978.29 24.0983ZM980.509 23.9278C980.509 23.7572 980.679 23.7572 980.85 23.7572C981.021 23.7572 981.021 23.9278 981.021 23.9278C980.679 23.9278 980.509 23.9278 980.509 23.9278ZM987.166 22.5632C987.336 22.7337 987.166 22.7337 987.166 22.9043C986.653 22.9043 986.824 22.7337 986.312 22.9043C986.141 22.7337 986.653 22.9043 986.653 22.7337C986.653 22.5632 985.971 22.7337 986.141 22.5632C986.654 22.5632 986.824 22.5632 987.166 22.5632ZM995.017 21.5397C995.017 21.7103 994.676 21.7103 994.505 21.7103C994.334 21.5397 994.676 21.5397 995.017 21.5397ZM991.262 21.5397C990.921 21.7103 990.75 21.5397 990.409 21.5397V21.3691C990.75 21.3691 991.091 21.3691 991.262 21.5397ZM985.971 22.7337C985.8 22.7337 985.629 22.7337 985.459 22.7337C985.288 22.5632 985.971 22.3926 985.971 22.7337ZM985.117 21.7103C985.288 21.8809 984.435 21.8809 984.605 21.8809C984.435 21.7103 984.947 21.8809 985.117 21.7103ZM983.41 21.3691C983.24 21.5397 982.728 21.3691 982.557 21.3691C982.557 21.1986 983.24 21.3691 983.41 21.3691ZM983.581 23.9278C983.41 23.9278 982.898 23.9278 982.728 23.7572C983.069 23.9278 983.41 23.7572 983.581 23.9278ZM982.728 25.9747C982.557 26.1453 982.557 26.1453 982.728 26.3158C982.216 26.3158 982.045 26.1453 981.874 26.3158C981.533 26.3158 981.021 25.8041 981.703 25.8041C981.533 26.1453 982.557 25.8041 982.728 25.9747ZM982.216 25.6335C982.216 25.8041 981.703 25.6335 981.874 25.8041C981.703 25.8041 981.533 25.8041 981.362 25.8041C981.362 25.463 982.045 25.463 982.216 25.6335ZM981.874 23.9278C981.874 24.0983 981.362 23.9278 981.192 23.9278C981.192 23.7572 981.703 23.7572 981.874 23.9278ZM978.973 22.7337C979.485 22.7337 979.826 22.7337 980.338 22.7337C980.338 22.9043 980.679 22.9043 981.021 22.9043C981.192 22.9043 980.509 22.9043 980.85 23.0749C980.509 23.0749 980.338 22.9043 979.997 23.0749V22.9043C979.655 22.7337 979.485 22.7337 978.973 22.7337C978.973 22.9043 978.973 22.9043 978.973 22.9043C978.802 22.9043 979.143 22.7337 978.973 22.7337ZM978.461 22.7337C978.631 22.5632 978.631 22.9043 978.802 22.7337C978.802 22.9043 978.29 22.9043 978.119 22.9043C977.778 22.7337 978.802 22.9043 978.461 22.7337ZM976.071 22.5632C976.242 22.7337 976.071 22.7337 975.9 22.9043C975.559 22.9043 975.388 22.9043 975.388 22.5632C975.729 22.7337 975.9 22.5632 976.071 22.5632ZM975.217 22.7337C975.047 22.9043 975.559 22.9043 975.559 23.0749C974.876 22.9043 974.193 22.7337 973.511 22.7337C973.852 22.5632 974.705 22.9043 975.217 22.7337ZM928.108 6.18783C928.449 6.18783 928.791 6.18783 928.961 6.18783V6.35841C928.791 6.52898 928.62 6.52898 928.279 6.52898C928.108 6.52898 928.108 6.52898 928.108 6.35841C927.937 6.35841 928.108 6.18783 928.108 6.18783ZM920.427 6.52898C919.915 6.52898 919.574 6.69956 919.403 6.69956C918.549 6.69956 918.208 6.69956 917.867 6.35841V6.18783C918.037 6.01725 918.208 6.01725 918.208 6.01725C918.549 6.01725 918.72 6.18783 919.062 6.35841C919.574 6.52898 920.256 6.18783 920.427 6.52898ZM917.355 5.33495C917.355 5.33495 917.696 5.33495 917.867 5.16437C917.867 4.9938 918.037 4.9938 918.037 4.9938C918.208 4.9938 918.379 4.9938 918.208 5.16437C918.037 5.16437 917.867 5.16438 917.696 5.33495C917.696 5.33495 917.696 5.33495 917.696 5.50553C917.696 5.50553 917.696 5.6761 917.525 5.6761C917.525 5.50553 917.355 5.33495 917.355 5.33495ZM11.7775 61.4543C11.7775 61.4543 11.6068 61.2837 11.6068 61.1132C11.6068 61.1132 11.6068 61.1132 11.6068 60.9426V60.772C11.6068 60.772 11.6068 60.772 11.7775 60.772C11.7775 60.772 11.7774 60.772 11.9481 60.772C12.1188 61.1132 12.1188 61.2838 11.7775 61.4543ZM959.002 39.6206C959.173 39.6206 959.173 39.7912 959.002 39.6206C959.002 39.7912 959.002 39.7912 959.002 39.6206C956.271 39.9618 955.418 40.8146 955.247 41.6675C954.735 41.6675 954.052 41.6675 953.711 41.4969C953.37 41.4969 952.858 41.8381 952.687 41.4969C952.346 41.4969 952.516 41.6675 952.175 41.6675C952.004 41.6675 952.175 41.3264 952.004 41.3264C952.004 41.4969 951.663 41.3264 951.492 41.4969C951.321 41.3264 950.809 41.3264 950.639 41.1558C950.98 41.1558 951.663 40.9852 951.321 40.8146C950.98 41.1558 950.468 41.1558 949.785 41.1558C949.614 41.1558 949.273 40.9852 949.102 40.9852C949.102 40.9852 948.932 40.9852 948.932 40.8146C948.761 40.8146 948.761 40.8146 948.761 40.8146C948.59 40.8146 948.42 40.6441 948.249 40.6441C948.249 40.6441 948.249 40.644 948.249 40.4735C948.42 40.4735 948.59 40.4735 948.59 40.4735C948.59 40.1323 948.078 40.1323 947.566 40.1323C947.737 40.1323 947.737 39.9618 947.908 39.9618C948.249 39.9618 948.761 39.9618 949.444 39.9618C949.615 39.7912 949.444 39.7912 949.273 39.7912C949.444 39.6206 949.785 39.6206 950.127 39.7912C950.127 39.9617 950.127 39.9618 949.956 40.1323C949.785 40.1323 949.615 40.1323 949.615 40.1323C949.615 40.1323 949.614 40.3029 949.785 40.3029H949.956C949.956 40.1323 949.956 40.1323 950.127 40.1323C950.127 40.3029 950.127 40.3029 949.956 40.4735H949.785C949.444 40.4735 949.273 40.6441 948.932 40.6441C948.761 40.8146 949.103 40.8146 948.761 40.8146C949.103 40.8146 949.444 40.8146 949.102 40.6441C949.273 40.6441 949.615 40.6441 949.956 40.6441C949.956 40.6441 950.297 40.8146 950.468 40.9852C950.468 40.8146 950.468 40.8146 950.639 40.6441C950.98 40.6441 951.321 40.644 951.492 40.4735C951.321 40.4735 951.321 40.4735 951.151 40.4735C951.151 40.4735 950.98 40.6441 950.639 40.6441C950.639 40.4735 950.639 40.4735 950.809 40.3029C950.98 40.3029 951.151 40.3029 951.151 40.3029C950.98 40.3029 950.809 40.3029 950.809 40.3029L950.639 40.1323C951.151 40.1323 951.492 40.1323 951.833 39.9618C951.663 39.9618 951.321 39.9617 950.98 39.7912C952.687 39.7912 953.54 39.7912 955.247 39.7912L955.077 39.9618C955.418 39.9618 955.589 39.7912 956.101 39.7912C956.101 39.7912 956.101 39.9618 956.271 39.9618C956.271 39.9618 956.442 39.9618 956.613 39.9618C956.613 39.7912 956.271 39.9617 956.271 39.7912C956.783 39.6206 957.637 39.7912 958.32 39.6206C958.49 39.7912 959.002 39.7912 959.173 39.7912C959.344 39.6206 959.002 39.45 959.344 39.45C959.173 39.2794 959.685 39.45 959.002 39.6206ZM965.318 34.8446C965.318 35.0152 964.976 34.8446 964.976 34.8446C964.976 34.8446 965.318 34.674 965.318 34.8446ZM965.147 34.674C964.806 34.5035 964.123 34.674 963.781 34.8446C963.611 34.674 963.44 34.674 963.099 34.5035C963.099 34.5035 963.269 34.674 963.099 34.674C962.757 34.674 962.757 34.5035 962.416 34.5035C962.416 34.674 962.416 34.674 962.245 34.674C961.904 34.1623 961.563 33.9917 961.221 33.6506C961.733 33.48 962.245 33.6506 962.587 33.6506C962.928 33.6506 962.416 33.48 962.587 33.48C963.611 33.6506 964.635 33.9917 965.318 34.5035L965.147 34.674ZM951.663 33.9917H951.833C951.833 33.9917 951.833 33.9917 951.663 33.9917ZM952.858 35.6975C953.199 35.6975 953.199 35.6975 953.37 35.6975C953.37 35.6975 953.37 35.6975 953.37 35.8681C953.199 35.8681 952.858 35.8681 952.858 35.6975ZM959.685 39.2794C959.514 39.2794 959.514 39.1089 959.344 39.1089C959.344 39.1089 959.856 39.2794 959.685 39.2794ZM961.051 38.9383C961.051 39.1089 960.88 39.1089 961.051 39.2794C960.709 39.2794 960.197 39.2794 960.197 39.1089C960.88 39.2794 960.709 39.1089 961.051 38.9383ZM964.294 36.5502C964.123 36.5502 963.952 36.7208 963.781 36.5502C963.781 36.3797 964.123 36.5502 964.123 36.3797C963.781 36.3797 963.782 36.2091 963.44 36.3797C963.269 36.7208 961.904 36.7208 962.075 36.3797C961.733 36.5502 961.392 36.5502 961.904 36.5502C961.563 36.5502 960.88 36.5502 961.051 36.7208C961.051 36.5502 960.709 36.7208 960.709 36.5502C960.709 36.3797 961.221 36.5502 961.221 36.3797C961.221 36.2091 960.539 36.3797 960.539 36.3797C960.88 36.3797 960.538 36.2091 960.88 36.2091C960.709 36.3797 961.05 36.3797 961.221 36.2091C961.05 36.3797 961.221 36.3797 961.563 36.3797C961.221 36.2091 961.392 36.2091 961.733 36.0385C961.221 36.0385 960.539 36.0385 960.026 36.0385C960.197 36.0385 959.685 36.2091 959.685 36.2091C959.002 36.3797 958.661 36.0385 957.978 36.2091C958.149 36.2091 957.978 36.0385 957.978 36.0385H958.149C958.32 36.0385 958.832 36.0385 958.832 36.0385C958.661 36.0385 958.832 36.0386 958.832 35.8681C958.661 35.8681 958.49 35.8681 958.32 35.8681C958.32 35.8681 958.49 35.6975 958.49 35.5269C958.49 35.5269 958.49 35.5269 958.661 35.5269C958.661 35.5269 958.661 35.6975 958.832 35.6975C959.002 35.6975 959.514 35.6975 959.344 35.5269C958.661 35.6975 959.002 35.3563 958.661 35.1858V35.0152C958.832 35.0152 959.173 35.0152 959.344 35.0152C959.173 35.0152 959.173 35.0152 959.344 35.0152C959.685 35.0152 959.856 35.0152 960.026 35.1858C960.026 35.0152 960.026 35.0152 960.368 35.0152C960.368 34.8446 960.197 34.8446 960.197 34.8446C960.538 34.8446 960.88 34.8446 961.051 34.8446C961.221 34.8446 961.392 35.0152 961.392 35.1858C961.392 35.1858 961.392 35.1858 961.563 35.3563C960.88 35.5269 960.026 35.3563 959.685 35.3563C959.856 35.5269 960.368 35.3563 960.539 35.5269C959.856 35.5269 959.514 35.3563 959.173 35.3563C959.173 35.5269 959.685 35.6975 960.026 35.6975C960.197 36.0387 959.173 35.8679 959.002 36.0385C959.514 36.0385 960.026 35.8681 960.368 35.6975C960.709 35.8681 961.051 35.8681 961.733 35.8681C961.392 35.6975 961.563 35.8681 961.563 35.5269C961.392 35.5269 961.221 35.6975 961.221 35.5269C961.221 35.3563 961.733 35.3563 961.733 35.3563C961.904 35.3563 962.075 35.5269 962.245 35.3563H962.416C962.587 35.3563 962.587 35.5269 962.587 35.5269C962.245 35.5269 962.075 35.5269 961.733 35.5269C961.904 35.6975 961.733 35.8681 962.075 35.8681C962.075 35.6975 961.904 35.6975 961.904 35.6975C962.245 35.6975 962.757 35.6975 962.757 35.8681C962.757 35.6975 963.952 35.8681 963.44 35.6975C963.611 35.6975 963.781 35.6975 963.781 35.6975C963.781 35.8681 963.781 35.8679 963.781 36.0385C964.123 36.2091 964.294 36.3797 964.294 36.5502C964.464 36.5502 964.294 36.3797 964.294 36.5502ZM964.294 36.3797C964.464 36.2091 964.635 36.3797 964.635 36.2091C965.147 36.2091 965.147 36.2091 965.488 36.2091C965.318 36.3797 964.806 36.3797 964.294 36.3797ZM964.976 36.3797C965.488 36.3797 964.806 36.5502 964.635 36.5502C964.635 36.3797 964.806 36.3797 964.976 36.3797C965.147 36.3797 965.488 36.3797 965.659 36.3797C965.659 36.5502 965.318 36.3797 964.976 36.3797ZM964.294 35.5269C964.294 35.6975 964.464 35.6975 964.294 35.5269C964.123 35.5269 963.782 35.6975 963.44 35.6975C963.44 35.5269 963.44 35.5269 963.099 35.5269C963.269 35.6975 962.587 35.6975 962.587 35.5269V35.6975C962.416 35.5269 963.099 35.5269 962.757 35.5269C962.757 35.5269 962.587 35.5269 962.416 35.5269C962.587 35.3563 962.587 35.3563 962.587 35.3563C962.757 35.3563 962.587 35.5269 962.928 35.5269C962.928 35.3563 963.44 35.1858 963.611 35.3563C963.611 35.5269 963.269 35.3563 963.611 35.5269C963.781 35.3563 964.294 35.5269 964.294 35.1858C964.806 35.3563 964.806 35.1858 965.318 35.1858C965.488 35.0152 965.318 35.0152 965.318 35.0152C965.488 35.0152 965.659 35.0152 965.659 35.0152C965.83 35.1858 966 35.3563 966.171 35.5269C965.83 35.6975 964.806 35.6975 964.294 35.5269ZM971.804 29.8979C971.804 29.5568 972.316 29.7273 972.828 29.7273C972.657 29.8979 971.974 29.8979 971.804 29.8979ZM974.705 29.7273C974.705 29.7273 974.876 29.7273 975.047 29.7273V29.8979H975.217C975.047 30.0685 974.535 29.8979 974.705 29.7273C974.023 29.8979 973.34 29.7273 972.657 29.5568C973.169 29.5568 973.852 29.3862 974.535 29.3862C974.535 29.3862 974.193 29.3862 974.364 29.5568C974.535 29.5568 974.705 29.5568 974.705 29.7273ZM976.071 26.1453C976.242 26.1453 976.412 26.1453 976.583 26.1453H976.071C975.9 26.1453 975.9 26.1453 976.071 26.1453ZM975.9 26.3158L975.388 26.4864C975.217 26.4864 975.217 26.4864 975.217 26.3158C975.388 26.3158 975.729 26.1453 975.9 26.3158ZM971.804 25.6335C971.974 25.8041 972.145 25.8041 971.974 25.6335C972.316 25.8041 973.169 25.6335 973.34 25.8041C973.34 25.9747 973.169 25.9747 973.34 26.1453C972.828 26.3158 971.974 26.3158 971.292 26.3158C971.292 26.4864 971.462 26.4864 971.462 26.4864C971.462 26.3158 971.462 26.3158 971.804 26.3158C971.974 26.4864 971.974 26.4864 971.804 26.4864C971.974 26.4864 972.316 26.4864 972.316 26.4864C972.145 26.4864 971.974 26.4864 971.974 26.4864C971.974 26.657 972.828 26.8276 972.998 26.657C972.828 26.657 972.828 26.657 972.657 26.4864C972.828 26.4864 972.828 26.4864 972.998 26.3158C973.34 26.3158 973.169 26.4864 973.34 26.4864C973.511 26.3158 973.511 26.657 973.511 26.657C973.511 26.657 973.681 26.4864 973.852 26.4864C973.852 26.4864 973.852 26.4864 973.852 26.657L973.169 26.8276C973.169 26.8276 973.169 26.657 972.998 26.8276C971.974 26.657 971.292 26.4864 970.78 26.3158C970.95 26.3158 971.121 26.1453 971.292 26.1453C970.95 26.1453 970.438 25.9747 970.097 25.8041C970.097 25.6335 970.097 25.6335 970.097 25.463C970.097 25.463 970.097 25.463 970.268 25.463C970.268 25.463 970.097 25.463 970.268 25.6335C971.121 25.6335 970.609 25.9747 971.462 25.9747C971.633 25.9747 971.633 25.8041 971.974 25.6335C971.462 25.8041 971.633 25.6335 971.804 25.6335ZM972.828 23.5866C972.999 23.416 972.998 23.416 973.169 23.416C973.169 23.5866 972.999 23.5866 972.828 23.5866ZM973.169 22.9043C972.828 22.9043 972.999 22.7337 972.657 22.9043C972.486 22.7337 973.34 22.7337 973.169 22.9043ZM967.366 21.1986C967.537 21.028 967.878 21.1986 967.878 21.3691C967.366 21.3691 967.537 21.1986 967.366 21.1986ZM955.077 23.9278C955.077 24.0983 954.906 24.0983 954.735 24.2689C954.735 24.0983 954.735 24.0983 954.735 23.9278C954.906 23.9278 954.906 23.9278 955.077 23.9278ZM886.46 12.4991C886.46 12.6697 886.119 12.8403 885.948 12.8403C885.266 12.8403 884.583 12.8403 883.9 12.6697C883.729 12.6697 883.729 12.4991 883.729 12.3286C883.559 12.3286 883.388 12.3286 883.388 12.158C883.217 11.9874 883.388 11.9874 883.559 11.9874C883.559 12.158 883.559 12.158 883.559 12.3286C883.729 12.3286 883.9 12.3286 884.071 12.158C884.753 11.8168 885.266 11.8168 885.778 12.158C885.948 12.3286 886.119 12.3286 886.46 12.4991C886.46 12.3286 886.46 12.3286 886.46 12.4991C886.631 12.3286 886.631 12.3286 886.802 12.158C886.972 12.158 887.143 12.158 886.972 12.3286C886.802 12.3286 886.631 12.3286 886.46 12.4991ZM882.876 8.74647H882.705C882.534 8.74647 882.364 8.57589 882.193 8.57589C882.022 8.57589 882.022 8.40531 882.022 8.23474C882.193 8.23474 882.364 8.23474 882.534 8.23474C882.876 8.23474 883.217 8.40531 883.047 8.57589C883.047 8.57589 883.047 8.74647 882.876 8.74647ZM923.329 16.2518C922.987 16.2518 922.817 16.2518 922.475 16.0812V15.9106C922.646 15.9106 922.817 15.9106 922.987 16.0812C923.158 16.2518 923.329 16.2518 923.329 16.2518ZM914.453 5.84668C915.307 5.6761 915.818 6.18783 916.672 6.35841C916.843 6.35841 916.843 6.52898 916.843 6.52898C916.672 6.52898 916.501 6.52898 916.16 6.69956C915.819 6.69956 915.648 6.87013 915.648 7.04071C915.989 7.04071 916.16 7.04071 916.501 7.04071C916.672 7.04071 916.672 7.04071 916.672 7.21128C916.672 7.21128 916.501 7.38186 916.331 7.38186C915.989 7.38186 915.648 7.38186 915.477 7.38186C915.648 7.55244 915.819 7.72301 915.989 7.89359C916.16 8.06416 916.16 8.23474 916.16 8.23474C915.648 8.74646 914.965 9.08762 913.941 9.25819C913.77 9.25819 913.6 9.08762 913.429 9.08762C913.941 8.74647 914.282 8.57589 913.77 8.06416C913.258 7.72301 912.746 7.55244 911.893 7.55244C911.722 7.55244 911.722 7.55244 911.551 7.38186C911.551 7.38186 911.551 7.38186 911.381 7.38186H911.551H911.722C912.917 7.38186 914.282 7.38186 915.477 7.38186C915.477 7.21128 915.477 7.21128 915.477 7.04071C914.624 6.87013 914.282 6.52898 913.77 6.18783L913.6 6.01725C913.941 6.01725 914.282 5.84668 914.453 5.84668ZM909.503 5.6761L909.674 5.50553H909.844C910.186 5.84668 910.357 6.01725 910.698 6.18783C911.21 6.52898 911.381 6.18783 911.381 6.01725L911.722 5.84668C911.722 6.01725 911.893 6.01725 911.893 6.18783C911.893 6.87013 911.722 6.87013 910.186 6.87013C909.332 6.87013 909.162 6.69956 909.162 6.35841C909.332 6.18783 909.503 5.84668 909.503 5.6761ZM904.041 6.01725H904.212C904.382 6.18783 904.382 6.18783 904.041 6.01725C904.041 6.18783 903.87 6.18783 903.87 6.18783L904.041 6.01725ZM902.846 8.23474C903.017 8.06416 903.188 7.89359 903.7 7.89359C904.212 7.89359 904.724 7.89359 905.065 7.89359C906.26 8.23474 907.455 8.23474 908.65 8.40531C908.82 8.40531 908.991 8.57589 908.991 8.57589C908.991 8.74647 908.991 8.91704 908.479 9.08762C907.967 9.08762 907.626 9.25819 907.626 9.42877C908.308 9.59934 908.991 10.1111 910.015 9.59934C910.527 9.42877 911.381 9.59934 912.063 9.59934C912.234 9.59934 912.405 9.76992 912.405 9.9405C912.576 10.1111 912.234 10.2816 911.893 10.2816C909.332 10.2816 906.772 10.1111 904.212 10.1111C903.7 10.1111 903.358 9.9405 903.358 9.59934C903.358 9.42877 903.017 9.25819 902.846 9.08762C902.676 9.08762 902.334 8.91704 902.334 8.74647C902.334 8.57589 902.676 8.40531 902.846 8.23474ZM880.316 6.18783C880.828 6.18783 881.169 6.35841 881.51 6.52898C882.022 6.69956 882.534 6.69956 883.217 6.52898C883.388 6.52898 883.729 6.35841 883.729 6.35841C885.266 7.04071 887.143 6.52898 888.85 6.69956C889.874 6.87013 891.069 6.69956 892.264 7.04071C892.946 7.21128 894.141 7.21128 894.995 7.21128C896.872 7.21128 898.75 7.21128 900.286 7.72301C900.798 7.89359 901.651 7.55244 901.993 8.06416C901.31 8.40531 900.627 8.06416 899.945 8.23474C899.433 8.23474 898.75 8.23474 898.238 8.23474C897.384 8.23474 896.36 8.23474 895.507 8.23474C894.824 8.23474 894.141 8.23474 893.458 8.40531C892.946 8.57589 892.264 8.57589 891.922 8.40531C891.41 8.06416 890.898 8.40531 890.557 8.40531C890.045 8.23474 889.533 8.06416 889.021 7.89359C888.509 7.72301 887.997 7.72301 887.314 7.72301C886.631 7.55243 885.948 8.06416 885.436 7.89359C884.753 7.55244 883.9 7.72301 883.047 7.72301C882.364 7.72301 881.681 7.72301 880.998 7.72301C880.316 7.72301 879.804 7.55244 879.462 7.38186C879.291 7.21128 879.121 7.04071 879.121 6.87013C879.121 6.18783 879.803 6.18783 880.316 6.18783ZM868.367 2.94691C868.709 2.77633 869.05 2.43518 869.562 2.77633C869.904 2.94691 870.074 2.60576 870.416 2.77633C870.586 2.77633 870.928 2.94691 870.757 2.94691C870.757 3.11748 870.586 3.28806 870.416 3.45864C870.245 3.45864 869.733 3.45864 869.562 3.45864C869.221 3.45864 868.88 3.45864 868.538 3.45864C868.197 3.11748 868.197 3.11748 868.367 2.94691ZM864.783 3.97036H864.954C865.124 3.97036 865.124 4.14094 864.783 4.14094C864.783 4.31151 864.783 4.14094 864.783 3.97036C864.783 4.14094 864.612 4.14094 864.783 3.97036ZM862.906 2.77633L863.076 2.94691L862.906 3.11748C862.564 2.94691 862.564 2.77633 862.906 2.77633ZM860.687 3.79979L860.857 3.97036L860.687 4.14094C860.345 3.97036 860.345 3.97036 860.687 3.79979ZM860.174 3.11748L860.345 3.28806C860.345 3.28806 860.174 3.28806 860.174 3.45864H860.004C860.004 3.28806 860.004 3.11748 860.174 3.11748ZM856.419 4.14094C856.419 4.14094 856.59 4.14094 856.59 4.31151C856.59 4.31151 856.419 4.31151 856.419 4.48209H856.249C856.419 4.31151 856.419 4.31151 856.419 4.14094ZM105.656 3.11744C105.826 2.94687 106.168 2.94687 106.509 2.94687C106.85 3.11744 107.021 3.11744 107.363 3.28802C107.192 3.28802 107.021 3.45859 106.85 3.45859C106.68 3.45859 106.509 3.45859 106.168 3.62917C105.997 3.62917 105.997 3.62917 105.826 3.62917C105.656 3.62917 105.485 3.62917 105.314 3.45859C105.314 3.28802 105.485 3.11744 105.656 3.11744ZM102.583 5.33493C102.754 5.33493 102.754 5.33493 102.925 5.33493C102.925 5.33493 102.925 5.33493 102.925 5.5055C102.754 5.33493 102.583 5.33493 102.583 5.33493ZM98.1454 1.41168C98.1454 1.41168 98.3161 1.41168 98.3161 1.58226C98.3161 1.58226 98.1454 1.58226 98.1454 1.75284H97.9747C97.9747 1.41168 98.1454 1.41168 98.1454 1.41168ZM95.2437 2.77629L95.4144 2.94687L95.2437 3.11744C94.9023 2.94687 94.9023 2.77629 95.2437 2.77629ZM89.7817 3.45859C89.9524 3.28802 89.9524 3.28802 89.7817 3.45859C89.9524 3.11744 90.2938 3.11744 90.8058 3.11744C90.9765 3.11744 90.9765 3.11744 90.9765 3.28802C91.1472 3.28802 90.9765 3.45859 90.8058 3.45859C90.4645 3.45859 90.2938 3.28802 89.7817 3.45859C89.9524 3.45859 89.9524 3.28802 89.7817 3.45859L89.611 3.62917H89.4403C89.2697 3.45859 89.611 3.45859 89.7817 3.45859ZM80.906 1.58226C81.5887 1.58226 82.4421 1.75284 82.7835 1.41168C83.4663 1.07053 83.9783 1.75284 84.4904 1.41168C85.0025 1.24111 85.8559 1.24111 86.368 1.07053C87.0507 0.899958 87.7335 0.899958 88.4162 0.899958C88.7576 0.899958 89.099 1.07053 89.099 1.24111C89.2696 1.58226 89.099 1.75284 88.7576 1.75284C88.2455 1.75284 87.5628 1.75284 87.0507 1.75284C86.88 1.75284 86.88 1.92341 86.88 1.92341L87.0507 2.09399C87.3921 2.09399 87.7335 2.09399 88.0748 2.09399C88.2455 2.09399 88.2455 2.09399 88.4162 2.26456C88.5869 2.26456 88.4162 2.43514 88.0748 2.43514C87.2214 2.43514 86.1973 2.43514 85.3438 2.77629C84.8318 2.94687 83.8076 2.94687 83.2956 2.77629C82.4421 2.43514 81.0766 2.43514 80.906 1.58226ZM12.9723 19.3221C12.9723 19.3221 12.8016 19.3221 12.8016 19.1516C12.9723 19.1516 12.9723 19.1516 13.143 18.981L13.3136 19.1516C13.143 19.3221 12.9723 19.3221 12.9723 19.3221ZM12.1188 26.3157C12.1188 26.1452 12.2895 26.1452 12.2895 25.9746C12.4602 25.9746 12.6309 25.9746 12.9723 25.9746L13.143 26.1452H13.3136C12.9723 26.3157 12.6309 26.4863 12.2895 26.6569C12.2895 26.4863 12.1188 26.3157 12.1188 26.3157ZM10.0706 32.4565C10.2413 32.2859 10.4119 31.9447 10.5826 31.9447C10.7533 31.7742 11.0947 31.433 11.4361 31.433C11.7774 31.2624 11.9481 31.433 12.1188 31.6036C11.9481 31.9447 11.7774 32.1153 11.6068 32.4565C11.6068 32.627 11.4361 32.7976 11.2654 32.9682C11.0947 32.9682 10.924 32.9682 10.924 32.9682C10.5826 32.627 10.2413 32.627 10.0706 32.4565ZM17.5808 43.885C17.4101 43.885 17.4101 43.7145 17.4101 43.7145C17.5808 43.7145 17.5808 43.5439 17.7515 43.5439C17.9222 43.5439 17.9222 43.7145 18.0929 43.7145C17.9222 43.7145 17.7515 43.885 17.5808 43.885ZM21.6773 55.143C21.5066 54.9725 21.336 54.9725 21.1653 54.8019C21.336 54.6313 21.5066 54.4607 21.848 54.4607C22.0187 54.4607 22.1894 54.6313 22.3601 54.8019C22.0187 54.9725 21.848 54.9725 21.6773 55.143ZM23.3842 54.2901L23.2135 54.1196C23.3842 54.1196 23.5549 54.1196 23.5549 54.1196C23.7256 54.1196 23.5549 54.1196 23.3842 54.2901ZM42.5012 65.5481L42.3305 65.3776C42.3305 65.3776 42.3305 65.207 42.5012 65.207H42.6719C42.8426 65.207 42.6719 65.3776 42.5012 65.5481ZM44.0374 68.4479C43.8667 68.6185 43.696 68.6185 43.5254 68.2774L43.696 68.1068C43.696 68.1068 43.8667 68.1068 43.8667 68.2774C44.2081 68.2774 44.2081 68.4479 44.0374 68.4479ZM47.2805 51.0492C47.1098 51.0492 46.9391 51.0492 46.7684 50.8786C47.1098 50.8786 47.2805 51.0492 47.6219 51.0492C47.4512 51.0492 47.4512 51.0492 47.2805 51.0492ZM48.4753 69.3008C48.3046 69.3008 48.3046 69.1302 48.1339 69.1302L48.3046 68.9597L48.4753 69.1302V69.3008ZM54.108 54.2901L53.9373 54.1196L54.108 53.949C54.2787 53.949 54.2787 54.1196 54.2787 54.1196C54.2787 54.1196 54.2787 54.1196 54.108 54.2901ZM62.301 54.1196C62.1303 54.1196 62.1303 54.2901 61.9596 54.2901C61.1062 54.4607 60.2527 54.2901 59.9114 53.2667C59.9114 53.2667 59.9114 53.0961 59.9114 52.9255C59.9114 52.755 60.0821 52.755 60.2527 52.755C60.7648 52.9255 61.2769 53.2667 61.6182 53.4373C61.6182 53.6078 61.7889 53.7784 61.7889 53.949C61.9596 53.949 62.1303 53.7784 62.301 53.7784C62.301 53.7784 62.301 53.7784 62.4717 53.7784C62.301 53.949 62.301 53.949 62.301 54.1196ZM64.3493 54.2901L64.1786 54.1196C64.1786 54.1196 64.1786 53.949 64.3493 53.949H64.5199C64.6906 53.949 64.6906 54.1196 64.3493 54.2901ZM954.223 43.7144L954.052 43.5438C954.052 43.3733 954.052 43.2027 954.052 43.0321C954.394 43.0321 954.735 43.0321 955.077 43.0321V43.2027C954.906 43.3733 954.564 43.5438 954.223 43.7144Z" fill="#FFE990"/>
</svg>
