<svg width="64" height="64" viewBox="0 0 64 64" fill="none" xmlns="http://www.w3.org/2000/svg">
<path d="M18.86 26.168L13.3719 31.656C11.1213 33.9066 9.85693 36.9591 9.85693 40.142C9.85693 43.3249 11.1213 46.3774 13.3719 48.628C15.6226 50.8786 18.6751 52.143 21.8579 52.143C25.0408 52.143 28.0933 50.8786 30.3439 48.628L37.6559 41.312C39.0131 39.9546 40.0249 38.2915 40.6063 36.4622C41.1877 34.6329 41.3218 32.6908 40.9974 30.7989C40.6729 28.9071 39.8994 27.1207 38.7417 25.5896C37.584 24.0586 36.0759 22.8276 34.344 22L32 24.344C31.7619 24.5823 31.5549 24.8498 31.3839 25.14C32.7221 25.5247 33.9366 26.2519 34.9075 27.2498C35.8784 28.2477 36.5721 29.4818 36.92 30.8299C37.2678 32.1781 37.2578 33.5937 36.8909 34.9368C36.524 36.2799 35.8129 37.5039 34.8279 38.488L27.52 45.8C26.0188 47.3011 23.9829 48.1445 21.86 48.1445C19.737 48.1445 17.7011 47.3011 16.2 45.8C14.6988 44.2989 13.8555 42.2629 13.8555 40.14C13.8555 38.0171 14.6988 35.9811 16.2 34.48L19.3719 31.312C18.9232 29.6351 18.7502 27.9004 18.86 26.168Z" fill="#0D6EFD"/>
<path d="M26.3439 18.6881C24.9868 20.0455 23.975 21.7086 23.3936 23.5379C22.8122 25.3672 22.6781 27.3093 23.0025 29.2012C23.327 31.093 24.1005 32.8794 25.2582 34.4105C26.4159 35.9415 27.924 37.1725 29.656 38.0001L32.756 34.8961C31.3997 34.5323 30.1632 33.818 29.1705 32.8249C28.1778 31.8318 27.464 30.5949 27.1008 29.2386C26.7376 27.8822 26.7378 26.4542 27.1013 25.0979C27.4649 23.7416 28.179 22.5049 29.172 21.5121L36.4799 14.2001C37.9811 12.699 40.017 11.8557 42.1399 11.8557C44.2629 11.8557 46.2988 12.699 47.7999 14.2001C49.3011 15.7012 50.1444 17.7372 50.1444 19.8601C50.1444 21.983 49.3011 24.019 47.7999 25.5201L44.6279 28.6881C45.0759 30.3681 45.2479 32.1081 45.1399 33.8361L50.6279 28.3481C52.8786 26.0975 54.143 23.045 54.143 19.8621C54.143 16.6792 52.8786 13.6267 50.6279 11.3761C48.3773 9.12547 45.3248 7.86108 42.1419 7.86108C38.9591 7.86108 35.9066 9.12547 33.6559 11.3761L26.3439 18.6881Z" fill="#0D6EFD"/>
</svg>
