<svg width="22" height="22" viewBox="0 0 22 22" fill="none" xmlns="http://www.w3.org/2000/svg">
<g clip-path="url(#clip0_73_2300)">
<path d="M16.5866 13.7586L19.3747 10.9568C21.4086 8.91358 21.4086 5.58829 19.3747 3.5451C17.341 1.50124 14.0318 1.50124 11.9981 3.5451L7.97452 7.58793C5.94062 9.63112 5.94062 12.9564 7.97452 14.9996C8.27482 15.3016 8.6035 15.5575 8.95132 15.7702L11.1053 13.6056C10.695 13.5071 10.3059 13.299 9.98642 12.9783C9.06198 12.0494 9.06198 10.5379 9.98642 9.60923L14.01 5.5664C14.9344 4.63754 16.4388 4.63754 17.363 5.5664C18.2875 6.49526 18.2875 8.0066 17.363 8.93546L16.181 10.1234C16.668 11.2753 16.8027 12.5422 16.5866 13.7586Z" fill="#0029FF"/>
<path d="M5.4135 10.161L2.62544 12.9626C0.591323 15.006 0.591323 18.3311 2.62544 20.3745C4.6589 22.4181 7.96836 22.4181 10.002 20.3745L14.0254 16.3317C16.0593 14.2883 16.0591 10.9632 14.0254 8.92C13.7253 8.61805 13.3966 8.36207 13.0488 8.14941L10.8948 10.314C11.3049 10.4128 11.6941 10.6203 12.0137 10.9413C12.9382 11.8702 12.9382 13.3815 12.0137 14.3104L7.98992 18.3532C7.06548 19.2821 5.56134 19.2821 4.6369 18.3532C3.71246 17.4243 3.71246 15.913 4.6369 14.9841L5.81918 13.7964C5.33188 12.6445 5.19724 11.3774 5.4135 10.161Z" fill="#0029FF"/>
</g>
<defs>
<clipPath id="clip0_73_2300">
<rect width="22" height="21" fill="white" transform="translate(0 0.907227)"/>
</clipPath>
</defs>
</svg>
