<svg width="22" height="21" viewBox="0 0 22 21" fill="none" xmlns="http://www.w3.org/2000/svg">
<path d="M16.5868 12.8514L19.3748 10.0495C21.4087 8.00635 21.4087 4.68106 19.3748 2.63787C17.3411 0.594017 14.0319 0.594017 11.9982 2.63787L7.97464 6.6807C5.94074 8.72389 5.94074 12.0492 7.97464 14.0924C8.27494 14.3943 8.60362 14.6503 8.95144 14.863L11.1055 12.6984C10.6952 12.5998 10.306 12.3918 9.98654 12.0711C9.0621 11.1422 9.0621 9.63065 9.98654 8.70201L14.0101 4.65917C14.9346 3.73031 16.4389 3.73031 17.3631 4.65917C18.2876 5.58804 18.2876 7.09937 17.3631 8.02824L16.1811 9.21618C16.6682 10.3681 16.8028 11.6349 16.5868 12.8514Z" fill="white"/>
<path d="M5.41326 9.25377L2.6252 12.0554C0.591079 14.0988 0.591079 17.4239 2.6252 19.4673C4.65866 21.5109 7.96812 21.5109 10.0018 19.4673L14.0252 15.4245C16.0591 13.381 16.0588 10.056 14.0252 8.01278C13.7251 7.71082 13.3964 7.45484 13.0486 7.24219L10.8946 9.40673C11.3046 9.50555 11.6938 9.71311 12.0135 10.0341C12.9379 10.9629 12.9379 12.4743 12.0135 13.4031L7.98968 17.446C7.06524 18.3748 5.5611 18.3748 4.63666 17.446C3.71222 16.5171 3.71222 15.0058 4.63666 14.0769L5.81894 12.8892C5.33164 11.7373 5.197 10.4702 5.41326 9.25377Z" fill="white"/>
</svg>
