<svg width="662" height="71" viewBox="0 0 662 71" fill="none" xmlns="http://www.w3.org/2000/svg">
<path d="M637.266 57.8719C638.46 55.825 645.459 57.1896 644.776 55.1427C644.605 54.4604 644.264 53.7781 643.752 53.2664C644.093 52.4135 641.874 51.5606 639.143 51.0489C639.485 50.5372 639.314 50.0255 637.607 49.5137C636.412 49.5137 635.73 49.6843 635.217 49.8549C634.705 50.0255 634.364 50.196 634.193 50.3666C632.999 50.196 631.974 50.196 631.292 50.196C632.487 48.1491 639.314 49.1726 638.631 47.2963C638.29 46.4434 637.948 45.5905 637.266 45.0788L633.852 46.2728C625.147 45.5905 637.436 43.7142 631.633 41.8378C630.438 42.0084 629.756 42.0084 629.243 42.3496C626.342 43.373 627.195 43.8847 628.902 44.9082C620.88 45.2494 623.44 39.9615 619.685 39.6204C619.685 39.4498 620.197 39.4498 620.709 39.4498C620.538 39.2792 621.221 39.2792 621.392 39.2792C621.392 39.1086 621.563 39.1086 621.904 39.1086C622.245 39.2792 621.733 39.2792 621.733 39.4498C622.075 39.4498 622.587 39.4498 622.587 39.2792C622.075 39.2792 623.099 39.1086 622.587 38.938C622.416 38.938 622.587 39.1086 622.245 39.1086C622.245 38.9381 622.416 38.938 622.587 38.7675C622.928 38.7675 622.928 39.1086 623.099 39.1086C623.269 39.1086 623.781 39.1086 624.123 38.938C623.611 39.1086 622.928 38.938 623.269 38.7675C623.611 38.7675 623.44 38.938 623.611 38.938C623.781 38.938 624.464 38.7675 624.294 39.1086C624.635 38.9381 624.635 38.938 624.464 38.7675C624.976 38.7675 624.806 38.938 624.635 38.938C624.976 38.938 624.806 38.938 624.976 38.938C625.147 38.7675 624.806 38.5969 624.976 38.5969C625.147 38.5969 625.147 38.7675 625.318 38.7675C625.659 38.7675 625.83 38.5969 626.342 38.5969C626.513 38.938 627.025 38.5969 627.366 38.7675C627.366 38.5969 627.195 38.5969 627.366 38.5969C627.537 38.5969 627.537 38.7675 627.707 38.7675C627.707 38.5969 627.707 38.5969 627.878 38.5969C627.878 38.5969 627.878 38.5969 628.049 38.5969C628.049 38.5969 627.878 38.5969 627.878 38.7675C629.073 38.5969 629.243 38.5969 630.097 38.938C630.268 38.7675 630.78 38.7675 631.121 38.7675C630.95 38.5969 631.292 38.5969 631.292 38.5969C630.78 38.5969 631.121 38.4263 631.121 38.4263C630.78 38.4263 630.609 38.4263 630.268 38.4263C630.268 38.5969 629.926 38.5969 629.755 38.5969C629.755 38.4263 629.414 38.4263 629.243 38.4263C629.243 38.5969 628.561 38.5969 628.561 38.5969C628.561 38.4263 629.243 38.5969 629.073 38.4263C628.561 38.5969 628.731 38.4263 628.902 38.2557C627.707 38.2557 627.707 38.2557 626.683 38.4263C626.683 38.2557 626.854 38.2557 626.683 38.0852C626.512 38.4263 625.83 38.0852 625.318 38.0852C625.488 38.0852 625.659 38.0852 625.659 38.0852C625.488 37.9146 625.318 38.0852 625.318 37.9146C625.488 37.9146 625.318 37.9146 625.147 37.744C624.976 37.9146 625.147 37.9146 624.976 38.0852C624.123 38.0852 622.757 38.0852 622.416 37.5734C622.928 37.744 623.269 37.4029 623.781 37.5734C623.781 37.4029 623.952 37.4029 623.781 37.4029C623.099 37.4029 622.757 37.4029 622.075 37.2323C622.245 37.2323 622.075 37.0617 621.904 37.0617C621.904 37.0617 621.904 37.2323 621.733 37.2323C621.904 37.2323 621.904 37.0617 621.563 37.0617C621.563 37.2323 621.221 37.2323 621.051 37.0617C621.563 37.0617 621.051 36.7206 621.392 36.7206C621.904 36.7206 621.733 37.0617 621.904 36.8911C621.733 36.8911 621.904 36.7206 621.733 36.7206C621.904 36.7206 622.245 36.55 622.416 36.7206C622.245 36.8911 622.416 37.0617 622.587 37.0617C622.416 36.8911 622.416 36.7206 622.587 36.7206C623.099 36.7206 623.611 36.55 623.611 36.8911C623.44 36.8911 623.44 37.0617 623.44 37.0617C623.782 37.0617 623.44 36.8911 623.781 36.8911C623.952 36.8911 624.123 36.8911 624.123 36.8911C623.952 36.7206 623.781 37.0617 623.611 36.8911C623.952 36.8911 623.952 36.7206 624.294 36.8911C624.294 37.0617 624.464 37.0617 624.464 37.2323C624.123 37.2323 624.464 37.4029 624.464 37.4029C624.464 37.4029 625.147 37.4029 624.806 37.2323H624.635C624.806 37.2323 624.635 37.0617 624.806 37.0617C624.976 37.0617 625.147 37.0617 625.318 37.2323C625.318 37.2323 624.976 37.2323 624.976 37.4029C625.318 37.5734 625.83 37.0617 626 37.4029C625.83 37.4029 625.488 37.4029 625.488 37.4029C625.83 37.5734 626.171 37.4029 626.513 37.5734C626.513 37.4029 626.512 37.4029 626.683 37.4029C626.683 37.5734 627.025 37.5734 627.366 37.4029C627.537 37.5734 627.366 37.5734 627.537 37.5734C627.537 37.4029 628.049 37.4029 628.049 37.4029C627.878 37.4029 627.878 37.4029 627.878 37.2323C628.049 37.0617 628.049 37.2323 628.39 37.2323C628.39 37.0617 627.878 37.2323 627.878 37.0617C628.39 37.0617 627.878 36.8911 627.878 36.8911C628.049 36.7206 628.39 36.8911 628.561 37.0617C628.39 36.8911 628.731 36.7206 628.39 36.7206C628.219 36.8911 628.049 36.7206 627.707 36.8911C627.707 36.7206 627.707 36.7206 627.537 36.7206C627.366 36.8911 627.707 36.8911 627.366 36.8911C626.513 36.8911 627.025 36.3794 627.707 36.3794C627.366 36.2088 627.537 36.3794 627.195 36.3794C627.537 36.2088 627.025 36.2088 626.854 36.2088C627.025 36.0383 627.878 36.2088 627.878 36.0383C627.195 36.0383 626.683 36.0383 626.342 36.0383C626.513 36.0383 626.512 35.8678 626.683 35.8678C627.537 35.8678 628.561 35.8678 629.755 35.8678C629.926 35.8678 629.926 35.8678 629.926 35.8678C630.097 35.8678 630.438 35.6973 630.438 35.8678C629.926 35.8678 630.609 35.8677 630.438 36.0383C630.609 36.0383 630.78 36.0383 630.78 36.0383C630.097 36.0383 631.292 35.8678 630.78 35.8678C630.78 36.0384 630.438 35.8678 630.438 35.8678C630.95 35.8678 631.121 36.0383 631.633 36.0383C631.633 35.8677 631.633 35.8678 631.804 35.8678C632.316 35.8678 632.998 35.8677 633.511 36.0383C633.511 36.0383 633.511 36.0383 633.681 36.0383C634.535 36.0383 635.559 36.2088 636.412 36.2088C636.242 36.2088 636.071 36.2088 636.242 36.3794C636.412 36.3794 636.583 36.3794 636.754 36.2088C637.095 36.2088 637.436 36.2088 637.607 36.3794C638.119 36.3794 638.631 36.2088 639.143 36.2088C639.143 36.3794 639.143 36.3794 639.314 36.3794C639.485 36.3794 639.655 36.3794 639.655 36.3794C639.485 36.3794 639.485 36.2088 639.314 36.2088C639.997 36.0383 640.679 36.0384 641.192 35.8678C641.362 35.8678 641.362 35.8678 641.533 35.8678C642.728 35.5267 643.24 35.1855 643.41 34.8444C643.581 34.8444 643.581 34.8444 643.752 34.8444L643.922 34.6738C643.752 34.6738 643.581 34.6738 643.581 34.6738C643.752 34.3326 643.41 33.9915 642.728 33.6503C643.581 33.6503 644.435 33.6503 645.117 33.6503C645.117 33.8209 645.288 33.8209 645.117 33.8209C645.459 33.6503 645.971 33.6503 646.312 33.6503C646.312 33.4798 646.483 33.4798 646.824 33.4798C646.824 33.4798 646.653 33.4798 646.824 33.6503C646.995 33.6503 646.995 33.6503 647.166 33.6503C647.166 33.6503 647.166 33.6503 647.166 33.8209C647.507 33.8209 647.678 33.9915 647.678 33.8209C647.507 33.9915 648.019 33.8209 647.848 33.9915C648.19 33.8209 648.36 33.8209 648.872 33.8209C648.872 33.6503 648.872 33.6503 649.043 33.6503C648.872 33.8209 649.726 33.8209 649.896 33.6503V33.8209C650.579 33.8209 651.091 33.8209 651.603 33.8209C651.433 33.6503 652.115 33.6503 652.457 33.6503C652.457 33.6503 652.457 33.8209 652.286 33.8209C652.457 33.6503 651.774 33.6503 651.945 33.8209C652.457 33.8209 652.286 33.9915 652.457 33.9915C652.628 33.6503 652.798 33.8209 652.627 33.4798C652.286 33.4798 651.433 33.6503 651.603 33.4798C651.603 33.6503 651.774 33.4798 651.945 33.4798C652.286 33.4798 652.286 33.4798 652.798 33.4798C652.798 33.3092 652.969 33.3092 652.969 33.3092C652.798 33.3092 652.798 33.1386 652.627 33.1386C652.627 33.4798 651.774 33.1386 651.262 33.3092C651.262 33.4798 649.897 33.6503 649.384 33.4798C649.726 33.4798 650.067 33.4798 650.238 33.4798C650.067 33.4798 650.238 33.3092 650.067 33.3092C649.896 33.3092 649.384 33.3092 649.555 33.4798C649.384 33.3092 649.043 33.4798 648.872 33.4798C649.043 33.6503 648.531 33.8209 648.531 33.6503H648.702C647.678 33.3092 646.483 33.8209 645.459 33.4798C645.288 33.4798 645.629 33.6503 645.459 33.6503C644.947 33.4798 644.093 33.8209 643.41 33.4798V33.6503C643.41 33.6503 643.069 33.6503 642.728 33.6503C642.557 33.4798 642.386 33.4798 642.216 33.3092C642.557 33.3092 642.898 33.4798 643.069 33.3092C643.069 33.1386 642.386 33.1386 642.216 33.3092C639.485 32.1152 634.193 30.9211 631.462 30.7506L631.633 30.58C631.804 30.58 631.974 30.58 632.145 30.58C632.145 30.4094 631.804 30.58 631.804 30.4094C631.804 30.4094 631.804 30.4094 631.974 30.2388C632.145 30.2388 632.316 30.2388 632.486 30.2388C632.486 30.4094 632.486 30.4094 632.657 30.4094C632.486 29.8977 634.364 30.2388 634.876 29.8977L634.705 30.0683C634.876 30.0683 634.876 30.0683 635.047 30.0683C635.217 30.0683 634.876 29.8977 635.047 29.8977C635.388 29.8977 635.217 29.8977 635.217 30.0683C635.559 30.0683 635.388 29.8977 635.73 29.8977C635.73 30.2388 636.242 29.8977 636.412 30.0683C636.583 29.8977 636.924 30.0683 637.266 30.0683C637.436 29.8977 636.754 30.0683 636.754 29.8977C636.924 29.8977 636.754 29.7271 636.924 29.7271C636.754 29.5565 636.754 29.386 636.412 29.386C636.412 29.7271 636.071 29.386 635.9 29.5565C635.9 29.5565 635.9 29.5565 635.9 29.386C637.778 29.386 639.485 29.386 639.314 28.1919C639.314 28.1919 639.314 28.1919 639.314 28.0213C639.485 28.0213 639.485 28.0213 639.655 28.0213C639.655 27.8508 639.485 27.8508 639.655 27.8508C639.485 27.8508 639.485 27.8508 639.314 27.8508V27.6802C639.485 27.6802 639.655 27.6802 639.655 27.5096C639.485 27.5096 639.485 27.5096 639.314 27.5096C639.143 27.1685 638.973 26.8273 638.802 26.4862C638.802 26.4862 638.973 26.4862 638.973 26.6567C639.143 26.6567 639.314 26.6567 639.485 26.4862C639.143 26.4862 639.143 26.3156 638.802 26.3156C638.631 26.145 638.461 25.9744 638.29 25.8039C639.143 25.8039 640.167 25.6333 641.021 25.8039C640.85 25.8039 641.021 25.6333 640.85 25.6333C640.509 25.8039 639.997 25.8039 639.655 25.6333C638.973 25.8039 637.948 25.8039 637.266 25.8039C637.266 25.4627 636.242 25.4627 636.412 25.2921C636.071 25.2921 635.73 25.4627 635.559 25.2921C635.9 25.2921 635.729 25.1216 636.071 25.1216C635.9 25.1216 635.559 24.951 635.217 25.1216C635.217 24.951 635.388 24.951 635.047 24.951C634.364 24.951 633.34 25.1216 632.657 24.7804C632.828 24.7804 632.998 24.6098 632.998 24.6098C633.169 24.6098 633.511 24.6098 633.681 24.6098C633.34 24.6098 634.193 24.6098 634.023 24.4393C633.681 24.4393 633.681 24.0981 634.023 24.0981C634.193 24.0981 634.364 24.2687 634.364 24.4393C634.535 24.4393 634.876 24.4393 634.876 24.2687C634.364 24.4393 634.705 24.0981 634.535 24.0981C634.535 24.0981 634.364 24.2687 634.193 24.2687C634.193 24.0981 634.023 24.0981 634.023 24.0981C634.193 23.9275 634.364 23.9275 634.364 23.757C634.535 23.5864 634.876 23.5864 635.047 23.5864C635.047 23.5864 635.047 23.4158 634.876 23.4158C635.729 23.2452 636.583 23.0747 637.095 23.2452C637.436 23.2452 637.948 23.2452 638.119 23.0747C637.778 23.0747 637.778 22.9041 637.436 22.9041C637.778 22.9041 637.948 22.7335 638.119 22.5629C638.29 22.7335 638.802 22.5629 638.973 22.7335C639.143 22.9041 638.46 22.7335 638.631 22.9041C639.655 23.2452 641.362 22.9041 642.557 23.0747C642.386 23.2452 641.704 22.9041 641.533 23.2452C641.874 23.4158 642.386 23.2452 642.898 23.4158C643.069 23.5864 642.728 23.5864 642.386 23.5864C642.386 23.2452 641.021 23.5864 641.362 23.0747C640.85 23.2452 640.338 23.2452 639.997 23.0747C639.826 23.0747 639.997 23.2452 639.655 23.2452C639.655 23.0747 639.826 23.0747 639.826 23.0747C639.314 23.2452 637.436 23.2452 636.924 23.4158C636.924 23.2452 636.754 23.2452 636.754 23.2452C636.754 23.4158 636.412 23.4158 636.412 23.4158C636.754 23.4158 636.754 23.5864 636.924 23.5864C636.924 23.5864 637.436 23.4158 637.436 23.5864C637.436 23.757 637.095 23.5864 637.095 23.757C637.607 23.757 638.119 23.4158 638.29 23.5864C637.948 23.5864 638.119 23.757 637.948 23.757C637.436 23.5864 636.754 23.9275 636.583 23.9275C637.266 23.9275 637.095 24.0981 637.436 24.2687C637.095 24.2687 637.266 24.0981 636.924 24.2687C636.924 24.6098 637.266 24.6098 637.436 24.7804C637.095 24.7804 637.266 24.951 637.095 24.951C637.436 24.951 637.948 24.951 637.607 25.1216C637.948 25.1216 638.29 24.951 638.461 25.1216C638.29 25.2921 637.607 25.1216 637.778 25.2921C639.314 24.6098 640.338 25.9744 641.874 25.4627C641.703 25.6333 642.045 25.6333 642.386 25.8039C642.216 25.9744 642.045 26.145 641.703 26.3156C641.533 26.3156 641.533 26.3156 641.192 26.3156C640.85 26.3156 641.191 26.145 640.85 26.145C640.85 26.145 640.85 26.3156 641.021 26.3156C640.509 26.3156 640.509 26.3156 639.655 26.3156C639.485 26.4862 639.314 26.4862 639.485 26.6567C640.167 26.4862 640.509 26.6567 641.021 26.4862C640.85 26.6567 641.362 26.9979 641.533 26.6567C641.362 26.6567 641.192 26.6567 641.192 26.6567V26.4862C641.533 26.4862 641.874 26.3156 641.874 26.4862C641.703 26.4862 641.533 26.4862 641.533 26.4862C641.874 26.4862 641.533 26.6567 641.874 26.6567C642.045 26.4862 642.898 26.4862 643.069 26.6567V26.8273C642.557 26.8273 642.386 27.1685 642.557 26.9979C643.24 27.1685 643.581 26.6567 643.581 26.4862C643.922 26.4862 643.752 26.6567 643.922 26.6567C643.922 26.4862 644.435 26.4862 644.605 26.3156C644.435 26.3156 644.264 26.145 644.435 26.145C645.117 26.145 646.141 26.145 646.653 26.3156C646.653 26.4862 646.312 26.4862 646.653 26.4862C646.653 26.145 647.507 26.4862 647.678 26.3156C647.678 26.145 647.336 26.3156 647.336 26.145C647.848 26.145 647.678 25.9744 648.019 25.8039C648.531 25.9744 649.726 25.8039 650.067 25.8039C649.896 25.6333 649.555 25.8039 649.384 25.6333C649.555 25.4627 649.384 25.2921 649.555 25.2921C649.726 25.2921 650.238 25.2921 650.409 25.1216C650.067 25.1216 649.896 24.951 650.238 24.951C649.384 24.951 649.043 25.1216 648.019 25.1216C648.019 25.2921 648.019 25.2921 647.848 25.2921H647.336C647.336 25.1216 647.848 25.2921 647.848 24.951C647.507 24.951 646.653 25.1216 646.824 24.951C646.653 24.951 646.483 24.951 646.312 24.951C646.483 25.2921 645.117 25.1216 645.459 24.951C644.947 24.951 644.264 24.951 644.264 24.7804C644.947 24.7804 645.288 24.7804 645.8 24.6098C645.629 24.6098 645.629 24.4393 645.288 24.6098C645.459 24.7804 645.117 24.7804 644.947 24.7804C644.947 24.6098 644.435 24.7804 644.435 24.6098C644.435 24.4393 644.264 24.4393 644.264 24.4393C644.776 24.2687 645.288 24.4393 645.629 24.4393C645.629 24.2687 645.117 24.4393 644.947 24.2687C644.947 24.2687 645.288 24.2687 645.288 24.0981C645.117 23.9275 644.605 24.0981 644.435 24.0981C644.605 24.0981 645.117 24.0981 645.117 23.9275C645.459 23.9275 645.8 24.0981 645.971 24.0981C645.8 23.9275 646.483 23.9275 646.483 23.5864C645.971 23.757 645.459 24.0981 644.947 23.757C644.435 23.757 643.752 23.9275 643.41 23.757C643.581 23.757 643.922 23.5864 643.922 23.4158C643.752 23.2452 643.24 23.5864 642.898 23.4158C643.069 23.4158 643.069 23.4158 643.069 23.2452C642.728 23.2452 642.728 23.4158 642.557 23.4158C642.386 23.4158 642.045 23.2452 642.386 23.0747C643.581 23.2452 644.605 23.0747 645.971 23.2452C645.288 23.4158 644.264 23.0746 644.093 23.4158C644.605 23.2452 644.776 23.5864 644.947 23.2452C645.288 23.2452 645.459 23.5864 645.8 23.4158C645.459 23.4158 645.629 23.2452 645.8 23.2452C646.141 23.2452 646.141 23.2452 646.483 23.2452C646.483 23.0747 647.336 23.0746 647.336 22.9041C646.483 23.2452 645.288 22.9041 644.605 22.7335C644.264 22.7335 644.776 22.9041 644.605 22.9041C644.435 22.9041 644.435 22.9041 644.264 22.7335C644.435 22.5629 644.093 22.5629 643.922 22.3923C644.435 22.2218 644.264 22.5629 644.605 22.5629C644.776 22.5629 645.117 22.3923 645.288 22.3923C645.288 22.3923 645.117 22.3923 645.117 22.5629C645.288 22.5629 645.459 22.5629 645.459 22.5629C645.459 22.3923 645.459 22.3923 645.629 22.3923C645.8 22.5629 645.971 22.7335 646.483 22.7335C646.483 22.7335 646.312 22.5629 646.483 22.5629C646.824 22.7335 647.336 22.5629 647.678 22.7335C647.848 22.5629 648.19 22.7335 648.36 22.5629C648.36 22.7335 649.214 22.5629 649.214 22.7335C649.214 22.7335 649.214 22.7335 649.384 22.7335C649.384 22.2218 648.019 22.5629 647.678 22.3923C648.19 22.3923 648.019 22.2218 647.678 22.2218C648.36 21.8806 649.384 22.5629 649.384 22.2218C649.555 22.2218 650.238 22.3923 650.238 22.3923C649.726 22.3923 650.067 22.3923 650.067 22.2218C649.896 22.0512 649.555 22.3923 649.214 22.2218C649.214 22.2218 649.897 22.2218 649.555 22.0512C649.214 22.0512 649.214 22.0512 648.872 22.2218C648.702 22.2218 648.702 22.0512 648.531 22.0512C648.36 22.0512 648.531 22.2218 648.19 22.2218C648.019 21.71 646.824 22.0512 646.141 21.8806C647.507 21.71 648.872 21.71 649.726 21.71C649.555 21.71 649.555 21.71 649.726 21.5395C649.896 21.5395 649.896 21.5395 650.067 21.5395C650.067 21.71 650.067 21.71 650.238 21.71C650.579 21.5395 650.75 21.8806 651.091 21.8806C651.774 21.71 653.652 21.71 654.334 21.8806C654.846 21.8806 656.553 21.71 657.065 22.0512V21.8806C657.577 21.8806 659.113 22.0512 659.113 22.0512C659.113 22.0512 658.943 21.8806 659.113 21.8806C659.284 21.8806 659.284 22.0512 659.625 22.0512C660.138 21.71 660.82 22.2218 661.332 22.0512C661.162 21.8806 660.82 22.0512 660.991 22.0512C660.82 22.0512 660.65 22.0512 660.479 22.0512C660.82 22.0512 660.479 22.0512 660.479 21.8806C660.65 21.8806 660.65 21.8806 660.82 21.8806C660.82 21.5395 659.796 21.8806 659.284 21.8806C658.772 21.8806 658.943 21.5395 658.431 21.5395C658.431 21.71 658.601 21.71 658.601 21.71C658.26 21.71 657.577 21.8806 657.407 21.71C657.748 21.71 657.407 21.5395 657.236 21.5395C657.065 21.71 656.895 21.5395 656.553 21.71C656.724 21.5395 656.041 21.71 656.383 21.3689C655.87 21.3689 656.212 21.5395 655.871 21.5395C655.529 21.3689 655.87 21.5395 655.529 21.5395C655.529 21.3689 655.188 21.5395 655.358 21.3689C654.846 21.3689 654.505 21.5395 654.164 21.3689C653.993 21.3689 653.993 21.5395 653.822 21.5395C653.481 21.5395 652.969 21.3689 652.457 21.5395C652.457 21.1983 650.921 21.1983 650.579 21.0277V21.1983C650.238 21.1983 650.409 20.8572 650.067 21.0277C650.067 21.1983 650.409 21.0277 650.409 21.1983C649.896 21.1983 649.043 21.3689 648.531 21.3689C648.872 21.3689 649.043 21.1983 648.872 21.1983C648.702 21.1983 648.531 21.3689 648.19 21.3689C648.36 21.3689 648.19 21.1983 648.36 21.1983C647.848 21.1983 647.336 21.3689 646.824 21.1983C646.824 21.1983 646.995 21.1983 646.995 21.0277C647.678 21.0277 648.872 21.1983 649.043 20.8572C648.36 21.0277 647.507 20.6866 646.653 20.8572C646.653 20.516 645.288 21.0277 645.117 20.6866C644.093 20.8572 642.386 20.8572 641.533 20.6866C641.533 20.6866 641.704 20.6866 641.533 20.516C641.362 20.516 641.021 20.516 641.021 20.6866C641.192 20.6866 641.192 20.6866 641.192 20.8572C640.509 20.8572 640.338 20.8572 639.997 20.8572L640.167 20.6866C639.655 20.8572 639.485 20.516 638.973 20.6866C638.973 20.8572 639.314 20.8572 638.973 20.8572C638.973 20.6866 638.631 20.6866 638.631 20.6866C638.46 20.6866 638.802 20.8572 638.461 20.8572C637.778 20.8572 637.778 20.8572 637.266 21.0277C637.266 20.8572 636.583 20.8572 636.924 20.6866C636.242 20.6866 636.242 20.516 635.9 20.8572C636.071 20.6866 635.729 20.6866 635.9 20.516C635.729 20.516 635.73 20.516 635.559 20.516C635.559 20.6866 635.9 20.6866 635.559 20.8572C634.535 20.8572 633.169 20.6866 632.486 21.0277V20.8572C632.316 20.8572 632.145 20.8572 631.974 20.8572C631.974 21.0277 631.974 21.0277 631.633 21.0277C631.804 20.8572 631.462 21.0277 631.462 20.6866C631.804 20.516 632.316 20.6866 632.828 20.6866C632.999 20.3454 634.364 20.516 634.535 20.6866C634.023 20.3454 632.657 20.516 632.316 20.516C631.633 20.3454 631.121 20.3454 630.438 20.3454C630.609 20.516 630.268 20.516 630.097 20.516C630.097 20.6866 630.268 20.6866 630.268 20.8572C630.609 20.8572 630.438 20.6866 630.78 20.6866C630.609 20.8572 631.292 20.8572 631.121 21.0277C630.609 21.0277 629.926 20.8572 629.926 21.0277C629.756 21.0277 629.585 21.0277 629.414 21.0277C629.585 21.0277 629.414 20.8572 629.585 20.8572C629.073 20.8572 629.755 21.0277 629.073 21.1983C628.902 21.1983 628.902 21.0277 628.731 21.1983C628.39 21.0277 628.902 20.8572 628.731 20.8572C628.731 20.8572 628.049 21.0277 628.049 20.8572C628.049 20.6866 628.049 20.6866 628.219 20.6866C628.049 20.8572 628.731 20.6866 629.073 20.6866C629.243 20.6866 629.243 20.8572 629.414 20.8572C629.414 20.6866 629.926 20.8572 630.097 20.8572C629.926 20.516 629.414 20.6866 629.243 20.6866C629.243 20.516 629.585 20.6866 629.755 20.516C629.414 20.516 628.902 20.6866 628.731 20.516C628.731 20.6866 628.049 20.516 628.219 20.6866C628.561 20.6866 628.731 20.516 628.731 20.6866C628.39 20.8572 628.049 20.6866 627.707 20.6866C627.537 20.8572 628.049 20.6866 627.878 20.8572C627.707 20.8572 627.707 20.8572 627.707 20.8572C627.195 20.8572 627.025 20.8572 626.683 20.6866C626.342 20.6866 626.854 20.6866 626.854 20.8572C626.683 20.8572 626.683 20.8572 626.513 20.8572C626.342 20.8572 626.171 20.8572 626.171 20.6866C626.171 20.516 626.513 20.6866 626.513 20.516C626.171 20.516 626 20.516 625.659 20.516C625.488 20.516 625.488 20.6866 625.147 20.6866C624.976 20.6866 624.976 20.516 624.806 20.516C624.635 20.516 624.123 20.6866 623.611 20.516C623.44 20.6866 623.269 20.6866 623.099 20.6866C623.611 20.6866 623.781 20.516 623.952 20.6866C623.781 20.6866 623.781 20.6866 623.611 20.8572C623.781 20.8572 623.952 20.6866 624.123 20.6866C624.123 21.0277 624.806 20.6866 624.806 20.8572C624.806 20.8572 624.635 21.0277 624.806 21.0277C625.318 20.8572 626.171 20.8572 626.513 21.0277C626.342 20.6866 627.537 20.8572 627.195 21.1983C627.707 21.1983 627.366 21.0277 627.707 21.0277C627.707 21.1983 627.878 21.1983 627.878 21.1983C627.024 21.5395 626.513 21.3689 625.659 21.0277C624.976 21.1983 624.806 21.0277 624.464 21.1983V21.0277C624.464 21.1983 623.44 21.1983 623.781 21.1983C623.952 21.0277 624.635 21.1983 624.635 21.1983C623.952 21.1983 623.611 21.1983 623.099 21.1983C623.269 21.0277 623.099 21.0277 622.928 21.0277C622.928 21.1983 622.757 21.1983 622.587 21.1983C622.075 20.0043 621.563 18.9808 619.685 18.9808C616.783 19.1514 615.93 20.0043 615.93 21.0277C615.418 21.0277 614.906 21.0277 614.735 21.0277C614.564 21.0277 613.711 21.1983 613.199 21.1983C609.444 18.9808 601.934 17.1044 595.618 16.5927C592.034 16.9339 588.279 16.5927 584.353 16.081C584.694 16.081 585.036 15.9104 585.206 15.7398C585.377 15.3987 585.889 15.3987 586.23 15.3987C586.401 15.3987 586.743 15.3987 586.913 15.3987C587.937 15.5692 588.279 15.5692 588.449 15.2281C588.791 14.7164 589.303 15.0575 589.815 14.8869C590.498 14.7164 591.863 14.7164 591.522 14.0341C591.522 13.8635 591.863 13.6929 592.034 13.5223C592.205 13.3518 592.205 13.1812 592.034 13.0106C591.522 12.6695 590.839 12.1577 590.156 11.8166C589.986 11.646 589.644 11.646 589.303 11.646C588.62 11.646 587.937 11.646 587.255 11.4754C586.742 10.9637 585.718 11.646 585.206 11.1343C584.012 11.3049 582.817 10.9637 581.622 10.7931C580.939 10.7931 580.427 10.452 579.744 10.452C579.062 10.452 578.379 10.2814 577.696 10.452C577.013 10.452 576.501 10.1108 575.819 10.1108C575.477 10.1108 575.306 10.2814 575.136 10.1108C574.965 9.94025 575.477 9.5991 575.989 9.5991C576.843 9.5991 577.696 9.5991 578.379 9.5991C578.55 9.5991 578.891 9.5991 579.062 9.42852C579.403 9.25795 578.891 9.08737 578.891 8.9168C578.72 8.57565 578.72 8.23449 578.549 8.06392C578.208 7.72277 578.037 7.55219 578.549 7.21104C578.891 7.04046 578.891 6.52874 579.574 6.52874C579.915 6.52874 580.598 6.52874 580.768 6.69931C580.939 6.86989 580.427 6.86989 580.256 6.86989C580.086 6.86989 580.086 7.04046 579.915 7.04046C580.598 7.21104 581.281 7.55219 581.963 7.55219C582.817 7.72277 583.841 7.72277 584.694 7.72277C584.865 7.72277 584.865 7.72277 585.036 7.89334C584.865 7.89334 584.694 8.06392 584.694 8.06392C584.012 8.06392 583.329 8.06392 582.646 8.06392C582.305 8.06392 581.963 8.23449 581.793 8.40507C581.622 8.57565 581.451 9.08737 581.963 9.08737C582.646 9.25795 583.158 9.76968 584.011 9.5991C585.036 9.5991 585.718 9.94025 586.572 9.94025C587.596 10.1108 588.62 9.94025 589.644 10.2814H589.815C589.815 10.1108 589.986 9.94025 589.986 9.94025C589.815 9.76968 589.644 9.5991 589.303 9.42852C588.791 9.25795 586.401 9.08737 585.548 9.08737C585.377 9.08737 585.206 8.9168 585.206 8.9168V8.74622C585.377 8.40507 585.718 8.23449 586.06 7.89334C586.23 7.72277 586.572 7.72277 586.572 7.89334C586.743 8.40507 587.084 8.57565 587.937 8.57565C589.132 8.57565 590.156 8.74622 590.498 9.42852C591.863 9.94025 593.058 10.452 594.594 10.6226C594.765 10.6226 595.106 10.6226 595.277 10.6226C595.448 10.6226 595.448 10.452 595.618 10.2814C595.618 10.1108 595.618 9.94025 595.448 9.94025C594.935 9.76968 594.423 9.42852 593.741 9.25795C593.741 8.74622 592.887 8.74622 592.375 8.57565C592.034 8.40507 591.351 8.23449 591.01 8.06392C590.839 7.89334 590.839 7.55219 590.156 7.72277C589.474 8.06392 588.62 7.72277 587.767 8.06392C587.425 8.23449 587.425 7.89334 587.255 7.72277C587.255 7.72277 587.255 7.55219 587.084 7.55219C586.572 7.38162 586.06 7.38162 585.548 7.21104C585.036 7.04046 585.377 6.52874 584.524 6.52874C584.182 6.52874 583.841 6.52874 583.499 6.35816C583.329 6.35816 583.329 6.35816 583.158 6.18759C583.329 6.18759 583.329 6.01701 583.499 6.01701C584.694 6.01701 586.06 5.84643 587.255 6.18759C587.767 6.35816 588.279 6.35816 588.961 6.35816C590.327 6.35816 591.693 6.35816 593.058 6.69931C593.741 6.86989 594.594 6.69931 595.448 6.69931C595.618 6.69931 595.789 6.52874 595.789 6.35816C595.789 6.18759 595.618 6.01701 595.618 6.01701C594.765 6.01701 593.911 5.67586 593.229 5.50528C593.058 5.67586 592.887 5.84643 592.375 5.84643C592.034 5.84643 591.863 5.67586 591.863 5.50528C591.863 5.33471 591.863 5.33471 591.863 5.16413C591.351 5.16413 591.01 5.16413 590.498 5.16413V4.99356C589.303 4.6524 588.62 4.6524 587.767 5.16413C587.596 5.33471 587.425 5.33471 587.255 5.33471C586.572 4.99356 585.718 4.65242 584.524 4.65242C584.353 4.65242 583.841 4.48185 583.841 4.31127C583.499 3.79954 582.817 3.62897 581.793 3.62897C580.939 3.62897 579.915 3.62897 579.062 3.62897C578.549 3.62897 578.208 3.79954 578.037 3.97012C577.355 4.65242 577.355 4.48185 575.819 4.31127C574.794 4.14069 574.112 3.79954 573.088 3.62897C572.576 3.45839 572.234 3.45839 571.893 3.62897C571.551 3.79954 571.381 3.79954 571.039 3.62897C570.698 3.45839 570.357 3.11724 569.844 3.11724C569.674 3.45839 569.844 3.79954 568.991 3.79954C567.284 4.65242 567.284 4.82298 567.114 4.82298C566.772 4.82298 566.772 4.65242 566.601 4.48185C566.26 4.48185 565.919 4.6524 565.919 4.82298C565.748 4.99356 566.089 5.16413 566.431 5.33471C566.943 5.33471 567.626 5.33471 568.138 5.33471C568.308 5.33471 568.479 5.50528 568.479 5.50528C568.308 5.50528 568.308 5.67586 568.138 5.67586C566.943 5.67586 565.577 5.67586 564.382 5.67586C563.017 5.67586 561.651 5.67586 560.457 6.01701C560.115 6.01701 559.945 6.35816 559.603 6.18759C558.921 5.84643 558.408 6.01701 557.726 6.18759C557.214 5.84643 556.36 5.84643 555.507 5.84643C553.971 5.84643 552.434 5.84643 550.898 5.67586C550.386 5.67586 549.703 5.67586 549.191 5.50528C548.509 5.16413 547.655 5.16413 546.802 5.16413C542.705 5.16413 538.438 4.99356 534 4.82298C533.147 4.82298 533.147 4.823 532.976 4.14069C532.976 3.97012 532.805 3.97012 532.805 3.79954C532.635 3.79954 532.464 3.97012 532.293 3.97012C531.61 4.31127 530.416 4.48185 529.733 4.31127V4.14069C529.733 4.14069 529.904 3.97012 530.074 3.97012C531.098 3.97012 531.952 3.97012 531.781 3.11724C531.781 2.77609 532.293 2.6055 532.464 2.26435C532.635 2.09378 532.976 2.09378 533.317 2.26435C533.488 2.43493 533.829 2.43493 533.829 2.26435C533.829 2.09378 533.829 1.9232 534 1.75263C532.293 1.75263 530.586 1.41147 529.05 1.9232C528.709 2.09378 527.855 1.9232 527.343 1.75263C526.661 1.41147 525.807 1.41148 525.124 1.2409C524.954 1.58205 524.783 1.41148 524.783 1.2409C524.271 1.2409 523.93 1.07033 523.417 1.2409C522.905 1.58205 522.052 1.75263 521.881 2.26435C521.881 2.43493 521.711 2.43494 521.54 2.60551C521.369 2.43494 521.369 2.26435 521.199 2.09378C520.857 1.9232 520.516 1.75263 520.004 1.9232C519.833 1.9232 519.492 2.09378 519.492 2.09378C518.98 1.9232 518.126 1.75263 517.956 1.41148C517.614 0.899752 517.443 1.07033 516.931 1.2409C516.419 1.41148 516.59 1.9232 515.737 2.09378C515.737 2.09378 515.737 2.26435 515.566 2.26435C514.883 2.77608 514.03 1.75263 513.176 2.26435C513.006 2.26435 512.835 2.09378 512.835 2.09378C512.664 1.9232 512.664 1.75263 512.664 1.75263C511.299 1.58205 113.337 1.41144 111.971 1.07029C111.971 1.07029 111.8 1.07029 111.63 1.07029C111.459 1.07029 111.459 1.24086 111.63 1.41144C111.8 1.41144 111.8 1.75259 111.8 1.75259C110.776 1.92317 109.752 1.92317 108.728 1.75259C108.216 1.75259 108.557 1.75259 108.728 1.58202C109.24 1.24087 109.069 1.07029 108.216 1.07029C107.704 1.07029 107.192 1.07029 106.85 1.07029C106.338 1.07029 105.826 1.58202 105.314 1.24087C104.632 0.729138 104.119 1.24087 103.437 1.24087C102.925 1.24087 102.583 1.07029 102.071 1.07029C101.901 1.07029 101.559 0.899714 101.559 1.07029C100.876 1.41144 100.364 1.24087 99.6816 1.07029C99.5109 0.899714 98.9988 0.899714 98.6575 0.899714C97.292 0.899714 95.9265 0.558562 94.561 1.07029C94.3903 1.07029 94.0489 1.07029 93.8782 1.07029C93.5368 0.899714 93.0248 0.899714 92.6834 0.729138C91.4886 0.217411 90.4645 0.217411 89.099 0.558562C88.9283 0.558562 88.5869 0.729138 88.4162 0.729138C86.7093 0.558562 85.0025 0.899714 83.2956 1.07029C82.2715 1.07029 81.2473 1.24087 80.7353 1.75259C80.2232 1.75259 79.3698 1.75259 79.0284 1.58202C78.3456 1.24087 77.6629 1.58202 77.1508 1.41144C76.4681 1.07029 75.7853 1.24087 75.1026 1.24087C74.2491 1.24087 73.7371 0.899714 72.8836 0.729138C72.713 0.729138 72.3716 0.729138 72.2009 0.729138C71.5181 0.729138 71.0061 1.07029 70.3233 0.729138C69.6406 1.07029 68.7871 0.899714 68.1044 1.07029C67.0803 1.41144 65.5441 1.24086 64.6906 1.92317C64.8613 2.09374 64.5199 1.58202 64.0079 1.75259C63.6665 1.92317 63.3251 2.4349 62.6424 2.09374C61.9596 1.75259 61.6182 2.26432 61.1062 2.26432C60.9355 2.26432 60.5941 2.26432 60.5941 2.09374C60.5941 1.92317 60.5941 1.75259 60.5941 1.75259C60.7648 1.58202 60.9355 1.58202 61.1062 1.58202C61.2769 1.58202 61.4476 1.41144 61.7889 1.41144C61.6183 1.41144 61.4476 1.24087 61.2769 1.24087C60.7648 1.24087 60.0821 1.24087 59.57 1.24087C58.8873 1.24087 58.2045 1.24087 57.5217 1.24087C57.0097 1.24087 56.4976 1.58202 55.9856 1.58202C55.3028 1.58202 54.6201 1.58202 53.9373 1.58202C53.7666 1.58202 53.5959 1.75259 53.4252 1.75259C53.0839 1.75259 52.9132 1.92317 52.9132 1.92317C52.9132 1.92317 53.0839 1.92317 53.2546 2.09374C54.9614 2.4349 56.4976 1.92317 58.0338 1.92317C58.3752 1.92317 58.7166 1.41144 59.0579 1.75259C59.2286 1.92317 58.7166 2.09374 58.0338 2.26432C57.3511 2.4349 56.6683 2.60547 55.9856 2.60547C54.4494 2.4349 53.0839 2.77605 51.5477 2.94662C51.377 2.94662 51.2063 3.1172 51.2063 3.28777C51.2063 3.28777 51.377 3.45835 51.5477 3.45835C51.5477 3.45835 51.7184 3.45835 51.889 3.45835C52.0597 3.45835 52.2304 3.62892 52.4011 3.62892C52.2304 3.62892 52.0597 3.7995 51.889 3.7995C51.377 3.7995 50.8649 3.7995 50.5236 3.7995C49.6701 3.7995 48.4753 3.62893 47.9632 3.28777C47.6219 2.94662 47.1098 2.94662 46.427 2.94662C44.8909 2.77605 43.5254 3.28777 42.1599 3.45835C40.6237 3.62892 39.2582 4.14065 37.5513 3.97008C35.8444 3.7995 34.3082 4.14065 33.1134 4.65238C32.772 4.82295 32.4307 4.99353 31.9186 4.99353C31.5772 4.99353 31.0652 4.99353 31.0652 4.82295C31.0652 4.65238 31.4065 4.65238 31.7479 4.65238C31.9186 4.65238 31.9186 4.4818 32.0893 4.4818C32.0893 4.4818 29.6997 4.14065 29.529 4.14065C29.3583 4.31123 29.0169 4.4818 28.8462 4.4818C29.0169 4.4818 29.1876 4.65238 29.3583 4.65238C29.529 4.65238 29.6997 4.82295 29.8703 4.82295C29.6997 4.99353 29.529 4.99353 29.3583 5.16411C28.8462 5.50526 28.3342 5.33468 27.8221 5.33468C26.2859 5.33468 25.0911 6.01698 23.7256 6.18756C23.3842 6.86986 22.1894 7.21102 21.336 7.55217C20.8239 7.89332 20.4825 8.23447 20.4825 8.7462C20.6532 9.25792 20.4825 9.76965 19.117 9.76965C17.7515 10.2814 16.2153 10.452 15.0205 11.1343C14.8498 11.1343 14.8498 11.3048 14.8498 11.4754C14.8498 11.4754 15.0205 11.646 15.1912 11.646C15.7033 11.646 16.386 11.646 16.8981 11.646C17.4101 11.8166 17.9222 11.9871 18.0929 12.3283C18.2636 12.4989 17.5808 12.84 17.0688 13.0106C16.5567 13.1812 16.2153 13.0106 15.874 12.84C15.5326 12.6694 15.0205 12.4989 14.6791 12.84C14.3378 13.0106 13.9964 13.1812 13.655 13.1812C12.4602 13.3517 12.6309 13.6929 12.9723 14.034C13.143 14.2046 12.2895 14.5458 12.4602 14.7163C13.143 15.2281 12.8016 15.7398 12.8016 16.4221C12.8016 16.7633 12.8016 17.1044 13.143 17.275C13.655 17.7867 13.655 18.1279 12.2895 18.2984C12.1188 18.2984 11.9481 18.469 11.9481 18.6396C11.9481 18.9807 11.9481 19.3219 11.7774 19.663C11.7774 20.0042 12.1188 20.1748 12.8016 20.3453C13.143 20.3453 13.143 20.5159 12.9723 20.6865C12.8016 20.8571 12.4602 21.0276 12.6309 21.1982C13.143 21.5394 12.6309 21.8805 12.4602 22.3923C12.2895 22.3923 11.9481 22.7334 11.9481 22.904C11.9481 23.2451 12.2895 23.5863 12.6309 23.9274C13.143 24.2686 12.9723 24.7803 12.8016 25.292L12.4602 25.4626C11.7774 25.1215 11.6068 25.292 11.4361 25.6332C11.2654 26.3155 11.6068 26.8272 10.924 27.5095C10.7533 27.6801 11.4361 28.3624 11.9481 28.533C12.9723 28.7036 12.6309 29.0447 12.2895 29.3859L12.1188 29.5564C12.6309 29.8976 12.6309 30.2387 12.6309 30.4093C12.2895 30.4093 12.1188 30.4093 11.7774 30.2387C11.4361 30.0682 11.0947 29.727 10.7533 29.727C10.0706 29.5564 10.0706 30.4093 9.89989 30.7505C9.55851 31.2622 9.04645 31.7739 8.70507 32.2856C8.19301 32.7974 7.85163 32.7974 7.16888 32.4562C6.14476 32.1151 5.29132 33.1385 4.0965 32.7974C3.92582 32.7974 3.75513 32.9679 3.58444 33.1385V33.4797C3.58444 33.6502 3.75513 34.162 3.92582 34.162C5.12063 34.3325 6.31544 34.6737 7.33957 33.8208C7.85163 33.4797 8.19301 33.6502 8.70507 33.9914C9.04645 34.162 9.55851 34.3326 9.7292 34.3326C10.0706 33.8208 10.5826 33.8208 11.0947 33.6502C11.0947 33.8208 11.0947 33.9914 11.4361 34.162C12.4602 34.6737 12.6309 35.356 12.2895 35.8677C11.4361 35.8677 10.5826 35.8677 9.55851 35.8677C9.04645 35.8677 8.70507 36.3795 8.3637 36.7206C8.19301 36.8912 8.02232 37.2323 8.3637 37.4029C8.70507 37.7441 9.04645 38.0852 9.55851 38.2558C10.0706 38.4264 10.5826 38.2558 10.924 38.2558C11.2654 38.2558 11.7774 38.2558 11.9481 38.4264C12.2895 38.7675 12.8016 39.1087 12.9723 39.4498C12.9723 39.791 12.4602 40.4733 12.1188 40.4733C11.0947 40.6439 10.2413 40.6438 9.21713 40.6438C8.53438 40.6438 8.19301 40.985 8.02232 41.8379C7.68095 42.8613 6.65682 43.2025 6.48613 44.3965C6.31544 45.2494 6.31544 45.7611 6.99819 46.1023C7.51026 46.2728 8.02232 46.4434 8.70507 46.614C8.53438 48.1492 9.38782 47.808 10.2413 47.9786C10.924 47.9786 11.2654 47.4669 11.9481 47.2963C12.4602 46.9552 12.9723 47.808 13.4843 47.808C13.655 47.808 13.9964 47.808 14.1671 47.6375C14.6791 47.2963 15.1912 47.1257 15.874 47.1257C18.4343 47.1257 20.9946 47.4669 23.3842 46.4434C23.5549 46.4434 23.5549 46.4434 23.7256 46.4434C23.7256 46.614 23.5549 46.614 23.3842 46.7846C23.3842 46.7846 23.2135 46.7846 23.2135 46.9552C22.1894 47.1257 21.336 47.2963 20.3118 47.4669C20.1411 47.4669 19.9705 47.4669 19.6291 47.6375H19.7998C19.117 47.808 18.605 48.1492 18.0929 48.4903C18.2636 49.1726 18.4343 49.6844 18.7756 50.0255C17.2395 50.1961 15.874 50.7078 14.5085 51.3901C14.3378 51.3901 14.3378 51.3901 14.1671 51.3901C13.655 51.5607 13.3136 51.9018 12.8016 51.9018C12.2895 52.0724 11.9481 51.049 11.2654 51.7313C10.924 52.0724 10.5826 51.2195 10.0706 51.2195C9.7292 51.2195 9.38782 51.2195 9.04645 51.2195C8.87576 51.2195 8.87576 51.3901 8.70507 51.3901C8.02232 51.9018 7.51026 52.7547 6.65682 52.9253C6.48613 52.9253 6.48613 53.2665 6.82751 53.437C7.16888 53.6076 7.68095 53.437 7.51026 53.9487C7.51026 54.2899 6.82751 54.8016 6.82751 54.8016C5.97407 54.2899 5.12063 55.3134 4.60857 54.9722C3.58444 54.1193 3.07238 54.8016 2.731 55.6545C2.56032 56.5074 2.04825 56.678 1.3655 56.678C1.02413 56.678 0.682751 56.678 0.341375 56.678C0.170688 56.678 0 57.0191 0 57.1897L0.170688 57.5308C0.682751 57.872 1.19481 58.2131 1.70688 58.5543C2.731 59.2366 4.0965 59.4072 4.26719 61.1129C4.26719 61.2835 4.77925 61.4541 5.12063 61.6247C5.46201 61.7952 5.97407 61.7952 6.14476 61.9658C6.31544 62.307 6.48613 62.9893 6.31544 63.501C6.31544 64.0127 5.97407 64.3539 5.80338 64.8656C6.48613 65.0362 6.82751 65.8891 7.33957 66.2302C8.02232 66.7419 9.04645 66.4008 9.7292 67.0831C10.0706 67.4242 10.7533 67.2537 10.7533 66.5714C10.924 65.889 11.2654 65.7185 11.7774 65.7185C12.8016 65.7185 13.655 64.5244 14.8498 64.695C14.8498 64.695 15.1912 64.3539 15.1912 64.0127C15.1912 63.8421 15.0205 63.501 14.8498 63.3304C14.5085 62.9893 13.9964 62.8187 13.655 62.6481C13.3136 62.307 13.143 61.7952 12.9723 61.2835C12.9723 60.7718 13.143 60.0895 13.655 60.0895C14.3378 60.0895 15.1912 60.0895 15.874 60.0895C16.5567 60.0895 16.8981 60.6012 16.5567 61.4541C16.0446 62.6481 16.2153 62.6481 17.0688 63.3304C17.4101 63.501 17.5808 63.8421 17.9222 64.1833C18.2636 64.5244 18.4343 64.8656 19.117 64.3539C20.1411 63.6716 21.336 63.6716 22.1894 64.1833C23.3842 65.0362 24.9204 64.3539 25.9445 65.0362C27.31 65.889 28.5048 65.2068 29.8703 65.5479C30.2117 65.5479 30.5531 65.5479 30.8945 65.5479C31.2358 65.5479 31.7479 65.7185 31.9186 65.889C32.772 66.9125 33.9669 67.2537 35.1617 67.0831C36.5272 68.2771 38.0634 68.2771 39.5995 67.4242C39.7702 67.4242 40.1116 67.7654 40.453 67.936C40.7943 68.2771 40.6237 68.6183 40.2823 68.6183C39.5995 68.7888 38.9168 69.6417 38.0633 68.6183H37.722C37.0392 69.3006 36.5272 69.3006 35.8444 68.6183C35.6737 68.4477 35.3324 68.6183 35.1617 68.7888C35.1617 68.7888 35.1617 68.9594 35.1617 69.13C35.6737 71.0063 36.0151 71.1769 37.722 70.6652C39.2582 70.1535 40.7944 69.9829 43.0133 70.6652C43.5254 70.8358 44.0374 69.9829 44.5495 70.6652C44.8909 71.0063 45.2322 70.4946 45.4029 70.324C45.7443 70.1534 46.0857 70.1534 46.427 70.4946C46.9391 71.0063 47.4512 71.0063 47.9632 70.4946C48.4753 69.9829 49.1581 69.9829 49.6701 70.1534C51.0356 70.4946 52.2304 71.5181 53.5959 70.1534C53.7666 69.9829 54.2787 70.324 54.6201 70.4946C55.3028 71.0063 56.1562 71.0063 56.6683 70.6652C58.0338 69.8123 59.3993 70.1535 60.9355 69.9829C63.3251 69.9829 65.7148 69.8123 68.2751 69.9829C68.9578 69.9829 69.6406 69.8123 70.3233 69.4711C71.1768 70.324 71.8595 69.9829 72.5423 69.3006C74.0784 69.8123 75.2733 68.2771 76.8094 68.4477C77.6629 68.4477 78.5163 68.2771 79.3698 68.4477C80.3939 68.6183 81.0766 67.5948 82.1008 67.5948C82.6128 67.5948 83.2956 67.5948 83.8076 67.2537C85.0025 66.5714 86.1973 66.5714 87.2214 67.0831C88.0748 67.5948 88.7576 67.5948 89.611 67.2537C90.8058 66.7419 91.83 65.8891 93.1955 66.7419C93.3661 66.7419 93.7075 66.5714 93.8782 66.5714C94.7317 65.889 95.4144 65.889 96.2678 66.5714C96.7799 67.0831 97.4627 67.2537 97.9747 66.9125C98.9988 66.0596 100.023 66.2302 101.047 66.2302C102.071 66.2302 102.925 66.2302 103.778 65.7185C104.802 65.2067 106.168 65.2067 107.192 65.889C108.045 66.4008 109.069 66.4008 109.923 65.889C110.435 65.5479 110.776 65.5479 111.288 65.5479C111.971 65.3773 112.142 66.5714 112.825 65.889C113.507 65.3773 510.957 65.2067 511.64 65.2067C513.859 65.2067 516.078 65.2067 518.126 65.2067C525.978 65.2067 533.659 65.2067 541.51 65.2067C542.193 65.2067 543.047 65.3773 543.559 64.8656C544.241 64.3538 545.095 65.5479 545.778 64.5244C546.631 64.5244 547.484 64.5244 548.338 64.5244C550.215 64.5244 552.264 64.5244 554.141 64.5244C554.824 64.5244 555.507 64.695 555.848 64.3538C556.702 63.6715 557.726 63.8421 558.579 63.8421C559.262 63.8421 560.115 64.0127 560.798 63.6715C561.993 62.9892 563.188 63.1598 564.382 63.1598C565.577 63.1598 566.943 63.1598 568.138 63.1598C569.332 63.5009 570.527 64.0127 571.722 64.8656L570.527 64.1832C570.357 63.8421 571.21 63.6715 571.893 63.5009C571.722 63.5009 571.722 63.3304 571.551 63.3304C574.282 63.3304 576.843 63.3304 579.574 63.3304C580.598 63.3304 581.622 63.3304 582.817 62.8186C583.841 62.3069 585.206 62.6481 586.401 62.6481C588.449 64.0127 590.668 63.1598 592.887 63.1598C594.253 62.1363 595.618 62.4775 597.154 62.4775C598.179 62.4775 599.544 62.6481 600.398 62.1363C600.568 61.9658 600.739 61.9658 601.08 61.7952C602.446 62.1363 604.494 62.6481 607.908 62.9892C614.052 62.1363 621.392 60.9423 628.731 61.2835C631.292 61.454 633.681 62.6481 633.34 63.3304C636.583 63.1598 641.021 63.1598 644.264 63.3304C658.26 60.6012 642.557 58.2131 637.266 57.8719ZM629.585 38.7675C629.585 38.5969 629.926 38.7675 629.926 38.7675C629.926 38.7675 629.585 38.7675 629.926 38.938C629.926 38.938 629.585 38.9381 629.414 39.1086C629.073 38.9381 629.926 38.938 629.585 38.7675ZM627.195 38.5969C627.366 38.5969 627.537 38.5969 627.707 38.5969C627.537 38.7675 627.366 38.7675 627.195 38.938C626.854 38.7675 627.195 38.5969 627.195 38.5969ZM626.171 38.5969C626 38.7675 626.512 38.5969 626.683 38.5969C626.854 38.5969 626.513 38.7675 626.854 38.7675C626.854 38.938 626.342 38.7675 626.342 38.938C626 38.938 626.171 38.7675 626 38.938C625.83 38.938 626.171 38.9381 626 39.1086C626 39.1086 625.83 39.1086 625.659 39.1086C625.659 39.1086 625.83 38.938 625.659 38.938C625.318 39.1086 625.488 39.1086 624.976 38.938C624.976 38.7675 625.318 38.7675 625.488 38.7675C625.488 38.7675 625.318 38.7675 625.147 38.7675C625.488 38.4263 625.659 38.5969 626.171 38.5969ZM624.635 38.4263C624.806 38.4263 624.976 38.4263 624.976 38.4263C624.976 38.5969 624.806 38.5969 624.635 38.4263C624.635 38.5969 624.806 38.7675 624.464 38.5969V38.4263C624.464 38.5969 624.635 38.5969 624.635 38.4263ZM626.342 36.55C626.683 36.7206 627.025 36.55 627.195 36.7206C626.683 36.7206 626.342 36.8911 626.171 36.7206C626.171 36.7206 626.513 36.7206 626.342 36.55ZM636.242 24.2687C635.729 24.0981 636.583 24.2687 636.242 24.2687C636.412 24.0981 636.754 24.2687 637.095 24.2687C637.095 24.2687 636.924 24.2687 636.754 24.2687C636.583 24.2687 636.754 24.4393 636.583 24.4393C636.412 24.4393 636.583 24.2687 636.242 24.2687ZM636.754 24.7804C636.412 24.951 636.754 24.6098 637.266 24.7804C637.266 24.7804 636.754 24.6098 636.754 24.7804ZM637.607 24.951C637.436 24.951 637.436 25.1216 637.607 24.951C637.266 25.1216 637.436 24.951 637.266 24.951C637.436 24.951 637.778 24.951 637.948 24.951C637.778 24.951 637.607 24.951 637.607 24.951ZM637.948 24.2687C637.948 24.0981 638.29 24.2687 638.802 24.2687C638.802 24.4393 638.119 24.2687 637.948 24.2687ZM638.29 24.0981C637.778 24.0981 637.778 24.0981 637.436 23.9275C637.436 23.757 637.778 23.9275 637.948 23.9275C638.461 23.5864 638.973 23.9275 639.655 23.757C639.826 23.9275 639.997 23.757 640.338 23.9275C639.826 24.0981 638.631 23.9275 638.29 24.0981ZM640.509 23.9275C640.509 23.757 640.679 23.757 640.85 23.757C641.021 23.757 641.021 23.9275 641.021 23.9275C640.679 23.9275 640.509 23.9275 640.509 23.9275ZM647.166 22.5629C647.336 22.7335 647.166 22.7335 647.166 22.9041C646.653 22.9041 646.824 22.7335 646.312 22.9041C646.141 22.7335 646.653 22.9041 646.653 22.7335C646.653 22.5629 645.971 22.7335 646.141 22.5629C646.654 22.5629 646.824 22.5629 647.166 22.5629ZM655.017 21.5395C655.017 21.71 654.676 21.71 654.505 21.71C654.334 21.5395 654.676 21.5395 655.017 21.5395ZM651.262 21.5395C650.921 21.71 650.75 21.5395 650.409 21.5395V21.3689C650.75 21.3689 651.091 21.3689 651.262 21.5395ZM645.971 22.7335C645.8 22.7335 645.629 22.7335 645.459 22.7335C645.288 22.5629 645.971 22.3923 645.971 22.7335ZM645.117 21.71C645.288 21.8806 644.435 21.8806 644.605 21.8806C644.435 21.71 644.947 21.8806 645.117 21.71ZM643.41 21.3689C643.24 21.5395 642.728 21.3689 642.557 21.3689C642.557 21.1983 643.24 21.3689 643.41 21.3689ZM643.581 23.9275C643.41 23.9275 642.898 23.9275 642.728 23.757C643.069 23.9275 643.41 23.757 643.581 23.9275ZM642.728 25.9744C642.557 26.145 642.557 26.145 642.728 26.3156C642.216 26.3156 642.045 26.145 641.874 26.3156C641.533 26.3156 641.021 25.8039 641.703 25.8039C641.533 26.145 642.557 25.8039 642.728 25.9744ZM642.216 25.6333C642.216 25.8039 641.703 25.6333 641.874 25.8039C641.703 25.8039 641.533 25.8039 641.362 25.8039C641.362 25.4627 642.045 25.4627 642.216 25.6333ZM641.874 23.9275C641.874 24.0981 641.362 23.9275 641.192 23.9275C641.192 23.757 641.703 23.757 641.874 23.9275ZM638.973 22.7335C639.485 22.7335 639.826 22.7335 640.338 22.7335C640.338 22.9041 640.679 22.9041 641.021 22.9041C641.192 22.9041 640.509 22.9041 640.85 23.0747C640.509 23.0747 640.338 22.9041 639.997 23.0747V22.9041C639.655 22.7335 639.485 22.7335 638.973 22.7335C638.973 22.9041 638.973 22.9041 638.973 22.9041C638.802 22.9041 639.143 22.7335 638.973 22.7335ZM638.461 22.7335C638.631 22.5629 638.631 22.9041 638.802 22.7335C638.802 22.9041 638.29 22.9041 638.119 22.9041C637.778 22.7335 638.802 22.9041 638.461 22.7335ZM636.071 22.5629C636.242 22.7335 636.071 22.7335 635.9 22.9041C635.559 22.9041 635.388 22.9041 635.388 22.5629C635.729 22.7335 635.9 22.5629 636.071 22.5629ZM635.217 22.7335C635.047 22.9041 635.559 22.9041 635.559 23.0747C634.876 22.9041 634.193 22.7335 633.511 22.7335C633.852 22.5629 634.705 22.9041 635.217 22.7335ZM588.108 6.18759C588.449 6.18759 588.791 6.18759 588.961 6.18759V6.35816C588.791 6.52874 588.62 6.52874 588.279 6.52874C588.108 6.52874 588.108 6.52874 588.108 6.35816C587.937 6.35816 588.108 6.18759 588.108 6.18759ZM580.427 6.52874C579.915 6.52874 579.574 6.69931 579.403 6.69931C578.549 6.69931 578.208 6.69931 577.867 6.35816V6.18759C578.037 6.01701 578.208 6.01701 578.208 6.01701C578.549 6.01701 578.72 6.18759 579.062 6.35816C579.574 6.52874 580.256 6.18759 580.427 6.52874ZM577.355 5.33471C577.355 5.33471 577.696 5.33471 577.867 5.16413C577.867 4.99356 578.037 4.99356 578.037 4.99356C578.208 4.99356 578.379 4.99356 578.208 5.16413C578.037 5.16413 577.867 5.16413 577.696 5.33471C577.696 5.33471 577.696 5.33471 577.696 5.50528C577.696 5.50528 577.696 5.67586 577.525 5.67586C577.525 5.50528 577.355 5.33471 577.355 5.33471ZM11.7774 61.4541C11.7774 61.4541 11.6068 61.2835 11.6068 61.1129C11.6068 61.1129 11.6068 61.1129 11.6068 60.9424V60.7718C11.6068 60.7718 11.6068 60.7718 11.7774 60.7718C11.7774 60.7718 11.7774 60.7718 11.9481 60.7718C12.1188 61.1129 12.1188 61.2835 11.7774 61.4541ZM619.002 39.6204C619.173 39.6204 619.173 39.7909 619.002 39.6204C619.002 39.7909 619.002 39.7909 619.002 39.6204C616.271 39.9615 615.418 40.8144 615.247 41.6673C614.735 41.6673 614.052 41.6673 613.711 41.4967C613.37 41.4967 612.858 41.8378 612.687 41.4967C612.346 41.4967 612.516 41.6673 612.175 41.6673C612.004 41.6673 612.175 41.3261 612.004 41.3261C612.004 41.4967 611.663 41.3261 611.492 41.4967C611.321 41.3261 610.809 41.3261 610.639 41.1555C610.98 41.1555 611.663 40.985 611.321 40.8144C610.98 41.1555 610.468 41.1555 609.785 41.1555C609.614 41.1555 609.273 40.985 609.102 40.985C609.102 40.985 608.932 40.985 608.932 40.8144C608.761 40.8144 608.761 40.8144 608.761 40.8144C608.59 40.8144 608.42 40.6438 608.249 40.6438C608.249 40.6438 608.249 40.6438 608.249 40.4732C608.42 40.4732 608.59 40.4732 608.59 40.4732C608.59 40.1321 608.078 40.1321 607.566 40.1321C607.737 40.1321 607.737 39.9615 607.908 39.9615C608.249 39.9615 608.761 39.9615 609.444 39.9615C609.615 39.7909 609.444 39.7909 609.273 39.7909C609.444 39.6204 609.785 39.6204 610.127 39.7909C610.127 39.9615 610.127 39.9615 609.956 40.1321C609.785 40.1321 609.615 40.1321 609.615 40.1321C609.615 40.1321 609.614 40.3027 609.785 40.3027H609.956C609.956 40.1321 609.956 40.1321 610.127 40.1321C610.127 40.3027 610.127 40.3027 609.956 40.4732H609.785C609.444 40.4732 609.273 40.6438 608.932 40.6438C608.761 40.8144 609.103 40.8144 608.761 40.8144C609.103 40.8144 609.444 40.8144 609.102 40.6438C609.273 40.6438 609.615 40.6438 609.956 40.6438C609.956 40.6438 610.297 40.8144 610.468 40.985C610.468 40.8144 610.468 40.8144 610.639 40.6438C610.98 40.6438 611.321 40.6438 611.492 40.4732C611.321 40.4732 611.321 40.4732 611.151 40.4732C611.151 40.4732 610.98 40.6438 610.639 40.6438C610.639 40.4732 610.639 40.4732 610.809 40.3027C610.98 40.3027 611.151 40.3027 611.151 40.3027C610.98 40.3027 610.809 40.3027 610.809 40.3027L610.639 40.1321C611.151 40.1321 611.492 40.1321 611.833 39.9615C611.663 39.9615 611.321 39.9615 610.98 39.7909C612.687 39.7909 613.54 39.7909 615.247 39.7909L615.077 39.9615C615.418 39.9615 615.589 39.7909 616.101 39.7909C616.101 39.7909 616.101 39.9615 616.271 39.9615C616.271 39.9615 616.442 39.9615 616.613 39.9615C616.613 39.7909 616.271 39.9615 616.271 39.7909C616.783 39.6204 617.637 39.7909 618.32 39.6204C618.49 39.7909 619.002 39.7909 619.173 39.7909C619.344 39.6204 619.002 39.4498 619.344 39.4498C619.173 39.2792 619.685 39.4498 619.002 39.6204ZM625.318 34.8444C625.318 35.0149 624.976 34.8444 624.976 34.8444C624.976 34.8444 625.318 34.6738 625.318 34.8444ZM625.147 34.6738C624.806 34.5032 624.123 34.6738 623.781 34.8444C623.611 34.6738 623.44 34.6738 623.099 34.5032C623.099 34.5032 623.269 34.6738 623.099 34.6738C622.757 34.6738 622.757 34.5032 622.416 34.5032C622.416 34.6738 622.416 34.6738 622.245 34.6738C621.904 34.1621 621.563 33.9915 621.221 33.6503C621.733 33.4798 622.245 33.6503 622.587 33.6503C622.928 33.6503 622.416 33.4798 622.587 33.4798C623.611 33.6503 624.635 33.9915 625.318 34.5032L625.147 34.6738ZM611.663 33.9915H611.833C611.833 33.9915 611.833 33.9915 611.663 33.9915ZM612.858 35.6973C613.199 35.6973 613.199 35.6973 613.37 35.6973C613.37 35.6973 613.37 35.6973 613.37 35.8678C613.199 35.8678 612.858 35.8678 612.858 35.6973ZM619.685 39.2792C619.514 39.2792 619.514 39.1086 619.344 39.1086C619.344 39.1086 619.856 39.2792 619.685 39.2792ZM621.051 38.938C621.051 39.1086 620.88 39.1086 621.051 39.2792C620.709 39.2792 620.197 39.2792 620.197 39.1086C620.88 39.2792 620.709 39.1086 621.051 38.938ZM624.294 36.55C624.123 36.55 623.952 36.7206 623.781 36.55C623.781 36.3794 624.123 36.55 624.123 36.3794C623.781 36.3794 623.782 36.2088 623.44 36.3794C623.269 36.7206 621.904 36.7206 622.075 36.3794C621.733 36.55 621.392 36.55 621.904 36.55C621.563 36.55 620.88 36.55 621.051 36.7206C621.051 36.55 620.709 36.7206 620.709 36.55C620.709 36.3794 621.221 36.55 621.221 36.3794C621.221 36.2088 620.539 36.3794 620.539 36.3794C620.88 36.3794 620.538 36.2088 620.88 36.2088C620.709 36.3794 621.05 36.3794 621.221 36.2088C621.05 36.3794 621.221 36.3794 621.563 36.3794C621.221 36.2088 621.392 36.2088 621.733 36.0383C621.221 36.0383 620.539 36.0383 620.026 36.0383C620.197 36.0383 619.685 36.2088 619.685 36.2088C619.002 36.3794 618.661 36.0383 617.978 36.2088C618.149 36.2088 617.978 36.0383 617.978 36.0383H618.149C618.32 36.0383 618.832 36.0383 618.832 36.0383C618.661 36.0383 618.832 36.0384 618.832 35.8678C618.661 35.8678 618.49 35.8678 618.32 35.8678C618.32 35.8678 618.49 35.6973 618.49 35.5267C618.49 35.5267 618.49 35.5267 618.661 35.5267C618.661 35.5267 618.661 35.6973 618.832 35.6973C619.002 35.6973 619.514 35.6973 619.344 35.5267C618.661 35.6973 619.002 35.3561 618.661 35.1855V35.0149C618.832 35.0149 619.173 35.0149 619.344 35.0149C619.173 35.0149 619.173 35.0149 619.344 35.0149C619.685 35.0149 619.856 35.0149 620.026 35.1855C620.026 35.0149 620.026 35.0149 620.368 35.0149C620.368 34.8444 620.197 34.8444 620.197 34.8444C620.538 34.8444 620.88 34.8444 621.051 34.8444C621.221 34.8444 621.392 35.0149 621.392 35.1855C621.392 35.1855 621.392 35.1855 621.563 35.3561C620.88 35.5267 620.026 35.3561 619.685 35.3561C619.856 35.5267 620.368 35.3561 620.539 35.5267C619.856 35.5267 619.514 35.3561 619.173 35.3561C619.173 35.5267 619.685 35.6973 620.026 35.6973C620.197 36.0384 619.173 35.8677 619.002 36.0383C619.514 36.0383 620.026 35.8678 620.368 35.6973C620.709 35.8678 621.051 35.8678 621.733 35.8678C621.392 35.6973 621.563 35.8678 621.563 35.5267C621.392 35.5267 621.221 35.6973 621.221 35.5267C621.221 35.3561 621.733 35.3561 621.733 35.3561C621.904 35.3561 622.075 35.5267 622.245 35.3561H622.416C622.587 35.3561 622.587 35.5267 622.587 35.5267C622.245 35.5267 622.075 35.5267 621.733 35.5267C621.904 35.6973 621.733 35.8678 622.075 35.8678C622.075 35.6973 621.904 35.6973 621.904 35.6973C622.245 35.6973 622.757 35.6973 622.757 35.8678C622.757 35.6973 623.952 35.8678 623.44 35.6973C623.611 35.6973 623.781 35.6973 623.781 35.6973C623.781 35.8678 623.781 35.8677 623.781 36.0383C624.123 36.2088 624.294 36.3794 624.294 36.55C624.464 36.55 624.294 36.3794 624.294 36.55ZM624.294 36.3794C624.464 36.2088 624.635 36.3794 624.635 36.2088C625.147 36.2088 625.147 36.2088 625.488 36.2088C625.318 36.3794 624.806 36.3794 624.294 36.3794ZM624.976 36.3794C625.488 36.3794 624.806 36.55 624.635 36.55C624.635 36.3794 624.806 36.3794 624.976 36.3794C625.147 36.3794 625.488 36.3794 625.659 36.3794C625.659 36.55 625.318 36.3794 624.976 36.3794ZM624.294 35.5267C624.294 35.6973 624.464 35.6973 624.294 35.5267C624.123 35.5267 623.782 35.6973 623.44 35.6973C623.44 35.5267 623.44 35.5267 623.099 35.5267C623.269 35.6973 622.587 35.6973 622.587 35.5267V35.6973C622.416 35.5267 623.099 35.5267 622.757 35.5267C622.757 35.5267 622.587 35.5267 622.416 35.5267C622.587 35.3561 622.587 35.3561 622.587 35.3561C622.757 35.3561 622.587 35.5267 622.928 35.5267C622.928 35.3561 623.44 35.1855 623.611 35.3561C623.611 35.5267 623.269 35.3561 623.611 35.5267C623.781 35.3561 624.294 35.5267 624.294 35.1855C624.806 35.3561 624.806 35.1855 625.318 35.1855C625.488 35.0149 625.318 35.0149 625.318 35.0149C625.488 35.0149 625.659 35.0149 625.659 35.0149C625.83 35.1855 626 35.3561 626.171 35.5267C625.83 35.6973 624.806 35.6973 624.294 35.5267ZM631.804 29.8977C631.804 29.5565 632.316 29.7271 632.828 29.7271C632.657 29.8977 631.974 29.8977 631.804 29.8977ZM634.705 29.7271C634.705 29.7271 634.876 29.7271 635.047 29.7271V29.8977H635.217C635.047 30.0683 634.535 29.8977 634.705 29.7271C634.023 29.8977 633.34 29.7271 632.657 29.5565C633.169 29.5565 633.852 29.386 634.535 29.386C634.535 29.386 634.193 29.386 634.364 29.5565C634.535 29.5565 634.705 29.5565 634.705 29.7271ZM636.071 26.145C636.242 26.145 636.412 26.145 636.583 26.145H636.071C635.9 26.145 635.9 26.145 636.071 26.145ZM635.9 26.3156L635.388 26.4862C635.217 26.4862 635.217 26.4862 635.217 26.3156C635.388 26.3156 635.729 26.145 635.9 26.3156ZM631.804 25.6333C631.974 25.8039 632.145 25.8039 631.974 25.6333C632.316 25.8039 633.169 25.6333 633.34 25.8039C633.34 25.9744 633.169 25.9744 633.34 26.145C632.828 26.3156 631.974 26.3156 631.292 26.3156C631.292 26.4862 631.462 26.4862 631.462 26.4862C631.462 26.3156 631.462 26.3156 631.804 26.3156C631.974 26.4862 631.974 26.4862 631.804 26.4862C631.974 26.4862 632.316 26.4862 632.316 26.4862C632.145 26.4862 631.974 26.4862 631.974 26.4862C631.974 26.6567 632.828 26.8273 632.998 26.6567C632.828 26.6567 632.828 26.6567 632.657 26.4862C632.828 26.4862 632.828 26.4862 632.998 26.3156C633.34 26.3156 633.169 26.4862 633.34 26.4862C633.511 26.3156 633.511 26.6567 633.511 26.6567C633.511 26.6567 633.681 26.4862 633.852 26.4862C633.852 26.4862 633.852 26.4862 633.852 26.6567L633.169 26.8273C633.169 26.8273 633.169 26.6567 632.998 26.8273C631.974 26.6567 631.292 26.4862 630.78 26.3156C630.95 26.3156 631.121 26.145 631.292 26.145C630.95 26.145 630.438 25.9744 630.097 25.8039C630.097 25.6333 630.097 25.6333 630.097 25.4627C630.097 25.4627 630.097 25.4627 630.268 25.4627C630.268 25.4627 630.097 25.4627 630.268 25.6333C631.121 25.6333 630.609 25.9744 631.462 25.9744C631.633 25.9744 631.633 25.8039 631.974 25.6333C631.462 25.8039 631.633 25.6333 631.804 25.6333ZM632.828 23.5864C632.999 23.4158 632.998 23.4158 633.169 23.4158C633.169 23.5864 632.999 23.5864 632.828 23.5864ZM633.169 22.9041C632.828 22.9041 632.999 22.7335 632.657 22.9041C632.486 22.7335 633.34 22.7335 633.169 22.9041ZM627.366 21.1983C627.537 21.0277 627.878 21.1983 627.878 21.3689C627.366 21.3689 627.537 21.1983 627.366 21.1983ZM615.077 23.9275C615.077 24.0981 614.906 24.0981 614.735 24.2687C614.735 24.0981 614.735 24.0981 614.735 23.9275C614.906 23.9275 614.906 23.9275 615.077 23.9275ZM546.46 12.4989C546.46 12.6695 546.119 12.84 545.948 12.84C545.266 12.84 544.583 12.84 543.9 12.6695C543.729 12.6695 543.729 12.4989 543.729 12.3283C543.559 12.3283 543.388 12.3283 543.388 12.1577C543.217 11.9872 543.388 11.9872 543.559 11.9872C543.559 12.1577 543.559 12.1577 543.559 12.3283C543.729 12.3283 543.9 12.3283 544.071 12.1577C544.753 11.8166 545.266 11.8166 545.778 12.1577C545.948 12.3283 546.119 12.3283 546.46 12.4989C546.46 12.3283 546.46 12.3283 546.46 12.4989C546.631 12.3283 546.631 12.3283 546.802 12.1577C546.972 12.1577 547.143 12.1577 546.972 12.3283C546.802 12.3283 546.631 12.3283 546.46 12.4989ZM542.876 8.74622H542.705C542.534 8.74622 542.364 8.57565 542.193 8.57565C542.022 8.57565 542.022 8.40507 542.022 8.23449C542.193 8.23449 542.364 8.23449 542.534 8.23449C542.876 8.23449 543.217 8.40507 543.047 8.57565C543.047 8.57565 543.047 8.74622 542.876 8.74622ZM583.329 16.2516C582.987 16.2516 582.817 16.2516 582.475 16.081V15.9104C582.646 15.9104 582.817 15.9104 582.987 16.081C583.158 16.2516 583.329 16.2516 583.329 16.2516ZM574.453 5.84643C575.307 5.67586 575.818 6.18759 576.672 6.35816C576.843 6.35816 576.843 6.52874 576.843 6.52874C576.672 6.52874 576.501 6.52874 576.16 6.69931C575.819 6.69931 575.648 6.86989 575.648 7.04046C575.989 7.04046 576.16 7.04046 576.501 7.04046C576.672 7.04046 576.672 7.04046 576.672 7.21104C576.672 7.21104 576.501 7.38162 576.331 7.38162C575.989 7.38162 575.648 7.38162 575.477 7.38162C575.648 7.55219 575.819 7.72277 575.989 7.89334C576.16 8.06392 576.16 8.23449 576.16 8.23449C575.648 8.74622 574.965 9.08737 573.941 9.25795C573.77 9.25795 573.6 9.08737 573.429 9.08737C573.941 8.74622 574.282 8.57565 573.77 8.06392C573.258 7.72277 572.746 7.55219 571.893 7.55219C571.722 7.55219 571.722 7.55219 571.551 7.38162C571.551 7.38162 571.551 7.38162 571.381 7.38162H571.551H571.722C572.917 7.38162 574.282 7.38162 575.477 7.38162C575.477 7.21104 575.477 7.21104 575.477 7.04046C574.624 6.86989 574.282 6.52874 573.77 6.18759L573.6 6.01701C573.941 6.01701 574.282 5.84643 574.453 5.84643ZM569.503 5.67586L569.674 5.50528H569.844C570.186 5.84643 570.357 6.01701 570.698 6.18759C571.21 6.52874 571.381 6.18758 571.381 6.01701L571.722 5.84643C571.722 6.01701 571.893 6.01701 571.893 6.18759C571.893 6.86989 571.722 6.86989 570.186 6.86989C569.332 6.86989 569.162 6.69931 569.162 6.35816C569.332 6.18759 569.503 5.84643 569.503 5.67586ZM564.041 6.01701H564.212C564.382 6.18758 564.382 6.18758 564.041 6.01701C564.041 6.18758 563.87 6.18759 563.87 6.18759L564.041 6.01701ZM562.846 8.23449C563.017 8.06392 563.188 7.89334 563.7 7.89334C564.212 7.89334 564.724 7.89334 565.065 7.89334C566.26 8.23449 567.455 8.23449 568.65 8.40507C568.82 8.40507 568.991 8.57565 568.991 8.57565C568.991 8.74622 568.991 8.9168 568.479 9.08737C567.967 9.08737 567.626 9.25795 567.626 9.42852C568.308 9.5991 568.991 10.1108 570.015 9.5991C570.527 9.42852 571.381 9.5991 572.063 9.5991C572.234 9.5991 572.405 9.76968 572.405 9.94025C572.576 10.1108 572.234 10.2814 571.893 10.2814C569.332 10.2814 566.772 10.1108 564.212 10.1108C563.7 10.1108 563.358 9.94025 563.358 9.5991C563.358 9.42852 563.017 9.25795 562.846 9.08737C562.676 9.08737 562.334 8.9168 562.334 8.74622C562.334 8.57565 562.676 8.40507 562.846 8.23449ZM540.316 6.18759C540.828 6.18759 541.169 6.35816 541.51 6.52874C542.022 6.69931 542.534 6.69931 543.217 6.52874C543.388 6.52874 543.729 6.35816 543.729 6.35816C545.266 7.04046 547.143 6.52874 548.85 6.69931C549.874 6.86989 551.069 6.69931 552.264 7.04046C552.946 7.21104 554.141 7.21104 554.995 7.21104C556.872 7.21104 558.75 7.21104 560.286 7.72277C560.798 7.89334 561.651 7.55219 561.993 8.06392C561.31 8.40507 560.627 8.06392 559.945 8.23449C559.433 8.23449 558.75 8.23449 558.238 8.23449C557.384 8.23449 556.36 8.23449 555.507 8.23449C554.824 8.23449 554.141 8.23449 553.458 8.40507C552.946 8.57565 552.264 8.57565 551.922 8.40507C551.41 8.06392 550.898 8.40507 550.557 8.40507C550.045 8.23449 549.533 8.06392 549.021 7.89334C548.509 7.72277 547.997 7.72277 547.314 7.72277C546.631 7.55219 545.948 8.06392 545.436 7.89334C544.753 7.55219 543.9 7.72277 543.047 7.72277C542.364 7.72277 541.681 7.72277 540.998 7.72277C540.316 7.72277 539.804 7.55219 539.462 7.38162C539.291 7.21104 539.121 7.04046 539.121 6.86989C539.121 6.18759 539.803 6.18759 540.316 6.18759ZM528.367 2.94667C528.709 2.77609 529.05 2.43494 529.562 2.77609C529.904 2.94666 530.074 2.60551 530.416 2.77609C530.586 2.77609 530.928 2.94667 530.757 2.94667C530.757 3.11724 530.586 3.28782 530.416 3.45839C530.245 3.45839 529.733 3.45839 529.562 3.45839C529.221 3.45839 528.88 3.45839 528.538 3.45839C528.197 3.11724 528.197 3.11724 528.367 2.94667ZM524.783 3.97012H524.954C525.124 3.97012 525.124 4.14069 524.783 4.14069C524.783 4.31127 524.783 4.14069 524.783 3.97012C524.783 4.14069 524.612 4.14069 524.783 3.97012ZM522.906 2.77609L523.076 2.94667L522.906 3.11724C522.564 2.94666 522.564 2.77609 522.906 2.77609ZM520.687 3.79954L520.857 3.97012L520.687 4.14069C520.345 3.97012 520.345 3.97012 520.687 3.79954ZM520.174 3.11724L520.345 3.28782C520.345 3.28782 520.174 3.28782 520.174 3.45839H520.004C520.004 3.28782 520.004 3.11724 520.174 3.11724ZM516.419 4.14069C516.419 4.14069 516.59 4.14069 516.59 4.31127C516.59 4.31127 516.419 4.31127 516.419 4.48185H516.249C516.419 4.31127 516.419 4.31127 516.419 4.14069ZM105.656 3.1172C105.826 2.94662 106.168 2.94662 106.509 2.94662C106.85 3.1172 107.021 3.1172 107.363 3.28777C107.192 3.28777 107.021 3.45835 106.85 3.45835C106.68 3.45835 106.509 3.45835 106.168 3.62892C105.997 3.62892 105.997 3.62892 105.826 3.62892C105.656 3.62892 105.485 3.62892 105.314 3.45835C105.314 3.28777 105.485 3.1172 105.656 3.1172ZM102.583 5.33468C102.754 5.33468 102.754 5.33468 102.925 5.33468C102.925 5.33468 102.925 5.33468 102.925 5.50526C102.754 5.33468 102.583 5.33468 102.583 5.33468ZM98.1454 1.41144C98.1454 1.41144 98.3161 1.41144 98.3161 1.58202C98.3161 1.58202 98.1454 1.58202 98.1454 1.75259H97.9747C97.9747 1.41144 98.1454 1.41144 98.1454 1.41144ZM95.2437 2.77605L95.4144 2.94662L95.2437 3.1172C94.9023 2.94662 94.9023 2.77605 95.2437 2.77605ZM89.7817 3.45835C89.9524 3.28777 89.9524 3.28777 89.7817 3.45835C89.9524 3.1172 90.2938 3.1172 90.8058 3.1172C90.9765 3.1172 90.9765 3.1172 90.9765 3.28777C91.1472 3.28777 90.9765 3.45835 90.8058 3.45835C90.4645 3.45835 90.2938 3.28777 89.7817 3.45835C89.9524 3.45835 89.9524 3.28777 89.7817 3.45835L89.611 3.62892H89.4403C89.2697 3.45835 89.611 3.45835 89.7817 3.45835ZM80.906 1.58202C81.5887 1.58202 82.4421 1.75259 82.7835 1.41144C83.4663 1.07029 83.9783 1.75259 84.4904 1.41144C85.0025 1.24086 85.8559 1.24087 86.368 1.07029C87.0507 0.899714 87.7335 0.899714 88.4162 0.899714C88.7576 0.899714 89.099 1.07029 89.099 1.24087C89.2696 1.58202 89.099 1.75259 88.7576 1.75259C88.2455 1.75259 87.5628 1.75259 87.0507 1.75259C86.88 1.75259 86.88 1.92317 86.88 1.92317L87.0507 2.09374C87.3921 2.09374 87.7335 2.09374 88.0748 2.09374C88.2455 2.09374 88.2455 2.09374 88.4162 2.26432C88.5869 2.26432 88.4162 2.4349 88.0748 2.4349C87.2214 2.4349 86.1973 2.43489 85.3438 2.77605C84.8318 2.94662 83.8076 2.94662 83.2956 2.77605C82.4421 2.43489 81.0766 2.4349 80.906 1.58202ZM12.9723 19.3219C12.9723 19.3219 12.8016 19.3219 12.8016 19.1513C12.9723 19.1513 12.9723 19.1513 13.143 18.9807L13.3136 19.1513C13.143 19.3219 12.9723 19.3219 12.9723 19.3219ZM12.1188 26.3155C12.1188 26.1449 12.2895 26.1449 12.2895 25.9743C12.4602 25.9743 12.6309 25.9743 12.9723 25.9743L13.143 26.1449H13.3136C12.9723 26.3155 12.6309 26.4861 12.2895 26.6566C12.2895 26.4861 12.1188 26.3155 12.1188 26.3155ZM10.0706 32.4562C10.2413 32.2856 10.4119 31.9445 10.5826 31.9445C10.7533 31.7739 11.0947 31.4328 11.4361 31.4328C11.7774 31.2622 11.9481 31.4328 12.1188 31.6033C11.9481 31.9445 11.7774 32.1151 11.6068 32.4562C11.6068 32.6268 11.4361 32.7974 11.2654 32.9679C11.0947 32.9679 10.924 32.9679 10.924 32.9679C10.5826 32.6268 10.2413 32.6268 10.0706 32.4562ZM17.5808 43.8848C17.4101 43.8848 17.4101 43.7142 17.4101 43.7142C17.5808 43.7142 17.5808 43.5436 17.7515 43.5436C17.9222 43.5436 17.9222 43.7142 18.0929 43.7142C17.9222 43.7142 17.7515 43.8848 17.5808 43.8848ZM21.6773 55.1428C21.5066 54.9722 21.336 54.9722 21.1653 54.8016C21.336 54.6311 21.5066 54.4605 21.848 54.4605C22.0187 54.4605 22.1894 54.6311 22.3601 54.8016C22.0187 54.9722 21.848 54.9722 21.6773 55.1428ZM23.3842 54.2899L23.2135 54.1193C23.3842 54.1193 23.5549 54.1193 23.5549 54.1193C23.7256 54.1193 23.5549 54.1193 23.3842 54.2899ZM42.5012 65.5479L42.3305 65.3773C42.3305 65.3773 42.3305 65.2067 42.5012 65.2067H42.6719C42.8426 65.2067 42.6719 65.3773 42.5012 65.5479ZM44.0374 68.4477C43.8667 68.6183 43.696 68.6183 43.5254 68.2771L43.696 68.1065C43.696 68.1065 43.8667 68.1065 43.8667 68.2771C44.2081 68.2771 44.2081 68.4477 44.0374 68.4477ZM47.2805 51.049C47.1098 51.049 46.9391 51.049 46.7684 50.8784C47.1098 50.8784 47.2805 51.049 47.6219 51.049C47.4512 51.049 47.4512 51.049 47.2805 51.049ZM48.4753 69.3006C48.3046 69.3006 48.3046 69.13 48.1339 69.13L48.3046 68.9594L48.4753 69.13V69.3006ZM54.108 54.2899L53.9373 54.1193L54.108 53.9487C54.2787 53.9487 54.2787 54.1193 54.2787 54.1193C54.2787 54.1193 54.2787 54.1193 54.108 54.2899ZM62.301 54.1193C62.1303 54.1193 62.1303 54.2899 61.9596 54.2899C61.1062 54.4605 60.2527 54.2899 59.9114 53.2665C59.9114 53.2665 59.9114 53.0959 59.9114 52.9253C59.9114 52.7547 60.0821 52.7547 60.2527 52.7547C60.7648 52.9253 61.2769 53.2665 61.6182 53.437C61.6182 53.6076 61.7889 53.7782 61.7889 53.9487C61.9596 53.9487 62.1303 53.7782 62.301 53.7782C62.301 53.7782 62.301 53.7782 62.4717 53.7782C62.301 53.9488 62.301 53.9488 62.301 54.1193ZM64.3493 54.2899L64.1786 54.1193C64.1786 54.1193 64.1786 53.9487 64.3493 53.9487H64.5199C64.6906 53.9487 64.6906 54.1193 64.3493 54.2899ZM614.223 43.7142L614.052 43.5436C614.052 43.373 614.052 43.2024 614.052 43.0319C614.394 43.0319 614.735 43.0319 615.077 43.0319V43.2024C614.906 43.373 614.564 43.5436 614.223 43.7142Z" fill="#FFE990"/>
</svg>
