<svg width="359" height="207" viewBox="0 0 359 207" fill="none" xmlns="http://www.w3.org/2000/svg">
<path d="M225.229 130.455C225.229 131.835 224.98 133.028 224.481 134.034C223.983 135.04 223.299 135.815 222.43 136.361C221.56 136.906 220.567 137.179 219.451 137.179C218.334 137.179 217.342 136.906 216.472 136.361C215.603 135.815 214.919 135.04 214.42 134.034C213.922 133.028 213.672 131.835 213.672 130.455C213.672 129.074 213.922 127.881 214.42 126.875C214.919 125.869 215.603 125.094 216.472 124.548C217.342 124.003 218.334 123.73 219.451 123.73C220.567 123.73 221.56 124.003 222.43 124.548C223.299 125.094 223.983 125.869 224.481 126.875C224.98 127.881 225.229 129.074 225.229 130.455ZM223.695 130.455C223.695 129.321 223.506 128.364 223.126 127.585C222.751 126.805 222.242 126.214 221.599 125.814C220.959 125.413 220.244 125.213 219.451 125.213C218.658 125.213 217.94 125.413 217.297 125.814C216.658 126.214 216.148 126.805 215.769 127.585C215.394 128.364 215.207 129.321 215.207 130.455C215.207 131.588 215.394 132.545 215.769 133.325C216.148 134.104 216.658 134.695 217.297 135.095C217.94 135.496 218.658 135.696 219.451 135.696C220.244 135.696 220.959 135.496 221.599 135.095C222.242 134.695 222.751 134.104 223.126 133.325C223.506 132.545 223.695 131.588 223.695 130.455ZM234.977 123.5L235.744 124.42C235.446 124.71 235.101 124.913 234.709 125.028C234.317 125.143 233.873 125.213 233.379 125.239C232.885 125.264 232.335 125.29 231.73 125.315C231.048 125.341 230.484 125.507 230.036 125.814C229.589 126.121 229.244 126.564 229.001 127.143C228.758 127.723 228.602 128.435 228.534 129.278H228.662C228.994 128.665 229.454 128.213 230.043 127.923C230.631 127.634 231.261 127.489 231.935 127.489C232.702 127.489 233.392 127.668 234.006 128.026C234.619 128.384 235.105 128.914 235.463 129.617C235.821 130.32 236 131.188 236 132.219C236 133.246 235.817 134.132 235.45 134.878C235.088 135.624 234.579 136.199 233.922 136.604C233.271 137.004 232.506 137.205 231.628 137.205C230.75 137.205 229.981 136.998 229.32 136.585C228.66 136.167 228.146 135.549 227.78 134.731C227.413 133.908 227.23 132.892 227.23 131.682V130.634C227.23 128.447 227.601 126.79 228.342 125.661C229.088 124.531 230.209 123.947 231.704 123.909C232.233 123.892 232.704 123.888 233.117 123.896C233.53 123.905 233.891 123.886 234.197 123.839C234.504 123.792 234.764 123.679 234.977 123.5ZM231.628 135.849C232.22 135.849 232.729 135.7 233.155 135.402C233.586 135.104 233.916 134.684 234.146 134.143C234.376 133.597 234.491 132.956 234.491 132.219C234.491 131.503 234.374 130.893 234.14 130.391C233.91 129.888 233.579 129.504 233.149 129.24C232.719 128.976 232.203 128.844 231.602 128.844C231.163 128.844 230.769 128.918 230.42 129.067C230.07 129.217 229.772 129.436 229.525 129.726C229.278 130.016 229.086 130.369 228.949 130.787C228.817 131.205 228.747 131.682 228.739 132.219C228.739 133.318 228.996 134.198 229.512 134.859C230.028 135.519 230.733 135.849 231.628 135.849ZM242.296 140.349V123.909H243.805V140.349H242.296ZM242.296 137.205C241.631 137.205 241.026 137.085 240.481 136.847C239.935 136.604 239.467 136.261 239.074 135.817C238.682 135.37 238.38 134.835 238.167 134.213C237.954 133.591 237.847 132.901 237.847 132.142C237.847 131.375 237.954 130.68 238.167 130.058C238.38 129.432 238.682 128.895 239.074 128.447C239.467 128 239.935 127.657 240.481 127.418C241.026 127.175 241.631 127.054 242.296 127.054H242.756V137.205H242.296ZM242.296 135.849H242.552V128.409H242.296C241.793 128.409 241.356 128.511 240.986 128.716C240.615 128.916 240.308 129.191 240.065 129.54C239.827 129.886 239.648 130.282 239.528 130.729C239.413 131.177 239.356 131.648 239.356 132.142C239.356 132.798 239.46 133.408 239.669 133.97C239.878 134.533 240.199 134.987 240.634 135.332C241.069 135.677 241.623 135.849 242.296 135.849ZM243.805 137.205H243.344V127.054H243.805C244.469 127.054 245.074 127.175 245.62 127.418C246.165 127.657 246.634 128 247.026 128.447C247.418 128.895 247.721 129.432 247.934 130.058C248.147 130.68 248.253 131.375 248.253 132.142C248.253 132.901 248.147 133.591 247.934 134.213C247.721 134.835 247.418 135.37 247.026 135.817C246.634 136.261 246.165 136.604 245.62 136.847C245.074 137.085 244.469 137.205 243.805 137.205ZM243.805 135.849C244.312 135.849 244.748 135.751 245.115 135.555C245.486 135.355 245.79 135.082 246.029 134.737C246.272 134.388 246.451 133.991 246.566 133.548C246.685 133.101 246.745 132.632 246.745 132.142C246.745 131.486 246.641 130.874 246.432 130.308C246.223 129.741 245.901 129.283 245.467 128.933C245.032 128.584 244.478 128.409 243.805 128.409H243.549V135.849H243.805ZM251.179 140.682C250.924 140.682 250.696 140.661 250.495 140.618C250.295 140.58 250.157 140.541 250.08 140.503L250.464 139.173C250.83 139.267 251.154 139.301 251.435 139.276C251.716 139.25 251.966 139.124 252.183 138.898C252.405 138.677 252.607 138.317 252.79 137.818L253.071 137.051L249.441 127.182H251.077L253.787 135.006H253.89L256.6 127.182H258.236L254.069 138.432C253.881 138.939 253.649 139.359 253.372 139.691C253.095 140.028 252.773 140.277 252.407 140.439C252.044 140.601 251.635 140.682 251.179 140.682ZM263.864 137.205C262.944 137.205 262.151 136.987 261.487 136.553C260.822 136.118 260.31 135.519 259.953 134.756C259.595 133.994 259.416 133.122 259.416 132.142C259.416 131.145 259.599 130.265 259.965 129.502C260.336 128.735 260.852 128.136 261.512 127.706C262.177 127.271 262.953 127.054 263.839 127.054C264.529 127.054 265.151 127.182 265.705 127.438C266.259 127.693 266.713 128.051 267.067 128.511C267.421 128.972 267.64 129.509 267.725 130.122H266.217C266.102 129.675 265.846 129.278 265.45 128.933C265.058 128.584 264.529 128.409 263.864 128.409C263.276 128.409 262.761 128.562 262.318 128.869C261.879 129.172 261.536 129.6 261.288 130.154C261.046 130.704 260.924 131.349 260.924 132.091C260.924 132.849 261.043 133.51 261.282 134.072C261.525 134.635 261.866 135.072 262.305 135.383C262.748 135.694 263.268 135.849 263.864 135.849C264.256 135.849 264.612 135.781 264.932 135.645C265.252 135.509 265.522 135.312 265.744 135.057C265.965 134.801 266.123 134.494 266.217 134.136H267.725C267.64 134.716 267.429 135.238 267.092 135.702C266.76 136.163 266.319 136.529 265.769 136.802C265.224 137.07 264.589 137.205 263.864 137.205ZM269.93 137V127.182H271.439V131.452H272.436L275.965 127.182H277.908L273.945 131.912L277.959 137H276.016L272.794 132.858H271.439V137H269.93ZM282.488 137.23C281.866 137.23 281.301 137.113 280.794 136.879C280.287 136.64 279.884 136.297 279.586 135.849C279.287 135.398 279.138 134.852 279.138 134.213C279.138 133.651 279.249 133.195 279.471 132.845C279.692 132.491 279.988 132.214 280.359 132.014C280.73 131.814 281.139 131.665 281.586 131.567C282.038 131.464 282.492 131.384 282.948 131.324C283.544 131.247 284.028 131.19 284.399 131.151C284.774 131.109 285.047 131.038 285.217 130.94C285.392 130.842 285.479 130.672 285.479 130.429V130.378C285.479 129.747 285.307 129.257 284.961 128.908C284.62 128.558 284.103 128.384 283.408 128.384C282.688 128.384 282.123 128.541 281.714 128.857C281.305 129.172 281.017 129.509 280.851 129.866L279.419 129.355C279.675 128.759 280.016 128.294 280.442 127.962C280.873 127.625 281.341 127.391 281.848 127.259C282.36 127.122 282.863 127.054 283.357 127.054C283.672 127.054 284.035 127.092 284.444 127.169C284.857 127.241 285.255 127.393 285.639 127.623C286.027 127.853 286.348 128.2 286.604 128.665C286.86 129.129 286.988 129.751 286.988 130.531V137H285.479V135.67H285.402C285.3 135.884 285.13 136.112 284.891 136.354C284.652 136.597 284.335 136.804 283.939 136.974C283.542 137.145 283.059 137.23 282.488 137.23ZM282.718 135.875C283.314 135.875 283.817 135.758 284.226 135.523C284.64 135.289 284.951 134.987 285.16 134.616C285.373 134.245 285.479 133.855 285.479 133.446V132.065C285.415 132.142 285.275 132.212 285.057 132.276C284.844 132.336 284.597 132.389 284.316 132.436C284.039 132.479 283.768 132.517 283.504 132.551C283.244 132.581 283.033 132.607 282.871 132.628C282.479 132.679 282.113 132.762 281.772 132.877C281.435 132.988 281.162 133.156 280.954 133.382C280.749 133.604 280.647 133.906 280.647 134.29C280.647 134.814 280.841 135.21 281.228 135.479C281.62 135.743 282.117 135.875 282.718 135.875ZM288.405 128.588V127.182H296.382V128.588H293.161V137H291.652V128.588H288.405ZM302.062 137.205C301.175 137.205 300.398 136.994 299.729 136.572C299.064 136.15 298.544 135.56 298.169 134.801C297.798 134.043 297.613 133.156 297.613 132.142C297.613 131.119 297.798 130.227 298.169 129.464C298.544 128.701 299.064 128.109 299.729 127.687C300.398 127.265 301.175 127.054 302.062 127.054C302.948 127.054 303.724 127.265 304.388 127.687C305.057 128.109 305.577 128.701 305.948 129.464C306.323 130.227 306.511 131.119 306.511 132.142C306.511 133.156 306.323 134.043 305.948 134.801C305.577 135.56 305.057 136.15 304.388 136.572C303.724 136.994 302.948 137.205 302.062 137.205ZM302.062 135.849C302.735 135.849 303.289 135.677 303.724 135.332C304.158 134.987 304.48 134.533 304.689 133.97C304.898 133.408 305.002 132.798 305.002 132.142C305.002 131.486 304.898 130.874 304.689 130.308C304.48 129.741 304.158 129.283 303.724 128.933C303.289 128.584 302.735 128.409 302.062 128.409C301.388 128.409 300.834 128.584 300.4 128.933C299.965 129.283 299.643 129.741 299.435 130.308C299.226 130.874 299.121 131.486 299.121 132.142C299.121 132.798 299.226 133.408 299.435 133.97C299.643 134.533 299.965 134.987 300.4 135.332C300.834 135.677 301.388 135.849 302.062 135.849ZM308.813 140.682V127.182H310.271V128.741H310.45C310.56 128.571 310.714 128.354 310.91 128.089C311.11 127.821 311.396 127.582 311.766 127.374C312.141 127.161 312.649 127.054 313.288 127.054C314.114 127.054 314.843 127.261 315.474 127.674C316.104 128.087 316.597 128.673 316.95 129.432C317.304 130.19 317.481 131.085 317.481 132.116C317.481 133.156 317.304 134.058 316.95 134.82C316.597 135.579 316.107 136.167 315.48 136.585C314.854 136.998 314.131 137.205 313.313 137.205C312.683 137.205 312.178 137.1 311.798 136.891C311.419 136.678 311.127 136.437 310.923 136.169C310.718 135.896 310.56 135.67 310.45 135.491H310.322V140.682H308.813ZM310.296 132.091C310.296 132.832 310.405 133.487 310.622 134.053C310.84 134.616 311.157 135.057 311.575 135.376C311.992 135.692 312.504 135.849 313.109 135.849C313.739 135.849 314.266 135.683 314.688 135.351C315.114 135.014 315.433 134.562 315.646 133.996C315.864 133.425 315.972 132.79 315.972 132.091C315.972 131.401 315.866 130.778 315.653 130.224C315.444 129.666 315.127 129.225 314.7 128.901C314.278 128.573 313.748 128.409 313.109 128.409C312.495 128.409 311.979 128.565 311.562 128.876C311.144 129.183 310.829 129.613 310.616 130.167C310.403 130.717 310.296 131.358 310.296 132.091ZM208.97 150.588V149.182H216.947V150.588H213.725V159H212.217V150.588H208.97ZM219.147 162.682V149.182H220.605V150.741H220.784C220.894 150.571 221.048 150.354 221.244 150.089C221.444 149.821 221.73 149.582 222.1 149.374C222.475 149.161 222.983 149.054 223.622 149.054C224.448 149.054 225.177 149.261 225.808 149.674C226.438 150.087 226.931 150.673 227.284 151.432C227.638 152.19 227.815 153.085 227.815 154.116C227.815 155.156 227.638 156.058 227.284 156.82C226.931 157.579 226.441 158.167 225.814 158.585C225.188 158.998 224.465 159.205 223.647 159.205C223.017 159.205 222.512 159.1 222.132 158.891C221.753 158.678 221.461 158.437 221.257 158.169C221.052 157.896 220.894 157.67 220.784 157.491H220.656V162.682H219.147ZM220.63 154.091C220.63 154.832 220.739 155.487 220.956 156.053C221.174 156.616 221.491 157.057 221.909 157.376C222.326 157.692 222.838 157.849 223.443 157.849C224.073 157.849 224.6 157.683 225.022 157.351C225.448 157.014 225.767 156.562 225.98 155.996C226.198 155.425 226.306 154.79 226.306 154.091C226.306 153.401 226.2 152.778 225.987 152.224C225.778 151.666 225.46 151.225 225.034 150.901C224.612 150.573 224.082 150.409 223.443 150.409C222.829 150.409 222.313 150.565 221.896 150.876C221.478 151.183 221.163 151.613 220.95 152.167C220.737 152.717 220.63 153.358 220.63 154.091ZM233.005 159.23C232.383 159.23 231.818 159.113 231.311 158.879C230.804 158.64 230.402 158.297 230.103 157.849C229.805 157.398 229.656 156.852 229.656 156.213C229.656 155.651 229.767 155.195 229.988 154.845C230.21 154.491 230.506 154.214 230.877 154.014C231.247 153.814 231.657 153.665 232.104 153.567C232.556 153.464 233.009 153.384 233.465 153.324C234.062 153.247 234.546 153.19 234.916 153.151C235.291 153.109 235.564 153.038 235.735 152.94C235.909 152.842 235.997 152.672 235.997 152.429V152.378C235.997 151.747 235.824 151.257 235.479 150.908C235.138 150.558 234.62 150.384 233.926 150.384C233.206 150.384 232.641 150.541 232.232 150.857C231.823 151.172 231.535 151.509 231.369 151.866L229.937 151.355C230.193 150.759 230.534 150.294 230.96 149.962C231.39 149.625 231.859 149.391 232.366 149.259C232.877 149.122 233.38 149.054 233.875 149.054C234.19 149.054 234.552 149.092 234.961 149.169C235.375 149.241 235.773 149.393 236.157 149.623C236.544 149.853 236.866 150.2 237.122 150.665C237.377 151.129 237.505 151.751 237.505 152.531V159H235.997V157.67H235.92C235.818 157.884 235.647 158.112 235.409 158.354C235.17 158.597 234.853 158.804 234.456 158.974C234.06 159.145 233.576 159.23 233.005 159.23ZM233.235 157.875C233.832 157.875 234.335 157.758 234.744 157.523C235.157 157.289 235.468 156.987 235.677 156.616C235.89 156.245 235.997 155.855 235.997 155.446V154.065C235.933 154.142 235.792 154.212 235.575 154.276C235.362 154.336 235.115 154.389 234.833 154.436C234.556 154.479 234.286 154.517 234.022 154.551C233.762 154.581 233.551 154.607 233.389 154.628C232.997 154.679 232.63 154.762 232.289 154.877C231.953 154.988 231.68 155.156 231.471 155.382C231.267 155.604 231.164 155.906 231.164 156.29C231.164 156.814 231.358 157.21 231.746 157.479C232.138 157.743 232.634 157.875 233.235 157.875ZM244.247 162.349V145.909H245.756V162.349H244.247ZM244.247 159.205C243.582 159.205 242.977 159.085 242.432 158.847C241.886 158.604 241.418 158.261 241.026 157.817C240.634 157.37 240.331 156.835 240.118 156.213C239.905 155.591 239.798 154.901 239.798 154.142C239.798 153.375 239.905 152.68 240.118 152.058C240.331 151.432 240.634 150.895 241.026 150.447C241.418 150 241.886 149.657 242.432 149.418C242.977 149.175 243.582 149.054 244.247 149.054H244.707V159.205H244.247ZM244.247 157.849H244.503V150.409H244.247C243.744 150.409 243.308 150.511 242.937 150.716C242.566 150.916 242.259 151.191 242.016 151.54C241.778 151.886 241.599 152.282 241.479 152.729C241.364 153.177 241.307 153.648 241.307 154.142C241.307 154.798 241.411 155.408 241.62 155.97C241.829 156.533 242.151 156.987 242.585 157.332C243.02 157.677 243.574 157.849 244.247 157.849ZM245.756 159.205H245.296V149.054H245.756C246.421 149.054 247.026 149.175 247.571 149.418C248.117 149.657 248.585 150 248.977 150.447C249.369 150.895 249.672 151.432 249.885 152.058C250.098 152.68 250.205 153.375 250.205 154.142C250.205 154.901 250.098 155.591 249.885 156.213C249.672 156.835 249.369 157.37 248.977 157.817C248.585 158.261 248.117 158.604 247.571 158.847C247.026 159.085 246.421 159.205 245.756 159.205ZM245.756 157.849C246.263 157.849 246.7 157.751 247.066 157.555C247.437 157.355 247.742 157.082 247.98 156.737C248.223 156.388 248.402 155.991 248.517 155.548C248.636 155.101 248.696 154.632 248.696 154.142C248.696 153.486 248.592 152.874 248.383 152.308C248.174 151.741 247.852 151.283 247.418 150.933C246.983 150.584 246.429 150.409 245.756 150.409H245.5V157.849H245.756ZM254.019 156.776L258.749 149.182H260.488V159H258.979V151.406L254.275 159H252.511V149.182H254.019V156.776ZM263.251 159V149.182H264.759V153.452H265.756L269.285 149.182H271.228L267.265 153.912L271.279 159H269.336L266.114 154.858H264.759V159H263.251ZM275.808 159.23C275.186 159.23 274.621 159.113 274.114 158.879C273.607 158.64 273.204 158.297 272.906 157.849C272.608 157.398 272.459 156.852 272.459 156.213C272.459 155.651 272.569 155.195 272.791 154.845C273.013 154.491 273.309 154.214 273.679 154.014C274.05 153.814 274.459 153.665 274.907 153.567C275.358 153.464 275.812 153.384 276.268 153.324C276.865 153.247 277.348 153.19 277.719 153.151C278.094 153.109 278.367 153.038 278.537 152.94C278.712 152.842 278.799 152.672 278.799 152.429V152.378C278.799 151.747 278.627 151.257 278.282 150.908C277.941 150.558 277.423 150.384 276.728 150.384C276.008 150.384 275.444 150.541 275.035 150.857C274.625 151.172 274.338 151.509 274.172 151.866L272.74 151.355C272.995 150.759 273.336 150.294 273.763 149.962C274.193 149.625 274.662 149.391 275.169 149.259C275.68 149.122 276.183 149.054 276.677 149.054C276.993 149.054 277.355 149.092 277.764 149.169C278.177 149.241 278.576 149.393 278.959 149.623C279.347 149.853 279.669 150.2 279.924 150.665C280.18 151.129 280.308 151.751 280.308 152.531V159H278.799V157.67H278.723C278.62 157.884 278.45 158.112 278.211 158.354C277.973 158.597 277.655 158.804 277.259 158.974C276.863 159.145 276.379 159.23 275.808 159.23ZM276.038 157.875C276.635 157.875 277.138 157.758 277.547 157.523C277.96 157.289 278.271 156.987 278.48 156.616C278.693 156.245 278.799 155.855 278.799 155.446V154.065C278.736 154.142 278.595 154.212 278.378 154.276C278.165 154.336 277.917 154.389 277.636 154.436C277.359 154.479 277.089 154.517 276.824 154.551C276.564 154.581 276.353 154.607 276.191 154.628C275.799 154.679 275.433 154.762 275.092 154.877C274.755 154.988 274.483 155.156 274.274 155.382C274.069 155.604 273.967 155.906 273.967 156.29C273.967 156.814 274.161 157.21 274.549 157.479C274.941 157.743 275.437 157.875 276.038 157.875ZM288.124 159V149.182H292.138C293.195 149.182 294.034 149.42 294.657 149.898C295.279 150.375 295.59 151.006 295.59 151.79C295.59 152.386 295.413 152.849 295.059 153.177C294.706 153.501 294.252 153.72 293.698 153.835C294.06 153.886 294.411 154.014 294.752 154.219C295.098 154.423 295.383 154.705 295.609 155.062C295.835 155.416 295.948 155.851 295.948 156.366C295.948 156.869 295.82 157.319 295.564 157.715C295.309 158.112 294.942 158.425 294.465 158.655C293.987 158.885 293.416 159 292.752 159H288.124ZM289.556 157.619H292.752C293.272 157.619 293.679 157.496 293.973 157.249C294.267 157.001 294.414 156.665 294.414 156.239C294.414 155.732 294.267 155.333 293.973 155.043C293.679 154.749 293.272 154.602 292.752 154.602H289.556V157.619ZM289.556 153.298H292.138C292.543 153.298 292.89 153.243 293.18 153.132C293.47 153.017 293.691 152.855 293.845 152.646C294.002 152.433 294.081 152.182 294.081 151.892C294.081 151.479 293.909 151.155 293.563 150.92C293.218 150.682 292.743 150.562 292.138 150.562H289.556V153.298ZM307.41 159.205C306.464 159.205 305.648 158.996 304.962 158.578C304.28 158.156 303.754 157.568 303.383 156.814C303.017 156.055 302.834 155.173 302.834 154.168C302.834 153.162 303.017 152.276 303.383 151.509C303.754 150.737 304.27 150.136 304.93 149.706C305.595 149.271 306.37 149.054 307.257 149.054C307.768 149.054 308.273 149.139 308.772 149.31C309.27 149.48 309.724 149.757 310.133 150.141C310.542 150.52 310.868 151.023 311.111 151.649C311.354 152.276 311.476 153.047 311.476 153.963V154.602H303.907V153.298H309.941C309.941 152.744 309.831 152.25 309.609 151.815C309.392 151.381 309.081 151.038 308.676 150.786C308.275 150.535 307.802 150.409 307.257 150.409C306.656 150.409 306.136 150.558 305.697 150.857C305.263 151.151 304.928 151.534 304.694 152.007C304.459 152.48 304.342 152.987 304.342 153.528V154.398C304.342 155.139 304.47 155.768 304.726 156.283C304.986 156.795 305.346 157.185 305.806 157.453C306.266 157.717 306.801 157.849 307.41 157.849C307.807 157.849 308.165 157.794 308.484 157.683C308.808 157.568 309.087 157.398 309.321 157.172C309.556 156.942 309.737 156.656 309.865 156.315L311.322 156.724C311.169 157.219 310.911 157.653 310.549 158.028C310.187 158.399 309.739 158.689 309.206 158.898C308.674 159.102 308.075 159.205 307.41 159.205ZM319.958 154.986V149.182H321.466V159H319.958V157.338H319.856C319.625 157.837 319.267 158.261 318.782 158.61C318.296 158.955 317.682 159.128 316.941 159.128C316.327 159.128 315.782 158.994 315.304 158.725C314.827 158.452 314.452 158.043 314.179 157.498C313.907 156.948 313.77 156.256 313.77 155.42V149.182H315.279V155.318C315.279 156.034 315.479 156.605 315.88 157.031C316.285 157.457 316.8 157.67 317.427 157.67C317.802 157.67 318.183 157.575 318.571 157.383C318.963 157.191 319.291 156.897 319.555 156.501C319.824 156.104 319.958 155.599 319.958 154.986Z" fill="black"/>
<path d="M43.2293 130.455C43.2293 131.835 42.98 133.028 42.4814 134.034C41.9829 135.04 41.2989 135.815 40.4296 136.361C39.5603 136.906 38.5674 137.179 37.4509 137.179C36.3344 137.179 35.3415 136.906 34.4722 136.361C33.6029 135.815 32.9189 135.04 32.4204 134.034C31.9218 133.028 31.6725 131.835 31.6725 130.455C31.6725 129.074 31.9218 127.881 32.4204 126.875C32.9189 125.869 33.6029 125.094 34.4722 124.548C35.3415 124.003 36.3344 123.73 37.4509 123.73C38.5674 123.73 39.5603 124.003 40.4296 124.548C41.2989 125.094 41.9829 125.869 42.4814 126.875C42.98 127.881 43.2293 129.074 43.2293 130.455ZM41.6952 130.455C41.6952 129.321 41.5056 128.364 41.1263 127.585C40.7513 126.805 40.2421 126.214 39.5986 125.814C38.9594 125.413 38.2435 125.213 37.4509 125.213C36.6583 125.213 35.9403 125.413 35.2968 125.814C34.6576 126.214 34.1483 126.805 33.7691 127.585C33.3941 128.364 33.2066 129.321 33.2066 130.455C33.2066 131.588 33.3941 132.545 33.7691 133.325C34.1483 134.104 34.6576 134.695 35.2968 135.095C35.9403 135.496 36.6583 135.696 37.4509 135.696C38.2435 135.696 38.9594 135.496 39.5986 135.095C40.2421 134.695 40.7513 134.104 41.1263 133.325C41.5056 132.545 41.6952 131.588 41.6952 130.455ZM52.9772 123.5L53.7442 124.42C53.4459 124.71 53.1008 124.913 52.7087 125.028C52.3167 125.143 51.8735 125.213 51.3792 125.239C50.8849 125.264 50.3351 125.29 49.73 125.315C49.0482 125.341 48.4836 125.507 48.0361 125.814C47.5887 126.121 47.2435 126.564 47.0006 127.143C46.7577 127.723 46.6022 128.435 46.534 129.278H46.6618C46.9942 128.665 47.4545 128.213 48.0425 127.923C48.6306 127.634 49.2613 127.489 49.9346 127.489C50.7016 127.489 51.392 127.668 52.0056 128.026C52.6192 128.384 53.105 128.914 53.463 129.617C53.8209 130.32 53.9999 131.188 53.9999 132.219C53.9999 133.246 53.8167 134.132 53.4502 134.878C53.088 135.624 52.5787 136.199 51.9225 136.604C51.2705 137.004 50.5056 137.205 49.6278 137.205C48.7499 137.205 47.9807 136.998 47.3202 136.585C46.6597 136.167 46.1462 135.549 45.7797 134.731C45.4133 133.908 45.23 132.892 45.23 131.682V130.634C45.23 128.447 45.6008 126.79 46.3422 125.661C47.088 124.531 48.2087 123.947 49.7045 123.909C50.2329 123.892 50.7037 123.888 51.1171 123.896C51.5305 123.905 51.8905 123.886 52.1974 123.839C52.5042 123.792 52.7641 123.679 52.9772 123.5ZM49.6278 135.849C50.2201 135.849 50.7293 135.7 51.1555 135.402C51.5858 135.104 51.9161 134.684 52.1462 134.143C52.3763 133.597 52.4914 132.956 52.4914 132.219C52.4914 131.503 52.3742 130.893 52.1398 130.391C51.9097 129.888 51.5795 129.504 51.1491 129.24C50.7187 128.976 50.203 128.844 49.6022 128.844C49.1633 128.844 48.7691 128.918 48.4197 129.067C48.0702 129.217 47.7719 129.436 47.5248 129.726C47.2776 130.016 47.0858 130.369 46.9495 130.787C46.8174 131.205 46.7471 131.682 46.7385 132.219C46.7385 133.318 46.9964 134.198 47.512 134.859C48.0276 135.519 48.7329 135.849 49.6278 135.849ZM60.2961 140.349V123.909H61.8046V140.349H60.2961ZM60.2961 137.205C59.6313 137.205 59.0262 137.085 58.4807 136.847C57.9353 136.604 57.4665 136.261 57.0745 135.817C56.6824 135.37 56.3799 134.835 56.1668 134.213C55.9537 133.591 55.8472 132.901 55.8472 132.142C55.8472 131.375 55.9537 130.68 56.1668 130.058C56.3799 129.432 56.6824 128.895 57.0745 128.447C57.4665 128 57.9353 127.657 58.4807 127.418C59.0262 127.175 59.6313 127.054 60.2961 127.054H60.7563V137.205H60.2961ZM60.2961 135.849H60.5518V128.409H60.2961C59.7932 128.409 59.3564 128.511 58.9857 128.716C58.615 128.916 58.3081 129.191 58.0653 129.54C57.8266 129.886 57.6476 130.282 57.5283 130.729C57.4133 131.177 57.3557 131.648 57.3557 132.142C57.3557 132.798 57.4601 133.408 57.6689 133.97C57.8778 134.533 58.1995 134.987 58.6341 135.332C59.0688 135.677 59.6228 135.849 60.2961 135.849ZM61.8046 137.205H61.3444V127.054H61.8046C62.4694 127.054 63.0745 127.175 63.6199 127.418C64.1654 127.657 64.6341 128 65.0262 128.447C65.4182 128.895 65.7208 129.432 65.9339 130.058C66.1469 130.68 66.2535 131.375 66.2535 132.142C66.2535 132.901 66.1469 133.591 65.9339 134.213C65.7208 134.835 65.4182 135.37 65.0262 135.817C64.6341 136.261 64.1654 136.604 63.6199 136.847C63.0745 137.085 62.4694 137.205 61.8046 137.205ZM61.8046 135.849C62.3117 135.849 62.7485 135.751 63.115 135.555C63.4857 135.355 63.7904 135.082 64.029 134.737C64.2719 134.388 64.4509 133.991 64.566 133.548C64.6853 133.101 64.7449 132.632 64.7449 132.142C64.7449 131.486 64.6405 130.874 64.4317 130.308C64.2229 129.741 63.9012 129.283 63.4665 128.933C63.0319 128.584 62.4779 128.409 61.8046 128.409H61.5489V135.849H61.8046ZM69.1794 140.682C68.9237 140.682 68.6958 140.661 68.4955 140.618C68.2952 140.58 68.1567 140.541 68.08 140.503L68.4635 139.173C68.83 139.267 69.1539 139.301 69.4351 139.276C69.7164 139.25 69.9656 139.124 70.183 138.898C70.4046 138.677 70.607 138.317 70.7902 137.818L71.0715 137.051L67.4408 127.182H69.0771L71.7874 135.006H71.8896L74.5999 127.182H76.2362L72.0686 138.432C71.8811 138.939 71.6489 139.359 71.3719 139.691C71.0949 140.028 70.7732 140.277 70.4067 140.439C70.0445 140.601 69.6354 140.682 69.1794 140.682ZM81.8644 137.205C80.944 137.205 80.1514 136.987 79.4866 136.553C78.8218 136.118 78.3105 135.519 77.9525 134.756C77.5945 133.994 77.4156 133.122 77.4156 132.142C77.4156 131.145 77.5988 130.265 77.9653 129.502C78.336 128.735 78.8517 128.136 79.5122 127.706C80.1769 127.271 80.9525 127.054 81.8389 127.054C82.5292 127.054 83.1514 127.182 83.7053 127.438C84.2593 127.693 84.7132 128.051 85.0669 128.511C85.4205 128.972 85.64 129.509 85.7252 130.122H84.2167C84.1017 129.675 83.846 129.278 83.4497 128.933C83.0576 128.584 82.5292 128.409 81.8644 128.409C81.2764 128.409 80.7607 128.562 80.3176 128.869C79.8786 129.172 79.5356 129.6 79.2884 130.154C79.0455 130.704 78.9241 131.349 78.9241 132.091C78.9241 132.849 79.0434 133.51 79.282 134.072C79.5249 134.635 79.8659 135.072 80.3048 135.383C80.748 135.694 81.2678 135.849 81.8644 135.849C82.2565 135.849 82.6123 135.781 82.9319 135.645C83.2515 135.509 83.5221 135.312 83.7437 135.057C83.9653 134.801 84.123 134.494 84.2167 134.136H85.7252C85.64 134.716 85.4291 135.238 85.0924 135.702C84.76 136.163 84.319 136.529 83.7693 136.802C83.2238 137.07 82.5889 137.205 81.8644 137.205ZM87.9305 137V127.182H89.439V131.452H90.4362L93.9646 127.182H95.9078L91.9447 131.912L95.9589 137H94.0157L90.7941 132.858H89.439V137H87.9305ZM100.488 137.23C99.8655 137.23 99.3009 137.113 98.7938 136.879C98.2867 136.64 97.884 136.297 97.5857 135.849C97.2874 135.398 97.1382 134.852 97.1382 134.213C97.1382 133.651 97.249 133.195 97.4706 132.845C97.6922 132.491 97.9884 132.214 98.3591 132.014C98.7298 131.814 99.1389 131.665 99.5864 131.567C100.038 131.464 100.492 131.384 100.948 131.324C101.544 131.247 102.028 131.19 102.399 131.151C102.774 131.109 103.047 131.038 103.217 130.94C103.392 130.842 103.479 130.672 103.479 130.429V130.378C103.479 129.747 103.307 129.257 102.961 128.908C102.62 128.558 102.103 128.384 101.408 128.384C100.688 128.384 100.123 128.541 99.7142 128.857C99.3051 129.172 99.0175 129.509 98.8513 129.866L97.4195 129.355C97.6752 128.759 98.0161 128.294 98.4422 127.962C98.8726 127.625 99.3414 127.391 99.8485 127.259C100.36 127.122 100.863 127.054 101.357 127.054C101.672 127.054 102.035 127.092 102.444 127.169C102.857 127.241 103.255 127.393 103.639 127.623C104.027 127.853 104.348 128.2 104.604 128.665C104.86 129.129 104.988 129.751 104.988 130.531V137H103.479V135.67H103.402C103.3 135.884 103.13 136.112 102.891 136.354C102.652 136.597 102.335 136.804 101.939 136.974C101.542 137.145 101.059 137.23 100.488 137.23ZM100.718 135.875C101.314 135.875 101.817 135.758 102.226 135.523C102.64 135.289 102.951 134.987 103.16 134.616C103.373 134.245 103.479 133.855 103.479 133.446V132.065C103.415 132.142 103.275 132.212 103.057 132.276C102.844 132.336 102.597 132.389 102.316 132.436C102.039 132.479 101.768 132.517 101.504 132.551C101.244 132.581 101.033 132.607 100.871 132.628C100.479 132.679 100.113 132.762 99.7718 132.877C99.4351 132.988 99.1624 133.156 98.9536 133.382C98.749 133.604 98.6468 133.906 98.6468 134.29C98.6468 134.814 98.8406 135.21 99.2284 135.479C99.6205 135.743 100.117 135.875 100.718 135.875ZM106.405 128.588V127.182H114.382V128.588H111.161V137H109.652V128.588H106.405ZM120.062 137.205C119.175 137.205 118.398 136.994 117.729 136.572C117.064 136.15 116.544 135.56 116.169 134.801C115.798 134.043 115.613 133.156 115.613 132.142C115.613 131.119 115.798 130.227 116.169 129.464C116.544 128.701 117.064 128.109 117.729 127.687C118.398 127.265 119.175 127.054 120.062 127.054C120.948 127.054 121.724 127.265 122.388 127.687C123.057 128.109 123.577 128.701 123.948 129.464C124.323 130.227 124.511 131.119 124.511 132.142C124.511 133.156 124.323 134.043 123.948 134.801C123.577 135.56 123.057 136.15 122.388 136.572C121.724 136.994 120.948 137.205 120.062 137.205ZM120.062 135.849C120.735 135.849 121.289 135.677 121.724 135.332C122.158 134.987 122.48 134.533 122.689 133.97C122.898 133.408 123.002 132.798 123.002 132.142C123.002 131.486 122.898 130.874 122.689 130.308C122.48 129.741 122.158 129.283 121.724 128.933C121.289 128.584 120.735 128.409 120.062 128.409C119.388 128.409 118.834 128.584 118.4 128.933C117.965 129.283 117.643 129.741 117.435 130.308C117.226 130.874 117.121 131.486 117.121 132.142C117.121 132.798 117.226 133.408 117.435 133.97C117.643 134.533 117.965 134.987 118.4 135.332C118.834 135.677 119.388 135.849 120.062 135.849ZM126.813 140.682V127.182H128.271V128.741H128.45C128.56 128.571 128.714 128.354 128.91 128.089C129.11 127.821 129.396 127.582 129.766 127.374C130.141 127.161 130.649 127.054 131.288 127.054C132.114 127.054 132.843 127.261 133.474 127.674C134.104 128.087 134.597 128.673 134.95 129.432C135.304 130.19 135.481 131.085 135.481 132.116C135.481 133.156 135.304 134.058 134.95 134.82C134.597 135.579 134.107 136.167 133.48 136.585C132.854 136.998 132.131 137.205 131.313 137.205C130.683 137.205 130.178 137.1 129.798 136.891C129.419 136.678 129.127 136.437 128.923 136.169C128.718 135.896 128.56 135.67 128.45 135.491H128.322V140.682H126.813ZM128.296 132.091C128.296 132.832 128.405 133.487 128.622 134.053C128.84 134.616 129.157 135.057 129.575 135.376C129.992 135.692 130.504 135.849 131.109 135.849C131.739 135.849 132.266 135.683 132.688 135.351C133.114 135.014 133.433 134.562 133.646 133.996C133.864 133.425 133.972 132.79 133.972 132.091C133.972 131.401 133.866 130.778 133.653 130.224C133.444 129.666 133.127 129.225 132.7 128.901C132.278 128.573 131.748 128.409 131.109 128.409C130.495 128.409 129.979 128.565 129.562 128.876C129.144 129.183 128.829 129.613 128.616 130.167C128.403 130.717 128.296 131.358 128.296 132.091ZM25.827 150.588V149.182H33.8042V150.588H30.5827V159H29.0741V150.588H25.827ZM36.0047 162.682V149.182H37.4621V150.741H37.6411C37.7519 150.571 37.9053 150.354 38.1013 150.089C38.3016 149.821 38.5871 149.582 38.9578 149.374C39.3328 149.161 39.8399 149.054 40.4791 149.054C41.3058 149.054 42.0345 149.261 42.6652 149.674C43.2959 150.087 43.7881 150.673 44.1418 151.432C44.4955 152.19 44.6723 153.085 44.6723 154.116C44.6723 155.156 44.4955 156.058 44.1418 156.82C43.7881 157.579 43.298 158.167 42.6716 158.585C42.0452 158.998 41.3229 159.205 40.5047 159.205C39.874 159.205 39.3691 159.1 38.9898 158.891C38.6105 158.678 38.3186 158.437 38.1141 158.169C37.9095 157.896 37.7519 157.67 37.6411 157.491H37.5132V162.682H36.0047ZM37.4877 154.091C37.4877 154.832 37.5963 155.487 37.8137 156.053C38.031 156.616 38.3485 157.057 38.7661 157.376C39.1837 157.692 39.695 157.849 40.3002 157.849C40.9308 157.849 41.4571 157.683 41.879 157.351C42.3051 157.014 42.6247 156.562 42.8378 155.996C43.0551 155.425 43.1638 154.79 43.1638 154.091C43.1638 153.401 43.0573 152.778 42.8442 152.224C42.6354 151.666 42.3179 151.225 41.8918 150.901C41.4699 150.573 40.9394 150.409 40.3002 150.409C39.6865 150.409 39.1709 150.565 38.7533 150.876C38.3357 151.183 38.0203 151.613 37.8073 152.167C37.5942 152.717 37.4877 153.358 37.4877 154.091ZM49.8627 159.23C49.2405 159.23 48.6759 159.113 48.1688 158.879C47.6617 158.64 47.259 158.297 46.9607 157.849C46.6624 157.398 46.5132 156.852 46.5132 156.213C46.5132 155.651 46.624 155.195 46.8456 154.845C47.0672 154.491 47.3634 154.214 47.7341 154.014C48.1048 153.814 48.5139 153.665 48.9614 153.567C49.4131 153.464 49.8669 153.384 50.3229 153.324C50.9195 153.247 51.4031 153.19 51.7739 153.151C52.1489 153.109 52.4216 153.038 52.5921 152.94C52.7668 152.842 52.8541 152.672 52.8541 152.429V152.378C52.8541 151.747 52.6816 151.257 52.3364 150.908C51.9955 150.558 51.4777 150.384 50.7831 150.384C50.0629 150.384 49.4983 150.541 49.0892 150.857C48.6801 151.172 48.3925 151.509 48.2263 151.866L46.7945 151.355C47.0502 150.759 47.3911 150.294 47.8172 149.962C48.2476 149.625 48.7164 149.391 49.2235 149.259C49.7348 149.122 50.2377 149.054 50.732 149.054C51.0473 149.054 51.4095 149.092 51.8186 149.169C52.232 149.241 52.6304 149.393 53.0139 149.623C53.4017 149.853 53.7235 150.2 53.9791 150.665C54.2348 151.129 54.3627 151.751 54.3627 152.531V159H52.8541V157.67H52.7774C52.6752 157.884 52.5047 158.112 52.2661 158.354C52.0274 158.597 51.71 158.804 51.3137 158.974C50.9173 159.145 50.4337 159.23 49.8627 159.23ZM50.0928 157.875C50.6894 157.875 51.1922 157.758 51.6013 157.523C52.0146 157.289 52.3257 156.987 52.5345 156.616C52.7476 156.245 52.8541 155.855 52.8541 155.446V154.065C52.7902 154.142 52.6496 154.212 52.4323 154.276C52.2192 154.336 51.972 154.389 51.6908 154.436C51.4138 154.479 51.1432 154.517 50.879 154.551C50.6191 154.581 50.4081 154.607 50.2462 154.628C49.8541 154.679 49.4877 154.762 49.1468 154.877C48.8101 154.988 48.5374 155.156 48.3286 155.382C48.124 155.604 48.0218 155.906 48.0218 156.29C48.0218 156.814 48.2156 157.21 48.6034 157.479C48.9955 157.743 49.4919 157.875 50.0928 157.875ZM61.1047 162.349V145.909H62.6132V162.349H61.1047ZM61.1047 159.205C60.4399 159.205 59.8348 159.085 59.2893 158.847C58.7439 158.604 58.2751 158.261 57.8831 157.817C57.491 157.37 57.1885 156.835 56.9754 156.213C56.7623 155.591 56.6558 154.901 56.6558 154.142C56.6558 153.375 56.7623 152.68 56.9754 152.058C57.1885 151.432 57.491 150.895 57.8831 150.447C58.2751 150 58.7439 149.657 59.2893 149.418C59.8348 149.175 60.4399 149.054 61.1047 149.054H61.5649V159.205H61.1047ZM61.1047 157.849H61.3604V150.409H61.1047C60.6018 150.409 60.165 150.511 59.7943 150.716C59.4236 150.916 59.1167 151.191 58.8738 151.54C58.6352 151.886 58.4562 152.282 58.3369 152.729C58.2219 153.177 58.1643 153.648 58.1643 154.142C58.1643 154.798 58.2687 155.408 58.4775 155.97C58.6863 156.533 59.0081 156.987 59.4427 157.332C59.8774 157.677 60.4314 157.849 61.1047 157.849ZM62.6132 159.205H62.153V149.054H62.6132C63.278 149.054 63.8831 149.175 64.4285 149.418C64.974 149.657 65.4427 150 65.8348 150.447C66.2268 150.895 66.5294 151.432 66.7425 152.058C66.9555 152.68 67.0621 153.375 67.0621 154.142C67.0621 154.901 66.9555 155.591 66.7425 156.213C66.5294 156.835 66.2268 157.37 65.8348 157.817C65.4427 158.261 64.974 158.604 64.4285 158.847C63.8831 159.085 63.278 159.205 62.6132 159.205ZM62.6132 157.849C63.1203 157.849 63.5571 157.751 63.9236 157.555C64.2943 157.355 64.599 157.082 64.8376 156.737C65.0805 156.388 65.2595 155.991 65.3746 155.548C65.4939 155.101 65.5535 154.632 65.5535 154.142C65.5535 153.486 65.4491 152.874 65.2403 152.308C65.0315 151.741 64.7098 151.283 64.2751 150.933C63.8405 150.584 63.2865 150.409 62.6132 150.409H62.3575V157.849H62.6132ZM70.8765 156.776L75.6066 149.182H77.3453V159H75.8367V151.406L71.1322 159H69.368V149.182H70.8765V156.776ZM80.1082 159V149.182H81.6167V153.452H82.6139L86.1423 149.182H88.0855L84.1224 153.912L88.1366 159H86.1934L82.9719 154.858H81.6167V159H80.1082ZM92.6654 159.23C92.0432 159.23 91.4786 159.113 90.9715 158.879C90.4644 158.64 90.0617 158.297 89.7634 157.849C89.4651 157.398 89.316 156.852 89.316 156.213C89.316 155.651 89.4268 155.195 89.6483 154.845C89.8699 154.491 90.1661 154.214 90.5368 154.014C90.9076 153.814 91.3167 153.665 91.7641 153.567C92.2158 153.464 92.6697 153.384 93.1256 153.324C93.7222 153.247 94.2059 153.19 94.5766 153.151C94.9516 153.109 95.2243 153.038 95.3948 152.94C95.5695 152.842 95.6569 152.672 95.6569 152.429V152.378C95.6569 151.747 95.4843 151.257 95.1391 150.908C94.7982 150.558 94.2805 150.384 93.5858 150.384C92.8657 150.384 92.301 150.541 91.892 150.857C91.4829 151.172 91.1952 151.509 91.029 151.866L89.5972 151.355C89.8529 150.759 90.1938 150.294 90.6199 149.962C91.0503 149.625 91.5191 149.391 92.0262 149.259C92.5376 149.122 93.0404 149.054 93.5347 149.054C93.8501 149.054 94.2123 149.092 94.6214 149.169C95.0347 149.241 95.4332 149.393 95.8167 149.623C96.2045 149.853 96.5262 150.2 96.7819 150.665C97.0376 151.129 97.1654 151.751 97.1654 152.531V159H95.6569V157.67H95.5802C95.4779 157.884 95.3074 158.112 95.0688 158.354C94.8302 158.597 94.5127 158.804 94.1164 158.974C93.7201 159.145 93.2364 159.23 92.6654 159.23ZM92.8955 157.875C93.4921 157.875 93.9949 157.758 94.404 157.523C94.8174 157.289 95.1285 156.987 95.3373 156.616C95.5503 156.245 95.6569 155.855 95.6569 155.446V154.065C95.593 154.142 95.4523 154.212 95.235 154.276C95.0219 154.336 94.7748 154.389 94.4935 154.436C94.2165 154.479 93.9459 154.517 93.6817 154.551C93.4218 154.581 93.2108 154.607 93.0489 154.628C92.6569 154.679 92.2904 154.762 91.9495 154.877C91.6128 154.988 91.3401 155.156 91.1313 155.382C90.9268 155.604 90.8245 155.906 90.8245 156.29C90.8245 156.814 91.0184 157.21 91.4062 157.479C91.7982 157.743 92.2947 157.875 92.8955 157.875ZM104.981 159V149.182H108.995C110.052 149.182 110.892 149.42 111.514 149.898C112.136 150.375 112.447 151.006 112.447 151.79C112.447 152.386 112.27 152.849 111.917 153.177C111.563 153.501 111.109 153.72 110.555 153.835C110.917 153.886 111.269 154.014 111.61 154.219C111.955 154.423 112.241 154.705 112.466 155.062C112.692 155.416 112.805 155.851 112.805 156.366C112.805 156.869 112.677 157.319 112.422 157.715C112.166 158.112 111.799 158.425 111.322 158.655C110.845 158.885 110.274 159 109.609 159H104.981ZM106.413 157.619H109.609C110.129 157.619 110.536 157.496 110.83 157.249C111.124 157.001 111.271 156.665 111.271 156.239C111.271 155.732 111.124 155.333 110.83 155.043C110.536 154.749 110.129 154.602 109.609 154.602H106.413V157.619ZM106.413 153.298H108.995C109.4 153.298 109.748 153.243 110.037 153.132C110.327 153.017 110.549 152.855 110.702 152.646C110.86 152.433 110.939 152.182 110.939 151.892C110.939 151.479 110.766 151.155 110.421 150.92C110.076 150.682 109.601 150.562 108.995 150.562H106.413V153.298ZM120.151 162.682V149.182H121.609V150.741H121.788C121.898 150.571 122.052 150.354 122.248 150.089C122.448 149.821 122.734 149.582 123.104 149.374C123.479 149.161 123.986 149.054 124.626 149.054C125.452 149.054 126.181 149.261 126.812 149.674C127.442 150.087 127.935 150.673 128.288 151.432C128.642 152.19 128.819 153.085 128.819 154.116C128.819 155.156 128.642 156.058 128.288 156.82C127.935 157.579 127.445 158.167 126.818 158.585C126.192 158.998 125.469 159.205 124.651 159.205C124.021 159.205 123.516 159.1 123.136 158.891C122.757 158.678 122.465 158.437 122.261 158.169C122.056 157.896 121.898 157.67 121.788 157.491H121.66V162.682H120.151ZM121.634 154.091C121.634 154.832 121.743 155.487 121.96 156.053C122.177 156.616 122.495 157.057 122.913 157.376C123.33 157.692 123.842 157.849 124.447 157.849C125.077 157.849 125.604 157.683 126.025 157.351C126.452 157.014 126.771 156.562 126.984 155.996C127.202 155.425 127.31 154.79 127.31 154.091C127.31 153.401 127.204 152.778 126.991 152.224C126.782 151.666 126.464 151.225 126.038 150.901C125.616 150.573 125.086 150.409 124.447 150.409C123.833 150.409 123.317 150.565 122.9 150.876C122.482 151.183 122.167 151.613 121.954 152.167C121.741 152.717 121.634 153.358 121.634 154.091ZM135.109 162.349V145.909H136.617V162.349H135.109ZM135.109 159.205C134.444 159.205 133.839 159.085 133.293 158.847C132.748 158.604 132.279 158.261 131.887 157.817C131.495 157.37 131.192 156.835 130.979 156.213C130.766 155.591 130.66 154.901 130.66 154.142C130.66 153.375 130.766 152.68 130.979 152.058C131.192 151.432 131.495 150.895 131.887 150.447C132.279 150 132.748 149.657 133.293 149.418C133.839 149.175 134.444 149.054 135.109 149.054H135.569V159.205H135.109ZM135.109 157.849H135.364V150.409H135.109C134.606 150.409 134.169 150.511 133.798 150.716C133.427 150.916 133.121 151.191 132.878 151.54C132.639 151.886 132.46 152.282 132.341 152.729C132.226 153.177 132.168 153.648 132.168 154.142C132.168 154.798 132.273 155.408 132.481 155.97C132.69 156.533 133.012 156.987 133.447 157.332C133.881 157.677 134.435 157.849 135.109 157.849ZM136.617 159.205H136.157V149.054H136.617C137.282 149.054 137.887 149.175 138.432 149.418C138.978 149.657 139.447 150 139.839 150.447C140.231 150.895 140.533 151.432 140.746 152.058C140.959 152.68 141.066 153.375 141.066 154.142C141.066 154.901 140.959 155.591 140.746 156.213C140.533 156.835 140.231 157.37 139.839 157.817C139.447 158.261 138.978 158.604 138.432 158.847C137.887 159.085 137.282 159.205 136.617 159.205ZM136.617 157.849C137.124 157.849 137.561 157.751 137.927 157.555C138.298 157.355 138.603 157.082 138.842 156.737C139.084 156.388 139.263 155.991 139.378 155.548C139.498 155.101 139.557 154.632 139.557 154.142C139.557 153.486 139.453 152.874 139.244 152.308C139.035 151.741 138.714 151.283 138.279 150.933C137.844 150.584 137.29 150.409 136.617 150.409H136.361V157.849H136.617Z" fill="black"/>
<path d="M358.707 101.707C359.098 101.317 359.098 100.683 358.707 100.293L352.343 93.9289C351.953 93.5384 351.319 93.5384 350.929 93.9289C350.538 94.3195 350.538 94.9526 350.929 95.3431L356.586 101L350.929 106.657C350.538 107.047 350.538 107.681 350.929 108.071C351.319 108.462 351.953 108.462 352.343 108.071L358.707 101.707ZM0 102H358V100H0V102Z" fill="#0D6EFD"/>
<g clip-path="url(#clip0_30_1381)">
<path d="M292 38H229V80H292V38Z" fill="#003399"/>
<path d="M260.5 42.6665L259.779 44.8856L260.889 45.2462L260.5 42.6665Z" fill="#FFCC00"/>
<path d="M260.5 42.6665L261.221 44.8856L260.111 45.2462L260.5 42.6665Z" fill="#FFCC00"/>
<path d="M262.719 44.2788H260.386V45.4455L262.719 44.2788Z" fill="#FFCC00"/>
<path d="M262.719 44.2788L260.831 45.6503L260.146 44.7065L262.719 44.2788Z" fill="#FFCC00"/>
<path d="M261.871 46.8877L261.15 44.6686L260.041 45.0291L261.871 46.8877Z" fill="#FFCC00"/>
<path d="M261.871 46.8877L259.984 45.5162L260.669 44.5723L261.871 46.8877Z" fill="#FFCC00"/>
<path d="M258.281 44.2788H260.614V45.4455L258.281 44.2788Z" fill="#FFCC00"/>
<path d="M258.281 44.2788L260.169 45.6503L260.854 44.7065L258.281 44.2788Z" fill="#FFCC00"/>
<path d="M259.129 46.8877L259.85 44.6686L260.959 45.0291L259.129 46.8877Z" fill="#FFCC00"/>
<path d="M259.129 46.8877L261.016 45.5162L260.331 44.5723L259.129 46.8877Z" fill="#FFCC00"/>
<path d="M260.5 70.6665L259.779 72.8856L260.889 73.2462L260.5 70.6665Z" fill="#FFCC00"/>
<path d="M260.5 70.6665L261.221 72.8856L260.111 73.2462L260.5 70.6665Z" fill="#FFCC00"/>
<path d="M262.719 72.2788H260.386V73.4455L262.719 72.2788Z" fill="#FFCC00"/>
<path d="M262.719 72.2788L260.831 73.6503L260.146 72.7065L262.719 72.2788Z" fill="#FFCC00"/>
<path d="M261.871 74.8877L261.15 72.6686L260.041 73.0291L261.871 74.8877Z" fill="#FFCC00"/>
<path d="M261.871 74.8877L259.984 73.5162L260.669 72.5723L261.871 74.8877Z" fill="#FFCC00"/>
<path d="M258.281 72.2788H260.614V73.4455L258.281 72.2788Z" fill="#FFCC00"/>
<path d="M258.281 72.2788L260.169 73.6503L260.854 72.7065L258.281 72.2788Z" fill="#FFCC00"/>
<path d="M259.129 74.8877L259.85 72.6686L260.959 73.0291L259.129 74.8877Z" fill="#FFCC00"/>
<path d="M259.129 74.8877L261.016 73.5162L260.331 72.5723L259.129 74.8877Z" fill="#FFCC00"/>
<path d="M246.5 56.6665L245.779 58.8856L246.889 59.2462L246.5 56.6665Z" fill="#FFCC00"/>
<path d="M246.5 56.6665L247.221 58.8856L246.111 59.2462L246.5 56.6665Z" fill="#FFCC00"/>
<path d="M248.719 58.2788H246.386V59.4455L248.719 58.2788Z" fill="#FFCC00"/>
<path d="M248.719 58.2788L246.831 59.6503L246.146 58.7065L248.719 58.2788Z" fill="#FFCC00"/>
<path d="M247.871 60.8877L247.15 58.6686L246.041 59.0291L247.871 60.8877Z" fill="#FFCC00"/>
<path d="M247.871 60.8877L245.984 59.5162L246.669 58.5723L247.871 60.8877Z" fill="#FFCC00"/>
<path d="M244.281 58.2788H246.614V59.4455L244.281 58.2788Z" fill="#FFCC00"/>
<path d="M244.281 58.2788L246.169 59.6503L246.854 58.7065L244.281 58.2788Z" fill="#FFCC00"/>
<path d="M245.129 60.8877L245.85 58.6686L246.959 59.0291L245.129 60.8877Z" fill="#FFCC00"/>
<path d="M245.129 60.8877L247.016 59.5162L246.331 58.5723L245.129 60.8877Z" fill="#FFCC00"/>
<path d="M252.128 48.7632L254.016 47.3917L253.33 46.4478L252.128 48.7632Z" fill="#FFCC00"/>
<path d="M252.128 48.7632L252.849 46.5441L253.959 46.9046L252.128 48.7632Z" fill="#FFCC00"/>
<path d="M251.281 46.1548L253.168 47.5263L253.854 46.5824L251.281 46.1548Z" fill="#FFCC00"/>
<path d="M251.281 46.1548H253.614V47.3215L251.281 46.1548Z" fill="#FFCC00"/>
<path d="M253.5 44.542L252.779 46.7611L253.889 47.1216L253.5 44.542Z" fill="#FFCC00"/>
<path d="M253.5 44.542L254.221 46.7611L253.111 47.1216L253.5 44.542Z" fill="#FFCC00"/>
<path d="M254.872 48.7627L252.984 47.3912L253.67 46.4473L254.872 48.7627Z" fill="#FFCC00"/>
<path d="M254.872 48.7627L254.151 46.5436L253.041 46.9041L254.872 48.7627Z" fill="#FFCC00"/>
<path d="M255.719 46.1543L253.832 47.5258L253.146 46.5819L255.719 46.1543Z" fill="#FFCC00"/>
<path d="M255.719 46.1543H253.386V47.321L255.719 46.1543Z" fill="#FFCC00"/>
<path d="M249.747 53.8877L249.026 51.6686L247.916 52.0291L249.747 53.8877Z" fill="#FFCC00"/>
<path d="M249.747 53.8877L247.859 52.5162L248.545 51.5723L249.747 53.8877Z" fill="#FFCC00"/>
<path d="M247.004 53.8872L248.892 52.5157L248.206 51.5719L247.004 53.8872Z" fill="#FFCC00"/>
<path d="M247.004 53.8872L247.725 51.6681L248.835 52.0286L247.004 53.8872Z" fill="#FFCC00"/>
<path d="M246.156 51.2788L248.044 52.6503L248.73 51.7065L246.156 51.2788Z" fill="#FFCC00"/>
<path d="M246.156 51.2788H248.49V52.4455L246.156 51.2788Z" fill="#FFCC00"/>
<path d="M250.595 51.2793L248.707 52.6508L248.022 51.7069L250.595 51.2793Z" fill="#FFCC00"/>
<path d="M250.595 51.2793H248.262V52.446L250.595 51.2793Z" fill="#FFCC00"/>
<path d="M248.376 49.6665L249.097 51.8856L247.987 52.2462L248.376 49.6665Z" fill="#FFCC00"/>
<path d="M248.376 49.6665L247.655 51.8856L248.764 52.2462L248.376 49.6665Z" fill="#FFCC00"/>
<path d="M250.594 65.2788H248.261V66.4455L250.594 65.2788Z" fill="#FFCC00"/>
<path d="M250.594 65.2788L248.707 66.6503L248.021 65.7065L250.594 65.2788Z" fill="#FFCC00"/>
<path d="M249.747 67.8877L249.026 65.6686L247.916 66.0291L249.747 67.8877Z" fill="#FFCC00"/>
<path d="M249.747 67.8877L247.859 66.5162L248.545 65.5723L249.747 67.8877Z" fill="#FFCC00"/>
<path d="M247.004 67.8872L248.892 66.5157L248.206 65.5719L247.004 67.8872Z" fill="#FFCC00"/>
<path d="M247.004 67.8872L247.725 65.6681L248.835 66.0286L247.004 67.8872Z" fill="#FFCC00"/>
<path d="M248.375 63.6665L249.097 65.8856L247.987 66.2462L248.375 63.6665Z" fill="#FFCC00"/>
<path d="M248.375 63.6665L247.654 65.8856L248.764 66.2462L248.375 63.6665Z" fill="#FFCC00"/>
<path d="M246.156 65.2788H248.49V66.4455L246.156 65.2788Z" fill="#FFCC00"/>
<path d="M246.156 65.2788L248.044 66.6503L248.73 65.7065L246.156 65.2788Z" fill="#FFCC00"/>
<path d="M255.719 70.4033H253.386V71.57L255.719 70.4033Z" fill="#FFCC00"/>
<path d="M255.719 70.4033L253.831 71.7748L253.146 70.831L255.719 70.4033Z" fill="#FFCC00"/>
<path d="M254.871 73.0122L254.15 70.7931L253.041 71.1536L254.871 73.0122Z" fill="#FFCC00"/>
<path d="M254.871 73.0122L252.984 71.6407L253.669 70.6969L254.871 73.0122Z" fill="#FFCC00"/>
<path d="M252.128 73.0117L254.016 71.6402L253.33 70.6964L252.128 73.0117Z" fill="#FFCC00"/>
<path d="M252.128 73.0117L252.849 70.7926L253.959 71.1531L252.128 73.0117Z" fill="#FFCC00"/>
<path d="M253.5 68.791L254.221 71.0101L253.111 71.3707L253.5 68.791Z" fill="#FFCC00"/>
<path d="M253.5 68.791L252.779 71.0101L253.889 71.3707L253.5 68.791Z" fill="#FFCC00"/>
<path d="M251.281 70.4033H253.614V71.57L251.281 70.4033Z" fill="#FFCC00"/>
<path d="M251.281 70.4033L253.169 71.7748L253.854 70.831L251.281 70.4033Z" fill="#FFCC00"/>
<path d="M274.5 56.6665L275.221 58.8856L274.111 59.2462L274.5 56.6665Z" fill="#FFCC00"/>
<path d="M274.5 56.6665L273.779 58.8856L274.889 59.2462L274.5 56.6665Z" fill="#FFCC00"/>
<path d="M272.281 58.2788H274.614V59.4455L272.281 58.2788Z" fill="#FFCC00"/>
<path d="M272.281 58.2788L274.169 59.6503L274.854 58.7065L272.281 58.2788Z" fill="#FFCC00"/>
<path d="M273.129 60.8877L273.85 58.6686L274.959 59.0291L273.129 60.8877Z" fill="#FFCC00"/>
<path d="M273.129 60.8877L275.016 59.5162L274.331 58.5723L273.129 60.8877Z" fill="#FFCC00"/>
<path d="M276.719 58.2788H274.386V59.4455L276.719 58.2788Z" fill="#FFCC00"/>
<path d="M276.719 58.2788L274.831 59.6503L274.146 58.7065L276.719 58.2788Z" fill="#FFCC00"/>
<path d="M275.871 60.8877L275.15 58.6686L274.041 59.0291L275.871 60.8877Z" fill="#FFCC00"/>
<path d="M275.871 60.8877L273.984 59.5162L274.669 58.5723L275.871 60.8877Z" fill="#FFCC00"/>
<path d="M268.872 48.7632L266.984 47.3917L267.67 46.4478L268.872 48.7632Z" fill="#FFCC00"/>
<path d="M268.872 48.7632L268.151 46.5441L267.041 46.9046L268.872 48.7632Z" fill="#FFCC00"/>
<path d="M269.719 46.1548L267.832 47.5263L267.146 46.5824L269.719 46.1548Z" fill="#FFCC00"/>
<path d="M269.719 46.1548H267.386V47.3215L269.719 46.1548Z" fill="#FFCC00"/>
<path d="M267.5 44.542L268.221 46.7611L267.111 47.1216L267.5 44.542Z" fill="#FFCC00"/>
<path d="M267.5 44.542L266.779 46.7611L267.889 47.1216L267.5 44.542Z" fill="#FFCC00"/>
<path d="M266.128 48.7627L268.016 47.3912L267.33 46.4473L266.128 48.7627Z" fill="#FFCC00"/>
<path d="M266.128 48.7627L266.849 46.5436L267.959 46.9041L266.128 48.7627Z" fill="#FFCC00"/>
<path d="M265.281 46.1543L267.168 47.5258L267.854 46.5819L265.281 46.1543Z" fill="#FFCC00"/>
<path d="M265.281 46.1543H267.614V47.321L265.281 46.1543Z" fill="#FFCC00"/>
<path d="M271.253 53.8877L271.974 51.6686L273.084 52.0291L271.253 53.8877Z" fill="#FFCC00"/>
<path d="M271.253 53.8877L273.141 52.5162L272.455 51.5723L271.253 53.8877Z" fill="#FFCC00"/>
<path d="M273.996 53.8872L272.108 52.5157L272.794 51.5719L273.996 53.8872Z" fill="#FFCC00"/>
<path d="M273.996 53.8872L273.275 51.6681L272.165 52.0286L273.996 53.8872Z" fill="#FFCC00"/>
<path d="M274.844 51.2788L272.956 52.6503L272.27 51.7065L274.844 51.2788Z" fill="#FFCC00"/>
<path d="M274.844 51.2788H272.51V52.4455L274.844 51.2788Z" fill="#FFCC00"/>
<path d="M270.405 51.2793L272.293 52.6508L272.978 51.7069L270.405 51.2793Z" fill="#FFCC00"/>
<path d="M270.405 51.2793H272.738V52.446L270.405 51.2793Z" fill="#FFCC00"/>
<path d="M272.624 49.6665L271.903 51.8856L273.013 52.2462L272.624 49.6665Z" fill="#FFCC00"/>
<path d="M272.624 49.6665L273.345 51.8856L272.236 52.2462L272.624 49.6665Z" fill="#FFCC00"/>
<path d="M270.406 65.2788H272.739V66.4455L270.406 65.2788Z" fill="#FFCC00"/>
<path d="M270.406 65.2788L272.293 66.6503L272.979 65.7065L270.406 65.2788Z" fill="#FFCC00"/>
<path d="M271.253 67.8877L271.974 65.6686L273.084 66.0291L271.253 67.8877Z" fill="#FFCC00"/>
<path d="M271.253 67.8877L273.141 66.5162L272.455 65.5723L271.253 67.8877Z" fill="#FFCC00"/>
<path d="M273.996 67.8872L272.108 66.5157L272.794 65.5719L273.996 67.8872Z" fill="#FFCC00"/>
<path d="M273.996 67.8872L273.275 65.6681L272.165 66.0286L273.996 67.8872Z" fill="#FFCC00"/>
<path d="M272.625 63.6665L271.903 65.8856L273.013 66.2462L272.625 63.6665Z" fill="#FFCC00"/>
<path d="M272.625 63.6665L273.346 65.8856L272.236 66.2462L272.625 63.6665Z" fill="#FFCC00"/>
<path d="M274.844 65.2788H272.51V66.4455L274.844 65.2788Z" fill="#FFCC00"/>
<path d="M274.844 65.2788L272.956 66.6503L272.27 65.7065L274.844 65.2788Z" fill="#FFCC00"/>
<path d="M265.281 70.4033H267.614V71.57L265.281 70.4033Z" fill="#FFCC00"/>
<path d="M265.281 70.4033L267.169 71.7748L267.854 70.831L265.281 70.4033Z" fill="#FFCC00"/>
<path d="M266.129 73.0122L266.85 70.7931L267.959 71.1536L266.129 73.0122Z" fill="#FFCC00"/>
<path d="M266.129 73.0122L268.016 71.6407L267.331 70.6969L266.129 73.0122Z" fill="#FFCC00"/>
<path d="M268.872 73.0117L266.984 71.6402L267.67 70.6964L268.872 73.0117Z" fill="#FFCC00"/>
<path d="M268.872 73.0117L268.151 70.7926L267.041 71.1531L268.872 73.0117Z" fill="#FFCC00"/>
<path d="M267.5 68.791L266.779 71.0101L267.889 71.3707L267.5 68.791Z" fill="#FFCC00"/>
<path d="M267.5 68.791L268.221 71.0101L267.111 71.3707L267.5 68.791Z" fill="#FFCC00"/>
<path d="M269.719 70.4033H267.386V71.57L269.719 70.4033Z" fill="#FFCC00"/>
<path d="M269.719 70.4033L267.831 71.7748L267.146 70.831L269.719 70.4033Z" fill="#FFCC00"/>
</g>
<g clip-path="url(#clip1_30_1381)">
<path d="M115 38H52V59H115V38Z" fill="white"/>
<path d="M115 59H52V80H115V59Z" fill="#D52B1E"/>
<path d="M115 52H52V66H115V52Z" fill="#0039A6"/>
</g>
<line x1="171.5" y1="2.18557e-08" x2="171.5" y2="207" stroke="black" stroke-dasharray="4 4"/>
<defs>
<clipPath id="clip0_30_1381">
<rect x="229" y="38" width="63" height="42" rx="10" fill="white"/>
</clipPath>
<clipPath id="clip1_30_1381">
<rect x="52" y="38" width="63" height="42" rx="10" fill="white"/>
</clipPath>
</defs>
</svg>
