<svg width="312" height="219" viewBox="0 0 312 219" fill="none" xmlns="http://www.w3.org/2000/svg">
<path d="M151.293 218.707C151.683 219.098 152.317 219.098 152.707 218.707L159.071 212.343C159.462 211.953 159.462 211.319 159.071 210.929C158.681 210.538 158.047 210.538 157.657 210.929L152 216.586L146.343 210.929C145.953 210.538 145.319 210.538 144.929 210.929C144.538 211.319 144.538 211.953 144.929 212.343L151.293 218.707ZM151 4.37114e-08L151 218L153 218L153 -4.37114e-08L151 4.37114e-08Z" fill="#0029FF"/>
<path d="M194.729 28.4545C194.729 29.8352 194.48 31.0284 193.981 32.0341C193.483 33.0398 192.799 33.8153 191.93 34.3608C191.06 34.9062 190.067 35.179 188.951 35.179C187.834 35.179 186.842 34.9062 185.972 34.3608C185.103 33.8153 184.419 33.0398 183.92 32.0341C183.422 31.0284 183.172 29.8352 183.172 28.4545C183.172 27.0739 183.422 25.8807 183.92 24.875C184.419 23.8693 185.103 23.0938 185.972 22.5483C186.842 22.0028 187.834 21.7301 188.951 21.7301C190.067 21.7301 191.06 22.0028 191.93 22.5483C192.799 23.0938 193.483 23.8693 193.981 24.875C194.48 25.8807 194.729 27.0739 194.729 28.4545ZM193.195 28.4545C193.195 27.321 193.006 26.3643 192.626 25.5845C192.251 24.8047 191.742 24.2145 191.099 23.8139C190.459 23.4134 189.744 23.2131 188.951 23.2131C188.158 23.2131 187.44 23.4134 186.797 23.8139C186.158 24.2145 185.648 24.8047 185.269 25.5845C184.894 26.3643 184.707 27.321 184.707 28.4545C184.707 29.5881 184.894 30.5447 185.269 31.3246C185.648 32.1044 186.158 32.6946 186.797 33.0952C187.44 33.4957 188.158 33.696 188.951 33.696C189.744 33.696 190.459 33.4957 191.099 33.0952C191.742 32.6946 192.251 32.1044 192.626 31.3246C193.006 30.5447 193.195 29.5881 193.195 28.4545ZM204.477 21.5L205.244 22.4205C204.946 22.7102 204.601 22.9126 204.209 23.0277C203.817 23.1428 203.373 23.2131 202.879 23.2386C202.385 23.2642 201.835 23.2898 201.23 23.3153C200.548 23.3409 199.984 23.5071 199.536 23.8139C199.089 24.1207 198.744 24.5639 198.501 25.1435C198.258 25.723 198.102 26.4347 198.034 27.2784H198.162C198.494 26.6648 198.954 26.2131 199.543 25.9233C200.131 25.6335 200.761 25.4886 201.435 25.4886C202.202 25.4886 202.892 25.6676 203.506 26.0256C204.119 26.3835 204.605 26.9141 204.963 27.6172C205.321 28.3203 205.5 29.1875 205.5 30.2188C205.5 31.2457 205.317 32.1321 204.95 32.8778C204.588 33.6236 204.079 34.1989 203.422 34.6037C202.771 35.0043 202.006 35.2045 201.128 35.2045C200.25 35.2045 199.481 34.9979 198.82 34.5845C198.16 34.1669 197.646 33.549 197.28 32.7308C196.913 31.9084 196.73 30.892 196.73 29.6818V28.6335C196.73 26.4474 197.101 24.7898 197.842 23.6605C198.588 22.5312 199.709 21.9474 201.204 21.9091C201.733 21.892 202.204 21.8878 202.617 21.8963C203.03 21.9048 203.391 21.8857 203.697 21.8388C204.004 21.7919 204.264 21.679 204.477 21.5ZM201.128 33.8494C201.72 33.8494 202.229 33.7003 202.655 33.402C203.086 33.1037 203.416 32.6839 203.646 32.1428C203.876 31.5973 203.991 30.956 203.991 30.2188C203.991 29.5028 203.874 28.8935 203.64 28.3906C203.41 27.8878 203.079 27.5043 202.649 27.2401C202.219 26.9759 201.703 26.8438 201.102 26.8438C200.663 26.8438 200.269 26.9183 199.92 27.0675C199.57 27.2166 199.272 27.4361 199.025 27.7259C198.778 28.0156 198.586 28.3693 198.449 28.7869C198.317 29.2045 198.247 29.6818 198.239 30.2188C198.239 31.3182 198.496 32.1982 199.012 32.8587C199.528 33.5192 200.233 33.8494 201.128 33.8494ZM211.796 38.3494V21.9091H213.305V38.3494H211.796ZM211.796 35.2045C211.131 35.2045 210.526 35.0852 209.981 34.8466C209.435 34.6037 208.967 34.2607 208.574 33.8175C208.182 33.37 207.88 32.8352 207.667 32.2131C207.454 31.5909 207.347 30.9006 207.347 30.142C207.347 29.375 207.454 28.6804 207.667 28.0582C207.88 27.4318 208.182 26.8949 208.574 26.4474C208.967 26 209.435 25.657 209.981 25.4183C210.526 25.1754 211.131 25.054 211.796 25.054H212.256V35.2045H211.796ZM211.796 33.8494H212.052V26.4091H211.796C211.293 26.4091 210.856 26.5114 210.486 26.7159C210.115 26.9162 209.808 27.1911 209.565 27.5405C209.327 27.8857 209.148 28.282 209.028 28.7294C208.913 29.1768 208.856 29.6477 208.856 30.142C208.856 30.7983 208.96 31.4077 209.169 31.9702C209.378 32.5327 209.699 32.9865 210.134 33.3317C210.569 33.6768 211.123 33.8494 211.796 33.8494ZM213.305 35.2045H212.844V25.054H213.305C213.969 25.054 214.574 25.1754 215.12 25.4183C215.665 25.657 216.134 26 216.526 26.4474C216.918 26.8949 217.221 27.4318 217.434 28.0582C217.647 28.6804 217.753 29.375 217.753 30.142C217.753 30.9006 217.647 31.5909 217.434 32.2131C217.221 32.8352 216.918 33.37 216.526 33.8175C216.134 34.2607 215.665 34.6037 215.12 34.8466C214.574 35.0852 213.969 35.2045 213.305 35.2045ZM213.305 33.8494C213.812 33.8494 214.248 33.7514 214.615 33.5554C214.986 33.3551 215.29 33.0824 215.529 32.7372C215.772 32.3878 215.951 31.9915 216.066 31.5483C216.185 31.1009 216.245 30.6321 216.245 30.142C216.245 29.4858 216.141 28.8743 215.932 28.3075C215.723 27.7408 215.401 27.2827 214.967 26.9332C214.532 26.5838 213.978 26.4091 213.305 26.4091H213.049V33.8494H213.305ZM220.679 38.6818C220.424 38.6818 220.196 38.6605 219.995 38.6179C219.795 38.5795 219.657 38.5412 219.58 38.5028L219.964 37.1733C220.33 37.267 220.654 37.3011 220.935 37.2756C221.216 37.25 221.466 37.1243 221.683 36.8984C221.905 36.6768 222.107 36.3168 222.29 35.8182L222.571 35.0511L218.941 25.1818H220.577L223.287 33.0057H223.39L226.1 25.1818H227.736L223.569 36.4318C223.381 36.9389 223.149 37.3587 222.872 37.6911C222.595 38.0277 222.273 38.277 221.907 38.4389C221.544 38.6009 221.135 38.6818 220.679 38.6818ZM233.364 35.2045C232.444 35.2045 231.651 34.9872 230.987 34.5526C230.322 34.1179 229.81 33.5192 229.453 32.7564C229.095 31.9936 228.916 31.1222 228.916 30.142C228.916 29.1449 229.099 28.2649 229.465 27.5021C229.836 26.7351 230.352 26.1364 231.012 25.706C231.677 25.2713 232.453 25.054 233.339 25.054C234.029 25.054 234.651 25.1818 235.205 25.4375C235.759 25.6932 236.213 26.0511 236.567 26.5114C236.921 26.9716 237.14 27.5085 237.225 28.1222H235.717C235.602 27.6747 235.346 27.2784 234.95 26.9332C234.558 26.5838 234.029 26.4091 233.364 26.4091C232.776 26.4091 232.261 26.5625 231.818 26.8693C231.379 27.1719 231.036 27.6001 230.788 28.1541C230.546 28.7038 230.424 29.3494 230.424 30.0909C230.424 30.8494 230.543 31.5099 230.782 32.0724C231.025 32.6349 231.366 33.0717 231.805 33.3828C232.248 33.6939 232.768 33.8494 233.364 33.8494C233.756 33.8494 234.112 33.7812 234.432 33.6449C234.752 33.5085 235.022 33.3125 235.244 33.0568C235.465 32.8011 235.623 32.4943 235.717 32.1364H237.225C237.14 32.7159 236.929 33.2379 236.592 33.7024C236.26 34.1626 235.819 34.5291 235.269 34.8018C234.724 35.0703 234.089 35.2045 233.364 35.2045ZM239.43 35V25.1818H240.939V29.4517H241.936L245.465 25.1818H247.408L243.445 29.9119L247.459 35H245.516L242.294 30.858H240.939V35H239.43ZM251.988 35.2301C251.366 35.2301 250.801 35.1129 250.294 34.8786C249.787 34.6399 249.384 34.2969 249.086 33.8494C248.787 33.3977 248.638 32.8523 248.638 32.2131C248.638 31.6506 248.749 31.1946 248.971 30.8452C249.192 30.4915 249.488 30.2145 249.859 30.0142C250.23 29.8139 250.639 29.6648 251.086 29.5668C251.538 29.4645 251.992 29.3835 252.448 29.3239C253.044 29.2472 253.528 29.1896 253.899 29.1513C254.274 29.1087 254.547 29.0384 254.717 28.9403C254.892 28.8423 254.979 28.6719 254.979 28.429V28.3778C254.979 27.7472 254.807 27.2571 254.461 26.9077C254.12 26.5582 253.603 26.3835 252.908 26.3835C252.188 26.3835 251.623 26.5412 251.214 26.8565C250.805 27.1719 250.517 27.5085 250.351 27.8665L248.919 27.3551C249.175 26.7585 249.516 26.294 249.942 25.9616C250.373 25.625 250.841 25.3906 251.348 25.2585C251.86 25.1222 252.363 25.054 252.857 25.054C253.172 25.054 253.535 25.0923 253.944 25.169C254.357 25.2415 254.755 25.3928 255.139 25.6229C255.527 25.853 255.848 26.2003 256.104 26.6648C256.36 27.1293 256.488 27.7514 256.488 28.5312V35H254.979V33.6705H254.902C254.8 33.8835 254.63 34.1115 254.391 34.3544C254.152 34.5973 253.835 34.804 253.439 34.9744C253.042 35.1449 252.559 35.2301 251.988 35.2301ZM252.218 33.875C252.814 33.875 253.317 33.7578 253.726 33.5234C254.14 33.2891 254.451 32.9865 254.66 32.6158C254.873 32.245 254.979 31.8551 254.979 31.446V30.0653C254.915 30.142 254.775 30.2124 254.557 30.2763C254.344 30.3359 254.097 30.3892 253.816 30.4361C253.539 30.4787 253.268 30.517 253.004 30.5511C252.744 30.581 252.533 30.6065 252.371 30.6278C251.979 30.679 251.613 30.7621 251.272 30.8771C250.935 30.9879 250.662 31.1562 250.454 31.3821C250.249 31.6037 250.147 31.9062 250.147 32.2898C250.147 32.8139 250.341 33.2102 250.728 33.4787C251.12 33.7429 251.617 33.875 252.218 33.875ZM257.905 26.5881V25.1818H265.882V26.5881H262.661V35H261.152V26.5881H257.905ZM271.562 35.2045C270.675 35.2045 269.898 34.9936 269.229 34.5717C268.564 34.1499 268.044 33.5597 267.669 32.8011C267.298 32.0426 267.113 31.1562 267.113 30.142C267.113 29.1193 267.298 28.2266 267.669 27.4638C268.044 26.701 268.564 26.1087 269.229 25.6868C269.898 25.2649 270.675 25.054 271.562 25.054C272.448 25.054 273.224 25.2649 273.888 25.6868C274.557 26.1087 275.077 26.701 275.448 27.4638C275.823 28.2266 276.011 29.1193 276.011 30.142C276.011 31.1562 275.823 32.0426 275.448 32.8011C275.077 33.5597 274.557 34.1499 273.888 34.5717C273.224 34.9936 272.448 35.2045 271.562 35.2045ZM271.562 33.8494C272.235 33.8494 272.789 33.6768 273.224 33.3317C273.658 32.9865 273.98 32.5327 274.189 31.9702C274.398 31.4077 274.502 30.7983 274.502 30.142C274.502 29.4858 274.398 28.8743 274.189 28.3075C273.98 27.7408 273.658 27.2827 273.224 26.9332C272.789 26.5838 272.235 26.4091 271.562 26.4091C270.888 26.4091 270.334 26.5838 269.9 26.9332C269.465 27.2827 269.143 27.7408 268.935 28.3075C268.726 28.8743 268.621 29.4858 268.621 30.142C268.621 30.7983 268.726 31.4077 268.935 31.9702C269.143 32.5327 269.465 32.9865 269.9 33.3317C270.334 33.6768 270.888 33.8494 271.562 33.8494ZM278.313 38.6818V25.1818H279.771V26.7415H279.95C280.06 26.571 280.214 26.3537 280.41 26.0895C280.61 25.821 280.896 25.5824 281.266 25.3736C281.641 25.1605 282.149 25.054 282.788 25.054C283.614 25.054 284.343 25.2607 284.974 25.674C285.604 26.0874 286.097 26.6733 286.45 27.4318C286.804 28.1903 286.981 29.0852 286.981 30.1165C286.981 31.1562 286.804 32.0575 286.45 32.8203C286.097 33.5788 285.607 34.1669 284.98 34.5845C284.354 34.9979 283.631 35.2045 282.813 35.2045C282.183 35.2045 281.678 35.1001 281.298 34.8913C280.919 34.6783 280.627 34.4375 280.423 34.169C280.218 33.8963 280.06 33.6705 279.95 33.4915H279.822V38.6818H278.313ZM279.796 30.0909C279.796 30.8324 279.905 31.4865 280.122 32.0533C280.34 32.6158 280.657 33.0568 281.075 33.3764C281.492 33.6918 282.004 33.8494 282.609 33.8494C283.239 33.8494 283.766 33.6832 284.188 33.3509C284.614 33.0142 284.933 32.5625 285.146 31.9957C285.364 31.4247 285.472 30.7898 285.472 30.0909C285.472 29.4006 285.366 28.7784 285.153 28.2244C284.944 27.6662 284.627 27.2251 284.2 26.9013C283.778 26.5732 283.248 26.4091 282.609 26.4091C281.995 26.4091 281.479 26.5646 281.062 26.8757C280.644 27.1825 280.329 27.6129 280.116 28.1669C279.903 28.7166 279.796 29.358 279.796 30.0909ZM177.327 48.5881V47.1818H185.304V48.5881H182.083V57H180.574V48.5881H177.327ZM187.505 60.6818V47.1818H188.962V48.7415H189.141C189.252 48.571 189.405 48.3537 189.601 48.0895C189.802 47.821 190.087 47.5824 190.458 47.3736C190.833 47.1605 191.34 47.054 191.979 47.054C192.806 47.054 193.535 47.2607 194.165 47.674C194.796 48.0874 195.288 48.6733 195.642 49.4318C195.995 50.1903 196.172 51.0852 196.172 52.1165C196.172 53.1562 195.995 54.0575 195.642 54.8203C195.288 55.5788 194.798 56.1669 194.172 56.5845C193.545 56.9979 192.823 57.2045 192.005 57.2045C191.374 57.2045 190.869 57.1001 190.49 56.8913C190.111 56.6783 189.819 56.4375 189.614 56.169C189.41 55.8963 189.252 55.6705 189.141 55.4915H189.013V60.6818H187.505ZM188.988 52.0909C188.988 52.8324 189.096 53.4865 189.314 54.0533C189.531 54.6158 189.848 55.0568 190.266 55.3764C190.684 55.6918 191.195 55.8494 191.8 55.8494C192.431 55.8494 192.957 55.6832 193.379 55.3509C193.805 55.0142 194.125 54.5625 194.338 53.9957C194.555 53.4247 194.664 52.7898 194.664 52.0909C194.664 51.4006 194.557 50.7784 194.344 50.2244C194.135 49.6662 193.818 49.2251 193.392 48.9013C192.97 48.5732 192.439 48.4091 191.8 48.4091C191.187 48.4091 190.671 48.5646 190.253 48.8757C189.836 49.1825 189.52 49.6129 189.307 50.1669C189.094 50.7166 188.988 51.358 188.988 52.0909ZM201.363 57.2301C200.741 57.2301 200.176 57.1129 199.669 56.8786C199.162 56.6399 198.759 56.2969 198.461 55.8494C198.162 55.3977 198.013 54.8523 198.013 54.2131C198.013 53.6506 198.124 53.1946 198.346 52.8452C198.567 52.4915 198.863 52.2145 199.234 52.0142C199.605 51.8139 200.014 51.6648 200.461 51.5668C200.913 51.4645 201.367 51.3835 201.823 51.3239C202.419 51.2472 202.903 51.1896 203.274 51.1513C203.649 51.1087 203.922 51.0384 204.092 50.9403C204.267 50.8423 204.354 50.6719 204.354 50.429V50.3778C204.354 49.7472 204.182 49.2571 203.836 48.9077C203.495 48.5582 202.978 48.3835 202.283 48.3835C201.563 48.3835 200.998 48.5412 200.589 48.8565C200.18 49.1719 199.892 49.5085 199.726 49.8665L198.294 49.3551C198.55 48.7585 198.891 48.294 199.317 47.9616C199.748 47.625 200.216 47.3906 200.723 47.2585C201.235 47.1222 201.738 47.054 202.232 47.054C202.547 47.054 202.91 47.0923 203.319 47.169C203.732 47.2415 204.13 47.3928 204.514 47.6229C204.902 47.853 205.223 48.2003 205.479 48.6648C205.735 49.1293 205.863 49.7514 205.863 50.5312V57H204.354V55.6705H204.277C204.175 55.8835 204.005 56.1115 203.766 56.3544C203.527 56.5973 203.21 56.804 202.814 56.9744C202.417 57.1449 201.934 57.2301 201.363 57.2301ZM201.593 55.875C202.189 55.875 202.692 55.7578 203.101 55.5234C203.515 55.2891 203.826 54.9865 204.035 54.6158C204.248 54.245 204.354 53.8551 204.354 53.446V52.0653C204.29 52.142 204.15 52.2124 203.932 52.2763C203.719 52.3359 203.472 52.3892 203.191 52.4361C202.914 52.4787 202.643 52.517 202.379 52.5511C202.119 52.581 201.908 52.6065 201.746 52.6278C201.354 52.679 200.988 52.7621 200.647 52.8771C200.31 52.9879 200.037 53.1562 199.829 53.3821C199.624 53.6037 199.522 53.9062 199.522 54.2898C199.522 54.8139 199.716 55.2102 200.103 55.4787C200.495 55.7429 200.992 55.875 201.593 55.875ZM212.605 60.3494V43.9091H214.113V60.3494H212.605ZM212.605 57.2045C211.94 57.2045 211.335 57.0852 210.789 56.8466C210.244 56.6037 209.775 56.2607 209.383 55.8175C208.991 55.37 208.688 54.8352 208.475 54.2131C208.262 53.5909 208.156 52.9006 208.156 52.142C208.156 51.375 208.262 50.6804 208.475 50.0582C208.688 49.4318 208.991 48.8949 209.383 48.4474C209.775 48 210.244 47.657 210.789 47.4183C211.335 47.1754 211.94 47.054 212.605 47.054H213.065V57.2045H212.605ZM212.605 55.8494H212.86V48.4091H212.605C212.102 48.4091 211.665 48.5114 211.294 48.7159C210.924 48.9162 210.617 49.1911 210.374 49.5405C210.135 49.8857 209.956 50.282 209.837 50.7294C209.722 51.1768 209.664 51.6477 209.664 52.142C209.664 52.7983 209.769 53.4077 209.978 53.9702C210.186 54.5327 210.508 54.9865 210.943 55.3317C211.377 55.6768 211.931 55.8494 212.605 55.8494ZM214.113 57.2045H213.653V47.054H214.113C214.778 47.054 215.383 47.1754 215.929 47.4183C216.474 47.657 216.943 48 217.335 48.4474C217.727 48.8949 218.029 49.4318 218.242 50.0582C218.456 50.6804 218.562 51.375 218.562 52.142C218.562 52.9006 218.456 53.5909 218.242 54.2131C218.029 54.8352 217.727 55.37 217.335 55.8175C216.943 56.2607 216.474 56.6037 215.929 56.8466C215.383 57.0852 214.778 57.2045 214.113 57.2045ZM214.113 55.8494C214.62 55.8494 215.057 55.7514 215.424 55.5554C215.794 55.3551 216.099 55.0824 216.338 54.7372C216.581 54.3878 216.759 53.9915 216.875 53.5483C216.994 53.1009 217.054 52.6321 217.054 52.142C217.054 51.4858 216.949 50.8743 216.74 50.3075C216.532 49.7408 216.21 49.2827 215.775 48.9332C215.34 48.5838 214.786 48.4091 214.113 48.4091H213.858V55.8494H214.113ZM222.377 54.7756L227.107 47.1818H228.845V57H227.337V49.4062L222.632 57H220.868V47.1818H222.377V54.7756ZM231.608 57V47.1818H233.117V51.4517H234.114L237.642 47.1818H239.585L235.622 51.9119L239.637 57H237.693L234.472 52.858H233.117V57H231.608ZM244.165 57.2301C243.543 57.2301 242.979 57.1129 242.472 56.8786C241.964 56.6399 241.562 56.2969 241.263 55.8494C240.965 55.3977 240.816 54.8523 240.816 54.2131C240.816 53.6506 240.927 53.1946 241.148 52.8452C241.37 52.4915 241.666 52.2145 242.037 52.0142C242.408 51.8139 242.817 51.6648 243.264 51.5668C243.716 51.4645 244.17 51.3835 244.626 51.3239C245.222 51.2472 245.706 51.1896 246.077 51.1513C246.452 51.1087 246.724 51.0384 246.895 50.9403C247.07 50.8423 247.157 50.6719 247.157 50.429V50.3778C247.157 49.7472 246.984 49.2571 246.639 48.9077C246.298 48.5582 245.78 48.3835 245.086 48.3835C244.366 48.3835 243.801 48.5412 243.392 48.8565C242.983 49.1719 242.695 49.5085 242.529 49.8665L241.097 49.3551C241.353 48.7585 241.694 48.294 242.12 47.9616C242.55 47.625 243.019 47.3906 243.526 47.2585C244.038 47.1222 244.54 47.054 245.035 47.054C245.35 47.054 245.712 47.0923 246.121 47.169C246.535 47.2415 246.933 47.3928 247.317 47.6229C247.704 47.853 248.026 48.2003 248.282 48.6648C248.538 49.1293 248.665 49.7514 248.665 50.5312V57H247.157V55.6705H247.08C246.978 55.8835 246.807 56.1115 246.569 56.3544C246.33 56.5973 246.013 56.804 245.616 56.9744C245.22 57.1449 244.736 57.2301 244.165 57.2301ZM244.396 55.875C244.992 55.875 245.495 55.7578 245.904 55.5234C246.317 55.2891 246.628 54.9865 246.837 54.6158C247.05 54.245 247.157 53.8551 247.157 53.446V52.0653C247.093 52.142 246.952 52.2124 246.735 52.2763C246.522 52.3359 246.275 52.3892 245.994 52.4361C245.717 52.4787 245.446 52.517 245.182 52.5511C244.922 52.581 244.711 52.6065 244.549 52.6278C244.157 52.679 243.79 52.7621 243.449 52.8771C243.113 52.9879 242.84 53.1562 242.631 53.3821C242.427 53.6037 242.324 53.9062 242.324 54.2898C242.324 54.8139 242.518 55.2102 242.906 55.4787C243.298 55.7429 243.795 55.875 244.396 55.875ZM256.481 57V47.1818H260.495C261.552 47.1818 262.392 47.4205 263.014 47.8977C263.636 48.375 263.947 49.0057 263.947 49.7898C263.947 50.3864 263.77 50.8487 263.417 51.1768C263.063 51.5007 262.609 51.7202 262.055 51.8352C262.417 51.8864 262.769 52.0142 263.11 52.2188C263.455 52.4233 263.741 52.7045 263.966 53.0625C264.192 53.4162 264.305 53.8509 264.305 54.3665C264.305 54.8693 264.177 55.3189 263.922 55.7152C263.666 56.1115 263.299 56.4247 262.822 56.6548C262.345 56.8849 261.774 57 261.109 57H256.481ZM257.913 55.6193H261.109C261.629 55.6193 262.036 55.4957 262.33 55.2486C262.624 55.0014 262.771 54.6648 262.771 54.2386C262.771 53.7315 262.624 53.3331 262.33 53.0433C262.036 52.7493 261.629 52.6023 261.109 52.6023H257.913V55.6193ZM257.913 51.2983H260.495C260.9 51.2983 261.248 51.2429 261.537 51.1321C261.827 51.017 262.049 50.8551 262.202 50.6463C262.36 50.4332 262.439 50.1818 262.439 49.892C262.439 49.4787 262.266 49.1548 261.921 48.9205C261.576 48.6818 261.101 48.5625 260.495 48.5625H257.913V51.2983ZM271.651 60.6818V47.1818H273.109V48.7415H273.288C273.398 48.571 273.552 48.3537 273.748 48.0895C273.948 47.821 274.234 47.5824 274.604 47.3736C274.979 47.1605 275.486 47.054 276.126 47.054C276.952 47.054 277.681 47.2607 278.312 47.674C278.942 48.0874 279.435 48.6733 279.788 49.4318C280.142 50.1903 280.319 51.0852 280.319 52.1165C280.319 53.1562 280.142 54.0575 279.788 54.8203C279.435 55.5788 278.945 56.1669 278.318 56.5845C277.692 56.9979 276.969 57.2045 276.151 57.2045C275.521 57.2045 275.016 57.1001 274.636 56.8913C274.257 56.6783 273.965 56.4375 273.761 56.169C273.556 55.8963 273.398 55.6705 273.288 55.4915H273.16V60.6818H271.651ZM273.134 52.0909C273.134 52.8324 273.243 53.4865 273.46 54.0533C273.677 54.6158 273.995 55.0568 274.413 55.3764C274.83 55.6918 275.342 55.8494 275.947 55.8494C276.577 55.8494 277.104 55.6832 277.525 55.3509C277.952 55.0142 278.271 54.5625 278.484 53.9957C278.702 53.4247 278.81 52.7898 278.81 52.0909C278.81 51.4006 278.704 50.7784 278.491 50.2244C278.282 49.6662 277.964 49.2251 277.538 48.9013C277.116 48.5732 276.586 48.4091 275.947 48.4091C275.333 48.4091 274.817 48.5646 274.4 48.8757C273.982 49.1825 273.667 49.6129 273.454 50.1669C273.241 50.7166 273.134 51.358 273.134 52.0909ZM286.609 60.3494V43.9091H288.117V60.3494H286.609ZM286.609 57.2045C285.944 57.2045 285.339 57.0852 284.793 56.8466C284.248 56.6037 283.779 56.2607 283.387 55.8175C282.995 55.37 282.692 54.8352 282.479 54.2131C282.266 53.5909 282.16 52.9006 282.16 52.142C282.16 51.375 282.266 50.6804 282.479 50.0582C282.692 49.4318 282.995 48.8949 283.387 48.4474C283.779 48 284.248 47.657 284.793 47.4183C285.339 47.1754 285.944 47.054 286.609 47.054H287.069V57.2045H286.609ZM286.609 55.8494H286.864V48.4091H286.609C286.106 48.4091 285.669 48.5114 285.298 48.7159C284.927 48.9162 284.621 49.1911 284.378 49.5405C284.139 49.8857 283.96 50.282 283.841 50.7294C283.726 51.1768 283.668 51.6477 283.668 52.142C283.668 52.7983 283.773 53.4077 283.981 53.9702C284.19 54.5327 284.512 54.9865 284.947 55.3317C285.381 55.6768 285.935 55.8494 286.609 55.8494ZM288.117 57.2045H287.657V47.054H288.117C288.782 47.054 289.387 47.1754 289.932 47.4183C290.478 47.657 290.947 48 291.339 48.4474C291.731 48.8949 292.033 49.4318 292.246 50.0582C292.459 50.6804 292.566 51.375 292.566 52.142C292.566 52.9006 292.459 53.5909 292.246 54.2131C292.033 54.8352 291.731 55.37 291.339 55.8175C290.947 56.2607 290.478 56.6037 289.932 56.8466C289.387 57.0852 288.782 57.2045 288.117 57.2045ZM288.117 55.8494C288.624 55.8494 289.061 55.7514 289.427 55.5554C289.798 55.3551 290.103 55.0824 290.342 54.7372C290.584 54.3878 290.763 53.9915 290.878 53.5483C290.998 53.1009 291.057 52.6321 291.057 52.142C291.057 51.4858 290.953 50.8743 290.744 50.3075C290.535 49.7408 290.214 49.2827 289.779 48.9332C289.344 48.5838 288.79 48.4091 288.117 48.4091H287.861V55.8494H288.117Z" fill="black"/>
<path d="M194.729 143.455C194.729 144.835 194.48 146.028 193.981 147.034C193.483 148.04 192.799 148.815 191.93 149.361C191.06 149.906 190.067 150.179 188.951 150.179C187.834 150.179 186.842 149.906 185.972 149.361C185.103 148.815 184.419 148.04 183.92 147.034C183.422 146.028 183.172 144.835 183.172 143.455C183.172 142.074 183.422 140.881 183.92 139.875C184.419 138.869 185.103 138.094 185.972 137.548C186.842 137.003 187.834 136.73 188.951 136.73C190.067 136.73 191.06 137.003 191.93 137.548C192.799 138.094 193.483 138.869 193.981 139.875C194.48 140.881 194.729 142.074 194.729 143.455ZM193.195 143.455C193.195 142.321 193.006 141.364 192.626 140.585C192.251 139.805 191.742 139.214 191.099 138.814C190.459 138.413 189.744 138.213 188.951 138.213C188.158 138.213 187.44 138.413 186.797 138.814C186.158 139.214 185.648 139.805 185.269 140.585C184.894 141.364 184.707 142.321 184.707 143.455C184.707 144.588 184.894 145.545 185.269 146.325C185.648 147.104 186.158 147.695 186.797 148.095C187.44 148.496 188.158 148.696 188.951 148.696C189.744 148.696 190.459 148.496 191.099 148.095C191.742 147.695 192.251 147.104 192.626 146.325C193.006 145.545 193.195 144.588 193.195 143.455ZM204.477 136.5L205.244 137.42C204.946 137.71 204.601 137.913 204.209 138.028C203.817 138.143 203.373 138.213 202.879 138.239C202.385 138.264 201.835 138.29 201.23 138.315C200.548 138.341 199.984 138.507 199.536 138.814C199.089 139.121 198.744 139.564 198.501 140.143C198.258 140.723 198.102 141.435 198.034 142.278H198.162C198.494 141.665 198.954 141.213 199.543 140.923C200.131 140.634 200.761 140.489 201.435 140.489C202.202 140.489 202.892 140.668 203.506 141.026C204.119 141.384 204.605 141.914 204.963 142.617C205.321 143.32 205.5 144.188 205.5 145.219C205.5 146.246 205.317 147.132 204.95 147.878C204.588 148.624 204.079 149.199 203.422 149.604C202.771 150.004 202.006 150.205 201.128 150.205C200.25 150.205 199.481 149.998 198.82 149.585C198.16 149.167 197.646 148.549 197.28 147.731C196.913 146.908 196.73 145.892 196.73 144.682V143.634C196.73 141.447 197.101 139.79 197.842 138.661C198.588 137.531 199.709 136.947 201.204 136.909C201.733 136.892 202.204 136.888 202.617 136.896C203.03 136.905 203.391 136.886 203.697 136.839C204.004 136.792 204.264 136.679 204.477 136.5ZM201.128 148.849C201.72 148.849 202.229 148.7 202.655 148.402C203.086 148.104 203.416 147.684 203.646 147.143C203.876 146.597 203.991 145.956 203.991 145.219C203.991 144.503 203.874 143.893 203.64 143.391C203.41 142.888 203.079 142.504 202.649 142.24C202.219 141.976 201.703 141.844 201.102 141.844C200.663 141.844 200.269 141.918 199.92 142.067C199.57 142.217 199.272 142.436 199.025 142.726C198.778 143.016 198.586 143.369 198.449 143.787C198.317 144.205 198.247 144.682 198.239 145.219C198.239 146.318 198.496 147.198 199.012 147.859C199.528 148.519 200.233 148.849 201.128 148.849ZM211.796 153.349V136.909H213.305V153.349H211.796ZM211.796 150.205C211.131 150.205 210.526 150.085 209.981 149.847C209.435 149.604 208.967 149.261 208.574 148.817C208.182 148.37 207.88 147.835 207.667 147.213C207.454 146.591 207.347 145.901 207.347 145.142C207.347 144.375 207.454 143.68 207.667 143.058C207.88 142.432 208.182 141.895 208.574 141.447C208.967 141 209.435 140.657 209.981 140.418C210.526 140.175 211.131 140.054 211.796 140.054H212.256V150.205H211.796ZM211.796 148.849H212.052V141.409H211.796C211.293 141.409 210.856 141.511 210.486 141.716C210.115 141.916 209.808 142.191 209.565 142.54C209.327 142.886 209.148 143.282 209.028 143.729C208.913 144.177 208.856 144.648 208.856 145.142C208.856 145.798 208.96 146.408 209.169 146.97C209.378 147.533 209.699 147.987 210.134 148.332C210.569 148.677 211.123 148.849 211.796 148.849ZM213.305 150.205H212.844V140.054H213.305C213.969 140.054 214.574 140.175 215.12 140.418C215.665 140.657 216.134 141 216.526 141.447C216.918 141.895 217.221 142.432 217.434 143.058C217.647 143.68 217.753 144.375 217.753 145.142C217.753 145.901 217.647 146.591 217.434 147.213C217.221 147.835 216.918 148.37 216.526 148.817C216.134 149.261 215.665 149.604 215.12 149.847C214.574 150.085 213.969 150.205 213.305 150.205ZM213.305 148.849C213.812 148.849 214.248 148.751 214.615 148.555C214.986 148.355 215.29 148.082 215.529 147.737C215.772 147.388 215.951 146.991 216.066 146.548C216.185 146.101 216.245 145.632 216.245 145.142C216.245 144.486 216.141 143.874 215.932 143.308C215.723 142.741 215.401 142.283 214.967 141.933C214.532 141.584 213.978 141.409 213.305 141.409H213.049V148.849H213.305ZM220.679 153.682C220.424 153.682 220.196 153.661 219.995 153.618C219.795 153.58 219.657 153.541 219.58 153.503L219.964 152.173C220.33 152.267 220.654 152.301 220.935 152.276C221.216 152.25 221.466 152.124 221.683 151.898C221.905 151.677 222.107 151.317 222.29 150.818L222.571 150.051L218.941 140.182H220.577L223.287 148.006H223.39L226.1 140.182H227.736L223.569 151.432C223.381 151.939 223.149 152.359 222.872 152.691C222.595 153.028 222.273 153.277 221.907 153.439C221.544 153.601 221.135 153.682 220.679 153.682ZM233.364 150.205C232.444 150.205 231.651 149.987 230.987 149.553C230.322 149.118 229.81 148.519 229.453 147.756C229.095 146.994 228.916 146.122 228.916 145.142C228.916 144.145 229.099 143.265 229.465 142.502C229.836 141.735 230.352 141.136 231.012 140.706C231.677 140.271 232.453 140.054 233.339 140.054C234.029 140.054 234.651 140.182 235.205 140.438C235.759 140.693 236.213 141.051 236.567 141.511C236.921 141.972 237.14 142.509 237.225 143.122H235.717C235.602 142.675 235.346 142.278 234.95 141.933C234.558 141.584 234.029 141.409 233.364 141.409C232.776 141.409 232.261 141.562 231.818 141.869C231.379 142.172 231.036 142.6 230.788 143.154C230.546 143.704 230.424 144.349 230.424 145.091C230.424 145.849 230.543 146.51 230.782 147.072C231.025 147.635 231.366 148.072 231.805 148.383C232.248 148.694 232.768 148.849 233.364 148.849C233.756 148.849 234.112 148.781 234.432 148.645C234.752 148.509 235.022 148.312 235.244 148.057C235.465 147.801 235.623 147.494 235.717 147.136H237.225C237.14 147.716 236.929 148.238 236.592 148.702C236.26 149.163 235.819 149.529 235.269 149.802C234.724 150.07 234.089 150.205 233.364 150.205ZM239.43 150V140.182H240.939V144.452H241.936L245.465 140.182H247.408L243.445 144.912L247.459 150H245.516L242.294 145.858H240.939V150H239.43ZM251.988 150.23C251.366 150.23 250.801 150.113 250.294 149.879C249.787 149.64 249.384 149.297 249.086 148.849C248.787 148.398 248.638 147.852 248.638 147.213C248.638 146.651 248.749 146.195 248.971 145.845C249.192 145.491 249.488 145.214 249.859 145.014C250.23 144.814 250.639 144.665 251.086 144.567C251.538 144.464 251.992 144.384 252.448 144.324C253.044 144.247 253.528 144.19 253.899 144.151C254.274 144.109 254.547 144.038 254.717 143.94C254.892 143.842 254.979 143.672 254.979 143.429V143.378C254.979 142.747 254.807 142.257 254.461 141.908C254.12 141.558 253.603 141.384 252.908 141.384C252.188 141.384 251.623 141.541 251.214 141.857C250.805 142.172 250.517 142.509 250.351 142.866L248.919 142.355C249.175 141.759 249.516 141.294 249.942 140.962C250.373 140.625 250.841 140.391 251.348 140.259C251.86 140.122 252.363 140.054 252.857 140.054C253.172 140.054 253.535 140.092 253.944 140.169C254.357 140.241 254.755 140.393 255.139 140.623C255.527 140.853 255.848 141.2 256.104 141.665C256.36 142.129 256.488 142.751 256.488 143.531V150H254.979V148.67H254.902C254.8 148.884 254.63 149.112 254.391 149.354C254.152 149.597 253.835 149.804 253.439 149.974C253.042 150.145 252.559 150.23 251.988 150.23ZM252.218 148.875C252.814 148.875 253.317 148.758 253.726 148.523C254.14 148.289 254.451 147.987 254.66 147.616C254.873 147.245 254.979 146.855 254.979 146.446V145.065C254.915 145.142 254.775 145.212 254.557 145.276C254.344 145.336 254.097 145.389 253.816 145.436C253.539 145.479 253.268 145.517 253.004 145.551C252.744 145.581 252.533 145.607 252.371 145.628C251.979 145.679 251.613 145.762 251.272 145.877C250.935 145.988 250.662 146.156 250.454 146.382C250.249 146.604 250.147 146.906 250.147 147.29C250.147 147.814 250.341 148.21 250.728 148.479C251.12 148.743 251.617 148.875 252.218 148.875ZM257.905 141.588V140.182H265.882V141.588H262.661V150H261.152V141.588H257.905ZM271.562 150.205C270.675 150.205 269.898 149.994 269.229 149.572C268.564 149.15 268.044 148.56 267.669 147.801C267.298 147.043 267.113 146.156 267.113 145.142C267.113 144.119 267.298 143.227 267.669 142.464C268.044 141.701 268.564 141.109 269.229 140.687C269.898 140.265 270.675 140.054 271.562 140.054C272.448 140.054 273.224 140.265 273.888 140.687C274.557 141.109 275.077 141.701 275.448 142.464C275.823 143.227 276.011 144.119 276.011 145.142C276.011 146.156 275.823 147.043 275.448 147.801C275.077 148.56 274.557 149.15 273.888 149.572C273.224 149.994 272.448 150.205 271.562 150.205ZM271.562 148.849C272.235 148.849 272.789 148.677 273.224 148.332C273.658 147.987 273.98 147.533 274.189 146.97C274.398 146.408 274.502 145.798 274.502 145.142C274.502 144.486 274.398 143.874 274.189 143.308C273.98 142.741 273.658 142.283 273.224 141.933C272.789 141.584 272.235 141.409 271.562 141.409C270.888 141.409 270.334 141.584 269.9 141.933C269.465 142.283 269.143 142.741 268.935 143.308C268.726 143.874 268.621 144.486 268.621 145.142C268.621 145.798 268.726 146.408 268.935 146.97C269.143 147.533 269.465 147.987 269.9 148.332C270.334 148.677 270.888 148.849 271.562 148.849ZM278.313 153.682V140.182H279.771V141.741H279.95C280.06 141.571 280.214 141.354 280.41 141.089C280.61 140.821 280.896 140.582 281.266 140.374C281.641 140.161 282.149 140.054 282.788 140.054C283.614 140.054 284.343 140.261 284.974 140.674C285.604 141.087 286.097 141.673 286.45 142.432C286.804 143.19 286.981 144.085 286.981 145.116C286.981 146.156 286.804 147.058 286.45 147.82C286.097 148.579 285.607 149.167 284.98 149.585C284.354 149.998 283.631 150.205 282.813 150.205C282.183 150.205 281.678 150.1 281.298 149.891C280.919 149.678 280.627 149.437 280.423 149.169C280.218 148.896 280.06 148.67 279.95 148.491H279.822V153.682H278.313ZM279.796 145.091C279.796 145.832 279.905 146.487 280.122 147.053C280.34 147.616 280.657 148.057 281.075 148.376C281.492 148.692 282.004 148.849 282.609 148.849C283.239 148.849 283.766 148.683 284.188 148.351C284.614 148.014 284.933 147.562 285.146 146.996C285.364 146.425 285.472 145.79 285.472 145.091C285.472 144.401 285.366 143.778 285.153 143.224C284.944 142.666 284.627 142.225 284.2 141.901C283.778 141.573 283.248 141.409 282.609 141.409C281.995 141.409 281.479 141.565 281.062 141.876C280.644 142.183 280.329 142.613 280.116 143.167C279.903 143.717 279.796 144.358 279.796 145.091ZM178.47 163.588V162.182H186.447V163.588H183.225V172H181.717V163.588H178.47ZM188.647 175.682V162.182H190.105V163.741H190.284C190.394 163.571 190.548 163.354 190.744 163.089C190.944 162.821 191.23 162.582 191.6 162.374C191.975 162.161 192.483 162.054 193.122 162.054C193.948 162.054 194.677 162.261 195.308 162.674C195.938 163.087 196.431 163.673 196.784 164.432C197.138 165.19 197.315 166.085 197.315 167.116C197.315 168.156 197.138 169.058 196.784 169.82C196.431 170.579 195.941 171.167 195.314 171.585C194.688 171.998 193.965 172.205 193.147 172.205C192.517 172.205 192.012 172.1 191.632 171.891C191.253 171.678 190.961 171.437 190.757 171.169C190.552 170.896 190.394 170.67 190.284 170.491H190.156V175.682H188.647ZM190.13 167.091C190.13 167.832 190.239 168.487 190.456 169.053C190.674 169.616 190.991 170.057 191.409 170.376C191.826 170.692 192.338 170.849 192.943 170.849C193.573 170.849 194.1 170.683 194.522 170.351C194.948 170.014 195.267 169.562 195.48 168.996C195.698 168.425 195.806 167.79 195.806 167.091C195.806 166.401 195.7 165.778 195.487 165.224C195.278 164.666 194.96 164.225 194.534 163.901C194.112 163.573 193.582 163.409 192.943 163.409C192.329 163.409 191.813 163.565 191.396 163.876C190.978 164.183 190.663 164.613 190.45 165.167C190.237 165.717 190.13 166.358 190.13 167.091ZM202.505 172.23C201.883 172.23 201.318 172.113 200.811 171.879C200.304 171.64 199.902 171.297 199.603 170.849C199.305 170.398 199.156 169.852 199.156 169.213C199.156 168.651 199.267 168.195 199.488 167.845C199.71 167.491 200.006 167.214 200.377 167.014C200.747 166.814 201.157 166.665 201.604 166.567C202.056 166.464 202.509 166.384 202.965 166.324C203.562 166.247 204.046 166.19 204.416 166.151C204.791 166.109 205.064 166.038 205.235 165.94C205.409 165.842 205.497 165.672 205.497 165.429V165.378C205.497 164.747 205.324 164.257 204.979 163.908C204.638 163.558 204.12 163.384 203.426 163.384C202.706 163.384 202.141 163.541 201.732 163.857C201.323 164.172 201.035 164.509 200.869 164.866L199.437 164.355C199.693 163.759 200.034 163.294 200.46 162.962C200.89 162.625 201.359 162.391 201.866 162.259C202.377 162.122 202.88 162.054 203.375 162.054C203.69 162.054 204.052 162.092 204.461 162.169C204.875 162.241 205.273 162.393 205.657 162.623C206.044 162.853 206.366 163.2 206.622 163.665C206.877 164.129 207.005 164.751 207.005 165.531V172H205.497V170.67H205.42C205.318 170.884 205.147 171.112 204.909 171.354C204.67 171.597 204.353 171.804 203.956 171.974C203.56 172.145 203.076 172.23 202.505 172.23ZM202.735 170.875C203.332 170.875 203.835 170.758 204.244 170.523C204.657 170.289 204.968 169.987 205.177 169.616C205.39 169.245 205.497 168.855 205.497 168.446V167.065C205.433 167.142 205.292 167.212 205.075 167.276C204.862 167.336 204.615 167.389 204.333 167.436C204.056 167.479 203.786 167.517 203.522 167.551C203.262 167.581 203.051 167.607 202.889 167.628C202.497 167.679 202.13 167.762 201.789 167.877C201.453 167.988 201.18 168.156 200.971 168.382C200.767 168.604 200.664 168.906 200.664 169.29C200.664 169.814 200.858 170.21 201.246 170.479C201.638 170.743 202.134 170.875 202.735 170.875ZM213.747 175.349V158.909H215.256V175.349H213.747ZM213.747 172.205C213.082 172.205 212.477 172.085 211.932 171.847C211.386 171.604 210.918 171.261 210.526 170.817C210.134 170.37 209.831 169.835 209.618 169.213C209.405 168.591 209.298 167.901 209.298 167.142C209.298 166.375 209.405 165.68 209.618 165.058C209.831 164.432 210.134 163.895 210.526 163.447C210.918 163 211.386 162.657 211.932 162.418C212.477 162.175 213.082 162.054 213.747 162.054H214.207V172.205H213.747ZM213.747 170.849H214.003V163.409H213.747C213.244 163.409 212.808 163.511 212.437 163.716C212.066 163.916 211.759 164.191 211.516 164.54C211.278 164.886 211.099 165.282 210.979 165.729C210.864 166.177 210.807 166.648 210.807 167.142C210.807 167.798 210.911 168.408 211.12 168.97C211.329 169.533 211.651 169.987 212.085 170.332C212.52 170.677 213.074 170.849 213.747 170.849ZM215.256 172.205H214.796V162.054H215.256C215.921 162.054 216.526 162.175 217.071 162.418C217.617 162.657 218.085 163 218.477 163.447C218.869 163.895 219.172 164.432 219.385 165.058C219.598 165.68 219.705 166.375 219.705 167.142C219.705 167.901 219.598 168.591 219.385 169.213C219.172 169.835 218.869 170.37 218.477 170.817C218.085 171.261 217.617 171.604 217.071 171.847C216.526 172.085 215.921 172.205 215.256 172.205ZM215.256 170.849C215.763 170.849 216.2 170.751 216.566 170.555C216.937 170.355 217.242 170.082 217.48 169.737C217.723 169.388 217.902 168.991 218.017 168.548C218.136 168.101 218.196 167.632 218.196 167.142C218.196 166.486 218.092 165.874 217.883 165.308C217.674 164.741 217.352 164.283 216.918 163.933C216.483 163.584 215.929 163.409 215.256 163.409H215V170.849H215.256ZM223.519 169.776L228.249 162.182H229.988V172H228.479V164.406L223.775 172H222.011V162.182H223.519V169.776ZM232.751 172V162.182H234.259V166.452H235.256L238.785 162.182H240.728L236.765 166.912L240.779 172H238.836L235.614 167.858H234.259V172H232.751ZM245.308 172.23C244.686 172.23 244.121 172.113 243.614 171.879C243.107 171.64 242.704 171.297 242.406 170.849C242.108 170.398 241.959 169.852 241.959 169.213C241.959 168.651 242.069 168.195 242.291 167.845C242.513 167.491 242.809 167.214 243.179 167.014C243.55 166.814 243.959 166.665 244.407 166.567C244.858 166.464 245.312 166.384 245.768 166.324C246.365 166.247 246.848 166.19 247.219 166.151C247.594 166.109 247.867 166.038 248.037 165.94C248.212 165.842 248.299 165.672 248.299 165.429V165.378C248.299 164.747 248.127 164.257 247.782 163.908C247.441 163.558 246.923 163.384 246.228 163.384C245.508 163.384 244.944 163.541 244.535 163.857C244.125 164.172 243.838 164.509 243.672 164.866L242.24 164.355C242.495 163.759 242.836 163.294 243.263 162.962C243.693 162.625 244.162 162.391 244.669 162.259C245.18 162.122 245.683 162.054 246.177 162.054C246.493 162.054 246.855 162.092 247.264 162.169C247.677 162.241 248.076 162.393 248.459 162.623C248.847 162.853 249.169 163.2 249.424 163.665C249.68 164.129 249.808 164.751 249.808 165.531V172H248.299V170.67H248.223C248.12 170.884 247.95 171.112 247.711 171.354C247.473 171.597 247.155 171.804 246.759 171.974C246.363 172.145 245.879 172.23 245.308 172.23ZM245.538 170.875C246.135 170.875 246.638 170.758 247.047 170.523C247.46 170.289 247.771 169.987 247.98 169.616C248.193 169.245 248.299 168.855 248.299 168.446V167.065C248.236 167.142 248.095 167.212 247.878 167.276C247.665 167.336 247.417 167.389 247.136 167.436C246.859 167.479 246.589 167.517 246.324 167.551C246.064 167.581 245.853 167.607 245.691 167.628C245.299 167.679 244.933 167.762 244.592 167.877C244.255 167.988 243.983 168.156 243.774 168.382C243.569 168.604 243.467 168.906 243.467 169.29C243.467 169.814 243.661 170.21 244.049 170.479C244.441 170.743 244.937 170.875 245.538 170.875ZM257.624 172V162.182H261.638C262.695 162.182 263.534 162.42 264.157 162.898C264.779 163.375 265.09 164.006 265.09 164.79C265.09 165.386 264.913 165.849 264.559 166.177C264.206 166.501 263.752 166.72 263.198 166.835C263.56 166.886 263.911 167.014 264.252 167.219C264.598 167.423 264.883 167.705 265.109 168.062C265.335 168.416 265.448 168.851 265.448 169.366C265.448 169.869 265.32 170.319 265.064 170.715C264.809 171.112 264.442 171.425 263.965 171.655C263.487 171.885 262.916 172 262.252 172H257.624ZM259.056 170.619H262.252C262.772 170.619 263.179 170.496 263.473 170.249C263.767 170.001 263.914 169.665 263.914 169.239C263.914 168.732 263.767 168.333 263.473 168.043C263.179 167.749 262.772 167.602 262.252 167.602H259.056V170.619ZM259.056 166.298H261.638C262.043 166.298 262.39 166.243 262.68 166.132C262.97 166.017 263.191 165.855 263.345 165.646C263.502 165.433 263.581 165.182 263.581 164.892C263.581 164.479 263.409 164.155 263.063 163.92C262.718 163.682 262.243 163.562 261.638 163.562H259.056V166.298ZM276.91 172.205C275.964 172.205 275.148 171.996 274.462 171.578C273.78 171.156 273.254 170.568 272.883 169.814C272.517 169.055 272.334 168.173 272.334 167.168C272.334 166.162 272.517 165.276 272.883 164.509C273.254 163.737 273.77 163.136 274.43 162.706C275.095 162.271 275.87 162.054 276.757 162.054C277.268 162.054 277.773 162.139 278.272 162.31C278.77 162.48 279.224 162.757 279.633 163.141C280.042 163.52 280.368 164.023 280.611 164.649C280.854 165.276 280.976 166.047 280.976 166.963V167.602H273.407V166.298H279.441C279.441 165.744 279.331 165.25 279.109 164.815C278.892 164.381 278.581 164.038 278.176 163.786C277.775 163.535 277.302 163.409 276.757 163.409C276.156 163.409 275.636 163.558 275.197 163.857C274.763 164.151 274.428 164.534 274.194 165.007C273.959 165.48 273.842 165.987 273.842 166.528V167.398C273.842 168.139 273.97 168.768 274.226 169.283C274.486 169.795 274.846 170.185 275.306 170.453C275.766 170.717 276.301 170.849 276.91 170.849C277.307 170.849 277.665 170.794 277.984 170.683C278.308 170.568 278.587 170.398 278.821 170.172C279.056 169.942 279.237 169.656 279.365 169.315L280.822 169.724C280.669 170.219 280.411 170.653 280.049 171.028C279.687 171.399 279.239 171.689 278.706 171.898C278.174 172.102 277.575 172.205 276.91 172.205ZM289.458 167.986V162.182H290.966V172H289.458V170.338H289.356C289.125 170.837 288.767 171.261 288.282 171.61C287.796 171.955 287.182 172.128 286.441 172.128C285.827 172.128 285.282 171.994 284.804 171.725C284.327 171.452 283.952 171.043 283.679 170.498C283.407 169.948 283.27 169.256 283.27 168.42V162.182H284.779V168.318C284.779 169.034 284.979 169.605 285.38 170.031C285.785 170.457 286.3 170.67 286.927 170.67C287.302 170.67 287.683 170.575 288.071 170.383C288.463 170.191 288.791 169.897 289.055 169.501C289.324 169.104 289.458 168.599 289.458 167.986Z" fill="black"/>
<g clip-path="url(#clip0_73_1766)">
<path d="M99 18H36V39H99V18Z" fill="white"/>
<path d="M99 39H36V60H99V39Z" fill="#D52B1E"/>
<path d="M99 32H36V46H99V32Z" fill="#0039A6"/>
</g>
<g clip-path="url(#clip1_73_1766)">
<path d="M99 133H36V175H99V133Z" fill="#003399"/>
<path d="M67.5 137.667L66.779 139.886L67.8885 140.246L67.5 137.667Z" fill="#FFCC00"/>
<path d="M67.5 137.667L68.221 139.886L67.1115 140.246L67.5 137.667Z" fill="#FFCC00"/>
<path d="M69.7191 139.279H67.3858V140.445L69.7191 139.279Z" fill="#FFCC00"/>
<path d="M69.7191 139.279L67.8314 140.65L67.1457 139.706L69.7191 139.279Z" fill="#FFCC00"/>
<path d="M68.8715 141.888L68.1504 139.669L67.0409 140.029L68.8715 141.888Z" fill="#FFCC00"/>
<path d="M68.8715 141.888L66.9838 140.516L67.6695 139.572L68.8715 141.888Z" fill="#FFCC00"/>
<path d="M65.2809 139.279H67.6142V140.445L65.2809 139.279Z" fill="#FFCC00"/>
<path d="M65.2809 139.279L67.1686 140.65L67.8543 139.706L65.2809 139.279Z" fill="#FFCC00"/>
<path d="M66.1285 141.888L66.8496 139.669L67.9591 140.029L66.1285 141.888Z" fill="#FFCC00"/>
<path d="M66.1285 141.888L68.0162 140.516L67.3305 139.572L66.1285 141.888Z" fill="#FFCC00"/>
<path d="M67.5 165.667L66.779 167.886L67.8885 168.246L67.5 165.667Z" fill="#FFCC00"/>
<path d="M67.5 165.667L68.221 167.886L67.1115 168.246L67.5 165.667Z" fill="#FFCC00"/>
<path d="M69.7191 167.279H67.3858V168.445L69.7191 167.279Z" fill="#FFCC00"/>
<path d="M69.7191 167.279L67.8314 168.65L67.1457 167.706L69.7191 167.279Z" fill="#FFCC00"/>
<path d="M68.8715 169.888L68.1504 167.669L67.0409 168.029L68.8715 169.888Z" fill="#FFCC00"/>
<path d="M68.8715 169.888L66.9838 168.516L67.6695 167.572L68.8715 169.888Z" fill="#FFCC00"/>
<path d="M65.2809 167.279H67.6142V168.445L65.2809 167.279Z" fill="#FFCC00"/>
<path d="M65.2809 167.279L67.1686 168.65L67.8543 167.706L65.2809 167.279Z" fill="#FFCC00"/>
<path d="M66.1285 169.888L66.8496 167.669L67.9591 168.029L66.1285 169.888Z" fill="#FFCC00"/>
<path d="M66.1285 169.888L68.0162 168.516L67.3305 167.572L66.1285 169.888Z" fill="#FFCC00"/>
<path d="M53.5 151.667L52.779 153.886L53.8885 154.246L53.5 151.667Z" fill="#FFCC00"/>
<path d="M53.5 151.667L54.221 153.886L53.1115 154.246L53.5 151.667Z" fill="#FFCC00"/>
<path d="M55.7191 153.279H53.3858V154.445L55.7191 153.279Z" fill="#FFCC00"/>
<path d="M55.7191 153.279L53.8314 154.65L53.1457 153.706L55.7191 153.279Z" fill="#FFCC00"/>
<path d="M54.8715 155.888L54.1504 153.669L53.0409 154.029L54.8715 155.888Z" fill="#FFCC00"/>
<path d="M54.8715 155.888L52.9838 154.516L53.6695 153.572L54.8715 155.888Z" fill="#FFCC00"/>
<path d="M51.2809 153.279H53.6142V154.445L51.2809 153.279Z" fill="#FFCC00"/>
<path d="M51.2809 153.279L53.1686 154.65L53.8543 153.706L51.2809 153.279Z" fill="#FFCC00"/>
<path d="M52.1285 155.888L52.8496 153.669L53.9591 154.029L52.1285 155.888Z" fill="#FFCC00"/>
<path d="M52.1285 155.888L54.0162 154.516L53.3305 153.572L52.1285 155.888Z" fill="#FFCC00"/>
<path d="M59.1284 143.763L61.0161 142.392L60.3304 141.448L59.1284 143.763Z" fill="#FFCC00"/>
<path d="M59.1284 143.763L59.8495 141.544L60.959 141.905L59.1284 143.763Z" fill="#FFCC00"/>
<path d="M58.2808 141.155L60.1685 142.526L60.8542 141.582L58.2808 141.155Z" fill="#FFCC00"/>
<path d="M58.2808 141.155H60.6141V142.321L58.2808 141.155Z" fill="#FFCC00"/>
<path d="M60.5 139.542L59.779 141.761L60.8885 142.122L60.5 139.542Z" fill="#FFCC00"/>
<path d="M60.5 139.542L61.221 141.761L60.1115 142.122L60.5 139.542Z" fill="#FFCC00"/>
<path d="M61.8716 143.763L59.9839 142.391L60.6696 141.447L61.8716 143.763Z" fill="#FFCC00"/>
<path d="M61.8716 143.763L61.1505 141.544L60.041 141.904L61.8716 143.763Z" fill="#FFCC00"/>
<path d="M62.7191 141.154L60.8314 142.526L60.1457 141.582L62.7191 141.154Z" fill="#FFCC00"/>
<path d="M62.7191 141.154H60.3858V142.321L62.7191 141.154Z" fill="#FFCC00"/>
<path d="M56.7471 148.888L56.026 146.669L54.9165 147.029L56.7471 148.888Z" fill="#FFCC00"/>
<path d="M56.7471 148.888L54.8594 147.516L55.5451 146.572L56.7471 148.888Z" fill="#FFCC00"/>
<path d="M54.004 148.887L55.8917 147.516L55.206 146.572L54.004 148.887Z" fill="#FFCC00"/>
<path d="M54.004 148.887L54.7251 146.668L55.8346 147.029L54.004 148.887Z" fill="#FFCC00"/>
<path d="M53.1565 146.279L55.0442 147.65L55.73 146.706L53.1565 146.279Z" fill="#FFCC00"/>
<path d="M53.1565 146.279H55.4898V147.445L53.1565 146.279Z" fill="#FFCC00"/>
<path d="M57.5947 146.279L55.707 147.651L55.0213 146.707L57.5947 146.279Z" fill="#FFCC00"/>
<path d="M57.5947 146.279H55.2614V147.446L57.5947 146.279Z" fill="#FFCC00"/>
<path d="M55.3755 144.667L56.0965 146.886L54.987 147.246L55.3755 144.667Z" fill="#FFCC00"/>
<path d="M55.3755 144.667L54.6544 146.886L55.764 147.246L55.3755 144.667Z" fill="#FFCC00"/>
<path d="M57.5948 160.279H55.2615V161.445L57.5948 160.279Z" fill="#FFCC00"/>
<path d="M57.5948 160.279L55.7071 161.65L55.0214 160.706L57.5948 160.279Z" fill="#FFCC00"/>
<path d="M56.7472 162.888L56.0262 160.669L54.9166 161.029L56.7472 162.888Z" fill="#FFCC00"/>
<path d="M56.7472 162.888L54.8595 161.516L55.5452 160.572L56.7472 162.888Z" fill="#FFCC00"/>
<path d="M54.0042 162.887L55.8919 161.516L55.2061 160.572L54.0042 162.887Z" fill="#FFCC00"/>
<path d="M54.0042 162.887L54.7252 160.668L55.8348 161.029L54.0042 162.887Z" fill="#FFCC00"/>
<path d="M55.3756 158.667L56.0966 160.886L54.9871 161.246L55.3756 158.667Z" fill="#FFCC00"/>
<path d="M55.3756 158.667L54.6546 160.886L55.7641 161.246L55.3756 158.667Z" fill="#FFCC00"/>
<path d="M53.1566 160.279H55.4899V161.445L53.1566 160.279Z" fill="#FFCC00"/>
<path d="M53.1566 160.279L55.0443 161.65L55.7301 160.706L53.1566 160.279Z" fill="#FFCC00"/>
<path d="M62.7191 165.403H60.3858V166.57L62.7191 165.403Z" fill="#FFCC00"/>
<path d="M62.7191 165.403L60.8314 166.775L60.1457 165.831L62.7191 165.403Z" fill="#FFCC00"/>
<path d="M61.8715 168.012L61.1504 165.793L60.0409 166.154L61.8715 168.012Z" fill="#FFCC00"/>
<path d="M61.8715 168.012L59.9838 166.641L60.6695 165.697L61.8715 168.012Z" fill="#FFCC00"/>
<path d="M59.1284 168.012L61.0161 166.64L60.3304 165.696L59.1284 168.012Z" fill="#FFCC00"/>
<path d="M59.1284 168.012L59.8495 165.793L60.959 166.153L59.1284 168.012Z" fill="#FFCC00"/>
<path d="M60.4999 163.791L61.2209 166.01L60.1114 166.371L60.4999 163.791Z" fill="#FFCC00"/>
<path d="M60.4999 163.791L59.7788 166.01L60.8884 166.371L60.4999 163.791Z" fill="#FFCC00"/>
<path d="M58.2809 165.403H60.6142V166.57L58.2809 165.403Z" fill="#FFCC00"/>
<path d="M58.2809 165.403L60.1686 166.775L60.8543 165.831L58.2809 165.403Z" fill="#FFCC00"/>
<path d="M81.5 151.667L82.221 153.886L81.1115 154.246L81.5 151.667Z" fill="#FFCC00"/>
<path d="M81.5 151.667L80.779 153.886L81.8885 154.246L81.5 151.667Z" fill="#FFCC00"/>
<path d="M79.2809 153.279H81.6142V154.445L79.2809 153.279Z" fill="#FFCC00"/>
<path d="M79.2809 153.279L81.1686 154.65L81.8543 153.706L79.2809 153.279Z" fill="#FFCC00"/>
<path d="M80.1285 155.888L80.8496 153.669L81.9591 154.029L80.1285 155.888Z" fill="#FFCC00"/>
<path d="M80.1285 155.888L82.0162 154.516L81.3305 153.572L80.1285 155.888Z" fill="#FFCC00"/>
<path d="M83.7191 153.279H81.3858V154.445L83.7191 153.279Z" fill="#FFCC00"/>
<path d="M83.7191 153.279L81.8314 154.65L81.1457 153.706L83.7191 153.279Z" fill="#FFCC00"/>
<path d="M82.8715 155.888L82.1504 153.669L81.0409 154.029L82.8715 155.888Z" fill="#FFCC00"/>
<path d="M82.8715 155.888L80.9838 154.516L81.6695 153.572L82.8715 155.888Z" fill="#FFCC00"/>
<path d="M75.8716 143.763L73.9839 142.392L74.6696 141.448L75.8716 143.763Z" fill="#FFCC00"/>
<path d="M75.8716 143.763L75.1505 141.544L74.041 141.905L75.8716 143.763Z" fill="#FFCC00"/>
<path d="M76.7192 141.155L74.8315 142.526L74.1458 141.582L76.7192 141.155Z" fill="#FFCC00"/>
<path d="M76.7192 141.155H74.3859V142.321L76.7192 141.155Z" fill="#FFCC00"/>
<path d="M74.5 139.542L75.221 141.761L74.1115 142.122L74.5 139.542Z" fill="#FFCC00"/>
<path d="M74.5 139.542L73.779 141.761L74.8885 142.122L74.5 139.542Z" fill="#FFCC00"/>
<path d="M73.1284 143.763L75.0161 142.391L74.3304 141.447L73.1284 143.763Z" fill="#FFCC00"/>
<path d="M73.1284 143.763L73.8495 141.544L74.959 141.904L73.1284 143.763Z" fill="#FFCC00"/>
<path d="M72.2809 141.154L74.1686 142.526L74.8543 141.582L72.2809 141.154Z" fill="#FFCC00"/>
<path d="M72.2809 141.154H74.6142V142.321L72.2809 141.154Z" fill="#FFCC00"/>
<path d="M78.2529 148.888L78.974 146.669L80.0835 147.029L78.2529 148.888Z" fill="#FFCC00"/>
<path d="M78.2529 148.888L80.1406 147.516L79.4549 146.572L78.2529 148.888Z" fill="#FFCC00"/>
<path d="M80.996 148.887L79.1083 147.516L79.794 146.572L80.996 148.887Z" fill="#FFCC00"/>
<path d="M80.996 148.887L80.2749 146.668L79.1654 147.029L80.996 148.887Z" fill="#FFCC00"/>
<path d="M81.8435 146.279L79.9558 147.65L79.27 146.706L81.8435 146.279Z" fill="#FFCC00"/>
<path d="M81.8435 146.279H79.5102V147.445L81.8435 146.279Z" fill="#FFCC00"/>
<path d="M77.4053 146.279L79.293 147.651L79.9787 146.707L77.4053 146.279Z" fill="#FFCC00"/>
<path d="M77.4053 146.279H79.7386V147.446L77.4053 146.279Z" fill="#FFCC00"/>
<path d="M79.6245 144.667L78.9035 146.886L80.013 147.246L79.6245 144.667Z" fill="#FFCC00"/>
<path d="M79.6245 144.667L80.3456 146.886L79.236 147.246L79.6245 144.667Z" fill="#FFCC00"/>
<path d="M77.4052 160.279H79.7385V161.445L77.4052 160.279Z" fill="#FFCC00"/>
<path d="M77.4052 160.279L79.2929 161.65L79.9786 160.706L77.4052 160.279Z" fill="#FFCC00"/>
<path d="M78.2528 162.888L78.9738 160.669L80.0834 161.029L78.2528 162.888Z" fill="#FFCC00"/>
<path d="M78.2528 162.888L80.1405 161.516L79.4548 160.572L78.2528 162.888Z" fill="#FFCC00"/>
<path d="M80.9958 162.887L79.1081 161.516L79.7939 160.572L80.9958 162.887Z" fill="#FFCC00"/>
<path d="M80.9958 162.887L80.2748 160.668L79.1652 161.029L80.9958 162.887Z" fill="#FFCC00"/>
<path d="M79.6244 158.667L78.9034 160.886L80.0129 161.246L79.6244 158.667Z" fill="#FFCC00"/>
<path d="M79.6244 158.667L80.3454 160.886L79.2359 161.246L79.6244 158.667Z" fill="#FFCC00"/>
<path d="M81.8434 160.279H79.5101V161.445L81.8434 160.279Z" fill="#FFCC00"/>
<path d="M81.8434 160.279L79.9557 161.65L79.2699 160.706L81.8434 160.279Z" fill="#FFCC00"/>
<path d="M72.2809 165.403H74.6142V166.57L72.2809 165.403Z" fill="#FFCC00"/>
<path d="M72.2809 165.403L74.1686 166.775L74.8543 165.831L72.2809 165.403Z" fill="#FFCC00"/>
<path d="M73.1285 168.012L73.8496 165.793L74.9591 166.154L73.1285 168.012Z" fill="#FFCC00"/>
<path d="M73.1285 168.012L75.0162 166.641L74.3305 165.697L73.1285 168.012Z" fill="#FFCC00"/>
<path d="M75.8716 168.012L73.9839 166.64L74.6696 165.696L75.8716 168.012Z" fill="#FFCC00"/>
<path d="M75.8716 168.012L75.1505 165.793L74.041 166.153L75.8716 168.012Z" fill="#FFCC00"/>
<path d="M74.5001 163.791L73.7791 166.01L74.8886 166.371L74.5001 163.791Z" fill="#FFCC00"/>
<path d="M74.5001 163.791L75.2212 166.01L74.1116 166.371L74.5001 163.791Z" fill="#FFCC00"/>
<path d="M76.7191 165.403H74.3858V166.57L76.7191 165.403Z" fill="#FFCC00"/>
<path d="M76.7191 165.403L74.8314 166.775L74.1457 165.831L76.7191 165.403Z" fill="#FFCC00"/>
</g>
<line x1="312" y1="98.5" y2="98.5" stroke="black" stroke-dasharray="4 4"/>
<defs>
<clipPath id="clip0_73_1766">
<rect x="36" y="18" width="63" height="42" rx="10" fill="white"/>
</clipPath>
<clipPath id="clip1_73_1766">
<rect x="36" y="133" width="63" height="42" rx="10" fill="white"/>
</clipPath>
</defs>
</svg>
