<svg width="47" height="47" viewBox="0 0 47 47" fill="none" xmlns="http://www.w3.org/2000/svg">
<path d="M36.7188 47C39.4455 47 42.0606 45.9168 43.9887 43.9887C45.9168 42.0606 47 39.4455 47 36.7188C47 33.992 45.9168 31.3769 43.9887 29.4488C42.0606 27.5207 39.4455 26.4375 36.7188 26.4375C33.992 26.4375 31.3769 27.5207 29.4488 29.4488C27.5207 31.3769 26.4375 33.992 26.4375 36.7188C26.4375 39.4455 27.5207 42.0606 29.4488 43.9887C31.3769 45.9168 33.992 47 36.7188 47ZM32.3125 35.25H41.125C41.5145 35.25 41.8881 35.4047 42.1636 35.6802C42.439 35.9556 42.5938 36.3292 42.5938 36.7188C42.5938 37.1083 42.439 37.4819 42.1636 37.7573C41.8881 38.0328 41.5145 38.1875 41.125 38.1875H32.3125C31.923 38.1875 31.5494 38.0328 31.2739 37.7573C30.9985 37.4819 30.8438 37.1083 30.8438 36.7188C30.8438 36.3292 30.9985 35.9556 31.2739 35.6802C31.5494 35.4047 31.923 35.25 32.3125 35.25ZM32.3125 14.6875C32.3125 17.0247 31.384 19.2662 29.7314 20.9189C28.0787 22.5715 25.8372 23.5 23.5 23.5C21.1628 23.5 18.9213 22.5715 17.2686 20.9189C15.616 19.2662 14.6875 17.0247 14.6875 14.6875C14.6875 12.3503 15.616 10.1088 17.2686 8.45612C18.9213 6.80346 21.1628 5.875 23.5 5.875C25.8372 5.875 28.0787 6.80346 29.7314 8.45612C31.384 10.1088 32.3125 12.3503 32.3125 14.6875Z" fill="#0D6EFD"/>
<path d="M5.875 38.1875C5.875 41.125 8.8125 41.125 8.8125 41.125H24.252C23.753 39.7096 23.4987 38.2195 23.5 36.7188C23.5 34.8298 23.9048 32.9628 24.6872 31.2435C25.4695 29.5243 26.6113 27.9926 28.0355 26.7518C26.6647 26.5462 25.1528 26.4414 23.5 26.4375C8.8125 26.4375 5.875 35.25 5.875 38.1875Z" fill="#0D6EFD"/>
</svg>
