<svg width="53" height="53" viewBox="0 0 53 53" fill="none" xmlns="http://www.w3.org/2000/svg">
<path d="M41.4062 53C44.4811 53 47.43 51.7785 49.6043 49.6043C51.7785 47.43 53 44.4811 53 41.4062C53 38.3314 51.7785 35.3825 49.6043 33.2082C47.43 31.034 44.4811 29.8125 41.4062 29.8125C38.3314 29.8125 35.3825 31.034 33.2082 33.2082C31.034 35.3825 29.8125 38.3314 29.8125 41.4062C29.8125 44.4811 31.034 47.43 33.2082 49.6043C35.3825 51.7785 38.3314 53 41.4062 53ZM36.4375 39.75H46.375C46.8143 39.75 47.2355 39.9245 47.5461 40.2351C47.8568 40.5457 48.0312 40.967 48.0312 41.4062C48.0312 41.8455 47.8568 42.2668 47.5461 42.5774C47.2355 42.888 46.8143 43.0625 46.375 43.0625H36.4375C35.9982 43.0625 35.577 42.888 35.2664 42.5774C34.9557 42.2668 34.7812 41.8455 34.7812 41.4062C34.7812 40.967 34.9557 40.5457 35.2664 40.2351C35.577 39.9245 35.9982 39.75 36.4375 39.75ZM36.4375 16.5625C36.4375 19.1981 35.3905 21.7257 33.5269 23.5894C31.6632 25.453 29.1356 26.5 26.5 26.5C23.8644 26.5 21.3368 25.453 19.4731 23.5894C17.6095 21.7257 16.5625 19.1981 16.5625 16.5625C16.5625 13.9269 17.6095 11.3993 19.4731 9.53563C21.3368 7.67198 23.8644 6.625 26.5 6.625C29.1356 6.625 31.6632 7.67198 33.5269 9.53563C35.3905 11.3993 36.4375 13.9269 36.4375 16.5625Z" fill="#0D6EFD"/>
<path d="M6.625 43.0625C6.625 46.375 9.9375 46.375 9.9375 46.375H27.348C26.7853 44.7789 26.4986 43.0986 26.5 41.4062C26.5 39.2762 26.9565 37.1709 27.8387 35.2321C28.7209 33.2933 30.0085 31.5662 31.6145 30.1669C30.0687 29.9351 28.3638 29.8169 26.5 29.8125C9.9375 29.8125 6.625 39.75 6.625 43.0625Z" fill="#0D6EFD"/>
</svg>
