<svg width="303" height="190" viewBox="0 0 303 190" fill="none" xmlns="http://www.w3.org/2000/svg">
<rect x="0.5" y="0.5" width="302" height="189" rx="14.5" stroke="#EB8428"/>
<line x1="26" y1="94.5" x2="279" y2="94.5" stroke="#F0AF78"/>
<path d="M119.585 143V129.909H127.486V131.315H121.17V135.406H124.494C125.432 135.406 126.222 135.56 126.866 135.866C127.513 136.173 128.004 136.606 128.336 137.164C128.673 137.722 128.841 138.381 128.841 139.139C128.841 139.898 128.673 140.567 128.336 141.146C128.004 141.726 127.513 142.18 126.866 142.508C126.222 142.836 125.432 143 124.494 143H119.585ZM121.17 141.619H124.494C125.091 141.619 125.596 141.5 126.009 141.261C126.427 141.018 126.742 140.707 126.955 140.328C127.173 139.945 127.281 139.54 127.281 139.114C127.281 138.487 127.04 137.948 126.559 137.496C126.077 137.04 125.389 136.812 124.494 136.812H121.17V141.619ZM130.377 143V141.594H130.735C131.029 141.594 131.274 141.536 131.47 141.421C131.666 141.302 131.823 141.095 131.943 140.801C132.066 140.503 132.16 140.089 132.224 139.561C132.292 139.028 132.341 138.351 132.371 137.528L132.55 133.182H139.095V143H137.587V134.588H133.982L133.828 138.091C133.794 138.896 133.722 139.606 133.611 140.219C133.504 140.829 133.34 141.34 133.119 141.754C132.901 142.167 132.612 142.478 132.249 142.687C131.887 142.896 131.433 143 130.888 143H130.377ZM145.852 143.205C144.965 143.205 144.188 142.994 143.519 142.572C142.854 142.15 142.334 141.56 141.959 140.801C141.588 140.043 141.403 139.156 141.403 138.142C141.403 137.119 141.588 136.227 141.959 135.464C142.334 134.701 142.854 134.109 143.519 133.687C144.188 133.265 144.965 133.054 145.852 133.054C146.738 133.054 147.514 133.265 148.178 133.687C148.847 134.109 149.367 134.701 149.738 135.464C150.113 136.227 150.301 137.119 150.301 138.142C150.301 139.156 150.113 140.043 149.738 140.801C149.367 141.56 148.847 142.15 148.178 142.572C147.514 142.994 146.738 143.205 145.852 143.205ZM145.852 141.849C146.525 141.849 147.079 141.677 147.514 141.332C147.948 140.987 148.27 140.533 148.479 139.97C148.688 139.408 148.792 138.798 148.792 138.142C148.792 137.486 148.688 136.874 148.479 136.308C148.27 135.741 147.948 135.283 147.514 134.933C147.079 134.584 146.525 134.409 145.852 134.409C145.178 134.409 144.624 134.584 144.19 134.933C143.755 135.283 143.433 135.741 143.225 136.308C143.016 136.874 142.911 137.486 142.911 138.142C142.911 138.798 143.016 139.408 143.225 139.97C143.433 140.533 143.755 140.987 144.19 141.332C144.624 141.677 145.178 141.849 145.852 141.849ZM152.603 143V133.182H154.112V137.452H155.109L158.637 133.182H160.581L156.618 137.912L160.632 143H158.689L155.467 138.858H154.112V143H152.603ZM163.78 140.776L168.51 133.182H170.249V143H168.74V135.406L164.036 143H162.271V133.182H163.78V140.776ZM173.012 146.682V133.182H174.469V134.741H174.648C174.759 134.571 174.912 134.354 175.108 134.089C175.308 133.821 175.594 133.582 175.965 133.374C176.34 133.161 176.847 133.054 177.486 133.054C178.313 133.054 179.041 133.261 179.672 133.674C180.303 134.087 180.795 134.673 181.149 135.432C181.502 136.19 181.679 137.085 181.679 138.116C181.679 139.156 181.502 140.058 181.149 140.82C180.795 141.579 180.305 142.167 179.678 142.585C179.052 142.998 178.33 143.205 177.512 143.205C176.881 143.205 176.376 143.1 175.997 142.891C175.617 142.678 175.325 142.437 175.121 142.169C174.916 141.896 174.759 141.67 174.648 141.491H174.52V146.682H173.012ZM174.494 138.091C174.494 138.832 174.603 139.487 174.82 140.053C175.038 140.616 175.355 141.057 175.773 141.376C176.191 141.692 176.702 141.849 177.307 141.849C177.938 141.849 178.464 141.683 178.886 141.351C179.312 141.014 179.632 140.562 179.845 139.996C180.062 139.425 180.171 138.79 180.171 138.091C180.171 137.401 180.064 136.778 179.851 136.224C179.642 135.666 179.325 135.225 178.899 134.901C178.477 134.573 177.946 134.409 177.307 134.409C176.693 134.409 176.178 134.565 175.76 134.876C175.343 135.183 175.027 135.613 174.814 136.167C174.601 136.717 174.494 137.358 174.494 138.091ZM187.969 143.205C187.083 143.205 186.305 142.994 185.636 142.572C184.971 142.15 184.451 141.56 184.076 140.801C183.705 140.043 183.52 139.156 183.52 138.142C183.52 137.119 183.705 136.227 184.076 135.464C184.451 134.701 184.971 134.109 185.636 133.687C186.305 133.265 187.083 133.054 187.969 133.054C188.855 133.054 189.631 133.265 190.296 133.687C190.965 134.109 191.485 134.701 191.855 135.464C192.23 136.227 192.418 137.119 192.418 138.142C192.418 139.156 192.23 140.043 191.855 140.801C191.485 141.56 190.965 142.15 190.296 142.572C189.631 142.994 188.855 143.205 187.969 143.205ZM187.969 141.849C188.642 141.849 189.196 141.677 189.631 141.332C190.066 140.987 190.387 140.533 190.596 139.97C190.805 139.408 190.909 138.798 190.909 138.142C190.909 137.486 190.805 136.874 190.596 136.308C190.387 135.741 190.066 135.283 189.631 134.933C189.196 134.584 188.642 134.409 187.969 134.409C187.296 134.409 186.742 134.584 186.307 134.933C185.872 135.283 185.551 135.741 185.342 136.308C185.133 136.874 185.029 137.486 185.029 138.142C185.029 138.798 185.133 139.408 185.342 139.97C185.551 140.533 185.872 140.987 186.307 141.332C186.742 141.677 187.296 141.849 187.969 141.849ZM208.118 141.594L207.939 145.812H206.38V143H205.101V141.594H208.118ZM194.721 133.182H196.229V141.594H199.936V133.182H201.445V141.594H205.152V133.182H206.661V143H194.721V133.182ZM211.821 140.776L216.551 133.182H218.29V143H216.781V135.406L212.077 143H210.312V133.182H211.821V140.776ZM221.053 143V133.182H222.561V137.452H223.558L227.087 133.182H229.03L225.067 137.912L229.081 143H227.138L223.916 138.858H222.561V143H221.053ZM119.381 168.682V155.182H120.838V156.741H121.017C121.128 156.571 121.281 156.354 121.477 156.089C121.678 155.821 121.963 155.582 122.334 155.374C122.709 155.161 123.216 155.054 123.855 155.054C124.682 155.054 125.411 155.261 126.041 155.674C126.672 156.087 127.164 156.673 127.518 157.432C127.871 158.19 128.048 159.085 128.048 160.116C128.048 161.156 127.871 162.058 127.518 162.82C127.164 163.579 126.674 164.167 126.048 164.585C125.421 164.998 124.699 165.205 123.881 165.205C123.25 165.205 122.745 165.1 122.366 164.891C121.987 164.678 121.695 164.437 121.49 164.169C121.286 163.896 121.128 163.67 121.017 163.491H120.889V168.682H119.381ZM120.864 160.091C120.864 160.832 120.972 161.487 121.19 162.053C121.407 162.616 121.724 163.057 122.142 163.376C122.56 163.692 123.071 163.849 123.676 163.849C124.307 163.849 124.833 163.683 125.255 163.351C125.681 163.014 126.001 162.562 126.214 161.996C126.431 161.425 126.54 160.79 126.54 160.091C126.54 159.401 126.433 158.778 126.22 158.224C126.011 157.666 125.694 157.225 125.268 156.901C124.846 156.573 124.315 156.409 123.676 156.409C123.063 156.409 122.547 156.565 122.129 156.876C121.712 157.183 121.396 157.613 121.183 158.167C120.97 158.717 120.864 159.358 120.864 160.091ZM134.466 165.205C133.52 165.205 132.704 164.996 132.018 164.578C131.336 164.156 130.81 163.568 130.439 162.814C130.072 162.055 129.889 161.173 129.889 160.168C129.889 159.162 130.072 158.276 130.439 157.509C130.81 156.737 131.325 156.136 131.986 155.706C132.651 155.271 133.426 155.054 134.312 155.054C134.824 155.054 135.329 155.139 135.827 155.31C136.326 155.48 136.78 155.757 137.189 156.141C137.598 156.52 137.924 157.023 138.167 157.649C138.41 158.276 138.531 159.047 138.531 159.963V160.602H130.963V159.298H136.997C136.997 158.744 136.886 158.25 136.665 157.815C136.447 157.381 136.136 157.038 135.732 156.786C135.331 156.535 134.858 156.409 134.312 156.409C133.712 156.409 133.192 156.558 132.753 156.857C132.318 157.151 131.984 157.534 131.749 158.007C131.515 158.48 131.398 158.987 131.398 159.528V160.398C131.398 161.139 131.526 161.768 131.781 162.283C132.041 162.795 132.401 163.185 132.862 163.453C133.322 163.717 133.857 163.849 134.466 163.849C134.862 163.849 135.22 163.794 135.54 163.683C135.864 163.568 136.143 163.398 136.377 163.172C136.612 162.942 136.793 162.656 136.92 162.315L138.378 162.724C138.224 163.219 137.967 163.653 137.604 164.028C137.242 164.399 136.795 164.689 136.262 164.898C135.729 165.102 135.131 165.205 134.466 165.205ZM140.826 165V155.182H142.335V159.452H143.332L146.86 155.182H148.803L144.84 159.912L148.854 165H146.911L143.69 160.858H142.335V165H140.826ZM149.625 165V163.594H149.983C150.277 163.594 150.522 163.536 150.718 163.421C150.914 163.302 151.071 163.095 151.191 162.801C151.314 162.503 151.408 162.089 151.472 161.561C151.54 161.028 151.589 160.351 151.619 159.528L151.798 155.182H158.343V165H156.835V156.588H153.23L153.076 160.091C153.042 160.896 152.97 161.606 152.859 162.219C152.752 162.829 152.588 163.34 152.367 163.754C152.15 164.167 151.86 164.478 151.498 164.687C151.135 164.896 150.681 165 150.136 165H149.625ZM164 165.23C163.378 165.23 162.814 165.113 162.306 164.879C161.799 164.64 161.397 164.297 161.098 163.849C160.8 163.398 160.651 162.852 160.651 162.213C160.651 161.651 160.762 161.195 160.983 160.845C161.205 160.491 161.501 160.214 161.872 160.014C162.243 159.814 162.652 159.665 163.099 159.567C163.551 159.464 164.005 159.384 164.461 159.324C165.057 159.247 165.541 159.19 165.912 159.151C166.287 159.109 166.559 159.038 166.73 158.94C166.904 158.842 166.992 158.672 166.992 158.429V158.378C166.992 157.747 166.819 157.257 166.474 156.908C166.133 156.558 165.615 156.384 164.921 156.384C164.201 156.384 163.636 156.541 163.227 156.857C162.818 157.172 162.53 157.509 162.364 157.866L160.932 157.355C161.188 156.759 161.529 156.294 161.955 155.962C162.385 155.625 162.854 155.391 163.361 155.259C163.873 155.122 164.375 155.054 164.87 155.054C165.185 155.054 165.547 155.092 165.956 155.169C166.37 155.241 166.768 155.393 167.152 155.623C167.539 155.853 167.861 156.2 168.117 156.665C168.373 157.129 168.5 157.751 168.5 158.531V165H166.992V163.67H166.915C166.813 163.884 166.642 164.112 166.404 164.354C166.165 164.597 165.848 164.804 165.451 164.974C165.055 165.145 164.571 165.23 164 165.23ZM164.23 163.875C164.827 163.875 165.33 163.758 165.739 163.523C166.152 163.289 166.463 162.987 166.672 162.616C166.885 162.245 166.992 161.855 166.992 161.446V160.065C166.928 160.142 166.787 160.212 166.57 160.276C166.357 160.336 166.11 160.389 165.828 160.436C165.551 160.479 165.281 160.517 165.017 160.551C164.757 160.581 164.546 160.607 164.384 160.628C163.992 160.679 163.625 160.762 163.284 160.877C162.948 160.988 162.675 161.156 162.466 161.382C162.262 161.604 162.159 161.906 162.159 162.29C162.159 162.814 162.353 163.21 162.741 163.479C163.133 163.743 163.63 163.875 164.23 163.875ZM176.623 162.955L180.049 155.182H181.481L177.237 165H176.009L171.842 155.182H173.248L176.623 162.955ZM172.762 155.182V165H171.254V155.182H172.762ZM180.484 165V155.182H181.992V165H180.484ZM186.058 158.736H188.87C190.021 158.736 190.901 159.028 191.51 159.612C192.119 160.195 192.424 160.935 192.424 161.83C192.424 162.418 192.288 162.952 192.015 163.434C191.742 163.911 191.342 164.293 190.813 164.578C190.285 164.859 189.637 165 188.87 165H184.754V155.182H186.262V163.594H188.87C189.467 163.594 189.957 163.436 190.34 163.121C190.724 162.805 190.916 162.401 190.916 161.906C190.916 161.386 190.724 160.962 190.34 160.634C189.957 160.306 189.467 160.142 188.87 160.142H186.058V158.736ZM193.984 165V155.182H195.492V165H193.984ZM203.521 165V151.909H207.944C208.971 151.909 209.811 152.094 210.463 152.465C211.119 152.832 211.605 153.328 211.92 153.955C212.235 154.581 212.393 155.28 212.393 156.051C212.393 156.822 212.235 157.523 211.92 158.154C211.609 158.785 211.127 159.288 210.475 159.663C209.823 160.033 208.988 160.219 207.97 160.219H204.799V158.812H207.919C208.622 158.812 209.186 158.691 209.612 158.448C210.039 158.205 210.347 157.877 210.539 157.464C210.735 157.046 210.833 156.575 210.833 156.051C210.833 155.527 210.735 155.058 210.539 154.645C210.347 154.232 210.036 153.908 209.606 153.673C209.176 153.435 208.605 153.315 207.893 153.315H205.106V165H203.521ZM214.742 165V155.182H216.251V165H214.742ZM215.509 153.545C215.215 153.545 214.961 153.445 214.748 153.245C214.54 153.045 214.435 152.804 214.435 152.523C214.435 152.241 214.54 152.001 214.748 151.8C214.961 151.6 215.215 151.5 215.509 151.5C215.803 151.5 216.055 151.6 216.263 151.8C216.476 152.001 216.583 152.241 216.583 152.523C216.583 152.804 216.476 153.045 216.263 153.245C216.055 153.445 215.803 153.545 215.509 153.545ZM220.522 159.094V165H219.013V151.909H220.522V156.716H220.65C220.88 156.209 221.225 155.806 221.685 155.508C222.15 155.205 222.768 155.054 223.539 155.054C224.208 155.054 224.794 155.188 225.297 155.457C225.8 155.721 226.19 156.128 226.467 156.678C226.748 157.223 226.888 157.918 226.888 158.761V165H225.38V158.864C225.38 158.084 225.178 157.481 224.773 157.055C224.372 156.624 223.816 156.409 223.104 156.409C222.61 156.409 222.167 156.513 221.775 156.722C221.387 156.931 221.08 157.236 220.854 157.636C220.633 158.037 220.522 158.523 220.522 159.094ZM233.637 165.205C232.751 165.205 231.973 164.994 231.304 164.572C230.639 164.15 230.119 163.56 229.744 162.801C229.373 162.043 229.188 161.156 229.188 160.142C229.188 159.119 229.373 158.227 229.744 157.464C230.119 156.701 230.639 156.109 231.304 155.687C231.973 155.265 232.751 155.054 233.637 155.054C234.523 155.054 235.299 155.265 235.964 155.687C236.633 156.109 237.153 156.701 237.523 157.464C237.898 158.227 238.086 159.119 238.086 160.142C238.086 161.156 237.898 162.043 237.523 162.801C237.153 163.56 236.633 164.15 235.964 164.572C235.299 164.994 234.523 165.205 233.637 165.205ZM233.637 163.849C234.31 163.849 234.864 163.677 235.299 163.332C235.733 162.987 236.055 162.533 236.264 161.97C236.473 161.408 236.577 160.798 236.577 160.142C236.577 159.486 236.473 158.874 236.264 158.308C236.055 157.741 235.733 157.283 235.299 156.933C234.864 156.584 234.31 156.409 233.637 156.409C232.964 156.409 232.41 156.584 231.975 156.933C231.54 157.283 231.219 157.741 231.01 158.308C230.801 158.874 230.697 159.486 230.697 160.142C230.697 160.798 230.801 161.408 231.01 161.97C231.219 162.533 231.54 162.987 231.975 163.332C232.41 163.677 232.964 163.849 233.637 163.849ZM241.897 151.909V165H240.388V151.909H241.897ZM248.776 165.205C247.83 165.205 247.014 164.996 246.328 164.578C245.646 164.156 245.12 163.568 244.749 162.814C244.383 162.055 244.2 161.173 244.2 160.168C244.2 159.162 244.383 158.276 244.749 157.509C245.12 156.737 245.636 156.136 246.296 155.706C246.961 155.271 247.737 155.054 248.623 155.054C249.134 155.054 249.639 155.139 250.138 155.31C250.637 155.48 251.09 155.757 251.499 156.141C251.909 156.52 252.235 157.023 252.477 157.649C252.72 158.276 252.842 159.047 252.842 159.963V160.602H245.274V159.298H251.308C251.308 158.744 251.197 158.25 250.975 157.815C250.758 157.381 250.447 157.038 250.042 156.786C249.642 156.535 249.169 156.409 248.623 156.409C248.022 156.409 247.502 156.558 247.063 156.857C246.629 157.151 246.294 157.534 246.06 158.007C245.825 158.48 245.708 158.987 245.708 159.528V160.398C245.708 161.139 245.836 161.768 246.092 162.283C246.352 162.795 246.712 163.185 247.172 163.453C247.632 163.717 248.167 163.849 248.776 163.849C249.173 163.849 249.531 163.794 249.85 163.683C250.174 163.568 250.453 163.398 250.688 163.172C250.922 162.942 251.103 162.656 251.231 162.315L252.688 162.724C252.535 163.219 252.277 163.653 251.915 164.028C251.553 164.399 251.105 164.689 250.573 164.898C250.04 165.102 249.441 165.205 248.776 165.205Z" fill="black"/>
<g clip-path="url(#clip0_30_1379)">
<path d="M75.7886 125.127C66.8003 124.168 57.7456 117.375 57.0308 103C70.9786 103 78.4374 111.257 79.1578 124.34C81.7955 108.647 94.1584 110.486 94.1584 110.486C94.7458 119.381 87.4422 124.772 79.1578 125.221C76.8303 120.317 62.8881 108.287 62.8881 108.287C62.8814 108.281 62.8731 108.278 62.8644 108.277C62.8557 108.277 62.8472 108.28 62.8402 108.285C62.8332 108.29 62.828 108.297 62.8257 108.306C62.8233 108.314 62.8238 108.323 62.8271 108.331C62.8271 108.331 76.2817 120.051 75.7886 125.127Z" fill="url(#paint0_linear_30_1379)"/>
<path d="M80.0001 175C79.1301 174.95 71.0119 174.64 70.5187 165.518C70.1197 159.977 74.4975 155.893 74.4975 150.512C73.5055 137.096 55.5291 138.759 55.5291 150.512C55.5254 151.967 55.8089 153.407 56.3633 154.752C56.9177 156.097 57.7321 157.319 58.7598 158.348L72.1534 171.747C73.1826 172.775 74.4045 173.589 75.7492 174.144C77.0938 174.698 78.5346 174.981 79.989 174.978" fill="#980200"/>
<path d="M104.471 150.518C104.421 151.388 104.111 159.506 94.9896 159.999C89.4482 160.398 85.3586 156.021 79.9834 156.021C66.5676 157.013 68.23 174.984 79.9834 174.984C81.4378 174.987 82.8787 174.704 84.2233 174.149C85.5679 173.595 86.7898 172.781 87.819 171.753L101.224 158.359C102.251 157.33 103.066 156.108 103.62 154.763C104.175 153.419 104.458 151.978 104.454 150.524" fill="#FF0000"/>
<path d="M80 126.047C80.87 126.097 88.9882 126.407 89.4814 135.528C89.8804 141.07 85.5027 145.154 85.5027 150.535C86.4946 163.95 104.465 162.288 104.465 150.535C104.469 149.08 104.186 147.639 103.631 146.295C103.077 144.95 102.263 143.728 101.235 142.699L87.8356 129.294C86.8064 128.266 85.5845 127.452 84.2399 126.898C82.8953 126.343 81.4544 126.06 80 126.063" fill="#980200"/>
<path d="M55.5732 150.518C55.6231 149.648 55.9334 141.53 65.0547 141.036C70.5961 140.637 74.6857 145.015 80.0609 145.015C93.4767 144.007 91.8143 126.052 80.0609 126.052C78.6065 126.049 77.1656 126.332 75.821 126.886C74.4764 127.441 73.2545 128.255 72.2253 129.283L58.8205 142.682C57.7928 143.711 56.9784 144.933 56.4241 146.278C55.8697 147.623 55.5862 149.063 55.5899 150.518" fill="#FF0000"/>
</g>
<g clip-path="url(#clip1_30_1379)">
<path d="M82.4174 63.5876L73.9285 37.7739H77.1119L83.5729 57.6953L90.1989 37.7739H93.0994L99.7019 57.6489L106.186 37.7739H109.275L100.81 63.5876H98.4521L91.5903 42.8014L84.7992 63.5876H82.4176H82.4174Z" fill="#88171A"/>
<path d="M108.695 63.5874V43.5718H111.902V63.5874H108.695Z" fill="#88171A"/>
<path d="M119.336 54.8658V63.5874H116.176V43.666H130.042C132.101 43.666 133.712 44.1571 134.875 45.1391C136.039 46.1212 136.62 47.4852 136.62 49.2311C136.644 50.587 136.151 51.9019 135.241 52.9137C134.321 53.9506 133.123 54.5858 131.645 54.8194L137.233 63.5877H133.814L128.108 54.8661H119.336L119.336 54.8658ZM119.336 51.9431H130.041C131.126 51.9431 131.955 51.7092 132.529 51.2416C133.103 50.774 133.389 50.1037 133.39 49.2307C133.39 48.3579 133.103 47.6916 132.529 47.2316C131.955 46.772 131.126 46.5421 130.041 46.5418H119.336V51.9431Z" fill="#88171A"/>
<path d="M139.599 63.5875V43.6196H158.486V46.5424H142.758V51.5228H153.086V54.3988H142.758V60.712H159.358V63.588H139.598L139.599 63.5875Z" fill="#88171A"/>
<path d="M181.576 56.5967V52.8087H174.478V49.8393H184.806V57.6022C183.548 59.7534 181.91 61.4018 179.89 62.5474C177.87 63.6932 175.578 64.2661 173.016 64.2661C169.117 64.2661 165.898 62.9917 163.36 60.443C160.821 57.8944 159.552 54.6638 159.552 50.7512C159.552 46.823 160.825 43.5845 163.372 41.0358C165.918 38.4872 169.133 37.2129 173.016 37.2129C175.421 37.2129 177.614 37.7351 179.595 38.7795C181.573 39.822 183.241 41.3622 184.429 43.2455L181.717 45.1627C180.919 43.6392 179.69 42.3797 178.18 41.5384C176.606 40.6569 174.824 40.2051 173.016 40.229C170.092 40.229 167.671 41.2227 165.753 43.2102C163.835 45.1976 162.876 47.7112 162.877 50.7509C162.877 53.7906 163.835 56.3003 165.753 58.28C167.671 60.2598 170.092 61.2496 173.016 61.2495C174.839 61.2495 176.463 60.8598 177.885 60.0804C179.308 59.301 180.538 58.1397 181.576 56.5964L181.576 56.5967Z" fill="#88171A"/>
<path d="M188.331 43.6665H191.491V56.4565C191.491 58.3739 191.947 59.6677 192.859 60.3379C193.77 61.0083 195.578 61.3435 198.282 61.3434C201.001 61.3434 202.817 61.0082 203.729 60.3379C204.641 59.6679 205.096 58.3741 205.097 56.4565V43.6665H208.233V57.2749C208.233 59.7223 207.451 61.4916 205.887 62.5827C204.322 63.6735 201.772 64.2191 198.235 64.2195C194.713 64.2195 192.182 63.6817 190.642 62.606C189.101 61.5304 188.331 59.7534 188.331 57.2749L188.331 43.6665Z" fill="#88171A"/>
<path d="M207.739 63.5875L217.973 43.6196H219.954L230.282 63.5875H226.91L224.293 58.5136H213.658L211.064 63.5875H207.739ZM215.026 55.8714H222.901L218.987 48.2254L215.026 55.8714Z" fill="#88171A"/>
<path d="M233.786 54.8658V63.5874H230.626V43.666H244.492C246.551 43.666 248.162 44.1571 249.326 45.1391C250.489 46.1212 251.07 47.4852 251.071 49.2311C251.094 50.587 250.602 51.9019 249.691 52.9137C248.771 53.9506 247.573 54.5858 246.095 54.8194L251.684 63.5877H248.264L242.558 54.8661H233.786L233.786 54.8658ZM233.786 51.9431H244.491C245.576 51.9431 246.405 51.7092 246.979 51.2416C247.553 50.774 247.84 50.1037 247.84 49.2307C247.84 48.3579 247.553 47.6916 246.979 47.2316C246.405 46.772 245.576 46.5421 244.491 46.5418H233.786V51.9431Z" fill="#88171A"/>
<path d="M263.035 43.6196C266.32 43.6196 268.969 44.551 270.981 46.4137C272.993 48.2767 273.999 50.6968 273.999 53.6739C273.999 56.6826 273.013 59.0871 271.04 60.8874C269.067 62.6877 266.399 63.5879 263.035 63.588H254.098V43.6201H263.035V43.6196ZM263.082 46.4957H257.257V60.712H263.082C265.471 60.712 267.35 60.0768 268.717 58.8063C270.085 57.536 270.769 55.8097 270.769 53.6272C270.769 51.5228 270.061 49.808 268.647 48.483C267.232 47.1583 265.377 46.4958 263.082 46.4955L263.082 46.4957Z" fill="#88171A"/>
<path d="M82.0244 70.3202V72.7228H81.1982V67.502H86.0626V68.2661H82.0244V69.5682H84.6323V70.3202L82.0244 70.3202Z" fill="#231F20"/>
<path d="M85.3528 72.7223L88.0285 67.5015H88.5464L91.2467 72.7223H90.3651L89.6808 71.3957H86.9002L86.2221 72.7223H85.3528ZM87.2578 70.7048H89.3169L88.2935 68.7057L87.2578 70.7048Z" fill="#231F20"/>
<path d="M91.8325 72.056L92.2333 71.3713C92.5988 71.6136 92.9974 71.803 93.417 71.9337C93.813 72.0631 94.2269 72.1312 94.6439 72.1354C95.042 72.1538 95.4367 72.0549 95.7782 71.8512C95.9083 71.7774 96.0166 71.6712 96.0923 71.543C96.1681 71.4148 96.2086 71.2692 96.2098 71.1206C96.2153 70.9841 96.1809 70.849 96.111 70.7314C96.041 70.6137 95.9383 70.5186 95.8152 70.4573C95.5522 70.3127 95.137 70.2322 94.5699 70.2158C93.6122 70.2036 92.9546 70.0935 92.597 69.8857C92.2395 69.6778 92.0607 69.3334 92.0607 68.8525C92.0577 68.6374 92.1103 68.425 92.2133 68.2356C92.3163 68.0463 92.4664 67.8861 92.6494 67.7704C93.0419 67.4974 93.569 67.3609 94.2308 67.3608C94.6766 67.3599 95.12 67.4238 95.5471 67.5504C95.9813 67.6807 96.3952 67.87 96.7771 68.1128L96.364 68.7914C96.0368 68.5721 95.6797 68.4002 95.3036 68.2809C94.9535 68.1653 94.5875 68.1045 94.2185 68.1006C93.8852 68.0857 93.5537 68.1574 93.2568 68.3084C93.1509 68.3563 93.0607 68.4327 92.9964 68.5289C92.9321 68.6251 92.8963 68.7372 92.893 68.8525C92.8913 68.9634 92.9262 69.0719 92.9925 69.1613C93.0587 69.2507 93.1526 69.3162 93.2599 69.3477C93.5043 69.4455 93.9287 69.4944 94.533 69.4944C95.3714 69.4944 96.0044 69.635 96.4319 69.9162C96.8593 70.1975 97.073 70.6152 97.073 71.1695C97.0737 71.4113 97.0148 71.6497 96.9014 71.8638C96.788 72.078 96.6237 72.2614 96.4226 72.3983C95.9889 72.7243 95.4268 72.8873 94.7364 72.8874C94.222 72.8866 93.7103 72.8136 93.2167 72.6704C92.728 72.5323 92.2618 72.3254 91.8325 72.056Z" fill="#231F20"/>
<path d="M100.038 72.7223V68.229H97.8188V67.5015H103.084V68.229H100.858V72.7223H100.038Z" fill="#231F20"/>
<path d="M104.784 73.7859C104.902 73.6154 105.009 73.4378 105.105 73.254C105.193 73.0831 105.268 72.9052 105.327 72.7222H105.277C105.216 72.7228 105.155 72.709 105.1 72.6819C105.045 72.6548 104.997 72.6152 104.96 72.5663C104.873 72.4535 104.828 72.314 104.834 72.172C104.827 72.0146 104.881 71.8606 104.985 71.741C105.031 71.687 105.09 71.6439 105.155 71.6148C105.221 71.5857 105.292 71.5714 105.364 71.5729C105.447 71.5719 105.529 71.5919 105.602 71.6309C105.676 71.6699 105.738 71.7267 105.783 71.796C105.898 71.9752 105.954 72.1858 105.943 72.3982C105.932 72.6599 105.851 72.914 105.709 73.1349C105.514 73.4507 105.28 73.7413 105.012 73.9999L104.784 73.7859Z" fill="#231F20"/>
<path d="M113.064 72.7223V67.5015H113.749L115.906 70.5582L118.064 67.5015H118.749V72.7223H117.929V68.9687L115.906 71.8726L113.89 68.9687V72.7223H113.064Z" fill="#231F20"/>
<path d="M123.569 72.8874C122.632 72.8874 121.861 72.6245 121.257 72.0987C120.972 71.8519 120.744 71.5478 120.588 71.2066C120.432 70.8653 120.351 70.495 120.351 70.1202C120.35 69.7454 120.431 69.3749 120.586 69.0335C120.742 68.692 120.97 68.3875 121.254 68.1403C121.856 67.6207 122.628 67.3609 123.569 67.3608C124.518 67.3608 125.294 67.6196 125.896 68.1372C126.18 68.3851 126.408 68.6902 126.564 69.0321C126.719 69.3741 126.8 69.745 126.799 70.1202C126.799 70.4954 126.718 70.8662 126.562 71.2079C126.406 71.5496 126.178 71.8544 125.893 72.1018C125.289 72.6256 124.514 72.8874 123.569 72.8874ZM123.569 72.1232C124.272 72.1232 124.845 71.9347 125.289 71.5577C125.498 71.3797 125.666 71.159 125.781 70.9106C125.896 70.6622 125.955 70.3921 125.955 70.1188C125.954 69.8455 125.894 69.5755 125.779 69.3274C125.663 69.0793 125.495 68.8589 125.286 68.6813C124.84 68.3023 124.267 68.1128 123.569 68.1128C122.87 68.1128 122.3 68.3012 121.858 68.6782C121.65 68.8571 121.483 69.0782 121.369 69.3266C121.254 69.5751 121.195 69.8449 121.195 70.118C121.195 70.391 121.254 70.6609 121.369 70.9093C121.483 71.1577 121.65 71.3789 121.858 71.5578C122.3 71.9348 122.87 72.1232 123.569 72.1232Z" fill="#231F20"/>
<path d="M130.74 67.501C131.599 67.501 132.291 67.7445 132.817 68.2316C133.343 68.7186 133.606 69.3514 133.607 70.1298C133.607 70.9164 133.349 71.545 132.833 72.0157C132.317 72.4865 131.619 72.7218 130.74 72.7218H128.403V67.501L130.74 67.501ZM130.752 68.2529H129.229V71.9699H130.752C131.377 71.9699 131.868 71.8038 132.226 71.4717C132.583 71.1396 132.762 70.6882 132.762 70.1176C132.771 69.8672 132.726 69.6178 132.63 69.3859C132.535 69.154 132.39 68.945 132.207 68.7726C131.837 68.4262 131.352 68.253 130.752 68.2529Z" fill="#231F20"/>
<path d="M135.159 72.7223V67.5015H140.097V68.2656H135.985V69.5677H138.685V70.3197H135.985V71.9703H140.325V72.7223H135.159L135.159 72.7223Z" fill="#231F20"/>
<path d="M142.588 70.4416V72.7219H141.761V67.5132H145.387C145.925 67.5132 146.346 67.6416 146.651 67.8983C146.803 68.0308 146.924 68.1959 147.003 68.3812C147.082 68.5666 147.117 68.7672 147.107 68.9682C147.113 69.3227 146.984 69.6665 146.746 69.9311C146.503 70.2035 146.169 70.3803 145.806 70.4293L147.267 72.7218H146.373L144.881 70.4416L142.588 70.4416ZM142.588 69.6775H145.387C145.618 69.693 145.848 69.6281 146.037 69.4941C146.113 69.4296 146.173 69.3486 146.212 69.2574C146.251 69.1662 146.268 69.0672 146.262 68.9683C146.268 68.8698 146.251 68.7713 146.212 68.6805C146.173 68.5897 146.113 68.5093 146.037 68.4456C145.847 68.3136 145.618 68.2499 145.387 68.2653H142.588V69.6775Z" fill="#231F20"/>
<path d="M148.858 72.7223V67.5015H149.289L152.637 71.1695V67.5015H153.445V72.7223H153.013L149.671 69.0665V72.7223H148.858Z" fill="#231F20"/>
<path d="M156.133 73.7859C156.251 73.6154 156.358 73.4378 156.453 73.2541C156.542 73.0831 156.616 72.9052 156.675 72.7222H156.626C156.564 72.7228 156.504 72.709 156.448 72.6819C156.393 72.6548 156.345 72.6152 156.309 72.5663C156.221 72.4535 156.177 72.314 156.182 72.172C156.176 72.0146 156.23 71.8606 156.333 71.741C156.38 71.687 156.438 71.6439 156.504 71.6148C156.569 71.5857 156.641 71.5714 156.712 71.5729C156.796 71.5719 156.878 71.5919 156.951 71.6309C157.024 71.6699 157.086 71.7267 157.132 71.796C157.247 71.9752 157.303 72.1858 157.292 72.3982C157.28 72.6599 157.2 72.914 157.058 73.1349C156.862 73.4507 156.628 73.7413 156.361 73.9999L156.133 73.7859Z" fill="#231F20"/>
<path d="M163.964 72.056L164.365 71.3713C164.73 71.6136 165.129 71.803 165.548 71.9337C165.944 72.0631 166.358 72.1312 166.775 72.1354C167.173 72.1538 167.568 72.0549 167.91 71.8512C168.04 71.7774 168.148 71.6712 168.224 71.543C168.299 71.4148 168.34 71.2692 168.341 71.1206C168.347 70.9841 168.312 70.849 168.242 70.7314C168.172 70.6137 168.07 70.5186 167.947 70.4573C167.684 70.3127 167.268 70.2322 166.701 70.2158C165.744 70.2036 165.086 70.0935 164.728 69.8857C164.371 69.6778 164.192 69.3334 164.192 68.8525C164.189 68.6374 164.242 68.425 164.345 68.2356C164.448 68.0463 164.598 67.8861 164.781 67.7704C165.173 67.4974 165.7 67.3609 166.362 67.3608C166.808 67.3599 167.251 67.4238 167.678 67.5504C168.113 67.6807 168.527 67.87 168.908 68.1128L168.495 68.7914C168.168 68.5721 167.811 68.4002 167.435 68.2809C167.085 68.1653 166.719 68.1045 166.35 68.1006C166.017 68.0857 165.685 68.1574 165.388 68.3084C165.282 68.3564 165.192 68.4327 165.128 68.5289C165.064 68.6251 165.028 68.7372 165.024 68.8525C165.023 68.9634 165.058 69.0719 165.124 69.1613C165.19 69.2507 165.284 69.3162 165.391 69.3477C165.636 69.4455 166.06 69.4944 166.664 69.4944C167.503 69.4944 168.136 69.635 168.563 69.9162C168.991 70.1975 169.204 70.6152 169.204 71.1695C169.205 71.4114 169.146 71.6497 169.033 71.8638C168.919 72.078 168.755 72.2615 168.554 72.3983C168.12 72.7243 167.558 72.8873 166.868 72.8874C166.353 72.8867 165.842 72.8136 165.348 72.6704C164.859 72.5323 164.393 72.3254 163.964 72.056Z" fill="#231F20"/>
<path d="M170.915 72.7223V67.5015H175.853V68.2656H171.741V69.5677H174.441V70.3197H171.741V71.9703H176.081V72.7223L170.915 72.7223Z" fill="#231F20"/>
<path d="M183.085 71.4444C182.798 71.9019 182.39 72.2729 181.905 72.5173C181.389 72.7705 180.819 72.8973 180.243 72.8872C179.318 72.8872 178.557 72.6274 177.959 72.1078C177.677 71.8591 177.451 71.5541 177.297 71.2127C177.142 70.8713 177.062 70.5013 177.062 70.127C177.062 69.7528 177.142 69.3828 177.297 69.0414C177.451 68.7 177.677 68.3949 177.959 68.1463C178.557 67.6226 179.318 67.3608 180.243 67.3607C180.783 67.3532 181.317 67.4628 181.809 67.6817C182.26 67.8816 182.651 68.1945 182.944 68.5895L182.29 69.0419C182.069 68.7419 181.772 68.5048 181.43 68.3542C181.057 68.1895 180.652 68.1071 180.243 68.1127C179.633 68.0905 179.036 68.2943 178.569 68.6843C178.361 68.8619 178.194 69.082 178.08 69.3296C177.965 69.5771 177.906 69.8463 177.907 70.1186C177.907 70.3909 177.967 70.6599 178.081 70.9072C178.196 71.1545 178.364 71.3743 178.572 71.5514C179.039 71.9405 179.634 72.1442 180.243 72.1231C180.673 72.1319 181.098 72.0375 181.482 71.848C181.863 71.6439 182.187 71.35 182.426 70.9921L183.085 71.4444Z" fill="#231F20"/>
<path d="M184.726 67.5138H185.552V70.8578C185.552 71.3591 185.671 71.6974 185.909 71.8727C186.148 72.0479 186.62 72.1356 187.327 72.1355C188.038 72.1355 188.513 72.0479 188.752 71.8727C188.99 71.6975 189.109 71.3592 189.109 70.8578V67.5138H189.929V71.0717C189.929 71.7116 189.725 72.1742 189.316 72.4594C188.907 72.7446 188.24 72.8873 187.315 72.8873C186.394 72.8873 185.733 72.7467 185.33 72.4655C184.927 72.1843 184.726 71.7197 184.726 71.0716L184.726 67.5138Z" fill="#231F20"/>
<path d="M192.822 70.4416V72.7219H191.996V67.5132H195.621C196.159 67.5132 196.581 67.6416 196.885 67.8983C197.038 68.0308 197.158 68.1959 197.237 68.3812C197.316 68.5666 197.352 68.7672 197.341 68.9682C197.347 69.3227 197.218 69.6665 196.98 69.9311C196.737 70.2035 196.404 70.3803 196.04 70.4293L197.501 72.7218H196.607L195.115 70.4416L192.822 70.4416ZM192.822 69.6775H195.621C195.853 69.693 196.083 69.6281 196.271 69.4941C196.347 69.4296 196.407 69.3486 196.446 69.2574C196.485 69.1662 196.502 69.0672 196.496 68.9683C196.503 68.8698 196.485 68.7713 196.446 68.6805C196.407 68.5897 196.347 68.5093 196.271 68.4456C196.082 68.3136 195.852 68.2499 195.621 68.2653H192.822V69.6775Z" fill="#231F20"/>
<path d="M199.083 72.7223V67.5015H204.022V68.2656H199.909V69.5677H202.61V70.3197H199.909V71.9703H204.25V72.7223L199.083 72.7223Z" fill="#231F20"/>
<path d="M212.425 72.7223H212L209.355 67.5015H210.23L212.21 71.4079L214.158 67.5015H215.064L212.425 72.7223Z" fill="#231F20"/>
<path d="M217.189 70.4416V72.7218H216.363V67.501H220.192C220.734 67.501 221.157 67.6283 221.459 67.883C221.611 68.0163 221.731 68.182 221.81 68.3679C221.888 68.5537 221.923 68.7548 221.912 68.956C221.919 69.1559 221.882 69.3548 221.804 69.5394C221.727 69.724 221.61 69.8899 221.462 70.0258C221.137 70.3121 220.712 70.4613 220.278 70.4415L217.189 70.4416ZM217.189 69.6774H220.192C220.422 69.6923 220.649 69.6275 220.836 69.494C220.907 69.4263 220.963 69.3454 221.001 69.256C221.04 69.1666 221.06 69.0705 221.061 68.9732C221.062 68.876 221.043 68.7795 221.006 68.6894C220.969 68.5994 220.915 68.5175 220.845 68.4486C220.669 68.3159 220.45 68.2508 220.229 68.2652H217.189L217.189 69.6774Z" fill="#231F20"/>
<path d="M223.334 72.7223V67.5015H223.765L227.113 71.1695V67.5015H227.92V72.7223H227.489L224.147 69.0665V72.7223H223.334Z" fill="#231F20"/>
<path d="M235.673 72.7223V68.229H233.454V67.5015H238.719V68.229H236.493V72.7223H235.673Z" fill="#231F20"/>
<path d="M239.8 67.5138H240.626V70.8578C240.626 71.3591 240.745 71.6974 240.984 71.8727C241.222 72.0479 241.695 72.1356 242.402 72.1355C243.113 72.1355 243.587 72.0479 243.826 71.8727C244.064 71.6975 244.183 71.3592 244.183 70.8578V67.5138H245.003V71.0717C245.003 71.7116 244.799 72.1742 244.39 72.4594C243.981 72.7446 243.314 72.8873 242.389 72.8873C241.468 72.8873 240.807 72.7467 240.404 72.4655C240.001 72.1843 239.8 71.7197 239.8 71.0716L239.8 67.5138Z" fill="#231F20"/>
<path d="M247.076 72.7223V67.5015H247.508L250.855 71.1695V67.5015H251.663V72.7223H251.232L247.89 69.0665V72.7223H247.076Z" fill="#231F20"/>
<path d="M253.728 72.7223V67.5015H254.159L257.507 71.1695V67.5015H258.314V72.7223H257.883L254.541 69.0665V72.7223H253.728Z" fill="#231F20"/>
<path d="M260.366 72.7223V67.5015H265.305V68.2656H261.192V69.5677H263.893V70.3197H261.192V71.9703H265.533V72.7223L260.366 72.7223Z" fill="#231F20"/>
<path d="M266.966 72.7223V67.5015H267.792V71.9704H271.701V72.7224L266.966 72.7223Z" fill="#231F20"/>
<path d="M69.0163 49.7881C69.0163 49.7881 69.9196 31 49.0954 31C30.6792 31 30.1038 49.0227 30.1038 49.0227C30.1038 49.0227 27.3949 69.7225 49.5197 69.7225C70.7397 69.7225 69.0163 49.7881 69.0163 49.7881ZM43.269 43.223C47.1763 40.8527 52.1681 42.3014 54.0385 45.8659C54.393 46.5415 54.438 47.5815 54.2135 48.2902C53.4384 50.737 51.6083 52.1092 49.0964 52.6921C49.8369 52.0634 50.4264 51.3505 50.614 50.3655C50.7117 49.8987 50.7096 49.4168 50.6077 48.9508C50.5059 48.4849 50.3066 48.0454 50.0227 47.6606C49.5776 47.0542 48.9454 46.6079 48.2219 46.3893C47.4983 46.1706 46.7226 46.1915 46.0121 46.4487C44.4656 47.031 43.6184 48.4305 43.7711 50.1509C43.913 51.749 45.1358 52.7847 47.4238 53.1781C47.0818 53.3576 46.8184 53.4898 46.5608 53.6321C45.5127 54.2015 44.6006 54.9881 43.8866 55.9384C43.6544 56.2493 43.4947 56.2743 43.1411 56.0599C38.5412 53.2706 38.2457 46.2703 43.269 43.223ZM39.8262 60.4584C39.0873 60.6444 38.3712 60.9197 37.6158 61.1654C37.9853 58.6935 40.9045 56.417 43.3732 56.6767C42.658 57.6536 42.2405 58.8136 42.1702 60.0188C41.3498 60.1686 40.5768 60.2695 39.8262 60.4584ZM55.5492 36.324C56.2795 36.3506 57.011 36.3396 57.7418 36.3567C57.9242 36.3687 58.1055 36.3937 58.2842 36.4317C58.1208 36.6805 57.9364 36.9151 57.7329 37.1329C57.4716 37.3743 57.1765 37.6103 56.8001 37.2434C56.7096 37.1552 56.4957 37.1754 56.3382 37.1734C55.6115 37.1639 54.8839 37.1409 54.1584 37.1681C53.5288 37.188 52.9014 37.2516 52.2807 37.3582C52.1644 37.3789 51.9904 37.7624 52.0439 37.9038C52.1701 38.2375 52.3541 38.6055 52.6268 38.8189C53.6343 39.6075 54.7058 40.3156 55.718 41.0989C56.7016 41.86 57.617 42.694 58.1749 43.8421C58.9018 45.3381 58.923 46.9067 58.6095 48.4823C58.0862 51.1126 56.7438 53.2918 54.5702 54.8746C53.6943 55.5124 52.6098 55.8743 51.6066 56.3325C50.7243 56.7356 49.8162 57.0827 48.9318 57.4814C47.3374 58.2003 46.4413 59.9164 46.7049 61.7006C46.9468 63.3379 48.3954 64.7043 50.0548 64.9863C52.0453 65.3247 54.0992 64.042 54.5862 62.0357C55.1338 59.7797 53.8976 57.7655 51.5838 57.155C51.482 57.1281 51.3797 57.1026 51.1672 57.0483C51.7861 56.774 52.3206 56.5787 52.8142 56.3094C53.6751 55.8396 54.5204 55.3421 55.35 54.817C55.5939 54.6623 55.7257 54.6622 55.9338 54.8405C57.5251 56.2049 58.4744 57.9019 58.7406 59.9827C59.1812 63.427 57.5369 66.5911 54.4357 68.2128C49.6377 70.7219 43.7665 67.8661 42.7068 62.5914C41.799 58.0733 45.0147 53.9751 48.8848 53.1839C50.5493 52.8436 52.0713 52.1565 53.2546 50.8854C54.018 50.0653 54.3881 49.3616 54.5142 49.044C54.7491 48.449 54.8692 47.8155 54.8684 47.1765C54.8431 46.6236 54.7121 46.0806 54.4824 45.5762C54.0784 44.663 52.5305 43.2102 52.1473 42.9038L48.5026 40.0744C48.3741 39.9695 48.2294 39.9771 47.9158 39.9982C47.5434 40.0232 46.5914 40.0755 46.1806 39.9687C46.5129 39.7193 47.4189 39.3562 47.8079 39.0643C46.6269 38.2731 45.2788 38.5589 44.0407 38.3226C44.327 37.7939 45.7435 36.9815 46.5491 36.891C46.5013 36.4449 46.428 36.0019 46.3294 35.564C46.2802 35.3844 46.078 35.2103 45.9016 35.1077C45.4739 34.859 45.0205 34.6538 44.5285 34.4065C44.9689 34.1242 45.4793 33.9676 46.0035 33.954C46.5002 33.9353 46.9971 33.9833 47.4807 34.0967C48.3583 34.2955 49.0588 34.1657 49.7571 33.5742C49.2075 33.3547 48.658 33.1542 48.125 32.9171C47.5999 32.6797 47.088 32.4144 46.5918 32.1222C47.9744 32.3127 49.3118 32.8268 50.7255 32.639C50.7376 32.5752 50.7496 32.5115 50.7616 32.4478C49.7047 32.2039 48.6478 31.9599 47.4776 31.6898C49.4353 31.5121 51.2579 31.4828 52.9838 32.3164C53.4695 32.5509 53.9776 32.7451 54.4432 33.013C54.6702 33.1437 54.8231 33.4013 55.0093 33.6015C55.1573 33.7606 55.2761 33.9737 55.4579 34.0696C56.1478 34.4334 56.9072 34.4477 57.6809 34.4295C57.6867 34.3421 57.6921 34.2602 57.6979 34.1722C58.4766 34.4134 59.353 35.3039 59.3516 35.9542C58.0901 35.9542 56.8297 35.9494 55.5694 35.9611C55.4347 35.9624 55.3009 36.06 55.1667 36.1128C55.2943 36.1865 55.4196 36.3193 55.5497 36.324L55.5492 36.324Z" fill="#88171A"/>
<path d="M53.9224 34.4729C53.897 34.4888 53.8756 34.5103 53.86 34.5357C53.8444 34.5612 53.835 34.59 53.8326 34.6197C53.8302 34.6494 53.8349 34.6792 53.8462 34.7068C53.8575 34.7344 53.8752 34.759 53.8978 34.7787C53.9168 34.8119 53.9423 34.841 53.9728 34.8644C54.0033 34.8877 54.0382 34.9048 54.0754 34.9147C54.1126 34.9246 54.1514 34.927 54.1896 34.9219C54.2278 34.9167 54.2645 34.9041 54.2977 34.8848C54.4191 34.824 54.5382 34.7594 54.685 34.6826C54.5668 34.5825 54.472 34.4999 54.3744 34.4202C54.2029 34.2801 54.0606 34.3681 53.9224 34.4729Z" fill="#88171A"/>
<path d="M272.113 41.8052H271.951C270.967 41.8155 270.41 42.6622 270.41 43.4831C270.41 44.2782 270.92 45.0734 271.998 45.0734H272.071C273.19 45.0424 273.68 44.2783 273.68 43.4935V43.4005C273.643 42.5796 273.05 41.8052 272.113 41.8052ZM271.394 42.4712V44.335H271.628V42.6622H272.071C272.316 42.6622 272.435 42.812 272.435 42.9617C272.435 43.1424 272.258 43.3489 271.941 43.3489C271.894 43.3489 271.831 43.3386 271.774 43.3283L272.482 44.335H272.789L272.149 43.478C272.461 43.4212 272.67 43.1734 272.67 42.9307C272.67 42.7035 272.472 42.4712 272.034 42.4712H271.394ZM270.946 42.5073C271.274 42.1563 271.618 42.0272 272.019 42.0272H272.185C272.899 42.0582 273.414 42.7758 273.414 43.4677C273.414 43.5658 273.404 43.6793 273.383 43.7723C273.274 44.4073 272.716 44.8513 272.071 44.8513C272.055 44.8513 272.024 44.8565 272.008 44.8565C271.191 44.8565 270.67 44.1234 270.67 43.3902C270.67 43.3283 270.681 43.2457 270.686 43.1785C270.686 43.1785 270.722 42.7758 270.946 42.5073Z" fill="black"/>
</g>
<defs>
<linearGradient id="paint0_linear_30_1379" x1="57.0308" y1="114.105" x2="94.1917" y2="114.105" gradientUnits="userSpaceOnUse">
<stop stop-color="#12B212"/>
<stop offset="1" stop-color="#00FF00"/>
</linearGradient>
<clipPath id="clip0_30_1379">
<rect width="72" height="72" fill="white" transform="translate(44 103)"/>
</clipPath>
<clipPath id="clip1_30_1379">
<rect width="244" height="43" fill="white" transform="translate(30 31)"/>
</clipPath>
</defs>
</svg>
