<svg width="76" height="82" viewBox="0 0 76 82" fill="none" xmlns="http://www.w3.org/2000/svg">
<g filter="url(#filter0_d_0_1)">
<path fill-rule="evenodd" clip-rule="evenodd" d="M76 39.9202C75.9419 38.8696 75.8839 37.8191 75.8259 36.8269C75.8259 36.5935 75.7679 36.3017 75.7679 36.0682C75.7099 35.8348 75.7099 35.6013 75.6519 35.3678C75.5938 34.9009 75.5358 34.434 75.4778 33.9671C75.2458 33.617 75.3038 32.2162 74.8396 31.9244C74.8396 31.3992 74.7816 31.1657 74.5496 30.6988C74.8977 30.8155 74.4335 30.1152 74.6656 30.1735C74.4335 29.765 74.5496 29.1814 74.3175 29.0646C74.4335 29.6483 74.6656 29.9985 74.4916 30.2319C74.3755 29.6483 74.1435 29.123 74.2015 28.7145C74.0274 28.3059 73.5633 27.5472 73.6213 27.197C73.3893 27.2554 73.5053 26.6718 73.2732 26.4967C73.1572 26.4967 73.2152 26.6718 73.1572 26.555C72.9251 26.2632 72.9832 25.738 72.7511 25.4461C72.8091 25.5629 72.8091 25.6796 72.7511 25.6796C72.6351 25.4461 72.7511 25.3878 72.577 25.096C72.403 25.1543 72.6351 25.5045 72.6351 25.6796C72.8671 25.7963 73.2732 26.8469 73.2152 27.0219C73.0412 26.7301 72.8671 26.6718 72.9251 26.3216C72.7511 26.3216 72.9251 26.555 72.8091 26.555C72.9251 26.8469 73.0992 26.7885 73.1572 27.1387C73.0412 27.1387 72.8671 26.9636 72.7511 26.9052C72.8671 27.2554 73.0412 27.0803 73.1572 27.3721C73.0992 27.4888 72.9251 27.1387 72.9832 27.4305C73.0412 27.4305 73.0412 27.4888 73.0992 27.5472C73.0412 27.5472 73.0412 27.5472 72.9832 27.5472C72.9251 27.6056 72.8671 27.6056 72.8091 27.6639C72.8091 27.6056 72.8671 27.6056 72.8671 27.6056C72.6931 27.3721 72.7511 27.3138 72.6931 27.0803C72.5771 27.1387 72.6931 27.5472 72.7511 27.7223C72.6351 27.7807 72.519 27.839 72.345 27.8974C72.345 27.8974 72.287 27.8974 72.287 27.839C72.287 27.7807 72.229 27.6639 72.229 27.6056C72.229 27.4888 72.229 27.4305 72.1129 27.3138C71.9969 27.0219 71.9389 26.7885 72.0549 26.6134C71.7648 26.4383 71.4167 25.2711 71.4167 24.9209C71.3007 24.9209 71.1847 24.8041 71.0687 24.5707C71.0687 24.5123 71.0687 24.454 71.0687 24.3372C71.0687 24.2205 71.0106 24.2205 70.8946 24.2205C70.8366 24.0454 70.7786 23.9287 70.8366 23.8703C70.7206 23.7536 70.5465 23.5785 70.4305 23.4618C70.3725 23.3451 70.3145 23.2283 70.3145 23.1116C70.3145 23.1116 70.3145 23.1116 70.3725 23.1116C70.1984 22.7031 70.0244 22.3529 69.7923 22.0027C69.3862 21.1856 68.8641 20.4269 68.3419 19.7266C68.1679 19.3764 67.9358 19.0846 67.7618 18.676C67.7038 18.7344 67.6458 18.676 67.5297 18.6177C67.4717 18.2675 67.1236 17.859 66.7755 17.5088C66.7175 17.2753 66.6015 16.9835 66.4274 16.7501C66.4274 16.7501 66.4274 16.6917 66.4855 16.6917C66.3694 16.575 66.3114 16.5166 66.3114 16.5166C66.2534 16.4582 66.1954 16.3999 66.1374 16.3415C65.9053 16.1081 65.6732 15.8162 65.4992 15.5828C65.2671 15.3493 65.0351 15.1159 64.919 14.8241C64.3969 14.007 63.8748 13.1316 63.2946 12.3728C62.6564 11.6141 62.0183 10.8554 61.09 10.3885C60.916 10.2134 60.916 10.5052 60.7419 10.3885C60.2198 9.86322 59.5236 9.45468 58.7694 8.92942C58.0152 8.46251 57.261 7.99561 56.5648 7.58707C55.5786 6.94508 54.7084 6.18636 53.6061 5.77782C52.9679 5.54436 52.3877 5.42764 51.8076 5.36927C51.2274 5.31091 50.7633 5.36927 50.2412 5.54436C49.2549 5.13582 47.9206 5.60273 47.0503 4.90237C46.8183 4.90237 46.8183 5.13582 46.4702 5.0191C46.2381 4.96073 46.2381 4.84401 46.1221 4.78564C45.832 5.07746 45.948 5.07746 45.774 5.25255C46.5282 5.31091 46.8183 5.42764 47.5145 5.36927C47.6885 5.42764 47.7465 5.54436 47.9786 5.60273C49.487 5.60273 51.2854 5.77782 53.2 6.41981C54.9984 7.0618 56.5648 8.40415 57.8992 8.75433C58.1313 8.92942 57.8992 9.10451 58.0152 9.27959C58.7694 9.45468 59.0595 10.155 59.7557 10.5636C60.2778 10.9138 60.858 10.9721 61.4381 11.3807C61.9603 11.8476 62.3664 12.2561 62.7145 12.723C63.0625 13.1899 63.4687 13.7152 63.9908 14.2988C63.9908 14.3572 63.9908 14.3572 63.9908 14.4155C63.7007 14.1821 63.5267 14.007 63.1206 13.6568C63.1786 13.5401 63.3526 13.8319 63.4106 13.7735C63.1206 13.4817 62.8305 13.2483 62.5984 13.0732C62.3664 12.8397 62.1923 12.6646 62.0183 12.3145C61.9022 12.4896 61.5542 12.1394 61.3801 12.1977C61.7282 12.5479 62.1923 12.9565 62.1923 13.365C61.8442 13.1899 61.9022 12.8397 61.6702 12.8397C61.9022 13.2483 62.1343 13.4817 62.4824 13.7152C62.7725 13.9486 63.1206 14.1821 63.4687 14.5906C63.4106 14.649 63.3526 14.649 63.2946 14.649C63.4687 14.9992 63.8167 15.1743 64.1068 15.4077C64.1648 15.5244 64.2229 15.5828 64.2809 15.6995C64.2229 15.6995 64.1648 15.6412 64.1068 15.6412C64.1648 15.7579 64.2229 15.8746 64.2809 15.9913C64.2229 15.933 64.1648 15.933 64.1648 15.933C64.2229 15.9913 64.2809 16.0497 64.3389 16.1081C64.3389 16.1664 64.3389 16.2248 64.3389 16.2832C63.8748 16.0497 63.4687 15.933 63.0045 15.8163C62.9465 15.6995 62.8885 15.6412 62.8885 15.5244L62.7725 15.6412C62.8305 15.6995 62.8885 15.7579 62.8885 15.7579C62.8305 15.7579 62.7725 15.7579 62.7145 15.6995C62.7145 15.6995 62.6564 15.6412 62.6564 15.5828C62.7145 15.5244 62.5984 15.291 62.5404 15.4661C62.5984 15.5244 62.6564 15.5828 62.5984 15.6412C62.4824 15.5828 62.3083 15.5244 62.1923 15.4077C62.0763 15.291 62.0183 15.0575 61.9022 14.9408C61.7282 14.7657 61.3221 14.7657 61.2061 14.9408C61.148 14.9992 61.148 15.0575 61.09 15.1743C60.974 15.1159 60.8 14.9992 60.6839 14.9408C60.7419 14.7074 60.6839 14.4155 60.5679 14.1821C60.5679 14.1237 60.4519 14.1237 60.3938 14.1237L60.3358 14.1821C60.3358 14.1821 60.3358 14.1821 60.3358 14.2404C60.1618 14.1821 59.9297 14.007 59.8717 13.7735C59.8137 13.8319 59.8137 13.8903 59.8137 14.007C59.9877 14.1237 60.1038 14.1821 60.2778 14.3572V14.4155C60.3358 14.5323 60.3938 14.5906 60.4519 14.7074C60.0458 14.2988 59.6396 14.007 59.2916 13.7152C59.1755 13.6568 59.1175 13.5985 59.0595 13.5401C59.0595 13.5401 59.0595 13.5401 59.1175 13.4817C59.1175 13.4234 59.0595 13.4234 59.0595 13.365L59.0015 13.4234C58.7114 13.2483 58.4793 13.1316 58.1893 13.0148C58.0732 12.8981 58.0152 12.8397 57.9572 12.723C57.8412 12.6646 57.7832 12.6063 57.6671 12.5479C56.1587 11.1472 54.1282 9.80486 51.9236 8.75433C49.545 7.64543 46.9343 6.94508 44.7877 6.71162C44.3236 6.47817 43.8595 6.30308 43.3374 6.18636C42.8152 6.06963 42.2931 6.01127 41.6549 6.01127C40.9587 5.42764 39.6824 5.31091 38.4061 5.36927C38.116 5.36927 37.7679 5.42764 37.4778 5.42764C37.1877 5.42764 36.8977 5.486 36.6076 5.486C36.0274 5.486 35.5633 5.486 35.2152 5.36927C34.5771 6.12799 32.5465 5.9529 31.8503 5.71945C31.7343 6.01127 31.4442 6.12799 31.0961 6.18636C30.748 6.24472 30.3419 6.24472 29.9938 6.18636C29.9938 6.06963 30.458 5.83618 29.9358 5.9529C29.7038 5.9529 29.7038 6.12799 29.5877 6.18636C29.3557 6.06963 29.0076 6.01127 28.8335 5.83618C28.3694 5.89454 28.3114 6.06963 27.8473 6.12799C27.9633 5.9529 27.9633 5.77782 28.2534 5.66109C28.8916 5.36927 29.0656 5.60273 29.4137 5.60273C29.3557 5.42764 29.1236 5.42764 29.4717 5.31091C29.7038 5.71945 30.2839 5.0191 30.69 5.36927C30.458 5.42764 30.2839 5.486 30.2259 5.60273C30.69 5.42764 31.2702 5.25255 31.6763 5.13582C31.5603 5.13582 31.3282 5.13582 31.5603 5.07746C29.2396 4.96073 27.0931 5.42764 25.0625 6.12799C23.032 6.82835 21.1175 7.87888 19.203 9.04614C18.9129 8.98778 18.4488 9.22123 18.0427 9.39632C17.0564 10.2718 16.2442 10.797 16.4183 11.6141C17.6366 10.7387 18.5648 9.86322 20.8274 8.75433C21.3496 8.69597 21.8717 8.75433 22.1038 9.10451C20.4793 10.155 18.4488 10.797 17.0564 12.081C16.8824 12.2561 16.8244 12.4312 16.6503 12.5479C15.432 13.4817 14.7358 13.8903 13.9236 14.5323C12.2992 15.7579 10.9068 17.5088 9.57247 19.0262C9.28239 19.3764 8.70224 19.4931 8.70224 20.0767C9.10835 19.6682 9.51445 19.2597 9.86255 18.8511C10.2106 18.4426 10.5587 18.034 10.7328 17.6839C11.1969 17.3337 11.7771 16.8084 12.3572 16.2832C12.9954 15.7579 13.5755 15.1743 14.0977 14.7657C14.3877 14.5906 14.6778 14.4155 14.9679 14.2404C15.258 14.0654 15.49 13.8903 15.7801 13.7152C16.3022 13.365 16.7664 13.0148 17.2885 12.6646C18.2748 11.9059 19.3771 11.1472 20.8854 10.5052C21.2335 10.797 21.5236 10.5052 22.0458 10.3301C22.2198 10.7387 22.6259 10.7387 23.2061 10.5052C23.4381 10.2718 22.916 10.3301 23.148 10.0967C23.4961 10.0967 23.8442 10.0967 24.0183 10.3301C23.7282 10.4469 23.4381 10.6219 23.2641 10.6219C23.4961 10.9138 24.1343 10.5636 24.3083 10.9721C23.7862 11.2639 23.3221 11.5558 22.858 11.8476C22.3938 12.1977 21.9877 12.4896 21.5816 12.8397C20.7694 13.5401 19.9572 14.1821 18.9709 14.7074C18.6229 14.7074 18.3328 14.5323 17.9267 14.649C17.9267 15.0575 18.6809 14.7074 18.9709 14.8824C18.7969 15.1743 18.4488 15.4661 18.1587 15.7579C18.1007 15.8746 17.9847 15.933 17.9267 16.0497H17.8687C17.5206 16.1081 17.1145 16.2832 16.9404 16.6333C16.9404 16.6917 16.8824 16.7501 16.8244 16.8084C16.5343 17.0419 16.3022 17.217 16.0702 17.4504C16.0702 17.4504 16.0702 17.4504 16.0122 17.4504C16.0122 17.5088 15.9542 17.5088 15.9542 17.5671C15.8961 17.6255 15.8381 17.6255 15.8381 17.6839C15.548 17.9173 15.2 17.9173 14.7938 17.9173C14.6778 17.9173 14.6198 17.9757 14.5618 18.0924C14.5618 18.1508 14.5038 18.2675 14.4458 18.2675C14.3297 18.3842 14.2137 18.6177 13.9816 18.3842C13.7496 18.4426 13.6916 18.5593 13.5755 18.7344C13.4595 19.0262 13.2854 19.2597 12.8793 19.2597C12.8213 19.2597 12.7053 19.2597 12.6473 19.318C12.4152 19.6098 12.0091 19.7849 11.8931 20.1935C11.8351 20.4269 11.603 20.3686 11.429 20.4269C11.429 20.4853 11.3709 20.602 11.3129 20.602C10.7328 20.7771 10.3267 21.1273 9.92056 21.5358C9.6885 21.7693 9.51445 21.9444 9.22438 22.1195C8.81827 22.2945 8.35415 22.4696 8.41216 23.0533C8.41216 23.1116 8.29613 23.2283 8.1801 23.3451C8.06407 23.4618 7.89003 23.6369 7.774 23.7536C7.71598 23.812 7.65797 23.9871 7.48392 23.812C7.42591 23.6953 7.19384 23.6369 7.36789 23.4618C7.42591 23.4034 7.42591 23.3451 7.42591 23.2283C7.42591 23.17 7.36789 23.1116 7.36789 22.9949C7.30988 22.9949 7.30988 23.0533 7.25186 23.0533C7.0198 23.2283 6.84575 23.5202 6.84575 23.812C6.84575 23.9871 6.90377 24.0454 6.78774 24.1622C6.61369 24.3372 6.43965 24.5707 6.09155 24.5707C5.74346 24.5707 5.97552 24.8041 5.97552 24.9209C5.91751 25.1543 5.80148 25.5045 5.56942 25.5629C5.33736 25.9714 5.22133 26.0881 5.10529 26.2632C5.16331 26.0298 5.22133 25.7963 5.27934 25.6212C5.74346 24.2789 6.90377 22.8782 7.36789 21.5942C7.94804 21.4191 7.48392 21.1856 8.12209 20.7187C8.06407 20.5437 7.94804 20.2518 7.774 20.3102C7.71598 20.3102 7.59995 20.3686 7.48392 20.4269C7.19384 21.1856 6.78774 21.5942 6.55568 22.2945C5.16331 23.6953 4.40911 25.3878 3.82896 27.197C3.77094 27.197 3.71293 27.197 3.65491 27.197C3.65491 27.2554 3.71293 27.3138 3.77094 27.3721C3.77094 27.4305 3.77094 27.4305 3.71293 27.4888C3.65491 27.6639 3.5969 27.839 3.53888 28.0141C3.42285 28.0725 3.36484 28.1308 3.24881 28.1892C3.07476 28.3059 2.90071 28.481 2.90071 28.7145C2.90071 29.4732 2.90071 29.4732 2.14652 29.9401C2.0885 29.9985 2.03049 29.9985 1.97247 29.9985C1.97247 30.1152 1.85644 30.2319 1.74041 30.2319C1.74041 30.407 2.03049 30.5821 1.74041 30.8155C1.56636 30.9323 1.45033 31.049 1.3343 31.2241C1.27629 31.2824 1.27629 31.3408 1.21827 31.3992V31.3408C1.21827 31.3992 1.16026 31.4575 1.16026 31.5159C1.10224 31.5743 1.04423 31.6326 0.928195 31.691C0.696134 31.8077 0.928195 32.0412 0.986211 32.1579C0.638119 32.6248 0.986211 33.2668 0.580104 33.6753C0.580104 33.9671 0.638119 34.3173 0.580104 34.6091C0.580104 34.9593 0.406058 35.2511 0.464073 35.6013C0.522088 35.8931 0.348043 36.0098 0.115982 36.1266C0.0579663 36.1266 -4.90099e-05 36.3017 0.0579663 36.3017C0.232012 36.5351 0.115982 36.7686 0.0579663 37.002C0.348043 37.3522 0.290027 37.8191 0.290027 38.2276C0.290027 38.6362 0.406058 39.1031 0.0579663 39.4533C-4.90099e-05 39.5116 0.0579663 39.6867 0.173997 39.7451C0.348043 39.8034 0.464073 39.8618 0.464073 40.0369C0.464073 40.212 0.464073 40.3287 0.464073 40.5038C0.522088 41.1458 0.348043 41.7878 0.696134 42.4298C0.75415 42.4881 0.696134 42.6632 0.638119 42.78C0.580104 42.8967 0.464073 42.955 0.580104 43.0718C0.754149 43.2469 0.696134 43.4803 0.696134 43.7138C0.638119 44.1807 0.638119 44.4141 0.754149 44.6476C0.928195 44.9394 1.04423 45.2896 1.3343 45.523C1.45033 45.6397 1.56636 45.7565 1.56636 45.8732C1.56636 46.2234 1.68239 46.5736 1.79842 46.8654C1.74041 47.449 2.03049 47.9743 2.26255 48.4995C2.32056 48.5579 2.37858 48.6746 2.37858 48.6746C2.90071 48.5579 2.95873 49.0248 3.24881 49.1415C3.53888 49.3166 3.82896 49.4333 4.06102 49.5501C4.11904 49.6668 4.17705 49.7835 4.23507 49.9586C4.23507 50.017 4.23507 50.017 4.29308 50.0753C4.3511 50.1921 4.40911 50.3671 4.40911 50.4839C4.23507 50.659 4.11904 50.834 4.29308 51.1259C4.46713 51.4177 4.52514 51.8262 4.64117 52.1764C4.69919 52.2931 4.69919 52.4098 4.81522 52.4682C4.98926 52.5266 5.04728 52.5849 4.98926 52.76C4.93125 52.9351 4.93125 53.1686 4.81522 53.2853C4.52514 53.5771 4.93125 53.7522 4.93125 53.9856C4.93125 54.1024 5.16331 54.1024 5.22133 54.044C5.45339 53.8689 5.62743 53.6938 5.80148 53.5187C5.97552 53.3437 5.91751 53.2269 5.80148 53.0518C5.68545 52.7017 5.74346 52.2931 5.80148 51.8846C5.80148 51.8262 5.85949 51.8262 5.85949 51.8262L5.91751 51.8846C5.91751 52.1764 6.20758 52.2931 6.38163 52.5266C6.43965 52.6433 6.14957 52.8184 6.38163 52.8768C6.72972 52.9935 6.84575 53.2269 6.96178 53.5187C7.07781 53.8689 7.25186 54.2191 7.36789 54.5693C7.54194 54.9778 7.71598 55.328 7.94804 55.6782C8.00606 55.7949 8.06407 55.9116 8.06407 55.97C8.00606 56.3785 8.1801 56.6703 8.47018 56.8454C8.76026 57.0789 8.76026 57.3707 8.76026 57.6625C8.76026 57.8376 8.70224 58.0711 8.87629 58.1878C9.22438 58.4796 9.28239 58.8881 9.51445 59.2383C9.63049 59.4134 9.63049 59.18 9.6885 59.1216C9.74652 59.0632 9.74652 59.0049 9.80453 58.9465C9.80453 59.0049 9.86255 59.0049 9.86255 59.0632C9.86255 59.5301 9.97858 59.9387 9.74652 60.4056C9.57247 60.6974 9.6885 61.0476 9.86255 61.3977C10.2106 61.923 10.2106 62.0397 10.7328 62.2148C11.1389 62.3899 11.2549 62.4483 11.2549 62.8568C11.2549 63.207 11.2549 63.5572 11.545 63.7906C11.603 63.849 11.661 63.9074 11.661 63.9657C11.661 64.491 12.0671 64.7828 12.3572 65.0746C12.5893 65.3081 12.8213 65.5999 13.1694 65.7166C13.3435 66.0668 13.6335 66.3002 13.8656 66.5921C14.0977 66.9422 14.6198 66.9422 14.7358 67.4091C14.7358 67.4675 14.8519 67.4675 14.9099 67.3508C14.9679 67.2924 14.9099 67.1757 14.9679 67.1173C14.9679 67.1173 14.9679 67.059 15.0259 67.059C15.2 67.1757 15.432 67.3508 15.6061 67.4675C15.49 67.3508 15.316 67.059 15.1419 66.8839V66.8255C15.2 66.6504 15.0259 66.5921 14.8519 66.5337C14.7358 66.5337 14.6198 66.417 14.6198 66.3002C14.6198 66.2419 14.5618 66.1835 14.5038 66.1252H14.5618C14.5038 66.0668 14.5038 66.0668 14.4458 66.0084C14.2717 65.7166 13.9236 65.4832 13.7496 65.1913C13.6335 64.9579 13.3435 64.7244 13.3435 64.491C13.3435 64.1992 13.5175 63.9074 13.6335 63.6739C13.6916 63.5572 13.6916 63.4405 13.7496 63.3821C13.7496 63.3237 13.8076 63.3237 13.8076 63.3237C13.9236 63.2654 13.8656 63.2654 13.8656 63.4404C13.9236 63.7323 14.0977 63.7906 14.3297 63.7906C14.5618 63.7906 14.5038 63.9074 14.4458 64.0824C14.3297 64.3159 14.6198 64.1992 14.7358 64.3159C14.7938 64.3743 14.8519 64.491 14.7358 64.491C14.3877 64.491 14.4458 64.7244 14.5618 64.8995C14.3877 65.0746 14.3877 65.3081 14.4458 65.5415C14.4458 65.5999 14.5038 65.5999 14.5038 65.6582C14.5038 65.6582 14.5618 65.6582 14.6198 65.5999C14.6778 65.5415 14.7938 65.4248 14.8519 65.3664C14.9679 64.8995 15.2 64.7244 15.6641 64.7244C15.8381 64.8412 16.0122 64.8412 16.1282 64.8412C16.0702 64.9579 16.0702 65.0746 16.0702 65.133C16.0702 65.1913 16.1282 65.2497 16.1862 65.3081C16.2442 65.3664 16.2442 65.4832 16.1862 65.5999C16.1282 65.5415 16.0702 65.5415 16.0122 65.4832C16.1282 65.3081 15.7221 64.8995 15.6641 65.133C16.0702 65.1913 15.6641 65.3664 15.7221 65.4248C15.8381 65.4832 15.9542 65.6582 16.0702 65.775C15.9542 66.0084 15.8381 66.2419 15.7801 66.4753C15.6641 66.8839 15.6641 67.234 16.0122 67.5259C16.3603 67.7593 16.4763 68.1095 16.4183 68.518C16.4183 68.6348 16.4183 68.7515 16.4183 68.8682C16.4183 68.9266 16.4183 68.9849 16.4183 69.0433C16.3603 69.0433 16.3022 69.0433 16.2442 68.9849C16.3022 69.0433 16.3603 69.1017 16.4763 69.16C16.4763 69.2184 16.4763 69.2184 16.4763 69.2767C16.0122 69.0433 15.548 68.6931 15.0839 68.2846C14.7358 67.9344 14.3297 67.6426 13.9816 67.2924C13.6335 66.9422 13.3435 66.6504 12.9954 66.417C13.1114 66.5337 12.6473 66.3002 12.5312 66.0668C12.5312 66.4753 13.2274 67.1757 13.2854 67.7593C13.5755 67.9928 13.7496 68.2262 13.7496 68.4597C13.8656 68.5764 13.9816 68.6348 14.0396 68.6348C13.9236 69.0433 15.6061 70.1522 15.258 70.2689C15.548 70.3857 15.8381 70.444 16.2442 70.6775C16.3603 70.6191 16.1862 70.5024 16.3022 70.444C16.5343 70.5607 16.7083 70.6775 16.8244 70.6191C16.3603 70.3273 16.1862 70.5024 15.7801 70.2689C15.9542 70.1522 15.7801 69.9771 15.548 69.9187C15.316 69.9771 15.7801 70.0938 15.6641 70.2106C15.548 70.1522 15.548 70.2689 15.374 70.1522C15.6641 70.0355 14.7358 69.7437 14.6778 69.3935C14.7358 69.3351 14.7938 69.2768 14.9099 69.3351C15.374 69.802 15.258 69.4518 15.49 69.5102C15.7221 69.6269 15.6061 69.7437 15.7801 69.9187C15.9542 69.7437 16.3603 69.9771 16.6503 70.2106C17.0564 70.3273 17.4625 70.3856 17.8687 70.444L17.9267 70.5024C18.1587 70.6775 18.3908 70.8525 18.6809 71.0276C18.7389 71.086 18.7969 71.0276 18.8549 70.9109C18.8549 70.6775 18.9709 70.444 18.7969 70.2106C18.5648 69.9771 18.3908 69.6269 17.9847 69.6269C17.8687 69.6269 17.7526 69.5686 17.6946 69.5102C17.6366 69.3935 17.5206 69.2767 17.4625 69.16H17.5206C17.4625 69.16 17.4045 69.1017 17.3465 69.0433C17.2305 68.8682 17.1145 68.6348 16.9984 68.4597C17.1145 68.1679 17.2305 67.8177 17.3465 67.5259C17.4045 67.4091 17.4045 67.2924 17.4045 67.234C17.4045 67.1757 17.3465 67.1757 17.3465 67.1757C16.9404 67.5259 16.8824 67.0006 16.6503 66.8839C16.4763 66.7671 16.4763 66.5921 16.4763 66.417C16.7083 66.3586 16.8244 66.8255 17.1145 66.7088L17.1725 66.7671C17.3465 67.0006 17.5786 67.2924 17.9267 67.4675C18.2167 67.701 18.5648 67.876 18.6809 68.0511C18.6809 67.9928 18.7969 67.9344 18.8549 67.9344C19.029 68.1679 19.8412 68.2846 19.4351 68.3429C19.6671 68.518 19.7832 68.4597 19.9572 68.4013C19.319 68.1679 18.8549 67.7593 18.3908 67.701C18.3328 67.4091 17.9267 67.234 17.6366 67.059C17.5206 67.0006 17.4045 66.9422 17.3465 66.8255C17.4045 66.8255 17.4625 66.7671 17.5206 66.7671V66.7088C17.4625 66.6504 17.4045 66.5921 17.4045 66.5337C17.3465 66.417 17.3465 66.3002 17.4625 66.2419C17.5786 66.1835 17.6946 66.1835 17.7526 66.2419C17.8106 66.3002 17.9267 66.3586 18.0427 66.417C18.0427 66.5337 18.0427 66.6504 18.1007 66.7671C18.1587 66.8255 18.2748 66.8839 18.3908 66.8839C18.5648 66.8839 18.6809 66.8839 18.8549 66.9422C18.7969 66.9422 18.6809 66.9422 18.9129 67.059C18.9709 67.059 19.087 67.059 19.145 67.1173C19.203 67.1173 19.203 67.1173 19.203 67.1173C19.6671 67.2924 20.1312 67.6426 20.4793 67.701C20.2473 67.5842 20.0732 67.4675 19.8992 67.2924C20.0152 67.2924 20.1313 67.2924 20.2473 67.2924L20.3053 67.234C20.3053 67.234 20.3053 67.1757 20.2473 67.1757C20.0732 67.059 19.8992 67.059 19.7832 67.1757C19.7832 67.1757 19.7832 67.234 19.7251 67.234C19.6091 67.1757 19.4931 67.1173 19.3771 67.0006C19.4931 66.9422 19.6091 66.8255 19.7251 66.8839C19.8412 66.8839 20.0152 66.8839 20.1313 66.8839C20.2473 67.0006 20.3633 67.1173 20.5374 67.1757C20.5954 67.059 20.8274 67.2924 20.8274 67.1173C20.8274 67.059 20.8274 67.059 20.8274 67.0006C21.0595 67.1173 21.2916 67.1173 21.5236 67.1173C21.7557 67.1173 21.9297 67.1757 22.0458 67.4675C22.1038 67.6426 22.2198 67.7593 22.3358 67.8177C22.3358 67.9344 22.3938 67.9928 22.5099 68.1095C22.2778 68.1095 22.1618 68.3429 21.8717 68.2262C21.9877 68.2846 22.1038 68.3429 22.1038 68.4597C21.9877 68.518 21.8137 68.4597 21.6977 68.5764C21.9877 68.6348 22.2778 68.8098 22.5679 69.1017C22.6839 68.8682 23.09 69.16 23.2061 69.2184C23.09 69.2767 22.858 69.2184 22.6839 69.1017C22.7419 69.3935 22.3938 69.0433 22.3938 69.2184C22.6839 69.3935 23.6702 69.2184 23.8442 69.7437C23.2061 69.4518 23.032 69.5686 22.5679 69.5102C22.3358 69.7437 22.3938 69.9187 22.6259 70.0355L22.6839 69.9187C22.858 69.9771 22.858 70.0355 22.974 70.0938C22.916 70.0938 22.858 70.1522 22.916 70.2106C22.858 70.3273 22.8 70.0938 22.6259 70.0938C22.858 70.2689 23.2061 70.444 23.4381 70.6775C24.1343 70.8526 25.0045 71.4945 25.5847 71.4945C25.3526 71.3778 24.8305 71.2611 24.8305 70.9693C25.0625 70.7942 25.2366 71.2611 25.4106 71.086C25.1206 70.9109 24.9465 70.9693 24.8305 70.7358C24.9465 70.7942 24.9465 70.6775 25.0045 70.6775C25.2946 70.8526 25.5847 71.086 25.5267 71.2027C25.5267 71.0276 25.7007 71.3778 25.7587 71.2611C25.6427 71.2027 25.7007 71.086 25.7007 70.9693C25.3526 70.8526 25.1206 70.6775 25.1206 70.5024C25.5847 70.444 25.9328 70.7358 26.2809 70.7358C26.3389 70.8525 26.4549 71.0276 26.5709 71.086C26.687 71.2027 26.803 71.1444 26.861 71.1444C26.9771 71.086 26.9771 70.9693 27.1511 71.0276C27.3251 71.1444 27.5572 71.2027 27.7312 71.3778C28.0793 71.728 28.4854 71.9614 28.9496 72.1365L28.8916 72.1949C28.4274 72.1365 28.1374 72.2533 27.6732 72.0198C27.6732 72.0782 27.7312 72.0782 27.7312 72.0782C27.4412 72.0198 27.1511 71.9614 26.861 71.9031C26.687 72.1949 27.2091 71.9031 27.1511 72.1365C26.9771 72.1949 26.3389 72.0198 26.3389 71.8447C26.4549 71.9031 26.629 71.9614 26.745 72.0198C26.687 71.9031 26.5129 71.8447 26.3389 71.7864C26.2229 71.728 26.1648 71.6696 26.1068 71.6113C26.0488 71.6113 25.6427 71.6113 25.8167 71.6696C25.8167 71.6696 25.8167 71.6696 25.8748 71.6696C25.2946 71.5529 24.7725 71.3195 24.2503 71.2027C23.6122 70.9693 22.974 70.7942 22.3358 70.7942C22.2198 70.5024 21.9297 70.444 21.6977 70.3857C21.0015 70.1522 20.4793 69.7437 20.1313 69.3935C19.8992 69.6853 19.6091 68.9266 19.261 68.9266C19.261 68.8682 19.203 68.8098 19.319 68.8098C18.6229 68.7515 18.5648 67.9928 17.8687 67.7593C18.1587 67.9928 17.4625 67.8177 18.0427 68.1679C18.2167 68.1095 17.9847 67.876 18.1587 67.9928C17.9847 68.2262 18.6229 68.518 18.6809 68.8682C19.203 68.8682 19.4931 69.3351 20.0152 69.6853C20.0152 69.802 20.0152 70.1522 20.3053 70.0938C20.0152 69.9771 20.4213 69.9771 20.4793 69.9187C20.7694 70.0355 21.0015 70.2689 21.2916 70.444C21.1175 70.5024 20.9435 70.5607 20.8854 70.5607C20.9435 70.6191 21.0015 70.6191 21.0595 70.6191C21.0595 70.6775 21.0595 70.6775 20.9435 70.7942C21.2916 71.0276 21.3496 70.9109 21.5236 70.9109C21.2916 71.1444 22.3358 71.4362 22.5679 71.728C22.5679 71.6113 22.6839 71.6113 22.858 71.6696C22.8 71.728 22.7419 71.728 22.8 71.7864C24.3083 72.3116 25.7587 72.7202 27.1511 73.1287C27.6732 73.0704 29.0656 73.3038 28.8916 73.7707C30.574 74.296 32.4305 74.4127 34.345 74.5878C34.9832 74.3543 35.7954 74.4711 36.3755 74.5294C36.3175 74.5294 36.5496 74.4127 36.7236 74.4711C37.3038 74.6461 36.3175 74.8796 35.7954 74.8212C36.2595 74.8212 35.7954 75.1714 35.7374 75.2881C34.7511 75.4049 33.9969 75.3465 33.1267 75.4049C32.8946 75.3465 32.8946 75.2298 32.6045 75.2298C32.1984 75.4049 31.8503 75.0547 31.3862 75.0547C31.1542 75.0547 30.9221 75.2298 30.69 75.2298C30.4 75.1714 30.1679 74.938 29.9358 74.938C29.8198 74.938 29.5297 74.938 29.4137 74.938C29.4137 74.938 29.4717 74.8212 29.5297 74.8796C29.2977 74.8212 29.1236 74.938 28.8916 74.938C28.8335 74.938 28.8335 74.7629 28.8335 74.7629C28.5435 74.5878 28.1374 74.7629 27.7893 74.7045C27.5572 74.5294 28.1374 74.5294 27.7312 74.4711C27.6732 74.6461 27.3251 74.5294 27.1511 74.5878C26.9771 74.2376 26.1648 74.3543 26.3389 74.1209C26.0488 74.0625 25.6427 74.0625 25.2366 73.9458C24.8305 73.8291 24.4824 73.7707 24.1923 73.654C24.3083 73.7123 24.2503 73.7707 24.2503 73.8291C23.6122 73.5956 23.4381 73.5372 23.09 73.4789C23.09 73.4205 23.148 73.4205 23.2061 73.4205C22.7419 73.2454 22.2778 73.1287 21.9297 72.9536C21.5816 72.7785 21.2335 72.6034 20.9435 72.4867C20.8274 72.4867 20.7694 72.5451 20.6534 72.5451C20.4793 72.3116 20.4213 72.37 20.2473 72.4284C20.1313 72.2533 20.2473 72.1365 20.0152 72.0782C20.2473 72.3116 19.6091 72.0782 19.4351 72.0198C19.4931 71.9031 19.261 71.8447 19.3771 71.7864C19.3771 71.6696 19.6091 71.8447 19.6671 71.7864C19.145 71.5529 19.087 71.6696 18.9129 71.8447C19.087 72.0198 19.3771 72.1365 19.5511 72.3116C19.8412 72.1365 20.5954 72.7202 20.7694 72.8953C20.6534 72.8369 20.6534 72.9536 20.5954 72.8953C20.5954 72.8369 20.6534 72.7785 20.5954 72.7202C20.0152 72.7785 19.5511 72.37 18.9709 72.0198C19.087 72.3116 18.7389 72.0782 18.6809 72.2533C19.319 72.5451 19.9572 72.8369 20.5374 73.1287C20.3053 72.8953 20.8274 73.1287 20.9435 73.0703C21.0595 73.1871 21.4656 73.5372 21.6396 73.5372C21.5236 73.4789 21.5816 73.4205 21.6396 73.3622C21.8717 73.7123 22.4519 73.8291 22.916 74.0625C22.3938 73.8291 22.6259 74.0625 22.1618 73.9458C22.5099 74.1209 22.6839 74.296 23.032 74.2376L22.974 74.3543C23.3801 74.4127 23.9022 74.6461 24.4244 74.8796C24.7145 74.9963 24.9465 75.113 25.2366 75.2298C25.5267 75.2881 25.8167 75.3465 26.0488 75.4049C26.0488 75.4632 25.9908 75.5216 26.1068 75.58C27.0931 75.6383 28.3694 76.2803 28.8335 76.1636C28.8335 76.3387 28.3694 76.3387 28.1954 76.1636C28.1954 76.5138 28.7755 76.397 29.0076 76.397V76.5138C29.3557 76.5138 29.5877 76.3387 29.9358 76.3387C30.4 76.397 30.516 76.6305 31.1542 76.6889C30.9801 76.4554 31.7923 76.7472 32.0824 76.6889C31.6183 76.6305 31.8503 76.5721 32.2564 76.6305C32.6625 76.6305 33.1267 76.6889 33.1267 76.8639C32.8366 76.8056 32.7786 76.9807 32.6045 76.9807C33.1267 76.9807 32.8366 77.039 32.9526 77.2725C33.3587 77.2141 33.4167 77.3892 33.6488 77.3892C33.5908 77.2141 33.2427 77.2141 33.1267 77.0974C33.2427 77.0974 33.3007 77.0974 33.4167 77.039C33.6488 77.0974 33.7648 77.3892 33.9389 77.1558C33.9389 77.2141 33.9389 77.3308 33.9969 77.3308C33.2427 77.3308 32.7786 77.3892 32.2564 77.3308C31.7923 77.2725 31.2702 77.1558 30.632 76.9807C30.2259 76.9807 29.8198 76.8639 29.3557 76.8056C28.9496 76.6889 28.4854 76.6305 28.0793 76.6889C28.0793 76.5721 27.7893 76.5721 27.8473 76.4554C26.687 76.3387 25.6427 75.5216 24.6564 75.6383C24.8885 75.755 25.2946 75.8134 25.2366 75.9301C24.9465 75.8718 23.6702 75.58 24.0763 75.3465C23.8442 75.2881 23.6702 75.2881 23.3801 75.1714C23.2061 75.3465 23.8442 75.3465 23.7862 75.4632C23.3801 75.3465 22.4519 75.1131 22.2778 74.7629C21.4656 74.4711 20.8274 74.1792 20.2473 73.8874C19.6671 73.5956 19.145 73.3038 18.7389 72.8953C18.5648 73.0703 18.6229 72.7202 18.4488 72.6618C18.2167 72.6034 18.3908 72.8953 18.2748 72.8369C18.2167 72.7785 18.1587 72.8369 18.1007 72.7785C17.7526 72.6618 17.8687 72.4867 17.6946 72.37C17.5206 72.4284 17.1725 72.1365 16.8824 71.9614C16.9984 71.6113 16.3022 71.4945 16.0122 71.2611C15.374 70.8526 14.7358 70.2689 14.0977 69.7437C13.4595 69.2184 12.8213 68.7515 12.4152 68.3429C13.0534 69.0433 13.4015 69.1017 13.8656 69.7437C14.3877 69.9771 14.8519 70.3857 15.316 70.7942C15.8381 71.2027 16.3603 71.5529 16.8824 71.8447C16.8244 71.9614 16.9404 72.0782 16.9404 72.1365C16.8244 72.1365 16.5923 72.0198 16.4763 72.0198C16.7083 72.3116 17.6946 72.5451 18.1007 73.1287C18.2167 73.012 18.4488 73.2454 18.6229 73.3622C19.029 73.1871 20.3053 73.8291 20.7114 74.1209C20.6534 74.1792 19.9572 73.7707 20.1893 74.0042C20.4213 74.1209 20.7114 74.2376 20.6534 74.3543C20.4793 74.296 20.1893 74.0625 20.1313 74.1792C20.3633 74.3543 20.9435 74.5294 20.7114 74.7629C21.0595 74.938 20.6534 74.5294 21.0595 74.7045C21.0595 74.7629 21.1175 74.7629 21.2335 74.8212C21.2335 75.0547 21.0015 74.9963 20.8274 74.9963C21.1755 75.2881 21.2335 75.1131 21.2916 75.0547C21.5236 75.2881 21.0015 75.1131 21.1755 75.3465C21.5236 75.58 21.9297 75.755 22.1038 75.8134C21.9877 75.755 21.9877 75.6967 21.9877 75.6383C22.1618 75.6967 22.3938 75.6383 22.4519 75.8134C22.3358 75.755 22.2198 75.6967 22.1618 75.755C22.6259 76.0469 23.4381 76.2219 23.6702 76.5721C23.9022 76.5721 23.5541 76.397 23.8442 76.397C24.3664 76.5138 24.2503 76.7472 24.5984 76.8639C24.6564 76.8056 24.5404 76.5721 24.7725 76.6305C25.0625 76.7472 25.6427 76.8056 25.5267 76.9807C25.4106 76.9807 24.8305 76.8639 25.0625 76.9807C25.5847 77.039 25.9328 77.2141 26.2229 77.0974C26.5709 77.2725 26.1068 77.3308 26.4549 77.4476C26.5709 77.4476 26.5129 77.2725 26.687 77.2725C26.803 77.3892 27.7312 77.8561 27.3251 77.5059C27.7312 77.6227 27.7893 77.681 28.3114 77.7978C28.3114 77.7394 28.3114 77.6227 28.4274 77.6227C29.1816 77.8561 29.9358 77.9728 30.632 78.0312C31.3282 78.0896 32.0244 78.2063 32.7206 78.323C32.7786 78.2646 32.6045 78.2063 32.7206 78.1479C33.2427 78.2646 33.6488 78.323 34.0549 78.1479C34.0549 78.2063 33.9969 78.2647 33.9389 78.2647C34.345 78.2063 34.8091 78.323 35.1572 78.4397C34.8671 78.6148 34.403 78.4397 34.287 78.7316C34.9251 78.7316 35.2152 78.323 35.9694 78.4397C36.0854 78.323 35.7374 78.2647 35.9694 78.2647C36.2595 78.323 36.3175 78.323 36.5496 78.2063C36.5496 78.3814 36.8396 78.3814 37.0137 78.4397C37.7679 78.2063 38.5221 78.4981 39.1603 78.1479C39.5084 78.1479 39.9725 78.1479 40.3786 78.1479C40.7847 78.0896 41.2488 78.0312 41.7129 77.9728C42.5832 77.7978 43.3954 77.6227 43.9755 77.3892C44.0916 77.5059 44.4977 77.3308 44.4977 77.5059C44.9618 77.2141 45.3679 77.3892 45.658 77.0974C45.5419 77.0974 45.4259 77.1558 45.4259 77.039C45.658 76.9223 45.658 76.9223 46.0641 76.8056C46.1221 76.8639 46.1221 76.9807 46.2961 76.9223C46.4702 76.5138 47.3404 76.6305 47.7465 76.5721C47.7465 76.4554 47.5725 76.5138 47.5145 76.4554C47.8625 76.3387 48.5007 76.0469 48.6748 76.2803C48.4427 76.397 48.2687 76.2219 48.2106 76.397C48.3267 76.3387 48.3267 76.4554 48.4427 76.4554C49.3129 75.8134 50.6473 75.4049 51.2854 75.2298C51.5175 75.113 51.5755 74.938 51.6335 74.8796C51.9236 74.7629 52.2137 74.8796 52.6198 74.5878C52.5618 74.6461 52.7358 74.5294 52.9679 74.4127C53.0259 74.3543 53.8961 73.8291 54.1862 73.8874C54.3022 74.0042 53.548 74.296 53.8381 74.2376C54.1282 74.0625 54.1862 73.9458 54.5343 73.8874C54.4183 73.7707 54.5343 73.7123 54.6503 73.5956C54.7664 73.5372 54.9404 73.4789 55.0564 73.4789C54.8244 73.7123 54.4763 73.8874 54.4183 74.1209C54.9404 73.8291 55.6946 73.012 55.8687 73.4205C55.8687 73.3622 55.9847 73.3038 56.0427 73.3038C55.7526 73.5956 55.9847 73.5956 55.7526 73.8874C56.1587 73.3622 56.6809 73.1287 57.145 72.8953C57.6091 72.6034 58.1312 72.37 58.3633 71.7864C58.4213 71.8447 58.3633 71.9614 58.4213 72.0198C58.6534 71.8447 58.5374 71.728 58.8854 71.5529C58.9435 71.6113 59.0595 71.5529 59.0595 71.6696C59.2335 71.4945 59.4656 71.3195 59.5236 71.2027C59.1755 71.4945 59.0015 71.4945 58.8274 71.4362C59.4076 71.086 59.4656 70.7358 60.1038 70.5607C59.7557 70.7358 59.9877 70.8525 59.6396 71.0276C59.8137 71.086 59.8717 71.2611 60.1038 71.0276C60.0458 70.9693 59.9877 70.9109 60.0458 70.7942C60.1038 71.0276 61.2061 70.3273 61.6122 69.9187C61.5541 69.6853 61.3221 69.9771 61.2641 69.802C61.3801 69.7437 61.5542 69.6269 61.7282 69.4518C61.6702 69.6853 61.6702 69.6269 61.8442 69.7437C62.0763 69.5686 61.8442 69.5102 62.0183 69.3935C62.1343 69.5686 62.4824 69.1017 62.5984 69.16C62.7725 68.7515 63.0045 68.7515 63.0045 68.9266C63.1786 68.5764 63.2946 68.518 63.4106 68.2262C63.5847 68.1679 63.4687 68.2846 63.5267 68.3429C63.8167 67.9928 63.7587 68.0511 64.0488 67.9344C64.1068 67.8177 64.1068 67.6426 64.1648 67.5259C64.3389 67.4675 64.4549 67.234 64.3389 67.5842C65.1511 66.8839 64.919 66.2419 65.3832 65.8917C65.1511 65.5999 65.5572 65.3664 65.9053 65.1913C65.9053 65.0163 65.6152 65.2497 65.7313 65.0746C65.9633 64.9579 66.1374 64.7828 66.3114 64.4326C66.4855 64.491 66.3694 64.6661 66.3694 64.7244C66.4274 64.491 66.7175 64.3159 66.6595 64.2575C66.5435 64.3743 66.4855 64.3743 66.3694 64.3743C66.4855 64.1992 66.4855 64.0824 66.6595 63.9074L66.7755 64.0241C67.0656 63.207 67.9358 62.4483 67.9358 62.0397C68.0519 61.7479 68.1679 61.923 68.2839 61.8063C68.2259 61.7479 68.1679 61.8063 68.1099 61.8063C68.1679 61.5728 69.0381 60.8141 68.516 61.1643C68.748 60.8141 68.9801 60.7558 69.0381 60.4639C68.9221 60.639 68.8061 60.5807 68.9221 60.4056C68.9221 60.5807 69.0381 60.5223 69.1542 60.2889C69.1542 60.1721 69.2122 59.997 69.2702 59.8219C69.2702 60.1138 69.5603 59.4718 69.6183 59.355C69.5603 59.4134 69.5022 59.5301 69.5022 59.4718C69.5603 59.2967 69.7343 58.8298 69.9083 58.713C69.9664 58.7714 69.7343 59.0632 69.7923 59.0632C70.0244 58.8298 69.9664 58.6547 70.0824 58.3629C70.4305 58.3629 70.3145 57.4291 70.6626 57.4874C70.4305 57.7792 70.3725 58.1294 70.3145 58.4212C70.2564 58.713 70.1984 58.9465 69.9083 59.0632C70.1404 59.2383 69.8503 59.4134 69.6763 59.8219C69.8503 59.8219 69.6763 59.997 69.7343 60.0554C70.0244 59.7052 69.8503 59.7636 69.8503 59.6469C69.9664 59.5885 70.0244 59.355 70.1404 59.4718C70.0824 59.5885 69.9664 59.7052 70.0244 59.7636C70.1984 59.4134 70.3725 59.2383 70.4885 59.2383C70.5465 59.0049 70.6625 58.8298 70.8366 58.538C70.9526 58.3045 71.1267 57.9543 71.3587 57.4874C71.3587 57.3123 71.1847 57.5458 71.2427 57.254C71.9969 56.2034 72.1129 54.9778 72.519 54.1024C72.461 53.8689 72.1709 54.1607 72.345 53.7522C72.519 53.5771 72.577 53.6355 72.6351 53.7522C72.7511 52.8768 73.2152 52.4098 73.5053 51.476C73.2152 51.0091 73.9114 49.7835 73.7374 49.1415C73.6793 49.6084 73.5633 50.1337 73.3313 50.3088C73.2732 49.9002 73.4473 48.8497 73.7374 49.0248C73.6793 48.4995 74.1435 48.091 73.9114 47.8575C74.2595 47.7992 74.4335 46.7486 74.4335 46.1066C74.4335 46.2234 74.4916 45.9899 74.5496 45.7565C74.6076 45.1145 74.7236 44.4141 74.7816 43.7138C74.7816 43.1885 74.7816 42.6049 74.7816 42.138C74.8396 42.138 74.8977 42.138 74.9557 42.138C74.8977 41.5543 74.8977 40.9707 74.8396 40.3871C74.8396 40.3871 74.8397 40.3871 74.8977 40.3871C74.8397 40.0953 74.8396 39.9785 74.7816 39.7451C74.7816 39.57 74.7236 39.3365 74.7236 39.1614C74.8397 38.928 74.8977 38.4611 74.8977 38.2276C74.8977 38.4027 75.0137 38.3444 75.0137 38.5778C74.9557 38.9864 74.9557 39.5116 75.1297 39.8034C75.0717 39.9785 75.0717 39.9785 74.9557 39.9202C75.0717 41.0291 74.8977 41.9045 75.1297 42.8967C74.9557 42.6632 74.9557 43.8305 75.1297 43.597C75.0137 44.239 74.8396 45.0561 74.7816 45.8732C74.7236 46.2817 74.7236 46.6903 74.7236 47.0988C74.7236 47.2739 74.7236 47.449 74.7236 47.6824C74.7236 47.8575 74.7236 48.0326 74.7236 48.1493C74.7816 47.6824 75.0717 46.807 74.9557 46.3985C75.1297 46.6319 75.0717 45.9899 74.9557 45.9316H75.1297C75.9419 44.239 75.9419 42.0212 76 39.9202ZM62.0763 12.8981C62.2503 12.8397 62.3664 13.0732 62.4244 13.1899C62.3664 13.3066 62.1343 12.9565 62.0763 12.8981ZM21.4076 73.012C21.4076 72.7785 21.8137 73.1287 21.8717 73.0703C22.0458 73.2454 21.6396 73.1287 21.4076 73.012ZM24.1923 74.6461C24.3083 74.4127 24.4824 74.7045 24.7725 74.8212C24.7725 74.8796 24.4244 74.7045 24.1923 74.6461ZM24.9465 73.8874C25.0045 73.7707 25.3526 73.8874 25.4687 74.0042C25.4106 74.1209 25.0625 73.9458 24.9465 73.8874ZM30.9801 76.397C31.0381 76.397 31.2122 76.397 31.3282 76.397C31.3282 76.4554 31.2702 76.5138 31.3862 76.5721C31.3282 76.6889 30.8641 76.5138 30.9801 76.397ZM33.8229 76.9807C33.7648 76.8639 33.9969 76.8639 33.9969 76.8056C33.3007 76.6305 32.5465 76.7472 32.3145 76.3387C32.9526 76.5138 33.1847 76.397 33.6488 76.2803C33.7648 76.3387 33.8229 76.397 33.9969 76.4554C33.8809 76.5721 33.7648 76.5138 33.5328 76.4554C33.5908 76.6305 33.8229 76.7472 34.229 76.8056C34.345 76.9807 34.1709 76.9807 33.8229 76.9807ZM72.287 49.5501C72.403 49.5501 72.229 49.8419 72.229 50.017C72.1709 49.9586 72.1709 49.9002 72.1709 49.8419C72.1709 49.7835 72.1709 49.6668 72.287 49.5501C72.229 49.6084 72.229 49.6084 72.287 49.5501ZM71.4748 55.97C71.3007 56.3202 71.3587 56.2618 71.1847 56.6703C71.0687 56.7871 70.8946 56.612 71.0687 56.3202C71.1847 56.6703 71.1847 55.9116 71.4748 55.97ZM47.6885 74.296C47.6885 74.4127 47.2244 74.4711 47.0503 74.5878C47.1083 74.296 47.3404 74.4127 47.6885 74.296ZM43.0473 76.3387C42.5251 76.397 42.2931 76.3387 41.7709 76.2803C42.003 76.0469 42.5251 76.1636 43.0473 75.9885C43.1053 76.1052 42.9893 76.2219 43.0473 76.3387ZM40.3206 76.397C40.2625 76.5721 40.0305 76.397 39.9725 76.397C39.9145 76.2803 40.2045 76.3387 40.2045 76.2219C40.5526 76.1636 40.0305 76.397 40.3206 76.397ZM41.4229 76.3387C41.3648 76.4554 41.1328 76.5138 41.1328 76.6305C41.0167 76.5138 40.3786 76.7472 40.3206 76.5721C40.6687 76.6305 40.9587 76.2803 41.4229 76.3387ZM40.7847 75.6383C40.4946 75.6967 40.2625 75.8134 39.7984 75.8718C39.5664 75.6383 40.0305 75.5216 40.4946 75.4049C41.0167 75.2881 41.6549 75.2298 41.887 75.113C42.2931 75.1714 42.3511 75.3465 41.887 75.5216C41.887 75.4632 41.945 75.4632 41.945 75.4049C41.3648 75.4632 41.0167 75.5216 40.7847 75.6383ZM39.9145 76.397C39.2763 76.5721 37.7679 76.5721 38.116 76.3387C38.5801 76.5138 39.1603 76.2803 39.9145 76.397ZM42.2931 75.2881C42.2351 75.1714 42.4671 75.113 42.5832 75.113C42.6412 75.1714 42.4671 75.3465 42.2931 75.2881ZM42.9893 73.7707C42.4091 73.8874 41.7709 73.9458 41.3068 74.0042C41.1328 74.0625 41.4229 74.2376 41.5969 74.1792C41.5389 74.3543 41.2488 74.2376 41.0748 74.2376C41.0748 74.1792 41.1328 74.1209 41.1328 74.0042C41.0748 73.8874 40.7267 74.0625 40.5526 74.0625C41.0748 73.7123 41.6549 73.5956 42.2931 73.5372C42.6412 73.4789 42.9312 73.4789 43.3374 73.4205C43.6854 73.3622 44.0916 73.2454 44.4977 73.1287C44.4977 73.1871 44.4977 73.2454 44.6137 73.2454C44.3816 73.3622 44.1496 73.4789 43.8595 73.5372C43.7435 73.5956 43.5694 73.5956 43.4534 73.654C43.2793 73.7123 43.1053 73.7707 42.9893 73.7707ZM23.2641 67.876C23.3221 67.876 23.3221 67.876 23.3801 67.876C23.3801 67.876 23.3801 67.876 23.3801 67.9344C23.2641 67.9344 23.2061 67.876 23.2061 67.876C23.2061 67.876 23.2061 67.876 23.2641 67.876ZM18.5648 65.8917L18.5068 65.9501C18.5068 65.9501 18.4488 65.9501 18.4488 65.8917C18.4488 65.8917 18.4488 65.8333 18.5068 65.8333C18.5068 65.8333 18.5068 65.775 18.5648 65.775C18.5068 65.8333 18.5648 65.8917 18.5648 65.8917ZM33.4167 11.3807C33.3587 11.439 33.2427 11.4974 33.1267 11.4974H33.0687C33.0106 11.4974 32.8946 11.4974 32.7786 11.4974C33.0106 11.3807 33.1847 11.3807 33.4167 11.3807ZM73.8534 30.9323C73.9114 31.1657 73.8534 31.2241 73.7954 31.3408C73.7374 31.1074 73.6793 30.8155 73.6213 30.5237C73.6213 30.4654 73.6213 30.407 73.6213 30.407C73.8534 30.9323 73.6213 30.8739 73.8534 30.9323ZM73.9694 31.3992C74.0274 31.5743 74.0274 31.691 74.0274 31.8077C74.0274 31.8077 74.0274 31.8077 73.9694 31.8077C73.9114 31.7493 73.9114 31.691 73.8534 31.691C73.9114 31.4575 73.8534 31.3408 73.9694 31.3992ZM73.6793 43.7138C73.6793 43.597 73.6793 43.4803 73.6213 43.4803C73.6213 43.2469 73.6793 43.0718 73.7374 42.8967C73.7954 42.955 73.7954 43.0134 73.8534 43.0718C73.8534 42.955 73.8534 42.8383 73.7954 42.7216V42.6632V42.6049C73.7954 42.5465 73.7954 42.5465 73.8534 42.4881C73.8534 42.6632 73.9694 42.6632 73.9114 42.955C73.5633 43.3636 73.7954 43.1885 73.6793 43.7138ZM43.1633 11.8476C43.1053 11.8476 43.0473 11.8476 43.0473 11.8476C43.1053 11.8476 43.1633 11.8476 43.1633 11.8476C43.2213 11.8476 43.2213 11.8476 43.1633 11.8476ZM66.8335 21.3024C66.6595 21.3024 66.5435 21.244 66.5435 21.0689C66.6595 21.1273 66.7755 21.1856 66.8335 21.3024ZM73.5633 40.9123C73.5633 40.7372 73.5633 40.6205 73.5053 40.4454C73.5053 40.4454 73.5053 40.4454 73.5053 40.3871C73.5633 40.2703 73.6213 40.1536 73.7374 40.0953C73.7374 40.2703 73.7374 40.3871 73.7374 40.5622C73.7374 40.9123 73.7954 41.2041 73.7954 41.5543C73.7374 41.5543 73.6213 41.5543 73.6213 41.7294C73.6793 41.7294 73.7954 41.6711 73.7954 41.8461C73.7374 42.138 73.6793 42.3714 73.6213 42.5465C73.6213 42.0212 73.6213 41.496 73.5633 40.9123ZM73.7374 39.57V39.6283C73.7374 39.6283 73.7374 39.6284 73.7374 39.57ZM68.9221 23.5785C68.8061 23.4618 68.8061 23.2867 68.9801 23.17C68.9801 23.17 68.9801 23.17 69.0381 23.17C69.2122 23.3451 69.3282 23.5785 69.5022 23.8703C69.2702 23.9287 69.1542 23.8703 68.9221 23.5785ZM68.8061 22.9365C68.632 22.8782 68.516 22.7614 68.458 22.5864C68.574 22.7031 68.69 22.8198 68.8061 22.9365ZM74.7236 34.9593C74.7236 34.9009 74.7816 34.8426 74.8396 34.7259C74.8396 34.9009 74.8396 35.0177 74.7816 35.076C74.7236 35.076 74.7236 35.0177 74.7236 34.9593ZM74.6076 34.0839C74.6076 34.0255 74.6076 34.0255 74.6076 33.9671C74.6656 34.0255 74.6656 34.0839 74.7236 34.1422C74.6656 34.1422 74.6656 34.0839 74.6076 34.0839ZM74.3175 33.0917C74.2015 33.3835 74.3755 33.6753 74.4335 33.617C74.4335 33.7337 74.3755 33.7921 74.3755 33.7921C74.3175 33.7337 74.3175 33.6753 74.2595 33.617C74.2595 33.5586 74.2595 33.5586 74.2595 33.5002C74.2015 33.4419 74.1435 33.3835 74.0854 33.3251C74.0274 33.2668 74.0274 33.2084 74.0274 33.2084C73.9694 33.0917 74.0854 32.975 74.2015 32.975C74.2015 33.0333 74.2595 33.0333 74.3175 33.0917C74.3175 33.0333 74.3175 33.0333 74.3175 33.0917ZM33.9969 11.4974C33.9389 11.4974 33.8809 11.4974 33.8229 11.439C33.8809 11.439 33.9389 11.4974 33.9969 11.4974ZM45.774 74.4127C45.832 74.6461 45.5419 74.4711 45.3099 74.5878C45.3679 74.4127 45.5419 74.4127 45.774 74.4127ZM64.803 65.1913C64.919 65.3664 64.5709 65.4832 64.3389 65.775C64.2809 65.7166 64.1648 65.775 64.1068 65.7166C64.3389 65.5415 64.5709 65.3081 64.803 65.1913ZM65.2091 64.6077C65.2671 64.6661 65.3251 64.7244 65.3832 64.6077C65.4992 64.7244 65.1511 65.0746 64.9771 65.133C64.9771 65.0746 65.0351 64.8412 65.2091 64.6077ZM72.403 49.0832C72.461 49.0832 72.461 49.1415 72.403 49.0832C72.403 49.2582 72.403 49.2582 72.345 49.2582C72.403 49.1999 72.403 49.1415 72.403 49.0832ZM73.5053 45.4063C73.5053 45.3479 73.5053 45.2312 73.5053 45.1728C73.5053 45.1728 73.5633 45.1145 73.6213 45.1145C73.5633 45.2312 73.5053 45.2896 73.5053 45.4063ZM73.6793 44.8227C73.6793 44.7059 73.6213 44.5308 73.6213 44.4141C73.6793 44.2974 73.6793 44.1807 73.7374 44.0056C73.7374 44.3558 73.6793 44.4725 73.6793 44.8227ZM74.8396 36.7102C74.8977 36.4767 74.8977 36.2433 74.8396 35.9515C75.1297 36.0682 75.0137 36.7102 74.8396 36.9437C74.8396 36.8853 74.8396 36.7686 74.8396 36.7102ZM74.7816 35.3095C74.8396 35.4262 74.8977 35.6013 74.9557 35.8348C74.7816 35.9515 74.7236 35.4262 74.7816 35.3095ZM74.0854 30.6988L73.9114 30.7572C73.8534 30.5821 73.9694 30.3486 73.7954 30.2903C73.7374 29.9985 73.9114 30.3486 73.9694 30.3486C73.9694 30.2319 73.9114 30.1735 73.8534 30.0568C73.9114 30.0568 73.9114 29.9985 73.9694 29.9401C74.0274 30.1152 74.0854 30.3486 74.0854 30.6988ZM73.6793 29.0646C73.6213 29.0646 73.5633 28.8896 73.5633 28.7728C73.6213 28.7728 73.6213 28.7145 73.6793 28.7145C73.7954 28.9479 73.6793 28.9479 73.6793 29.0646ZM72.8671 28.1892H72.9251C73.0992 28.3059 73.2152 28.4227 73.2732 28.6561C73.2732 28.7728 73.3893 28.7728 73.4473 28.7728C73.4473 28.8312 73.5053 28.9479 73.5053 29.0063C73.4473 29.0063 73.4473 29.123 73.4473 29.123C73.3313 28.7145 73.0992 28.8312 73.3893 29.0646C73.3893 29.123 73.3893 29.1814 73.4473 29.2397C73.2732 29.2397 73.1572 29.2397 72.9832 29.2397C72.9251 29.2397 72.8671 29.123 72.8671 29.0646C72.9251 28.9479 73.0412 28.7728 72.9832 28.6561C72.9832 28.5394 72.8091 28.4227 72.8091 28.2476L72.8671 28.1892ZM71.2427 25.096C71.1847 25.096 71.1267 25.0376 71.0687 25.096C71.0106 25.0376 71.0106 24.9209 70.9526 24.8625C70.9526 24.8041 70.9526 24.7458 70.9526 24.6874C71.0106 24.8041 71.1267 24.9209 71.2427 25.096ZM64.919 16.3415C64.9771 16.3999 64.9771 16.3999 65.0351 16.4582C65.0351 16.4582 65.0351 16.4582 65.0351 16.5166C64.803 16.4582 64.745 16.2248 64.629 15.933C64.687 16.1081 64.803 16.2248 64.919 16.3415ZM61.5541 15.291C61.5541 15.3493 61.4961 15.291 61.4961 15.291C61.4961 15.291 61.4961 15.291 61.5541 15.291ZM32.0824 11.5558C32.0824 11.6141 32.0824 11.6141 32.0824 11.6725C32.1984 11.6725 32.2564 11.6141 32.2564 11.5558C32.4305 11.5558 32.5465 11.5558 32.7206 11.5558C32.6625 11.6725 32.5465 11.7892 32.4305 11.8476C32.2564 11.9643 32.1404 11.9059 32.0244 11.6725C31.9664 11.6725 31.9083 11.7308 31.8503 11.7308C31.5603 11.9059 31.4442 11.9059 31.2702 11.6725C31.5603 11.6141 31.8503 11.6141 32.0824 11.5558ZM29.8198 11.9643C30.1099 11.9059 30.3419 11.9059 30.574 11.9059C30.516 11.9643 30.458 11.9643 30.3419 11.9643C30.2839 11.9643 30.1679 11.9643 30.1099 12.0227C29.8778 12.3728 29.4137 12.081 29.1236 12.3145C28.9496 12.4896 28.8335 12.3728 28.7175 12.2561C29.1236 12.081 29.4717 12.0227 29.8198 11.9643ZM10.5587 58.8881C10.5007 58.8881 10.5007 58.7714 10.5007 58.713C10.5007 58.6547 10.5007 58.6547 10.5587 58.6547L10.6167 58.5963C10.6748 58.6547 10.6748 58.713 10.6748 58.7714C10.6748 58.8298 10.6748 58.9465 10.5587 58.8881ZM11.603 61.8647C11.603 61.923 11.545 61.9814 11.487 61.9814L11.429 61.923C11.429 61.8063 11.429 61.6896 11.429 61.6312C11.3709 61.6312 11.3129 61.5728 11.2549 61.5728V61.5145C11.3709 61.5145 11.3709 61.5728 11.3709 61.6896C11.545 61.5728 11.661 61.6896 11.603 61.8647ZM12.2992 62.5066C12.2412 62.4483 12.1832 62.4483 12.1251 62.3899C12.1832 62.3316 12.2412 62.2732 12.2992 62.2732C12.3572 62.2732 12.4152 62.3316 12.4732 62.3899C12.4152 62.4483 12.3572 62.4483 12.2992 62.5066ZM12.7633 62.9735C12.7633 63.0319 12.7633 63.1486 12.6473 63.1486V63.0903C12.6473 63.0319 12.7053 63.0319 12.7633 62.9735C12.7633 62.7985 12.7633 62.6817 12.8793 62.565C12.9374 62.5066 13.1694 62.5066 13.1694 62.565C13.1694 62.6234 13.1694 62.6817 13.1114 62.7401C13.0534 62.8568 12.9374 62.9735 12.7633 62.9735C12.8213 62.9735 12.8213 62.9735 12.7633 62.9735ZM13.6916 63.207C13.5175 63.5572 13.1694 63.849 13.1694 64.3159C13.1694 64.3159 13.0534 64.3743 12.9954 64.3743C12.9374 64.3743 12.8213 64.2575 12.8793 64.2575C12.9954 63.7906 13.1694 63.4405 13.4595 63.0319C13.4595 62.9735 13.5755 63.0319 13.6916 63.0319L13.7496 63.0903C13.6916 63.1486 13.6916 63.1486 13.6916 63.207ZM17.1725 66.1252C17.1145 66.1835 17.0564 66.2419 16.9984 66.2419C16.9984 66.1835 17.0564 66.1251 17.1725 66.0668C17.3465 66.0084 17.4625 66.1835 17.4625 66.3586V66.417C17.3465 66.3002 17.2885 66.2419 17.1725 66.1252ZM18.6229 66.4753C18.6809 66.417 18.6809 66.417 18.6809 66.4753H18.6229ZM26.4549 72.6034C25.7587 72.2533 25.0045 71.9614 24.1923 71.7864C23.9022 71.6696 23.6702 71.4945 23.3221 71.2611C23.2641 71.2611 23.2641 71.2027 23.2061 71.2027C23.3221 71.2611 23.4961 71.2611 23.6122 71.2611C23.9603 71.3195 24.2503 71.3778 24.5404 71.4945C24.8305 71.5529 25.1786 71.6696 25.5267 71.8447C26.1068 71.5529 26.919 72.6034 27.4992 72.5451C27.2671 72.1949 28.1954 72.4867 28.7755 72.5451C28.7175 72.7202 28.7755 72.8953 28.7755 73.1871C27.9633 73.1871 27.2091 72.8953 26.4549 72.6034ZM37.3038 74.4711C37.4778 74.3543 37.5938 74.5878 37.8839 74.5294C37.8839 74.4711 37.7679 74.4711 37.7099 74.4711C37.7099 74.4127 37.9419 74.4127 37.9419 74.3543C37.8259 74.2376 37.4198 74.3543 37.1877 74.3543C37.5358 74.1209 38.4061 74.1209 38.6381 73.9458C38.7542 74.0625 38.6961 74.2376 38.6381 74.2376C38.7542 74.4127 38.8122 74.2376 38.9862 74.296C39.2183 74.2376 38.6961 74.2376 38.8122 74.0625C39.4503 74.0042 39.6244 74.0625 39.8564 73.8874C40.1465 73.9458 39.8564 73.9458 40.3786 73.8874C40.4946 74.2376 39.8564 74.0625 39.6824 74.1792C39.9725 74.4127 40.7267 73.8291 40.7847 74.1792C40.4946 74.1792 40.2626 74.2376 39.9725 74.296C39.6824 74.3543 39.3923 74.3543 39.1022 74.4127C38.5221 74.5878 37.8839 74.5878 37.3038 74.4711ZM37.4778 76.4554C37.4198 76.6305 37.6519 76.5138 37.8259 76.5138C37.5358 76.5721 37.0717 76.6305 36.5496 76.6305C36.0274 76.6305 35.4473 76.5721 34.9251 76.6305C35.5633 76.2803 36.5496 76.6305 37.4778 76.4554ZM34.6351 76.8056C35.1572 76.8639 35.2732 76.8639 35.7954 76.9223C35.2732 76.6889 36.8977 76.8056 37.0717 76.9223C36.6656 77.039 36.1435 77.039 35.6793 76.9807C35.2152 76.9807 34.7511 76.9223 34.461 77.039C34.403 76.8639 34.6351 76.8639 34.6351 76.8056ZM34.403 77.2141C34.461 77.039 34.6931 77.1558 34.8671 77.2141C34.8091 77.3892 34.403 77.2725 34.403 77.2141ZM40.4946 77.5059V77.3308C40.4366 77.3308 40.4366 77.3308 40.3786 77.3892C40.2045 77.4476 39.9725 77.4476 39.7404 77.5059C39.3343 77.5643 38.8702 77.6227 38.4061 77.6227C37.4778 77.681 36.5496 77.7394 35.6213 77.5643C35.5053 77.5643 35.5633 77.681 35.4473 77.681C35.2152 77.681 35.0412 77.6227 34.9251 77.5643C34.9251 77.3892 35.3893 77.5059 35.6793 77.5059C35.6793 77.4476 35.6793 77.3892 35.5633 77.3308C36.4335 77.3308 38.058 77.3308 39.3343 76.9807C39.6244 77.039 39.9145 77.039 40.0885 77.1558C40.3206 77.0974 40.0305 76.9807 40.0305 76.9223C40.2625 76.8639 40.4946 77.0974 40.5526 76.9223C40.8427 76.9223 40.6687 76.9807 40.6687 77.0974C41.1328 76.9807 41.4229 76.8639 41.7129 76.8056C41.7709 76.6305 41.4229 76.7472 41.2488 76.8056C41.4809 76.5721 42.119 76.5721 42.4091 76.6305C42.5251 76.8056 42.061 77.039 42.5832 76.9807C42.2351 77.2141 41.1328 77.039 40.9587 77.2725C41.6549 77.2725 42.8732 76.9223 43.2793 77.1558C42.4091 77.4476 41.5389 77.2725 40.4946 77.5059ZM44.6717 76.3387C44.6717 76.2219 44.5557 76.2803 44.5557 76.1636C44.9038 76.0469 44.8458 76.2219 45.1938 76.1052C45.0778 76.1636 44.7877 76.2219 44.6717 76.3387ZM47.0503 75.4049C45.948 75.5799 45.0778 75.8718 43.9755 76.0469C44.0335 76.1052 44.2656 75.9885 44.3236 76.0469C44.3236 76.2219 43.8015 76.2803 43.8015 76.1052C43.5694 76.2219 43.5694 76.2803 43.6855 76.4554C43.2793 76.3387 43.2213 76.2219 43.3374 76.1052C43.4534 75.9885 43.8595 75.9301 44.3816 75.8134C44.2656 75.755 44.0916 75.8134 43.9175 75.8134C43.8595 75.6967 44.3236 75.6967 44.3236 75.58C44.4396 75.58 44.4396 75.6967 44.4396 75.755C45.2519 75.4632 45.3099 75.4632 46.2381 75.1714C46.4122 75.3465 46.7022 75.0547 46.8763 75.1714C47.1084 75.0547 46.5862 75.1131 46.8183 74.9963C47.4564 74.8796 47.3984 74.9963 48.0366 74.7045C47.9786 74.5878 47.5145 74.938 47.5725 74.7045C47.9786 74.6461 48.2687 74.4711 48.5587 74.296C48.6167 74.4127 48.6167 74.4711 48.5587 74.5294C48.7908 74.4711 48.7908 74.3543 48.7328 74.2376C49.1389 74.0042 49.2549 74.1209 49.487 74.1792C49.1969 74.7629 47.5145 75.0547 47.0503 75.4049ZM55.1145 73.2454C55.1145 73.012 55.4625 72.9536 55.6946 72.7202C55.6946 72.8953 55.2305 73.0703 55.1145 73.2454ZM57.6671 72.7202C57.4931 73.0703 57.5511 72.6618 57.261 72.8369C57.261 72.7785 57.4351 72.6618 57.5511 72.6034C57.6091 72.6618 57.6091 72.7202 57.7251 72.6618C57.7251 72.7202 57.6671 72.7202 57.6671 72.7202ZM57.3771 71.9614L57.6671 71.7864L57.7251 71.9031C57.6091 71.9614 57.4351 72.0782 57.3771 71.9614ZM57.7251 71.6696C57.6671 71.5529 57.8992 71.3778 58.1312 71.2611L58.2473 71.3778C58.0152 71.4945 57.8412 71.6113 57.7251 71.6696ZM57.6091 71.4362C57.145 71.7864 56.6229 72.0782 56.3908 72.3116C56.4488 72.1365 56.8549 71.7864 57.319 71.4362C57.8412 71.086 58.3633 70.6775 58.7114 70.3857C58.5374 70.6775 58.0732 71.0276 57.6091 71.4362ZM61.032 70.6775C60.858 70.5607 60.858 70.5607 60.858 70.3273C61.09 70.3273 61.3801 70.444 61.032 70.6775ZM61.3221 70.2689C61.2641 70.2689 61.09 70.3857 61.09 70.2689C61.2061 70.2106 61.2641 70.2106 61.2641 70.1522C61.3221 70.0938 61.3801 70.2106 61.4961 70.0938C61.4961 70.1522 61.4961 70.2106 61.4961 70.2689C61.3801 70.3273 61.2061 70.3857 61.3221 70.2689ZM62.6564 69.5686C62.6564 69.5102 62.8305 69.3935 62.8885 69.2767C62.8305 69.2184 62.7145 69.3935 62.6564 69.4518C62.5404 69.4518 62.7725 69.16 62.5404 69.3351C62.5404 69.2184 62.9465 69.16 63.0625 69.16C62.8305 69.3935 62.9465 69.3935 62.6564 69.5686ZM64.3389 66.7088L64.4549 66.8255L64.1648 67.1757C63.9908 67.059 64.2809 66.8255 64.3389 66.7088ZM64.861 67.2924C64.919 67.059 64.745 67.234 64.5709 67.4675C64.5129 67.234 64.9771 67.059 65.2091 66.8839C65.2671 66.8839 64.919 67.1173 64.861 67.2924ZM65.1511 66.0084C65.0931 66.417 64.9771 66.8255 64.3389 67.1757C64.3969 66.8839 64.9771 66.5337 64.803 66.1835C65.3832 65.6582 65.7313 65.133 66.0793 64.8995C66.0213 65.3081 65.4992 65.8917 65.1511 66.0084ZM66.8335 64.0824C66.4855 64.4326 66.3114 64.5493 66.1954 64.8995L66.0213 64.7244C66.4274 64.3743 66.7175 63.7323 67.1236 63.3237C67.1236 63.6155 66.7175 63.7906 66.8335 64.0824ZM70.6626 58.0127C70.4885 58.0127 70.6045 57.7792 70.4305 57.7792C70.5465 57.6625 70.7206 57.1956 70.8366 57.3707C70.7206 57.1956 71.0687 56.7871 71.2427 56.4953C70.9526 57.0205 70.9526 57.6042 70.6626 58.0127ZM70.7206 59.6469C70.6626 59.5885 70.5465 59.6469 70.4885 59.7636C70.3725 59.7052 70.4885 59.5301 70.6626 59.2967C70.6626 59.4718 70.7786 59.2967 70.7786 59.4718C70.8946 59.2967 71.0106 58.9465 71.1267 59.1216C71.0106 59.1216 70.8946 59.4134 70.7206 59.6469ZM71.2427 58.5963C71.2427 58.3045 71.3587 58.2461 71.5328 58.0127C71.5908 58.3045 71.4167 58.3629 71.2427 58.5963ZM71.5908 55.0945C71.5328 54.9778 71.5908 54.8611 71.6488 54.6276C71.8229 54.6276 71.7068 54.9778 71.5908 55.0945ZM71.5328 53.7522C71.5328 53.5187 71.6488 53.402 71.7648 53.0518C71.8809 53.1102 71.6488 53.6355 71.5328 53.7522ZM71.9969 51.7679C72.1129 51.8846 71.8809 52.118 71.8809 52.4098C71.7068 52.4098 71.9969 52.0013 71.9969 51.7679ZM71.9969 53.3437C71.9389 52.9935 71.9969 52.8184 72.1129 52.2931C72.1709 52.4682 72.0549 52.9351 72.287 52.4682C72.403 52.5849 72.0549 52.9935 71.9969 53.3437ZM72.6931 49.2582C72.519 50.1921 72.577 50.4839 72.577 50.9508C72.519 51.1842 72.403 51.0091 72.345 51.1842C72.577 51.1259 72.403 51.7679 72.287 52.2348C72.1129 52.1764 72.0549 52.1764 72.0549 52.0597C72.1129 52.0013 72.229 51.6511 72.1709 51.5344C71.9969 51.7679 72.1129 51.2426 71.9969 51.1842C72.0549 51.0091 72.1129 51.0091 72.1709 51.1259C72.229 50.4255 72.577 49.6668 72.6351 48.9664C72.6931 48.9664 72.6931 49.1415 72.7511 49.0248C72.519 49.1415 72.8091 48.733 72.6931 48.733C72.6351 48.8497 72.577 48.7913 72.577 48.733C72.6351 48.4995 72.6931 48.3244 72.7511 48.091C72.9251 48.0326 72.6351 48.4995 72.8091 48.4995C72.8671 48.091 73.2152 47.5074 73.0412 47.3323C72.9251 47.7408 72.9251 47.9159 72.7511 48.091C72.7511 48.091 72.7511 48.091 72.7511 48.0326C72.8091 47.6824 72.9251 47.3323 72.9251 46.9237C72.9832 46.9237 73.0412 46.8654 73.0992 46.8654C73.2152 47.0405 73.2152 47.3323 73.1572 47.5657C73.0992 47.7992 72.9832 48.091 73.0412 48.3244C72.9251 48.5579 72.8671 48.4995 72.8091 48.5579C72.9251 48.733 72.7511 49.6084 72.6931 49.7835C72.5771 49.7835 72.8091 49.3166 72.6931 49.2582ZM72.6931 53.8689C72.8671 53.5771 72.7511 53.402 72.9251 53.2269C73.1572 53.1686 72.8671 54.044 72.6931 53.8689ZM72.9251 53.0518C73.1572 52.9351 73.2732 52.5266 73.5053 52.5266C73.3313 52.8768 73.1572 53.1686 72.9251 53.0518ZM75.1297 36.7686C75.1877 36.6518 75.1877 37.1771 75.2458 37.5273C75.0137 37.4689 75.0717 37.002 75.1297 36.7686Z" fill="white"/>
</g>
<path d="M49.4565 43.585C48.0155 46.5055 46.063 49.415 44.0665 52.0275C42.1705 54.4888 40.1455 56.8479 38 59.095C35.8545 56.8479 33.8295 54.4888 31.9335 52.0275C29.937 49.415 27.9845 46.5055 26.5435 43.585C25.086 40.6342 24.25 37.8705 24.25 35.5C24.25 31.8533 25.6987 28.3559 28.2773 25.7773C30.8559 23.1987 34.3533 21.75 38 21.75C41.6467 21.75 45.1441 23.1987 47.7227 25.7773C50.3013 28.3559 51.75 31.8533 51.75 35.5C51.75 37.8705 50.9113 40.6342 49.4565 43.585ZM38 63C38 63 54.5 47.3635 54.5 35.5C54.5 31.1239 52.7616 26.9271 49.6673 23.8327C46.5729 20.7384 42.3761 19 38 19C33.6239 19 29.4271 20.7384 26.3327 23.8327C23.2384 26.9271 21.5 31.1239 21.5 35.5C21.5 47.3635 38 63 38 63Z" fill="#EB8428"/>
<path d="M38 41C36.5413 41 35.1424 40.4205 34.1109 39.3891C33.0795 38.3576 32.5 36.9587 32.5 35.5C32.5 34.0413 33.0795 32.6424 34.1109 31.6109C35.1424 30.5795 36.5413 30 38 30C39.4587 30 40.8576 30.5795 41.8891 31.6109C42.9205 32.6424 43.5 34.0413 43.5 35.5C43.5 36.9587 42.9205 38.3576 41.8891 39.3891C40.8576 40.4205 39.4587 41 38 41ZM38 43.75C40.188 43.75 42.2865 42.8808 43.8336 41.3336C45.3808 39.7865 46.25 37.688 46.25 35.5C46.25 33.312 45.3808 31.2135 43.8336 29.6664C42.2865 28.1192 40.188 27.25 38 27.25C35.812 27.25 33.7135 28.1192 32.1664 29.6664C30.6192 31.2135 29.75 33.312 29.75 35.5C29.75 37.688 30.6192 39.7865 32.1664 41.3336C33.7135 42.8808 35.812 43.75 38 43.75Z" fill="#EB8428"/>
<defs>
<filter id="filter0_d_0_1" x="-9.96606" y="-1.21436" width="95.9661" height="93.9458" filterUnits="userSpaceOnUse" color-interpolation-filters="sRGB">
<feFlood flood-opacity="0" result="BackgroundImageFix"/>
<feColorMatrix in="SourceAlpha" type="matrix" values="0 0 0 0 0 0 0 0 0 0 0 0 0 0 0 0 0 0 127 0" result="hardAlpha"/>
<feOffset dy="4"/>
<feGaussianBlur stdDeviation="5"/>
<feComposite in2="hardAlpha" operator="out"/>
<feColorMatrix type="matrix" values="0 0 0 0 0 0 0 0 0 0 0 0 0 0 0 0 0 0 0.05 0"/>
<feBlend mode="normal" in2="BackgroundImageFix" result="effect1_dropShadow_0_1"/>
<feBlend mode="normal" in="SourceGraphic" in2="effect1_dropShadow_0_1" result="shape"/>
</filter>
</defs>
</svg>
